<svg width="753" height="886" fill="none" xmlns="http://www.w3.org/2000/svg"><path d="m100.461 616.024-99.46-49.89v45.151l97.75 50.943M72.574 601.917l-71.57-35.804v-90.215l71.57 35.761v90.258Z" stroke="#4D4D4D" stroke-miterlimit="10" stroke-linecap="round" stroke-linejoin="round"/><path d="m100.457 616.019-27.89-13.954v-90.214l27.89 13.91M74.246 486.25 1.01 450.62v-91.267l73.236 36.639v90.258Z" stroke="#4D4D4D" stroke-miterlimit="10" stroke-linecap="round" stroke-linejoin="round"/><path d="m100.457 499.443-26.224-13.076v-90.258l26.224 13.12M76.41 369.433 1.026 331.741v-90.214l75.384 37.691v90.215Z" stroke="#4D4D4D" stroke-miterlimit="10" stroke-linecap="round" stroke-linejoin="round"/><path d="m100.457 381.628-24.076-12.023v-90.258l24.076 12.023M312.237 689.518l73.236 36.287M605.002 852.313l146.734-73.408.264-403.674-146.998 76.952v400.13ZM385.449 539.942l-57.053-28.565v-94.865l57.053 28.565M368.418 436.561v94.821M246.539 723.085l66.219-33.128-.526-410.264-65.693 26.546v416.846ZM246.539 752.34v-29.249l66.219-33.128V719.8l-66.219 32.54Z" stroke="#4D4D4D" stroke-miterlimit="10" stroke-linecap="round" stroke-linejoin="round"/><path d="m100.463 650.774 146.646 71.961V305.889l-146.646-71.96v416.845ZM532.251 450.5l72.753 1.681v400.081l-72.753 2.106V450.5ZM751.746 807.681l-146.691 75.032v-30.451l146.691-73.014v28.433Z" stroke="#4D4D4D" stroke-miterlimit="10" stroke-linecap="round" stroke-linejoin="round"/><path d="m532.25 884.993 72.797-2.282V852.26l-72.797 2.281v30.452ZM385.449 684.779l-58.457-29.267v-89.38l58.457 29.267" stroke="#4D4D4D" stroke-miterlimit="10" stroke-linecap="round" stroke-linejoin="round"/><path d="m365.977 674.379-2.544-1.272v-87.143M649.569 328.091 752 375.229l-146.122 76.952L532.5 450.5l-146.066-72.781 63.764-29.223-137.087-68.802-65.693 26.547L1.881 183.776l206.42-71.083L518.74 264.698M385.559 779.973 532.25 854.04V450.5l-146.691-72.779v402.252ZM385.559 811.196 532.25 885v-30.452l-146.691-74.506v31.154ZM100.467 650.777v27.117l145.881 74.443.152-30.696M532.25 471.903 385.5 401.5M135.151 392.154v-88.678l74.771 37.428v88.679l-74.771-37.429ZM132.663 518.246v-88.678l74.771 37.428v88.679l-74.771-37.429ZM132.663 641.821v-88.679l74.771 37.428v88.679l-74.771-37.428ZM173.609 322.74v88.678M170.02 448.269v88.678M170.02 571.62v88.678" stroke="#4D4D4D" stroke-miterlimit="10" stroke-linecap="round" stroke-linejoin="round"/><path d="M419.218 525.684v-88.678l74.77 37.428v88.679l-74.77-37.429ZM416.671 651.797v-88.679l74.77 37.428v88.679l-74.77-37.428ZM416.671 775.386v-88.678l74.77 37.428v88.635l-74.77-37.385ZM457.66 456.263v88.678M454.062 581.84v88.634M454.062 705.188v88.679M312.761 719.8l72.798 37.417V725.68l-72.798-35.717V719.8ZM1.004 183.775v408.377M730.074 546.912v-85.87l-103.407 51.733v85.256M729.902 546.911 626.89 598.029M686.262 482.979v85.564M626.667 682.279v93.505l103.407-51.733v-92.89M729.902 631.16 626.89 682.279M686.262 652.836v91.706" stroke="#4D4D4D" stroke-miterlimit="10" stroke-linecap="round" stroke-linejoin="round"/><path d="M356 165.522v-30.126c18.307-45.138 33.93-87.287 46.836-126.482l27.477 15.861v150.596l19.36 11.175v33.047l-19.36-11.175v58.283l-31.145-17.967v-58.249L356 165.522Zm43.202-8.084V93.315c-5.23 16.404-11.616 34.099-19.088 53.119l19.088 11.004Z" fill="#2E2E2E" stroke="#4D4D4D" stroke-linecap="round" stroke-linejoin="round"/><path d="M430.5 208.5v58c8-2.167 25-6.8 29-8-2-9-2.667-19.333-2.5-24v-17l-7.5 2-19-11Z" fill="#2E2E2E" stroke="#4D4D4D"/><path d="M459.121 16.861h-.008l.008 55.463V16.861Zm-.008 241.959v-1.766Z" fill="#2E2E2E"/><path d="M459.113 258.82v-1.766m.008-240.193h-.008l.008 55.463V16.861Z" stroke="#4D4D4D" stroke-linecap="round" stroke-linejoin="round"/><path d="M402.832 8.948 431.6 1l27.476 15.861-28.767 7.948" fill="#2E2E2E"/><path d="M402.832 8.948 431.6 1l27.476 15.861-28.767 7.948" stroke="#4D4D4D" stroke-linecap="round" stroke-linejoin="round"/><path d="m456.975 184.575-7.268 2.004-19.359-11.174 26.627-7.337" fill="#2E2E2E"/><path d="m456.975 184.575-7.268 2.004-19.359-11.174 26.627-7.337" stroke="#4D4D4D" stroke-linecap="round" stroke-linejoin="round"/><path d="m456.975 217.622-7.268 2.004v-33.047l7.268-2.004" fill="#2E2E2E"/><path d="m456.975 217.622-7.268 2.004v-33.047l7.268-2.004M430.309 266.734l28.767-7.913M380.121 146.433l19.088-4.109" stroke="#4D4D4D" stroke-linecap="round" stroke-linejoin="round"/><path d="M540.834 142.052v141.222c0 14.911-3.431 25.032-10.224 30.364-6.826 5.333-16.404 4.45-28.733-2.683l-7.031-4.042c-25.235-14.57-37.869-38.583-37.869-72.071V94.299c0-18.137 3.09-30.126 9.238-35.968 6.181-5.842 16.268-4.687 30.296 3.396l5.875 3.397c14.027 8.083 23.945 18.578 29.719 31.417 5.842 12.872 8.729 28.02 8.729 45.511Zm-32.232 119.995V122.115c0-6.487-.713-11.479-2.106-14.978-1.392-3.498-3.974-6.351-7.71-8.49-3.566-2.038-6.045-2.072-7.438-.069-1.392 2.004-2.106 6.114-2.106 12.397v139.932c0 10.8 3.091 17.967 9.272 21.533 6.691 3.872 10.088.408 10.088-10.393Z" fill="#2E2E2E"/><path d="M508.602 262.047V122.115c0-6.487-.713-11.479-2.106-14.978-1.392-3.498-3.974-6.351-7.71-8.49-3.566-2.038-6.045-2.072-7.438-.069-1.392 2.004-2.106 6.114-2.106 12.397v139.932c0 10.8 3.091 17.967 9.272 21.533 6.691 3.872 10.088.408 10.088-10.393Z" fill="#2E2E2E"/><path d="M540.834 142.052v141.222c0 14.911-3.431 25.032-10.224 30.364-6.826 5.333-16.404 4.45-28.733-2.683l-7.031-4.042c-25.235-14.57-37.869-38.583-37.869-72.071V94.299c0-18.137 3.09-30.126 9.238-35.968 6.181-5.842 16.268-4.687 30.296 3.396l5.875 3.397c14.027 8.083 23.945 18.578 29.719 31.417 5.842 12.872 8.729 28.02 8.729 45.511Zm-32.232 119.995V122.115c0-6.487-.713-11.479-2.106-14.978-1.392-3.498-3.974-6.351-7.71-8.49-3.566-2.038-6.045-2.072-7.438-.069-1.392 2.004-2.106 6.114-2.106 12.397v139.932c0 10.8 3.091 17.967 9.272 21.533 6.691 3.872 10.088.408 10.088-10.393Z" stroke="#4D4D4D" stroke-linecap="round" stroke-linejoin="round"/><path d="M508.602 262.047V122.115c0-6.487-.713-11.479-2.106-14.978-1.392-3.498-3.974-6.351-7.71-8.49-3.566-2.038-6.045-2.072-7.438-.069-1.392 2.004-2.106 6.114-2.106 12.397v139.932c0 10.8 3.091 17.967 9.272 21.533 6.691 3.872 10.088.408 10.088-10.393Z" stroke="#4D4D4D" stroke-linecap="round" stroke-linejoin="round"/><path d="M569.598 193.406v-58.248c0-20.379-2.602-33.873-8.695-46.53-6.212-12.907-16.402-23.096-29.718-31.417l-5.876-3.43c-11.375-6.93-24.35-6.396-25.099-6.386h-.034s13.76-.542 25.133 6.386c6.876 4.062.148-.15 5.876 3.43 13.316 8.32 23.506 18.51 29.718 31.417 6.093 12.657 8.695 26.151 8.695 46.53v58.248Zm-11.514 113.202c.442-.271.883-.611 1.291-.917 4.619-3.634 7.676-9.442 9.17-17.457" fill="#2E2E2E"/><path d="M569.598 135.158v58.248-58.248Zm0 0c0-20.379-2.602-33.873-8.695-46.53-6.212-12.907-16.402-23.096-29.718-31.417m0 0-5.876-3.43m5.876 3.43c-5.728-3.58 1 .632-5.876-3.43m0 0c-11.375-6.93-24.35-6.396-25.099-6.386h-.034s13.76-.542 25.133 6.386Zm32.775 252.827c.442-.271.883-.611 1.291-.917 4.619-3.634 7.676-9.442 9.17-17.457" stroke="#4D4D4D" stroke-linecap="round" stroke-linejoin="round"/><path d="M466.211 58.331c8.898-6.453 24.318-10.902 33.964-10.97Z" fill="#2E2E2E"/><path d="M466.211 58.331c8.898-6.453 24.318-10.902 33.964-10.97" stroke="#4D4D4D" stroke-linecap="round" stroke-linejoin="round"/><path d="M524.945 316.491s23.334-2.105 34.44-10.8Z" fill="#2E2E2E"/><path d="M524.945 316.491s23.334-2.105 34.44-10.8" stroke="#4D4D4D" stroke-linecap="round" stroke-linejoin="round"/><path d="M548.68 276.787v-30.126c18.306-45.138 33.93-87.287 46.836-126.482l27.477 15.861v150.597l19.359 11.174v33.047l-19.359-11.174v58.282l-31.145-17.967v-58.282l-43.168-24.93Zm43.202-8.083V204.58c-5.231 16.404-11.616 34.099-19.088 53.119l19.088 11.005Z" fill="#2E2E2E" stroke="#4D4D4D" stroke-linecap="round" stroke-linejoin="round"/><path d="M651.793 370.052v-41.776 41.776Zm-27.477-257.787 27.477 15.861v150.597l19.36 11.174v33.047" fill="#2E2E2E"/><path d="m624.316 112.265 27.477 15.861v150.597l19.36 11.174v33.047m-19.36 47.108v-41.776 41.776ZM595.551 120.179l28.733-7.914M623.027 136.074l28.768-7.948M642.387 297.844l28.767-7.948M642.387 330.89l28.767-7.947" stroke="#4D4D4D" stroke-linecap="round" stroke-linejoin="round"/><path d="m671 290-28.5 8v33l28.5-8v-33Z" fill="#2E2E2E" stroke="#4D4D4D" stroke-linejoin="bevel"/><path d="m623.027 377.999 28.768-7.948M623.027 286.669l28.768-7.947" stroke="#4D4D4D" stroke-linecap="round" stroke-linejoin="round"/><path d="m591.912 252.399-14.435 3.974-4.653 1.291" fill="#2E2E2E"/><path d="m591.912 252.399-14.435 3.974-4.653 1.291" stroke="#4D4D4D" stroke-linecap="round" stroke-linejoin="round"/></svg>