<svg width="375" height="440" fill="none" xmlns="http://www.w3.org/2000/svg"><path d="M73.195 291.637 32.01 270.981v18.694l40.478 21.091M61.633 285.796l-29.637-14.824v-37.351l29.637 14.806v37.369Z" stroke="#4D4D4D" stroke-miterlimit="10" stroke-linecap="round" stroke-linejoin="round"/><path d="m73.176 291.635-11.55-5.777v-37.351l11.55 5.759M62.348 237.908 32.02 223.157V185.37l30.327 15.169v37.369Z" stroke="#4D4D4D" stroke-miterlimit="10" stroke-linecap="round" stroke-linejoin="round"/><path d="m73.176 243.371-10.86-5.413v-37.37l10.86 5.432M63.227 189.541 32.01 173.935v-37.351l31.217 15.606v37.351Z" stroke="#4D4D4D" stroke-miterlimit="10" stroke-linecap="round" stroke-linejoin="round"/><path d="m73.176 194.59-9.97-4.977v-37.369l9.97 4.977M160.892 322.065l30.327 15.024M282.128 389.467l60.763-30.393.109-167.131-60.872 31.86v165.664ZM191.211 260.139l-23.626-11.827v-39.276l23.626 11.826M184.156 217.335v39.258M133.684 335.963l27.421-13.716-.217-169.86-27.204 10.991v172.585ZM133.684 348.075v-12.11l27.421-13.715v12.353l-27.421 13.472Z" stroke="#4D4D4D" stroke-miterlimit="10" stroke-linecap="round" stroke-linejoin="round"/><path d="m73.2 306.025 60.726 29.794V163.234L73.199 133.44v172.585ZM252.002 223.105l30.127.696v165.644l-30.127.872V223.105ZM342.895 370.988l-60.745 31.066v-12.608l60.745-30.23v11.772Z" stroke="#4D4D4D" stroke-miterlimit="10" stroke-linecap="round" stroke-linejoin="round"/><path d="m252.003 402.997 30.145-.945v-12.608l-30.145.945v12.608ZM191.211 320.106l-24.207-12.118v-37.006l24.207 12.118" stroke="#4D4D4D" stroke-miterlimit="10" stroke-linecap="round" stroke-linejoin="round"/><path d="m183.145 315.8-1.053-.527v-36.079M300.583 172.426 343 191.942l-60.509 31.86-30.386-.696-60.486-30.133 26.404-12.099-56.767-28.485-27.204 10.99-101.677-50.703 85.479-29.43 128.553 62.934M191.255 359.516 252 390.181V223.106l-60.745-30.133v166.543ZM191.255 372.443 252 403v-12.608l-60.745-30.847v12.898ZM73.196 306.026v11.227l60.409 30.822.063-12.709M252 231.967l-60.769-29.149M87.537 198.95v-36.715l30.963 15.497v36.715L87.537 198.95ZM86.541 251.158v-36.715l30.963 15.496v36.715l-30.963-15.496ZM86.541 302.317v-36.715l30.963 15.496v36.716l-30.963-15.497ZM103.484 170.21v36.715M101.996 222.182v36.715M101.996 273.252v36.715" stroke="#4D4D4D" stroke-miterlimit="10" stroke-linecap="round" stroke-linejoin="round"/><path d="M205.182 254.236v-36.715l30.963 15.496v36.715l-30.963-15.496ZM204.147 306.45v-36.715l30.962 15.496v36.715l-30.962-15.496ZM204.147 357.619v-36.715l30.962 15.497v36.697l-30.962-15.479ZM221.105 225.492v36.715M219.617 277.485v36.697M219.617 328.553v36.715M161.109 334.603l30.145 15.491v-13.057l-30.145-14.787v12.353ZM32.012 112.674v169.079M333.918 263.023V227.47l-42.821 21.419v35.298M333.848 263.021l-42.658 21.165M315.777 236.553v35.426M291.097 319.068v38.714l42.821-21.419v-38.459M333.848 297.904l-42.658 21.164M315.777 306.878v37.969" stroke="#4D4D4D" stroke-miterlimit="10" stroke-linecap="round" stroke-linejoin="round"/><path d="M179.027 105.117V92.644c7.581-18.688 14.051-36.14 19.395-52.367l11.379 6.567v62.351l8.016 4.626v13.683l-8.016-4.627v24.131l-12.898-7.439v-24.116l-17.876-10.336Zm17.89-3.347V75.221c-2.166 6.792-4.81 14.118-7.904 21.993l7.904 4.556Z" fill="#2E2E2E" stroke="#4D4D4D" stroke-linecap="round" stroke-linejoin="round"/><path d="M209.879 122.91v24.013c3.313-.897 10.352-2.815 12.009-3.312-.828-3.726-1.104-8.005-1.035-9.937v-7.038l-3.106.828-7.868-4.554Z" fill="#2E2E2E" stroke="#4D4D4D"/><path d="M221.73 43.567h-.003l.003 22.963V43.567Zm-.003 100.177v-.731.731Z" fill="#2E2E2E"/><path d="M221.727 143.744v-.731m.003-99.446h-.003l.003 22.963V43.567Z" stroke="#4D4D4D" stroke-linecap="round" stroke-linejoin="round"/><path d="M198.422 40.29 210.335 37l11.378 6.567-11.913 3.29" fill="#2E2E2E"/><path d="M198.422 40.29 210.335 37l11.378 6.567-11.913 3.29" stroke="#4D4D4D" stroke-linecap="round" stroke-linejoin="round"/><path d="m220.839 113.005-3.01.829-8.017-4.626 11.027-3.038" fill="#2E2E2E"/><path d="m220.839 113.005-3.01.829-8.017-4.626 11.027-3.038" stroke="#4D4D4D" stroke-linecap="round" stroke-linejoin="round"/><path d="m220.842 126.687-3.01.83v-13.682l3.01-.83" fill="#2E2E2E"/><path d="m220.842 126.687-3.01.83v-13.682l3.01-.83M209.797 147.022l11.913-3.277M189.016 97.214l7.904-1.702" stroke="#4D4D4D" stroke-linecap="round" stroke-linejoin="round"/><path d="M255.565 95.4v58.469c0 6.173-1.42 10.363-4.233 12.571-2.827 2.208-6.793 1.842-11.899-1.111l-2.911-1.673c-10.45-6.033-15.682-15.975-15.682-29.84V75.628c0-7.51 1.28-12.473 3.825-14.892 2.56-2.418 6.737-1.94 12.546 1.407l2.433 1.406c5.809 3.346 9.916 7.692 12.307 13.007 2.419 5.33 3.614 11.601 3.614 18.843Zm-13.347 49.68V87.145c0-2.686-.295-4.753-.872-6.202-.577-1.448-1.646-2.63-3.193-3.515-1.477-.844-2.503-.858-3.08-.028s-.872 2.53-.872 5.132v57.936c0 4.471 1.28 7.438 3.84 8.915 2.77 1.603 4.177.169 4.177-4.303Z" fill="#2E2E2E"/><path d="M242.218 145.08V87.145c0-2.686-.295-4.753-.872-6.202-.577-1.448-1.646-2.63-3.193-3.515-1.477-.844-2.503-.858-3.08-.028s-.872 2.53-.872 5.132v57.936c0 4.471 1.28 7.438 3.84 8.915 2.77 1.603 4.177.169 4.177-4.303Z" fill="#2E2E2E"/><path d="M255.565 95.4v58.469c0 6.173-1.42 10.363-4.233 12.571-2.827 2.208-6.793 1.842-11.899-1.111l-2.911-1.673c-10.45-6.033-15.682-15.975-15.682-29.84V75.628c0-7.51 1.28-12.473 3.825-14.892 2.56-2.418 6.737-1.94 12.546 1.407l2.433 1.406c5.809 3.346 9.916 7.692 12.307 13.007 2.419 5.33 3.614 11.601 3.614 18.843Zm-13.347 49.68V87.145c0-2.686-.295-4.753-.872-6.202-.577-1.448-1.646-2.63-3.193-3.515-1.477-.844-2.503-.858-3.08-.028s-.872 2.53-.872 5.132v57.936c0 4.471 1.28 7.438 3.84 8.915 2.77 1.603 4.177.169 4.177-4.303Z" stroke="#4D4D4D" stroke-linecap="round" stroke-linejoin="round"/><path d="M242.218 145.08V87.145c0-2.686-.295-4.753-.872-6.202-.577-1.448-1.646-2.63-3.193-3.515-1.477-.844-2.503-.858-3.08-.028s-.872 2.53-.872 5.132v57.936c0 4.471 1.28 7.438 3.84 8.915 2.77 1.603 4.177.169 4.177-4.303Z" stroke="#4D4D4D" stroke-linecap="round" stroke-linejoin="round"/><path d="M267.474 116.661V92.545c0-8.437-1.077-14.024-3.6-19.265-2.573-5.344-6.792-9.562-12.307-13.007l-2.433-1.42c-4.71-2.869-10.083-2.648-10.393-2.644h-.014s5.698-.225 10.407 2.644c2.847 1.682.062-.062 2.433 1.42 5.515 3.445 9.734 7.663 12.307 13.007 2.523 5.24 3.6 10.828 3.6 19.265v24.116Zm-4.767 46.869c.182-.113.365-.253.534-.38 1.913-1.504 3.179-3.909 3.797-7.228" fill="#2E2E2E"/><path d="M267.474 92.545v24.116-24.116Zm0 0c0-8.437-1.077-14.024-3.6-19.265-2.573-5.344-6.792-9.562-12.307-13.007m0 0-2.433-1.42m2.433 1.42c-2.371-1.482.414.262-2.433-1.42m0 0c-4.71-2.869-10.083-2.648-10.393-2.644h-.014s5.698-.225 10.407 2.644Zm13.573 104.677c.182-.113.365-.253.534-.38 1.913-1.504 3.179-3.909 3.797-7.228" stroke="#4D4D4D" stroke-linecap="round" stroke-linejoin="round"/><path d="M224.664 60.738c3.685-2.672 10.07-4.515 14.065-4.543l-14.065 4.543Z" fill="#2E2E2E"/><path d="M224.664 60.738c3.685-2.672 10.07-4.515 14.065-4.543" stroke="#4D4D4D" stroke-linecap="round" stroke-linejoin="round"/><path d="M248.984 167.624s9.663-.872 14.262-4.474l-14.262 4.474Z" fill="#2E2E2E"/><path d="M248.984 167.624s9.663-.872 14.262-4.474" stroke="#4D4D4D" stroke-linecap="round" stroke-linejoin="round"/><path d="M258.816 151.184v-12.473c7.581-18.688 14.051-36.139 19.395-52.367l11.379 6.567v62.351l8.016 4.626v13.683l-8.016-4.627v24.13l-12.898-7.438v-24.131l-17.876-10.321Zm17.89-3.347v-26.549c-2.165 6.792-4.81 14.118-7.904 21.993l7.904 4.556Z" fill="#2E2E2E" stroke="#4D4D4D" stroke-linecap="round" stroke-linejoin="round"/><path d="M301.511 189.797v-17.296 17.296Zm-11.378-106.73 11.378 6.567v62.351l8.017 4.626v13.682" fill="#2E2E2E"/><path d="m290.133 83.067 11.378 6.567v62.351l8.017 4.626v13.682m-8.017 19.504v-17.296 17.296ZM278.23 86.344l11.899-3.277M289.602 92.925l11.912-3.291M297.621 159.903l11.913-3.292M297.621 173.585l11.913-3.292" stroke="#4D4D4D" stroke-linecap="round" stroke-linejoin="round"/><path d="m309.47 156.654-11.802 3.312v13.663l11.802-3.312v-13.663Z" fill="#2E2E2E" stroke="#4D4D4D" stroke-linejoin="bevel"/><path d="m289.602 193.089 11.912-3.292M289.602 155.276l11.912-3.292" stroke="#4D4D4D" stroke-linecap="round" stroke-linejoin="round"/><path d="m276.717 141.085-5.978 1.646-1.927.535" fill="#2E2E2E"/><path d="m276.717 141.085-5.978 1.646-1.927.535" stroke="#4D4D4D" stroke-linecap="round" stroke-linejoin="round"/></svg>