<svg width="375" height="440" viewBox="0 0 375 440" fill="none" xmlns="http://www.w3.org/2000/svg">
<path d="M73.1953 291.637L32.0087 270.981V289.675L72.4871 310.766" stroke="#4D4D4D" stroke-miterlimit="10" stroke-linecap="round" stroke-linejoin="round"/>
<path d="M61.6328 285.796L31.9959 270.972V233.621L61.6328 248.427V285.796Z" stroke="#4D4D4D" stroke-miterlimit="10" stroke-linecap="round" stroke-linejoin="round"/>
<path d="M73.1758 291.635L61.6261 285.858V248.507L73.1758 254.266" stroke="#4D4D4D" stroke-miterlimit="10" stroke-linecap="round" stroke-linejoin="round"/>
<path d="M62.3477 237.908L32.0207 223.157V185.37L62.3477 200.539V237.908Z" stroke="#4D4D4D" stroke-miterlimit="10" stroke-linecap="round" stroke-linejoin="round"/>
<path d="M73.1758 243.371L62.3162 237.958V200.588L73.1758 206.02" stroke="#4D4D4D" stroke-miterlimit="10" stroke-linecap="round" stroke-linejoin="round"/>
<path d="M63.2266 189.541L32.0097 173.935V136.584L63.2266 152.19V189.541Z" stroke="#4D4D4D" stroke-miterlimit="10" stroke-linecap="round" stroke-linejoin="round"/>
<path d="M73.1758 194.59L63.206 189.613V152.244L73.1758 157.221" stroke="#4D4D4D" stroke-miterlimit="10" stroke-linecap="round" stroke-linejoin="round"/>
<path d="M160.892 322.065L191.219 337.089" stroke="#4D4D4D" stroke-miterlimit="10" stroke-linecap="round" stroke-linejoin="round"/>
<path d="M282.128 389.467L342.891 359.074L343 191.943L282.128 223.803V389.467Z" stroke="#4D4D4D" stroke-miterlimit="10" stroke-linecap="round" stroke-linejoin="round"/>
<path d="M191.211 260.139L167.585 248.312V209.036L191.211 220.862" stroke="#4D4D4D" stroke-miterlimit="10" stroke-linecap="round" stroke-linejoin="round"/>
<path d="M184.156 217.335V256.593" stroke="#4D4D4D" stroke-miterlimit="10" stroke-linecap="round" stroke-linejoin="round"/>
<path d="M133.684 335.963L161.105 322.247L160.888 152.387L133.684 163.378V335.963Z" stroke="#4D4D4D" stroke-miterlimit="10" stroke-linecap="round" stroke-linejoin="round"/>
<path d="M133.684 348.075V335.965L161.105 322.25V334.603L133.684 348.075Z" stroke="#4D4D4D" stroke-miterlimit="10" stroke-linecap="round" stroke-linejoin="round"/>
<path d="M73.1992 306.025L133.926 335.819V163.234L73.1992 133.44V306.025Z" stroke="#4D4D4D" stroke-miterlimit="10" stroke-linecap="round" stroke-linejoin="round"/>
<path d="M252.002 223.105L282.129 223.801V389.445L252.002 390.317V223.105Z" stroke="#4D4D4D" stroke-miterlimit="10" stroke-linecap="round" stroke-linejoin="round"/>
<path d="M342.895 370.988L282.15 402.054V389.446L342.895 359.216V370.988Z" stroke="#4D4D4D" stroke-miterlimit="10" stroke-linecap="round" stroke-linejoin="round"/>
<path d="M252.003 402.997L282.148 402.052V389.444L252.003 390.389V402.997Z" stroke="#4D4D4D" stroke-miterlimit="10" stroke-linecap="round" stroke-linejoin="round"/>
<path d="M191.211 320.106L167.004 307.988V270.982L191.211 283.1" stroke="#4D4D4D" stroke-miterlimit="10" stroke-linecap="round" stroke-linejoin="round"/>
<path d="M183.145 315.8L182.092 315.273V279.194" stroke="#4D4D4D" stroke-miterlimit="10" stroke-linecap="round" stroke-linejoin="round"/>
<path d="M300.583 172.426L343 191.942L282.491 223.802L252.105 223.106L191.619 192.973L218.023 180.874L161.256 152.389L134.052 163.379L32.3751 112.676L117.854 83.2456L246.407 146.18" stroke="#4D4D4D" stroke-miterlimit="10" stroke-linecap="round" stroke-linejoin="round"/>
<path d="M191.255 359.516L252 390.181L252 223.106L191.255 192.973V359.516Z" stroke="#4D4D4D" stroke-miterlimit="10" stroke-linecap="round" stroke-linejoin="round"/>
<path d="M191.255 372.443L252 403V390.392L191.255 359.545V372.443Z" stroke="#4D4D4D" stroke-miterlimit="10" stroke-linecap="round" stroke-linejoin="round"/>
<path d="M73.1956 306.026V317.253L133.605 348.075L133.668 335.366" stroke="#4D4D4D" stroke-miterlimit="10" stroke-linecap="round" stroke-linejoin="round"/>
<path d="M252 231.967L191.231 202.818" stroke="#4D4D4D" stroke-miterlimit="10" stroke-linecap="round" stroke-linejoin="round"/>
<path d="M87.5374 198.95V162.235L118.5 177.732V214.447L87.5374 198.95Z" stroke="#4D4D4D" stroke-miterlimit="10" stroke-linecap="round" stroke-linejoin="round"/>
<path d="M86.5414 251.158V214.443L117.504 229.939V266.654L86.5414 251.158Z" stroke="#4D4D4D" stroke-miterlimit="10" stroke-linecap="round" stroke-linejoin="round"/>
<path d="M86.5414 302.317V265.602L117.504 281.098V317.814L86.5414 302.317Z" stroke="#4D4D4D" stroke-miterlimit="10" stroke-linecap="round" stroke-linejoin="round"/>
<path d="M103.484 170.21V206.925" stroke="#4D4D4D" stroke-miterlimit="10" stroke-linecap="round" stroke-linejoin="round"/>
<path d="M101.996 222.182V258.897" stroke="#4D4D4D" stroke-miterlimit="10" stroke-linecap="round" stroke-linejoin="round"/>
<path d="M101.996 273.252V309.967" stroke="#4D4D4D" stroke-miterlimit="10" stroke-linecap="round" stroke-linejoin="round"/>
<path d="M205.182 254.236V217.521L236.145 233.017V269.732L205.182 254.236Z" stroke="#4D4D4D" stroke-miterlimit="10" stroke-linecap="round" stroke-linejoin="round"/>
<path d="M204.147 306.45V269.735L235.109 285.231V321.946L204.147 306.45Z" stroke="#4D4D4D" stroke-miterlimit="10" stroke-linecap="round" stroke-linejoin="round"/>
<path d="M204.147 357.619V320.904L235.109 336.401V373.098L204.147 357.619Z" stroke="#4D4D4D" stroke-miterlimit="10" stroke-linecap="round" stroke-linejoin="round"/>
<path d="M221.105 225.492V262.207" stroke="#4D4D4D" stroke-miterlimit="10" stroke-linecap="round" stroke-linejoin="round"/>
<path d="M219.617 277.485V314.182" stroke="#4D4D4D" stroke-miterlimit="10" stroke-linecap="round" stroke-linejoin="round"/>
<path d="M219.617 328.553V365.268" stroke="#4D4D4D" stroke-miterlimit="10" stroke-linecap="round" stroke-linejoin="round"/>
<path d="M161.109 334.603L191.254 350.094V337.037L161.109 322.25V334.603Z" stroke="#4D4D4D" stroke-miterlimit="10" stroke-linecap="round" stroke-linejoin="round"/>
<path d="M32.0117 112.674V281.753" stroke="#4D4D4D" stroke-miterlimit="10" stroke-linecap="round" stroke-linejoin="round"/>
<path d="M333.918 263.023V227.47L291.097 248.889V284.187" stroke="#4D4D4D" stroke-miterlimit="10" stroke-linecap="round" stroke-linejoin="round"/>
<path d="M333.848 263.021L291.19 284.186" stroke="#4D4D4D" stroke-miterlimit="10" stroke-linecap="round" stroke-linejoin="round"/>
<path d="M315.777 236.553V271.979" stroke="#4D4D4D" stroke-miterlimit="10" stroke-linecap="round" stroke-linejoin="round"/>
<path d="M291.097 319.068V357.782L333.918 336.363V297.904" stroke="#4D4D4D" stroke-miterlimit="10" stroke-linecap="round" stroke-linejoin="round"/>
<path d="M333.848 297.904L291.19 319.068" stroke="#4D4D4D" stroke-miterlimit="10" stroke-linecap="round" stroke-linejoin="round"/>
<path d="M315.777 306.878V344.847" stroke="#4D4D4D" stroke-miterlimit="10" stroke-linecap="round" stroke-linejoin="round"/>
<path d="M179.027 105.117V92.6441C186.608 73.9557 193.078 56.5048 198.422 40.2773L209.801 46.8443V109.195L217.817 113.821V127.504L209.801 122.877V147.008L196.903 139.569V115.453L179.027 105.117ZM196.917 101.77V75.2213C194.751 82.0132 192.107 89.3395 189.013 97.2142L196.917 101.77Z" fill="#2E2E2E" stroke="#4D4D4D" stroke-linecap="round" stroke-linejoin="round"/>
<path d="M209.879 122.91V146.923C213.192 146.026 220.231 144.108 221.888 143.611C221.06 139.885 220.784 135.606 220.853 133.674V126.636L217.747 127.464L209.879 122.91Z" fill="#2E2E2E" stroke="#4D4D4D"/>
<path d="M221.73 43.567L221.727 43.5669L221.73 66.5302V43.567ZM221.727 143.744V143.013V143.744Z" fill="#2E2E2E"/>
<path d="M221.727 143.744V143.013M221.73 43.567L221.727 43.5669L221.73 66.5302V43.567Z" stroke="#4D4D4D" stroke-linecap="round" stroke-linejoin="round"/>
<path d="M198.422 40.2905L210.335 37L221.713 43.5669L209.8 46.8574" fill="#2E2E2E"/>
<path d="M198.422 40.2905L210.335 37L221.713 43.5669L209.8 46.8574" stroke="#4D4D4D" stroke-linecap="round" stroke-linejoin="round"/>
<path d="M220.839 113.005L217.829 113.834L209.812 109.208L220.839 106.17" fill="#2E2E2E"/>
<path d="M220.839 113.005L217.829 113.834L209.812 109.208L220.839 106.17" stroke="#4D4D4D" stroke-linecap="round" stroke-linejoin="round"/>
<path d="M220.842 126.687L217.832 127.517V113.835L220.842 113.005" fill="#2E2E2E"/>
<path d="M220.842 126.687L217.832 127.517V113.835L220.842 113.005" stroke="#4D4D4D" stroke-linecap="round" stroke-linejoin="round"/>
<path d="M209.797 147.022L221.71 143.745" stroke="#4D4D4D" stroke-linecap="round" stroke-linejoin="round"/>
<path d="M189.016 97.2138L196.92 95.5117" stroke="#4D4D4D" stroke-linecap="round" stroke-linejoin="round"/>
<path d="M255.565 95.3991V153.869C255.565 160.042 254.145 164.232 251.332 166.44C248.505 168.648 244.539 168.282 239.433 165.329L236.522 163.656C226.072 157.623 220.84 147.681 220.84 133.816V75.628C220.84 68.1189 222.12 63.155 224.665 60.7364C227.225 58.3177 231.402 58.7958 237.211 62.1426L239.644 63.5488C245.453 66.8955 249.56 71.2407 251.951 76.5561C254.37 81.8856 255.565 88.1572 255.565 95.3991ZM242.218 145.08V87.1447C242.218 84.4589 241.923 82.3918 241.346 80.9434C240.769 79.495 239.7 78.3138 238.153 77.4279C236.676 76.5842 235.65 76.5701 235.073 77.3998C234.496 78.2294 234.201 79.9309 234.201 82.5324V140.468C234.201 144.939 235.481 147.906 238.041 149.383C240.811 150.986 242.218 149.552 242.218 145.08Z" fill="#2E2E2E"/>
<path d="M242.218 145.08V87.1447C242.218 84.4589 241.923 82.3918 241.346 80.9434C240.769 79.495 239.7 78.3138 238.153 77.4279C236.676 76.5842 235.65 76.5701 235.073 77.3998C234.496 78.2294 234.201 79.9309 234.201 82.5324V140.468C234.201 144.939 235.481 147.906 238.041 149.383C240.811 150.986 242.218 149.552 242.218 145.08Z" fill="#2E2E2E"/>
<path d="M255.565 95.3991V153.869C255.565 160.042 254.145 164.232 251.332 166.44C248.505 168.648 244.539 168.282 239.433 165.329L236.522 163.656C226.072 157.623 220.84 147.681 220.84 133.816V75.628C220.84 68.1189 222.12 63.155 224.665 60.7364C227.225 58.3177 231.402 58.7958 237.211 62.1426L239.644 63.5488C245.453 66.8955 249.56 71.2407 251.951 76.5561C254.37 81.8856 255.565 88.1572 255.565 95.3991ZM242.218 145.08V87.1447C242.218 84.4589 241.923 82.3918 241.346 80.9434C240.769 79.495 239.7 78.3138 238.153 77.4279C236.676 76.5842 235.65 76.5701 235.073 77.3998C234.496 78.2294 234.201 79.9309 234.201 82.5324V140.468C234.201 144.939 235.481 147.906 238.041 149.383C240.811 150.986 242.218 149.552 242.218 145.08Z" stroke="#4D4D4D" stroke-linecap="round" stroke-linejoin="round"/>
<path d="M242.218 145.08V87.1447C242.218 84.4589 241.923 82.3918 241.346 80.9434C240.769 79.495 239.7 78.3138 238.153 77.4279C236.676 76.5842 235.65 76.5701 235.073 77.3998C234.496 78.2294 234.201 79.9309 234.201 82.5324V140.468C234.201 144.939 235.481 147.906 238.041 149.383C240.811 150.986 242.218 149.552 242.218 145.08Z" stroke="#4D4D4D" stroke-linecap="round" stroke-linejoin="round"/>
<path d="M267.474 116.661V92.5449C267.474 84.1077 266.397 78.5206 263.874 73.2802C261.301 67.9365 257.082 63.718 251.567 60.2729L249.134 58.8527C244.424 55.984 239.051 56.2049 238.741 56.209H238.727C238.727 56.209 244.425 55.9845 249.134 58.8527C251.981 60.5346 249.196 58.7911 251.567 60.2729C257.082 63.718 261.301 67.9365 263.874 73.2802C266.397 78.5206 267.474 84.1077 267.474 92.5449C267.474 98.5154 267.474 116.661 267.474 116.661ZM262.707 163.53C262.889 163.417 263.072 163.277 263.241 163.15C265.154 161.646 266.42 159.241 267.038 155.922" fill="#2E2E2E"/>
<path d="M267.474 92.5449V116.661C267.474 116.661 267.474 98.5154 267.474 92.5449ZM267.474 92.5449C267.474 84.1077 266.397 78.5206 263.874 73.2802C261.301 67.9365 257.082 63.718 251.567 60.2729M251.567 60.2729L249.134 58.8527M251.567 60.2729C249.196 58.7911 251.981 60.5346 249.134 58.8527M249.134 58.8527C244.424 55.984 239.051 56.2049 238.741 56.209H238.727C238.727 56.209 244.425 55.9845 249.134 58.8527ZM262.707 163.53C262.889 163.417 263.072 163.277 263.241 163.15C265.154 161.646 266.42 159.241 267.038 155.922" stroke="#4D4D4D" stroke-linecap="round" stroke-linejoin="round"/>
<path d="M224.664 60.7384C228.349 58.0657 234.734 56.223 238.729 56.1948L224.664 60.7384Z" fill="#2E2E2E"/>
<path d="M224.664 60.7384C228.349 58.0657 234.734 56.223 238.729 56.1948" stroke="#4D4D4D" stroke-linecap="round" stroke-linejoin="round"/>
<path d="M248.984 167.624C248.984 167.624 258.647 166.752 263.246 163.15L248.984 167.624Z" fill="#2E2E2E"/>
<path d="M248.984 167.624C248.984 167.624 258.647 166.752 263.246 163.15" stroke="#4D4D4D" stroke-linecap="round" stroke-linejoin="round"/>
<path d="M258.816 151.184V138.711C266.397 120.023 272.867 102.572 278.211 86.3442L289.59 92.9112V155.262L297.606 159.888V173.571L289.59 168.944V193.074L276.692 185.636V161.505L258.816 151.184ZM276.706 147.837V121.288C274.541 128.08 271.896 135.406 268.802 143.281L276.706 147.837Z" fill="#2E2E2E" stroke="#4D4D4D" stroke-linecap="round" stroke-linejoin="round"/>
<path d="M301.511 189.797V172.501V189.797ZM290.133 83.0669L301.511 89.6338V151.985L309.528 156.611V170.293" fill="#2E2E2E"/>
<path d="M290.133 83.0669L301.511 89.6338V151.985L309.528 156.611V170.293M301.511 189.797V172.501V189.797Z" stroke="#4D4D4D" stroke-linecap="round" stroke-linejoin="round"/>
<path d="M278.23 86.3445L290.129 83.0669" stroke="#4D4D4D" stroke-linecap="round" stroke-linejoin="round"/>
<path d="M289.602 92.9254L301.514 89.6338" stroke="#4D4D4D" stroke-linecap="round" stroke-linejoin="round"/>
<path d="M297.621 159.903L309.534 156.611" stroke="#4D4D4D" stroke-linecap="round" stroke-linejoin="round"/>
<path d="M297.621 173.585L309.534 170.293" stroke="#4D4D4D" stroke-linecap="round" stroke-linejoin="round"/>
<path d="M309.47 156.654L297.668 159.966V173.629L309.47 170.317V156.654Z" fill="#2E2E2E" stroke="#4D4D4D" stroke-linejoin="bevel"/>
<path d="M289.602 193.089L301.514 189.797" stroke="#4D4D4D" stroke-linecap="round" stroke-linejoin="round"/>
<path d="M289.602 155.276L301.514 151.984" stroke="#4D4D4D" stroke-linecap="round" stroke-linejoin="round"/>
<path d="M276.717 141.085L270.739 142.731L268.812 143.266" fill="#2E2E2E"/>
<path d="M276.717 141.085L270.739 142.731L268.812 143.266" stroke="#4D4D4D" stroke-linecap="round" stroke-linejoin="round"/>
</svg>
