<svg width="753" height="629" viewBox="0 0 753 629" fill="none" xmlns="http://www.w3.org/2000/svg">
<path d="M100.461 616.024L1.00069 566.134V611.285L98.7506 662.228" stroke="#4D4D4D" stroke-miterlimit="10" stroke-linecap="round" stroke-linejoin="round"/>
<path d="M72.5742 601.917L1.00494 566.113V475.898L72.5742 511.659V601.917Z" stroke="#4D4D4D" stroke-miterlimit="10" stroke-linecap="round" stroke-linejoin="round"/>
<path d="M100.457 616.019L72.5661 602.065V511.851L100.457 525.761" stroke="#4D4D4D" stroke-miterlimit="10" stroke-linecap="round" stroke-linejoin="round"/>
<path d="M74.2461 486.25L1.01041 450.62V359.353L74.2461 395.992V486.25Z" stroke="#4D4D4D" stroke-miterlimit="10" stroke-linecap="round" stroke-linejoin="round"/>
<path d="M100.457 499.443L74.2325 486.367V396.109L100.457 409.229" stroke="#4D4D4D" stroke-miterlimit="10" stroke-linecap="round" stroke-linejoin="round"/>
<path d="M76.4102 369.433L1.02564 331.741V241.527L76.4102 279.218V369.433Z" stroke="#4D4D4D" stroke-miterlimit="10" stroke-linecap="round" stroke-linejoin="round"/>
<path d="M100.457 381.628L76.3813 369.605V279.347L100.457 291.37" stroke="#4D4D4D" stroke-miterlimit="10" stroke-linecap="round" stroke-linejoin="round"/>
<path d="M605.002 852.313L751.736 778.905L752 375.231L605.002 452.183V852.313Z" stroke="#4D4D4D" stroke-miterlimit="10" stroke-linecap="round" stroke-linejoin="round"/>
<path d="M385.449 539.942L328.396 511.377V416.512L385.449 445.077" stroke="#4D4D4D" stroke-miterlimit="10" stroke-linecap="round" stroke-linejoin="round"/>
<path d="M368.418 436.561V531.382" stroke="#4D4D4D" stroke-miterlimit="10" stroke-linecap="round" stroke-linejoin="round"/>
<path d="M246.539 723.085L312.758 689.957L312.232 279.693L246.539 306.239V723.085Z" stroke="#4D4D4D" stroke-miterlimit="10" stroke-linecap="round" stroke-linejoin="round"/>
<path d="M100.463 650.774L247.109 722.735V305.889L100.463 233.929V650.774Z" stroke="#4D4D4D" stroke-miterlimit="10" stroke-linecap="round" stroke-linejoin="round"/>
<path d="M532.251 450.5L605.004 452.181V852.262L532.251 854.368V450.5Z" stroke="#4D4D4D" stroke-miterlimit="10" stroke-linecap="round" stroke-linejoin="round"/>
<path d="M385.449 684.779L326.992 655.512V566.132L385.449 595.399" stroke="#4D4D4D" stroke-miterlimit="10" stroke-linecap="round" stroke-linejoin="round"/>
<path d="M365.977 674.379L363.433 673.107V585.964" stroke="#4D4D4D" stroke-miterlimit="10" stroke-linecap="round" stroke-linejoin="round"/>
<path d="M649.569 328.091L752 375.229L605.878 452.181L532.5 450.5L386.434 377.719L450.198 348.496L313.111 279.694L247.418 306.241L1.88141 183.776L208.301 112.693L518.74 264.698" stroke="#4D4D4D" stroke-miterlimit="10" stroke-linecap="round" stroke-linejoin="round"/>
<path d="M385.559 779.973L532.25 854.04L532.25 450.5L385.559 377.721V779.973Z" stroke="#4D4D4D" stroke-miterlimit="10" stroke-linecap="round" stroke-linejoin="round"/>
<path d="M532.25 471.903L385.5 401.5" stroke="#4D4D4D" stroke-miterlimit="10" stroke-linecap="round" stroke-linejoin="round"/>
<path d="M135.151 392.154V303.476L209.922 340.904V429.583L135.151 392.154Z" stroke="#4D4D4D" stroke-miterlimit="10" stroke-linecap="round" stroke-linejoin="round"/>
<path d="M132.663 518.246V429.568L207.434 466.996V555.675L132.663 518.246Z" stroke="#4D4D4D" stroke-miterlimit="10" stroke-linecap="round" stroke-linejoin="round"/>
<path d="M132.663 641.821V553.142L207.434 590.57V679.249L132.663 641.821Z" stroke="#4D4D4D" stroke-miterlimit="10" stroke-linecap="round" stroke-linejoin="round"/>
<path d="M173.609 322.74V411.418" stroke="#4D4D4D" stroke-miterlimit="10" stroke-linecap="round" stroke-linejoin="round"/>
<path d="M170.02 448.269V536.947" stroke="#4D4D4D" stroke-miterlimit="10" stroke-linecap="round" stroke-linejoin="round"/>
<path d="M170.02 571.62V660.298" stroke="#4D4D4D" stroke-miterlimit="10" stroke-linecap="round" stroke-linejoin="round"/>
<path d="M419.218 525.684V437.006L493.988 474.434V563.113L419.218 525.684Z" stroke="#4D4D4D" stroke-miterlimit="10" stroke-linecap="round" stroke-linejoin="round"/>
<path d="M416.671 651.797V563.118L491.441 600.546V689.225L416.671 651.797Z" stroke="#4D4D4D" stroke-miterlimit="10" stroke-linecap="round" stroke-linejoin="round"/>
<path d="M457.66 456.263V544.941" stroke="#4D4D4D" stroke-miterlimit="10" stroke-linecap="round" stroke-linejoin="round"/>
<path d="M454.062 581.84V670.474" stroke="#4D4D4D" stroke-miterlimit="10" stroke-linecap="round" stroke-linejoin="round"/>
<path d="M1.00391 183.775V592.152" stroke="#4D4D4D" stroke-miterlimit="10" stroke-linecap="round" stroke-linejoin="round"/>
<path d="M730.074 546.912V461.042L626.667 512.775V598.031" stroke="#4D4D4D" stroke-miterlimit="10" stroke-linecap="round" stroke-linejoin="round"/>
<path d="M729.902 546.911L626.89 598.029" stroke="#4D4D4D" stroke-miterlimit="10" stroke-linecap="round" stroke-linejoin="round"/>
<path d="M686.262 482.979V568.543" stroke="#4D4D4D" stroke-miterlimit="10" stroke-linecap="round" stroke-linejoin="round"/>
<path d="M356 165.522V135.396C374.307 90.2578 389.93 48.1085 402.836 8.91406L430.313 24.7752V175.371L449.673 186.546V219.593L430.313 208.418V266.701L399.168 248.734V190.485L356 165.522ZM399.202 157.438V93.3145C393.972 109.719 387.586 127.414 380.114 146.434L399.202 157.438Z" fill="#2E2E2E" stroke="#4D4D4D" stroke-linecap="round" stroke-linejoin="round"/>
<path d="M430.5 208.5V266.5C438.5 264.333 455.5 259.7 459.5 258.5C457.5 249.5 456.833 239.167 457 234.5V217.5L449.5 219.5L430.5 208.5Z" fill="#2E2E2E" stroke="#4D4D4D"/>
<path d="M459.121 16.8611L459.113 16.8608L459.121 72.3243V16.8611ZM459.113 258.82V257.054V258.82Z" fill="#2E2E2E"/>
<path d="M459.113 258.82V257.054M459.121 16.8611L459.113 16.8608L459.121 72.3243V16.8611Z" stroke="#4D4D4D" stroke-linecap="round" stroke-linejoin="round"/>
<path d="M402.832 8.94757L431.6 1L459.076 16.8612L430.309 24.8087" fill="#2E2E2E"/>
<path d="M402.832 8.94757L431.6 1L459.076 16.8612L430.309 24.8087" stroke="#4D4D4D" stroke-linecap="round" stroke-linejoin="round"/>
<path d="M456.975 184.575L449.707 186.579L430.348 175.405L456.975 168.068" fill="#2E2E2E"/>
<path d="M456.975 184.575L449.707 186.579L430.348 175.405L456.975 168.068" stroke="#4D4D4D" stroke-linecap="round" stroke-linejoin="round"/>
<path d="M456.975 217.622L449.707 219.626V186.579L456.975 184.575" fill="#2E2E2E"/>
<path d="M456.975 217.622L449.707 219.626V186.579L456.975 184.575" stroke="#4D4D4D" stroke-linecap="round" stroke-linejoin="round"/>
<path d="M430.309 266.734L459.076 258.821" stroke="#4D4D4D" stroke-linecap="round" stroke-linejoin="round"/>
<path d="M380.121 146.433L399.209 142.324" stroke="#4D4D4D" stroke-linecap="round" stroke-linejoin="round"/>
<path d="M540.834 142.052V283.274C540.834 298.185 537.403 308.306 530.61 313.638C523.784 318.971 514.206 318.088 501.877 310.955L494.846 306.913C469.611 292.343 456.977 268.33 456.977 234.842V94.299C456.977 76.1622 460.067 64.1729 466.215 58.3311C472.396 52.4893 482.483 53.6441 496.511 61.7275L502.386 65.1239C516.413 73.2074 526.331 83.7022 532.105 96.5406C537.947 109.413 540.834 124.561 540.834 142.052ZM508.602 262.047V122.115C508.602 115.628 507.889 110.636 506.496 107.137C505.104 103.639 502.522 100.786 498.786 98.6464C495.22 96.6085 492.741 96.5746 491.348 98.5784C489.956 100.582 489.242 104.692 489.242 110.975V250.907C489.242 261.707 492.333 268.874 498.514 272.44C505.205 276.312 508.602 272.848 508.602 262.047Z" fill="#2E2E2E"/>
<path d="M508.602 262.047V122.115C508.602 115.628 507.889 110.636 506.496 107.137C505.104 103.639 502.522 100.786 498.786 98.6464C495.22 96.6085 492.741 96.5746 491.348 98.5784C489.956 100.582 489.242 104.692 489.242 110.975V250.907C489.242 261.707 492.333 268.874 498.514 272.44C505.205 276.312 508.602 272.848 508.602 262.047Z" fill="#2E2E2E"/>
<path d="M540.834 142.052V283.274C540.834 298.185 537.403 308.306 530.61 313.638C523.784 318.971 514.206 318.088 501.877 310.955L494.846 306.913C469.611 292.343 456.977 268.33 456.977 234.842V94.299C456.977 76.1622 460.067 64.1729 466.215 58.3311C472.396 52.4893 482.483 53.6441 496.511 61.7275L502.386 65.1239C516.413 73.2074 526.331 83.7022 532.105 96.5406C537.947 109.413 540.834 124.561 540.834 142.052ZM508.602 262.047V122.115C508.602 115.628 507.889 110.636 506.496 107.137C505.104 103.639 502.522 100.786 498.786 98.6464C495.22 96.6085 492.741 96.5746 491.348 98.5784C489.956 100.582 489.242 104.692 489.242 110.975V250.907C489.242 261.707 492.333 268.874 498.514 272.44C505.205 276.312 508.602 272.848 508.602 262.047Z" stroke="#4D4D4D" stroke-linecap="round" stroke-linejoin="round"/>
<path d="M508.602 262.047V122.115C508.602 115.628 507.889 110.636 506.496 107.137C505.104 103.639 502.522 100.786 498.786 98.6464C495.22 96.6085 492.741 96.5746 491.348 98.5784C489.956 100.582 489.242 104.692 489.242 110.975V250.907C489.242 261.707 492.333 268.874 498.514 272.44C505.205 276.312 508.602 272.848 508.602 262.047Z" stroke="#4D4D4D" stroke-linecap="round" stroke-linejoin="round"/>
<path d="M569.598 193.406V135.158C569.598 114.779 566.996 101.285 560.903 88.6276C554.691 75.7208 544.501 65.5319 531.185 57.211L525.309 53.7806C513.934 46.8518 500.959 47.3854 500.21 47.3954H500.176C500.176 47.3954 513.936 46.853 525.309 53.7806C532.185 57.8429 525.457 53.6318 531.185 57.211C544.501 65.5319 554.691 75.7208 560.903 88.6276C566.996 101.285 569.598 114.779 569.598 135.158C569.598 149.578 569.598 193.406 569.598 193.406ZM558.084 306.608C558.526 306.337 558.967 305.997 559.375 305.691C563.994 302.057 567.051 296.249 568.545 288.234" fill="#2E2E2E"/>
<path d="M569.598 135.158V193.406C569.598 193.406 569.598 149.578 569.598 135.158ZM569.598 135.158C569.598 114.779 566.996 101.285 560.903 88.6276C554.691 75.7208 544.501 65.5319 531.185 57.211M531.185 57.211L525.309 53.7806M531.185 57.211C525.457 53.6318 532.185 57.8429 525.309 53.7806M525.309 53.7806C513.934 46.8518 500.959 47.3854 500.21 47.3954H500.176C500.176 47.3954 513.936 46.853 525.309 53.7806ZM558.084 306.608C558.526 306.337 558.967 305.997 559.375 305.691C563.994 302.057 567.051 296.249 568.545 288.234" stroke="#4D4D4D" stroke-linecap="round" stroke-linejoin="round"/>
<path d="M466.211 58.3312C475.109 51.878 490.529 47.4288 500.175 47.3608L466.211 58.3312Z" fill="#2E2E2E"/>
<path d="M466.211 58.3312C475.109 51.878 490.529 47.4288 500.175 47.3608" stroke="#4D4D4D" stroke-linecap="round" stroke-linejoin="round"/>
<path d="M524.945 316.491C524.945 316.491 548.279 314.386 559.385 305.691L524.945 316.491Z" fill="#2E2E2E"/>
<path d="M524.945 316.491C524.945 316.491 548.279 314.386 559.385 305.691" stroke="#4D4D4D" stroke-linecap="round" stroke-linejoin="round"/>
<path d="M548.68 276.787V246.661C566.986 201.523 582.61 159.374 595.516 120.179L622.993 136.04V286.637L642.352 297.811V330.858L622.993 319.684V377.966L591.848 359.999V301.717L548.68 276.787ZM591.882 268.704V204.58C586.651 220.984 580.266 238.679 572.794 257.699L591.882 268.704Z" fill="#2E2E2E" stroke="#4D4D4D" stroke-linecap="round" stroke-linejoin="round"/>
<path d="M651.793 370.052V328.276V370.052ZM624.316 112.265L651.793 128.126V278.723L671.153 289.897V322.944" fill="#2E2E2E"/>
<path d="M624.316 112.265L651.793 128.126V278.723L671.153 289.897V322.944M651.793 370.052V328.276V370.052Z" stroke="#4D4D4D" stroke-linecap="round" stroke-linejoin="round"/>
<path d="M595.551 120.179L624.284 112.265" stroke="#4D4D4D" stroke-linecap="round" stroke-linejoin="round"/>
<path d="M623.027 136.074L651.795 128.126" stroke="#4D4D4D" stroke-linecap="round" stroke-linejoin="round"/>
<path d="M642.387 297.844L671.154 289.896" stroke="#4D4D4D" stroke-linecap="round" stroke-linejoin="round"/>
<path d="M642.387 330.89L671.154 322.943" stroke="#4D4D4D" stroke-linecap="round" stroke-linejoin="round"/>
<path d="M671 290L642.5 298V331L671 323V290Z" fill="#2E2E2E" stroke="#4D4D4D" stroke-linejoin="bevel"/>
<path d="M623.027 377.999L651.795 370.051" stroke="#4D4D4D" stroke-linecap="round" stroke-linejoin="round"/>
<path d="M623.027 286.669L651.795 278.722" stroke="#4D4D4D" stroke-linecap="round" stroke-linejoin="round"/>
<path d="M591.912 252.399L577.477 256.373L572.824 257.664" fill="#2E2E2E"/>
<path d="M591.912 252.399L577.477 256.373L572.824 257.664" stroke="#4D4D4D" stroke-linecap="round" stroke-linejoin="round"/>
</svg>
