<svg width="24" height="24" viewBox="0 0 24 24" fill="none" xmlns="http://www.w3.org/2000/svg">
<path d="M13 7.93521C10.8982 7.38775 8.81861 7.82962 7.5 8.99979C5.94887 10.3763 5.5 12.4998 5 14.5002C4.41804 16.8286 3.16667 18.1667 2 19C3.5 19.5 7.7751 21 11 21C13 21 15 20.0001 16 19C17 17.9999 18 16.5 18 14C18 13.5457 17.934 13.0997 17.8169 12.6694M13 7.93521C13.5021 8.066 14.0055 8.25324 14.5 8.5005C15.7274 9.11417 17.2897 10.732 17.8169 12.6694M13 7.93521L19 4L22 7L17.8169 12.6694" stroke="white" stroke-width="1.5" stroke-linejoin="bevel"/>
</svg>
