<svg id="Слой_1" data-name="Слой 1" xmlns="http://www.w3.org/2000/svg" viewBox="0 0 17.5 21.5"><defs><style>.cls-1{fill:none;}.cls-2{fill:#fff;}</style></defs><title>cleaning-2</title><polygon class="cls-1" points="1.5 20 16 20 1.5 19.95 1.5 20"/><path class="cls-1" d="M10.75,8L10,7.25V1.5H1.5V20L16,20V8H10.75Z"/><polygon class="cls-1" points="11.5 2.56 11.5 6.5 15.44 6.5 11.5 2.56"/><polygon class="cls-1" points="11.5 2.56 11.5 6.5 15.44 6.5 11.5 2.56"/><path class="cls-2" d="M17.28,6.22l-6-6A0.75,0.75,0,0,0,10.75,0h-10L0,0.75v20L0.75,21.5h16l0.75-.75v-14ZM11.5,2.56L15.44,6.5H11.5V2.56ZM16,20L1.5,20V1.5H10V7.25L10.75,8H16V20Z"/><polygon class="cls-2" points="4.75 10.5 4 10.5 4 12 4.75 12 12.75 12 13.5 12 13.5 10.5 12.75 10.5 4.75 10.5"/><polygon class="cls-2" points="4.75 14.5 4 14.5 4 16 4.75 16 12.75 16 13.5 16 13.5 14.5 12.75 14.5 4.75 14.5"/><polygon class="cls-2" points="5.75 6.5 4.75 6.5 4 6.5 4 8 4.75 8 5.75 8 6.75 8 7.5 8 7.5 6.5 6.75 6.5 5.75 6.5"/></svg>