<svg id="Слой_1" data-name="Слой 1" xmlns="http://www.w3.org/2000/svg" viewBox="0 0 17.5 21.5"><defs><style>.cls-1{fill:none;}.cls-2{fill:#fff;}</style></defs><title>cleaning-2</title><path class="cls-1" d="M13.25,8.5V2.75H4.75V2.8c0,0.43,0,.93,0,1.2V20c0,0.27,0,.76,0,1.2v0.05h14.5V9.25H14Z" transform="translate(-3.25 -1.25)"/><polygon class="cls-1" points="11.5 2.56 11.5 6.5 15.44 6.5 11.5 2.56"/><polygon class="cls-1" points="11.5 2.56 11.5 6.5 15.44 6.5 11.5 2.56"/><path class="cls-1" d="M13.25,8.5V2.75H4.75V2.8c0,0.43,0,.93,0,1.2V20c0,0.27,0,.76,0,1.2v0.05h14.5V9.25H14Z" transform="translate(-3.25 -1.25)"/><path class="cls-2" d="M20.53,7.47l-6-6h0A0.75,0.75,0,0,0,14,1.25H4L3.25,2h0V2.8c0,0.43,0,.93,0,1.2V20c0,0.27,0,.77,0,1.2V22h0L4,22.75H20L20.75,22h0V8ZM14.75,3.81l3.94,3.94H14.75V3.81ZM19.25,20H4.75V21.2c0-.43,0-0.93,0-1.2V4c0-.27,0-0.77,0-1.2V2.75h8.5V8.5L14,9.25h5.25V20Z" transform="translate(-3.25 -1.25)"/><polygon class="cls-2" points="4.5 10.75 3.75 10.75 3.75 12.25 4.5 12.25 12.5 12.25 13.25 12.25 13.25 10.75 12.5 10.75 4.5 10.75"/><polygon class="cls-2" points="4.5 14.75 3.75 14.75 3.75 16.25 4.5 16.25 12.5 16.25 13.25 16.25 13.25 14.75 12.5 14.75 4.5 14.75"/><polygon class="cls-2" points="5.5 6.75 4.5 6.75 3.75 6.75 3.75 8.25 4.5 8.25 5.5 8.25 6.5 8.25 7.25 8.25 7.25 6.75 6.5 6.75 5.5 6.75"/></svg>