<svg width="24" height="24" viewBox="0 0 24 24" fill="none" xmlns="http://www.w3.org/2000/svg">
<path fill-rule="evenodd" clip-rule="evenodd" d="M4.80147 1.25003L6.00079 1.25H14H14.0003C14.2072 1.25009 14.3945 1.33393 14.5301 1.46944L14.5307 1.46969L20.5303 7.46969L20.75 8V8.5V20V20.0031V20.0063V20.0094V20.0126V20.0158V20.019V20.0223V20.0255V20.0288V20.0321V20.0355V20.0388V20.0422V20.0456V20.049V20.0524V20.0559V20.0593V20.0628V20.0663V20.0698V20.0734V20.077V20.0805V20.0841V20.0878V20.0914V20.0951V20.0987V20.1024V20.1061V20.1099V20.1136V20.1174V20.1212V20.125V20.1288V20.1326V20.1365V20.1404V20.1443V20.1482V20.1521V20.156V20.16V20.164V20.168V20.172V20.176V20.18V20.1841V20.1882V20.1922V20.1963V20.2005V20.2046V20.2088V20.2129V20.2171V20.2213V20.2255V20.2297V20.234V20.2382V20.2425V20.2468V20.2511V20.2554V20.2597V20.2641V20.2684V20.2728V20.2772V20.2816V20.286V20.2904V20.2948V20.2993V20.3038V20.3082V20.3127V20.3172V20.3217V20.3263V20.3308V20.3354V20.3399V20.3445V20.3491V20.3537V20.3583V20.3629V20.3676V20.3722V20.3769V20.3815V20.3862V20.3909V20.3956V20.4003V20.4051V20.4098V20.4145V20.4193V20.4241V20.4288V20.4336V20.4384V20.4432V20.448V20.4529V20.4577V20.4625V20.4674V20.4723V20.4771V20.482V20.4869V20.4918V20.4967V20.5016V20.5066V20.5115V20.5164V20.5214V20.5263V20.5313V20.5363V20.5413V20.5462V20.5512V20.5562V20.5613V20.5663V20.5713V20.5763V20.5814V20.5864V20.5915V20.5965V20.6016V20.6067V20.6117V20.6168V20.6219V20.627V20.6321V20.6372V20.6423V20.6475V20.6526V20.6577V20.6628V20.668V20.6731V20.6783V20.6834V20.6886V20.6937V20.6989V20.7041V20.7093V20.7144V20.7196V20.7248V20.73V20.7352V20.7404V20.7456V20.7508V20.756V20.7612V20.7664V20.7716V20.7769V20.7821V20.7873V20.7925V20.7978V20.803V20.8082V20.8135V20.8187V20.8239V20.8292V20.8344V20.8397V20.8449V20.8502V20.8554V20.8607V20.8659V20.8712V20.8764V20.8817V20.8869V20.8922V20.8974V20.9027V20.9079V20.9132V20.9184V20.9237V20.9289V20.9342V20.9394V20.9447V20.95V20.9552V20.9604V20.9657V20.9709V20.9762V20.9814V20.9867V20.9919V20.9971V21.0024V21.0076V21.0129V21.0181V21.0233V21.0285V21.0338V21.039V21.0442V21.0494V21.0546V21.0598V21.065V21.0702V21.0754V21.0806V21.0858V21.091V21.0962V21.1014V21.1066V21.1117V21.1169V21.1221V21.1272V21.1324V21.1375V21.1427V21.1478V21.1529V21.1581V21.1632V21.1683V21.1734V21.1785V21.1836V21.1887V21.1938V21.1989V21.204V21.2091V21.2141V21.2192V21.2242V21.2293V21.2343V21.2394V21.2444V21.2494V21.2544V21.2594V21.2644V21.2694V21.2744V21.2794V21.2843V21.2893V21.2943V21.2992V21.3041V21.3091V21.314V21.3189V21.3238V21.3287V21.3336V21.3384V21.3433V21.3482V21.353V21.3579V21.3627V21.3675V21.3723V21.3771V21.3819V21.3867V21.3914V21.3962V21.401V21.4057V21.4104V21.4151V21.4198V21.4245V21.4292V21.4339V21.4386V21.4432V21.4478V21.4525V21.4571V21.4617V21.4663V21.4709V21.4754V21.48V21.4845V21.4891V21.4936V21.4981V21.5026V21.507V21.5115V21.516V21.5204V21.5248V21.5293V21.5337V21.538V21.5424V21.5468V21.5511V21.5554V21.5598V21.5641V21.5684V21.5726V21.5769V21.5811V21.5854V21.5896V21.5938V21.598V21.6021V21.6063V21.6104V21.6146V21.6187V21.6228V21.6268V21.6309V21.6349V21.639V21.643V21.647V21.6509V21.6549V21.6589V21.6628V21.6667V21.6706V21.6745V21.6783V21.6822V21.686V21.6898V21.6936V21.6974V21.7011V21.7049V21.7086V21.7123V21.716V21.7196V21.7233V21.7269V21.7305V21.7341V21.7376V21.7412V21.7447V21.7482V21.7517V21.7552V21.7587V21.7621V21.7655V21.7689V21.7723V21.7756V21.779V21.7823V21.7856V21.7888V21.7921V21.7953V21.7985V21.8017V21.8049V21.808V21.8111V21.8143V21.8173V21.8204V21.8234V21.8264V21.8294V21.8324V21.8354V21.8383V21.8412V21.8441V21.8469V21.8498V21.8526V21.8554V21.8581V21.8609V21.8636V21.8663V21.869V21.8716V21.8743V21.8769V21.8794V21.882V21.8845V21.887V21.8895V21.892V21.8944V21.8968V21.8992V21.9016V21.9039V21.9062V21.9085V21.9107V21.913V21.9152V21.9174V21.9195V21.9216V21.9237V21.9258V21.9279V21.9299V21.9319V21.9339V21.9358V21.9377V21.9396V21.9415V21.9433V21.9451V21.9469V21.9487V21.9504V21.9521V21.9538V21.9554V21.957V21.9586V21.9602V21.9617V21.9632V21.9647V21.9662V21.9676V21.969V21.9703V21.9717V21.973V21.9742V21.9755V21.9767V21.9779V21.979V21.9802V21.9813V21.9823V21.9834V21.9844V21.9853V21.9863V21.9872V21.9881V21.9889V21.9898V21.9906V21.9913V21.9921V21.9928V21.9934V21.9941V21.9947V21.9952V21.9958V21.9963V21.9968V21.9972V21.9976V21.998V21.9983V21.9987V21.9989V21.9992V21.9994V21.9996V21.9997V21.9998V21.9999V22L20 22.75H19.9999H19.9998H19.9997H19.9996H19.9994H19.9992H19.9989H19.9986H19.9983H19.998H19.9976H19.9972H19.9968H19.9963H19.9958H19.9952H19.9947H19.9941H19.9934H19.9928H19.9921H19.9913H19.9906H19.9898H19.9889H19.9881H19.9872H19.9863H19.9853H19.9844H19.9834H19.9823H19.9813H19.9802H19.979H19.9779H19.9767H19.9755H19.9742H19.973H19.9717H19.9703H19.969H19.9676H19.9662H19.9647H19.9632H19.9617H19.9602H19.9586H19.9571H19.9554H19.9538H19.9521H19.9504H19.9487H19.9469H19.9451H19.9433H19.9415H19.9396H19.9377H19.9358H19.9339H19.9319H19.9299H19.9279H19.9258H19.9238H19.9216H19.9195H19.9174H19.9152H19.913H19.9107H19.9085H19.9062H19.9039H19.9016H19.8992H19.8968H19.8944H19.892H19.8895H19.887H19.8845H19.882H19.8794H19.8769H19.8743H19.8716H19.869H19.8663H19.8636H19.8609H19.8581H19.8554H19.8526H19.8498H19.8469H19.8441H19.8412H19.8383H19.8354H19.8324H19.8294H19.8265H19.8234H19.8204H19.8173H19.8143H19.8112H19.808H19.8049H19.8017H19.7985H19.7953H19.7921H19.7888H19.7856H19.7823H19.779H19.7756H19.7723H19.7689H19.7655H19.7621H19.7587H19.7552H19.7517H19.7483H19.7447H19.7412H19.7377H19.7341H19.7305H19.7269H19.7233H19.7196H19.716H19.7123H19.7086H19.7049H19.7011H19.6974H19.6936H19.6898H19.686H19.6822H19.6783H19.6745H19.6706H19.6667H19.6628H19.6589H19.6549H19.651H19.647H19.643H19.639H19.635H19.6309H19.6268H19.6228H19.6187H19.6146H19.6104H19.6063H19.6022H19.598H19.5938H19.5896H19.5854H19.5812H19.5769H19.5727H19.5684H19.5641H19.5598H19.5555H19.5511H19.5468H19.5424H19.5381H19.5337H19.5293H19.5249H19.5204H19.516H19.5115H19.5071H19.5026H19.4981H19.4936H19.4891H19.4846H19.48H19.4755H19.4709H19.4663H19.4617H19.4571H19.4525H19.4479H19.4432H19.4386H19.4339H19.4292H19.4246H19.4199H19.4152H19.4104H19.4057H19.401H19.3962H19.3915H19.3867H19.3819H19.3771H19.3723H19.3675H19.3627H19.3579H19.3531H19.3482H19.3433H19.3385H19.3336H19.3287H19.3238H19.3189H19.314H19.3091H19.3042H19.2992H19.2943H19.2893H19.2844H19.2794H19.2744H19.2695H19.2645H19.2595H19.2545H19.2495H19.2444H19.2394H19.2344H19.2293H19.2243H19.2192H19.2142H19.2091H19.204H19.199H19.1939H19.1888H19.1837H19.1786H19.1735H19.1684H19.1632H19.1581H19.153H19.1479H19.1427H19.1376H19.1324H19.1273H19.1221H19.1169H19.1118H19.1066H19.1014H19.0962H19.0911H19.0859H19.0807H19.0755H19.0703H19.0651H19.0599H19.0547H19.0495H19.0442H19.039H19.0338H19.0286H19.0234H19.0181H19.0129H19.0077H19.0024H18.9972H18.992H18.9867H18.9815H18.9762H18.971H18.9658H18.9605H18.9553H18.95H18.9448H18.9395H18.9343H18.929H18.9238H18.9185H18.9132H18.908H18.9027H18.8975H18.8922H18.887H18.8817H18.8765H18.8712H18.866H18.8607H18.8555H18.8502H18.845H18.8397H18.8345H18.8293H18.824H18.8188H18.8135H18.8083H18.8031H18.7978H18.7926H18.7874H18.7822H18.7769H18.7717H18.7665H18.7613H18.7561H18.7509H18.7457H18.7405H18.7353H18.7301H18.7249H18.7197H18.7145H18.7093H18.7042H18.699H18.6938H18.6887H18.6835H18.6783H18.6732H18.6681H18.6629H18.6578H18.6527H18.6475H18.6424H18.6373H18.6322H18.6271H18.622H18.6169H18.6118H18.6067H18.6017H18.5966H18.5915H18.5865H18.5815H18.5764H18.5714H18.5664H18.5613H18.5563H18.5513H18.5463H18.5413H18.5364H18.5314H18.5264H18.5215H18.5165H18.5116H18.5066H18.5017H18.4968H18.4919H18.487H18.4821H18.4772H18.4724H18.4675H18.4626H18.4578H18.453H18.4481H18.4433H18.4385H18.4337H18.4289H18.4241H18.4194H18.4146H18.4099H18.4051H18.4004H18.3957H18.391H18.3863H18.3816H18.377H18.3723H18.3677H18.363H18.3584H18.3538H18.3492H18.3446H18.34H18.3355H18.3309H18.3264H18.3218H18.3173H18.3128H18.3083H18.3039H18.2994H18.2949H18.2905H18.2861H18.2817H18.2773H18.2729H18.2685H18.2642H18.2598H18.2555H18.2512H18.2469H18.2426H18.2383H18.2341H18.2298H18.2256H18.2214H18.2172H18.213H18.2089H18.2047H18.2006H18.1965H18.1923H18.1883H18.1842H18.1801H18.1761H18.1721H18.1681H18.1641H18.1601H18.1561H18.1522H18.1483H18.1444H18.1405H18.1366H18.1327H18.1289H18.1251H18.1213H18.1175H18.1137H18.11H18.1063H18.1025H18.0988H18.0952H18.0915H18.0879H18.0842H18.0806H18.0771H18.0735H18.07H18.0664H18.0629H18.0594H18.056H18.0525H18.0491H18.0457H18.0423H18.0389H18.0356H18.0322H18.0289H18.0257H18.0224H18.0191H18.0159H18.0127H18.0095H18.0064H18.0032H18.0001H6.00079H5.99767H5.99453H5.99137H5.98819H5.98499H5.98176H5.97852H5.97525H5.97197H5.96866H5.96533H5.96198H5.95862H5.95523H5.95182H5.94839H5.94494H5.94148H5.93799H5.93448H5.93096H5.92741H5.92385H5.92027H5.91667H5.91305H5.90941H5.90575H5.90207H5.89838H5.89467H5.89094H5.88719H5.88342H5.87964H5.87583H5.87201H5.86818H5.86432H5.86045H5.85656H5.85265H5.84873H5.84479H5.84083H5.83686H5.83287H5.82886H5.82484H5.8208H5.81675H5.81268H5.80859H5.80449H5.80037H5.79624H5.79209H5.78792H5.78374H5.77955H5.77534H5.77111H5.76687H5.76262H5.75835H5.75407H5.74977H5.74546H5.74113H5.73679H5.73243H5.72807H5.72368H5.71929H5.71488H5.71046H5.70602H5.70157H5.69711H5.69264H5.68815H5.68365H5.67914H5.67461H5.67007H5.66552H5.66096H5.65638H5.6518H5.6472H5.64259H5.63797H5.63333H5.62869H5.62403H5.61936H5.61468H5.60999H5.60529H5.60058H5.59586H5.59113H5.58638H5.58163H5.57686H5.57209H5.56731H5.56251H5.55771H5.55289H5.54807H5.54324H5.53839H5.53354H5.52868H5.52381H5.51893H5.51404H5.50915H5.50424H5.49933H5.4944H5.48947H5.48453H5.47959H5.47463H5.46967H5.4647H5.45972H5.45473H5.44974H5.44474H5.43973H5.43471H5.42969H5.42466H5.41962H5.41458H5.40953H5.40447H5.39941H5.39434H5.38927H5.38419H5.3791H5.37401H5.36891H5.3638H5.35869H5.35358H5.34846H5.34333H5.3382H5.33306H5.32792H5.32277H5.31762H5.31247H5.30731H5.30214H5.29698H5.2918H5.28663H5.28145H5.27626H5.27107H5.26588H5.26069H5.25549H5.25029H5.24508H5.23987H5.23466H5.22945H5.22423H5.21901H5.21379H5.20857H5.20334H5.19811H5.19288H5.18765H5.18241H5.17718H5.17194H5.1667H5.16146H5.15621H5.15097H5.14573H5.14048H5.13523H5.12998H5.12474H5.11949H5.11424H5.10899H5.10374H5.09849H5.09324H5.08799H5.08274H5.07749H5.07224H5.06699H5.06174H5.05649H5.05124H5.046H5.04075H5.03551H5.03026H5.02502H5.01978H5.01454H5.00931H5.00407H4.99884H4.99361H4.98838H4.98315H4.97793H4.97271H4.96749H4.96227H4.95705H4.95184H4.94663H4.94143H4.93623H4.93103H4.92583H4.92064H4.91545H4.91027H4.90508H4.89991H4.89473H4.88956H4.8844H4.87924H4.87408H4.86893H4.86379H4.85864H4.85351H4.84837H4.84325H4.83813H4.83301H4.8279H4.82279H4.81769H4.8126H4.80751H4.80243H4.79735H4.79228H4.78722H4.78216H4.77711H4.77207H4.76703H4.762H4.75697H4.75196H4.74695H4.74195H4.73695H4.73196H4.72698H4.72201H4.71705H4.71209H4.70714H4.7022H4.69727H4.69234H4.68743H4.68252H4.67762H4.67273H4.66785H4.66298H4.65812H4.65327H4.64842H4.64359H4.63876H4.63395H4.62914H4.62434H4.61956H4.61478H4.61002H4.60526H4.60052H4.59578H4.59106H4.58634H4.58164H4.57695H4.57227H4.5676H4.56294H4.55829H4.55366H4.54903H4.54442H4.53982H4.53523H4.53066H4.52609H4.52154H4.517H4.51247H4.50796H4.50345H4.49896H4.49449H4.49002H4.48557H4.48113H4.47671H4.4723H4.4679H4.46352H4.45915H4.45479H4.45045H4.44612H4.44181H4.43751H4.43322H4.42895H4.42469H4.42045H4.41622H4.41201H4.40781H4.40363H4.39946H4.39531H4.39117H4.38705H4.38295H4.37886H4.37479H4.37073H4.36669H4.36266H4.35865H4.35466H4.35068H4.34672H4.34278H4.33886H4.33495H4.33106H4.32718H4.32332H4.31948H4.31566H4.31185H4.30807H4.3043H4.30055H4.29681H4.2931H4.2894H4.28572H4.28206H4.27842H4.27479H4.27119H4.2676H4.26404H4.26049H4.25696H4.25345H4.24996H4.24649H4.24304H4.23961H4.2362H4.23281H4.22944H4.22609H4.22276H4.21945H4.21616H4.21289H4.20964H4.20641H4.2032H4.20002H4.19685H4.19371H4.19059H4.18749H4.18441H4.18135H4.17832H4.1753H4.17231H4.16934H4.16639H4.16347H4.16057H4.15769H4.15483H4.15199H4.14918H4.14639H4.14363H4.14089H4.13817H4.13547H4.1328H4.13015H4.12752H4.12492H4.12235H4.11979H4.11726H4.11476H4.11228H4.10982H4.10739H4.10498H4.1026H4.10024H4.09791H4.0956H4.09332H4.09107H4.08884H4.08663H4.08445H4.0823H4.08017H4.07807H4.07599H4.07394H4.07192H4.06992H4.06795H4.066H4.06409H4.06219H4.06033H4.05849H4.05669H4.0549H4.05315H4.05142H4.04972H4.04805H4.0464H4.04479H4.0432H4.04164H4.04011H4.0386H4.03713H4.03568H4.03426H4.03288H4.03151H4.03018H4.02888H4.02761H4.02636H4.02515H4.02397H4.02281H4.02168H4.02059H4.01952H4.01849H4.01748H4.01651H4.01556H4.01465H4.01376H4.01291H4.01209H4.0113H4.01054H4.00981H4.00911H4.00845H4.00781H4.00721H4.00664H4.0061H4.00559H4.00511H4.00467H4.00426H4.00388H4.00353H4.00321H4.00293H4.00268H4.00247H4.00228H4.00213H4.00202H4.00193H4.00188L3.25187 22.0005L3.25187 22.0004L3.25187 22.0002L3.25187 21.9994L3.25186 21.9963L3.25186 21.9839L3.25183 21.9363L3.25172 21.7626L3.25139 21.1993C3.25115 20.7657 3.25091 20.2655 3.25091 20V4C3.25091 3.73502 3.25068 3.23523 3.25045 2.80151L3.25014 2.23839L3.25004 2.06468L3.25001 2.01714L3.25 2.00474L3.25 2.00158V2.00078V2.00058V2.00053L4 2.00005L3.99999 1.25005H4.00004H4.00024L4.00104 1.25005L4.00421 1.25005L4.01662 1.25005L4.06419 1.25005L4.23801 1.25005L4.80147 1.25003ZM4 2.00005L3.25 2.00052L3.99997 1.25005L4 2.00005ZM6.00079 2.75H13.25V8.5L14 9.25H19.25V20V20.0031V20.0063V20.0094V20.0126V20.0158V20.019V20.0223V20.0255V20.0288V20.0321V20.0355V20.0388V20.0422V20.0456V20.049V20.0524V20.0559V20.0593V20.0628V20.0663V20.0698V20.0734V20.077V20.0805V20.0841V20.0878V20.0914V20.0951V20.0987V20.1024V20.1061V20.1099V20.1136V20.1174V20.1212V20.125V20.1288V20.1326V20.1365V20.1404V20.1443V20.1482V20.1521V20.156V20.16V20.164V20.168V20.172V20.176V20.18V20.1841V20.1882V20.1922V20.1963V20.2005V20.2046V20.2088V20.2129V20.2171V20.2213V20.2255V20.2297V20.234V20.2382V20.2425V20.2468V20.2511V20.2554V20.2597V20.2641V20.2684V20.2728V20.2772V20.2816V20.286V20.2904V20.2948V20.2993V20.3038V20.3082V20.3127V20.3172V20.3217V20.3263V20.3308V20.3354V20.3399V20.3445V20.3491V20.3537V20.3583V20.3629V20.3676V20.3722V20.3769V20.3815V20.3862V20.3909V20.3956V20.4003V20.4051V20.4098V20.4145V20.4193V20.4241V20.4288V20.4336V20.4384V20.4432V20.448V20.4529V20.4577V20.4625V20.4674V20.4723V20.4771V20.482V20.4869V20.4918V20.4967V20.5016V20.5066V20.5115V20.5164V20.5214V20.5263V20.5313V20.5363V20.5413V20.5462V20.5512V20.5562V20.5613V20.5663V20.5713V20.5763V20.5814V20.5864V20.5915V20.5965V20.6016V20.6067V20.6117V20.6168V20.6219V20.627V20.6321V20.6372V20.6423V20.6475V20.6526V20.6577V20.6628V20.668V20.6731V20.6783V20.6834V20.6886V20.6937V20.6989V20.7041V20.7093V20.7144V20.7196V20.7248V20.73V20.7352V20.7404V20.7456V20.7508V20.756V20.7612V20.7664V20.7716V20.7769V20.7821V20.7873V20.7925V20.7978V20.803V20.8082V20.8135V20.8187V20.8239V20.8292V20.8344V20.8397V20.8449V20.8502V20.8554V20.8607V20.8659V20.8712V20.8764V20.8817V20.8869V20.8922V20.8974V20.9027V20.9079V20.9132V20.9184V20.9237V20.9289V20.9342V20.9394V20.9447V20.95V20.9552V20.9604V20.9657V20.9709V20.9762V20.9814V20.9867V20.9919V20.9971V21.0024V21.0076V21.0129V21.0181V21.0233V21.0285V21.0338V21.039V21.0442V21.0494V21.0546V21.0598V21.065V21.0702V21.0754V21.0806V21.0858V21.091V21.0962V21.1014V21.1066V21.1117V21.1169V21.1221V21.1272V21.1324V21.1375V21.1427V21.1478V21.1529V21.1581V21.1632V21.1683V21.1734V21.1785V21.1836V21.1887V21.1938V21.1989V21.204V21.2091V21.2141V21.2192V21.2242V21.2293V21.2343V21.2394V21.2444V21.2494V21.25H19.2495H19.2444H19.2394H19.2344H19.2293H19.2243H19.2192H19.2142H19.2091H19.204H19.199H19.1939H19.1888H19.1837H19.1786H19.1735H19.1684H19.1632H19.1581H19.153H19.1479H19.1427H19.1376H19.1324H19.1273H19.1221H19.1169H19.1118H19.1066H19.1014H19.0962H19.0911H19.0859H19.0807H19.0755H19.0703H19.0651H19.0599H19.0547H19.0495H19.0442H19.039H19.0338H19.0286H19.0234H19.0181H19.0129H19.0077H19.0024H18.9972H18.992H18.9867H18.9815H18.9762H18.971H18.9658H18.9605H18.9553H18.95H18.9448H18.9395H18.9343H18.929H18.9238H18.9185H18.9132H18.908H18.9027H18.8975H18.8922H18.887H18.8817H18.8765H18.8712H18.866H18.8607H18.8555H18.8502H18.845H18.8397H18.8345H18.8293H18.824H18.8188H18.8135H18.8083H18.8031H18.7978H18.7926H18.7874H18.7822H18.7769H18.7717H18.7665H18.7613H18.7561H18.7509H18.7457H18.7405H18.7353H18.7301H18.7249H18.7197H18.7145H18.7093H18.7042H18.699H18.6938H18.6887H18.6835H18.6783H18.6732H18.6681H18.6629H18.6578H18.6527H18.6475H18.6424H18.6373H18.6322H18.6271H18.622H18.6169H18.6118H18.6067H18.6017H18.5966H18.5915H18.5865H18.5815H18.5764H18.5714H18.5664H18.5613H18.5563H18.5513H18.5463H18.5413H18.5364H18.5314H18.5264H18.5215H18.5165H18.5116H18.5066H18.5017H18.4968H18.4919H18.487H18.4821H18.4772H18.4724H18.4675H18.4626H18.4578H18.453H18.4481H18.4433H18.4385H18.4337H18.4289H18.4241H18.4194H18.4146H18.4099H18.4051H18.4004H18.3957H18.391H18.3863H18.3816H18.377H18.3723H18.3677H18.363H18.3584H18.3538H18.3492H18.3446H18.34H18.3355H18.3309H18.3264H18.3218H18.3173H18.3128H18.3083H18.3039H18.2994H18.2949H18.2905H18.2861H18.2817H18.2773H18.2729H18.2685H18.2642H18.2598H18.2555H18.2512H18.2469H18.2426H18.2383H18.2341H18.2298H18.2256H18.2214H18.2172H18.213H18.2089H18.2047H18.2006H18.1965H18.1923H18.1883H18.1842H18.1801H18.1761H18.1721H18.1681H18.1641H18.1601H18.1561H18.1522H18.1483H18.1444H18.1405H18.1366H18.1327H18.1289H18.1251H18.1213H18.1175H18.1137H18.11H18.1063H18.1025H18.0988H18.0952H18.0915H18.0879H18.0842H18.0806H18.0771H18.0735H18.07H18.0664H18.0629H18.0594H18.056H18.0525H18.0491H18.0457H18.0423H18.0389H18.0356H18.0322H18.0289H18.0257H18.0224H18.0191H18.0159H18.0127H18.0095H18.0064H18.0032H18.0001H6.00079H5.99767H5.99453H5.99137H5.98819H5.98499H5.98176H5.97852H5.97525H5.97197H5.96866H5.96533H5.96198H5.95862H5.95523H5.95182H5.94839H5.94494H5.94148H5.93799H5.93448H5.93096H5.92741H5.92385H5.92027H5.91667H5.91305H5.90941H5.90575H5.90207H5.89838H5.89467H5.89094H5.88719H5.88342H5.87964H5.87583H5.87201H5.86818H5.86432H5.86045H5.85656H5.85265H5.84873H5.84479H5.84083H5.83686H5.83287H5.82886H5.82484H5.8208H5.81675H5.81268H5.80859H5.80449H5.80037H5.79624H5.79209H5.78792H5.78374H5.77955H5.77534H5.77111H5.76687H5.76262H5.75835H5.75407H5.74977H5.74546H5.74113H5.73679H5.73243H5.72807H5.72368H5.71929H5.71488H5.71046H5.70602H5.70157H5.69711H5.69264H5.68815H5.68365H5.67914H5.67461H5.67007H5.66552H5.66096H5.65638H5.6518H5.6472H5.64259H5.63797H5.63333H5.62869H5.62403H5.61936H5.61468H5.60999H5.60529H5.60058H5.59586H5.59113H5.58638H5.58163H5.57686H5.57209H5.56731H5.56251H5.55771H5.55289H5.54807H5.54324H5.53839H5.53354H5.52868H5.52381H5.51893H5.51404H5.50915H5.50424H5.49933H5.4944H5.48947H5.48453H5.47959H5.47463H5.46967H5.4647H5.45972H5.45473H5.44974H5.44474H5.43973H5.43471H5.42969H5.42466H5.41962H5.41458H5.40953H5.40447H5.39941H5.39434H5.38927H5.38419H5.3791H5.37401H5.36891H5.3638H5.35869H5.35358H5.34846H5.34333H5.3382H5.33306H5.32792H5.32277H5.31762H5.31247H5.30731H5.30214H5.29698H5.2918H5.28663H5.28145H5.27626H5.27107H5.26588H5.26069H5.25549H5.25029H5.24508H5.23987H5.23466H5.22945H5.22423H5.21901H5.21379H5.20857H5.20334H5.19811H5.19288H5.18765H5.18241H5.17718H5.17194H5.1667H5.16146H5.15621H5.15097H5.14573H5.14048H5.13523H5.12998H5.12474H5.11949H5.11424H5.10899H5.10374H5.09849H5.09324H5.08799H5.08274H5.07749H5.07224H5.06699H5.06174H5.05649H5.05124H5.046H5.04075H5.03551H5.03026H5.02502H5.01978H5.01454H5.00931H5.00407H4.99884H4.99361H4.98838H4.98315H4.97793H4.97271H4.96749H4.96227H4.95705H4.95184H4.94663H4.94143H4.93623H4.93103H4.92583H4.92064H4.91545H4.91027H4.90508H4.89991H4.89473H4.88956H4.8844H4.87924H4.87408H4.86893H4.86379H4.85864H4.85351H4.84837H4.84325H4.83813H4.83301H4.8279H4.82279H4.81769H4.8126H4.80751H4.80243H4.79735H4.79228H4.78722H4.78216H4.77711H4.77207H4.76703H4.762H4.75697H4.75196H4.75142L4.75139 21.1985C4.75115 20.7648 4.75091 20.265 4.75091 20V4C4.75091 3.73455 4.75068 3.23436 4.75045 2.80072L4.75042 2.75003L4.80152 2.75003L6.00079 2.75ZM14.75 3.81039L18.6894 7.75H14.75V3.81039ZM7.75 12H7V13.5H7.75H15.75H16.5V12H15.75H7.75ZM7 16H7.75H15.75H16.5V17.5H15.75H7.75H7V16ZM7.75 8H7V9.5H7.75H8.75H9.75H10.5V8H9.75H8.75H7.75Z" fill="white"/>
</svg>
