<svg width="24" height="24" viewBox="0 0 24 24" fill="none" xmlns="http://www.w3.org/2000/svg">
<path fill-rule="evenodd" clip-rule="evenodd" d="M24 2C24 2.55228 23.5523 3 23 3C22.4477 3 22 2.55228 22 2C22 1.44772 22.4477 1 23 1C23.5523 1 24 1.44772 24 2ZM21 4C21 4.55228 20.5523 5 20 5C19.4477 5 19 4.55228 19 4C19 3.44772 19.4477 3 20 3C20.5523 3 21 3.44772 21 4ZM21 7C21 7.55228 20.5523 8 20 8C19.4477 8 19 7.55228 19 7C19 6.44772 19.4477 6 20 6C20.5523 6 21 6.44772 21 7ZM23 10C23.5523 10 24 9.55229 24 9C24 8.44772 23.5523 8 23 8C22.4477 8 22 8.44772 22 9C22 9.55229 22.4477 10 23 10ZM23 6.5C23.5523 6.5 24 6.05228 24 5.5C24 4.94772 23.5523 4.5 23 4.5C22.4477 4.5 22 4.94772 22 5.5C22 6.05228 22.4477 6.5 23 6.5ZM12.75 4.11485V6.49223L11.75 6.89223V3.91485L12.75 4.11485ZM11.6064 2.35643L11 1.75H4L3.25 2.5V7.87829L1.28849 13.7628L1.25 14V23L2 23.75H13L13.75 23V14L13.7115 13.7628L11.9351 8.43372L13.0669 7.98102L14.2978 11.2633L15.7022 10.7367L14.5823 7.75H16L16.75 7V3.5L16 2.75H13.5743L11.6064 2.35643ZM10.25 3.25V7.25H4.75V3.25H10.25ZM14.25 6.25V4.25H15.25V6.25H14.25ZM2.75 14.1217L4.54057 8.75H10.4594L12.25 14.1217V22.25H2.75V14.1217Z" fill="white"/>
</svg>
