<svg id="Слой_1" data-name="Слой 1" xmlns="http://www.w3.org/2000/svg" viewBox="0 0 24 24"><defs><style>.cls-1{fill:#fff;}</style></defs><title>cleaning-1</title><path class="cls-1" d="M11,21.75c-3.17,0-7.23-1.36-9-1.95l-0.28-.09-0.2-1.32a6.81,6.81,0,0,0,2.71-4.07L4.36,14c0.5-2,1-4.07,2.64-5.52a6.74,6.74,0,0,1,5.86-1.31l5.73-3.76,0.94,0.1,3,3,0.07,1-4,5.39A5.76,5.76,0,0,1,18.75,14a7.44,7.44,0,0,1-2.22,5.53A8.42,8.42,0,0,1,11,21.75Zm-7.5-3A27.33,27.33,0,0,0,11,20.25a6.9,6.9,0,0,0,4.47-1.78A5.89,5.89,0,0,0,17.25,14a4.37,4.37,0,0,0-.16-1.13,6.39,6.39,0,0,0-2.93-3.69,7,7,0,0,0-1.35-.51A5.29,5.29,0,0,0,8,9.56c-1.28,1.14-1.74,3-2.18,4.76l-0.09.36A8.49,8.49,0,0,1,3.5,18.71Zm11.16-11,0.18,0.09A7.81,7.81,0,0,1,18,11.13l3-4.06L18.9,5ZM13,7.94h0Z"/></svg>