<svg id="Слой_1" data-name="Слой 1" xmlns="http://www.w3.org/2000/svg" viewBox="0 0 26 26"><defs><style>.cls-1{fill:#8a8cce;}.cls-2{fill:#4d4d4d;}</style></defs><title>dropdown-close</title><polygon class="cls-1" points="16.47 15.53 13 12.06 9.53 15.53 8.47 14.47 13 9.94 17.53 14.47 16.47 15.53"/><path class="cls-2" d="M13,24.5A11.5,11.5,0,0,1,1.5,13h-1A12.5,12.5,0,0,0,13,25.5v-1ZM24.5,13A11.5,11.5,0,0,1,13,24.5v1A12.5,12.5,0,0,0,25.5,13h-1ZM13,1.5A11.5,11.5,0,0,1,24.5,13h1A12.5,12.5,0,0,0,13,.5v1Zm0-1A12.5,12.5,0,0,0,.5,13h1A11.5,11.5,0,0,1,13,1.5v-1Z"/></svg>