<svg width="26" height="26" viewBox="0 0 26 26" fill="none" xmlns="http://www.w3.org/2000/svg">
<path d="M9 11L13 15L17 11" stroke="#8A8CCE" stroke-width="1.5"/>
<path d="M13 24.5C6.64873 24.5 1.5 19.3513 1.5 13H0.5C0.5 19.9036 6.09644 25.5 13 25.5V24.5ZM24.5 13C24.5 19.3513 19.3513 24.5 13 24.5V25.5C19.9036 25.5 25.5 19.9036 25.5 13H24.5ZM13 1.5C19.3513 1.5 24.5 6.64873 24.5 13H25.5C25.5 6.09644 19.9036 0.5 13 0.5V1.5ZM13 0.5C6.09644 0.5 0.5 6.09644 0.5 13H1.5C1.5 6.64873 6.64873 1.5 13 1.5V0.5Z" fill="#4D4D4D"/>
</svg>
