<svg width="24" height="24" viewBox="0 0 24 24" fill="none" xmlns="http://www.w3.org/2000/svg">
<circle cx="12" cy="12" r="4" stroke="white" stroke-width="1.5"/>
<path d="M21.0524 17.2351C21.4593 17.3529 21.8822 17.1226 22.0053 16.7156L22.9689 13.4063C23.0278 13.2135 23.0011 12.9993 22.9047 12.8226C22.8083 12.6459 22.6424 12.512 22.4443 12.4531L21.1648 12.0783C21.1702 11.3607 21.0952 10.6431 20.9293 9.94165L22.0963 9.29906C22.4657 9.09557 22.6049 8.6297 22.4015 8.26021L20.7419 5.23467C20.6455 5.05796 20.4796 4.92409 20.2869 4.86518C20.0941 4.80628 19.88 4.83305 19.7033 4.92944L18.5363 5.57203C18.033 5.05796 17.4709 4.60815 16.8606 4.22795L17.2354 2.94812C17.3531 2.54115 17.1176 2.11811 16.7161 1.99495L13.4076 1.03106C13.2096 0.972155 13.0008 0.998929 12.8241 1.09532C12.6474 1.19171 12.5136 1.35771 12.4547 1.55584L12.08 2.83567C11.3626 2.83031 10.6452 2.91064 9.94393 3.07128L9.30151 1.8932C9.20514 1.71649 9.03919 1.58262 8.84646 1.52371C8.64838 1.46481 8.4396 1.49158 8.26293 1.58797L5.23821 3.248C5.06155 3.34439 4.92771 3.51039 4.86882 3.70852C4.80993 3.9013 4.8367 4.11549 4.93306 4.29221L5.57548 5.45958C5.06155 5.96294 4.61186 6.52521 4.2264 7.13567L2.94692 6.76083C2.7542 6.70192 2.54006 6.7287 2.36339 6.82509C2.18673 6.92148 2.05289 7.08748 1.994 7.28561L1.03037 10.595C0.912598 11.0019 1.14815 11.425 1.54966 11.5481L2.82915 11.923C2.82379 12.6405 2.90409 13.3581 3.0647 14.0596L1.89764 14.7022C1.72097 14.7986 1.58714 14.9646 1.52825 15.1573C1.46936 15.3555 1.49613 15.5643 1.59249 15.741L3.25207 18.7666C3.34843 18.9433 3.51439 19.0772 3.71247 19.1361C3.9052 19.195 4.11933 19.1682 4.296 19.0718L5.46306 18.4292C5.96629 18.9433 6.5284 19.3931 7.1387 19.7733L6.76396 21.0531C6.64618 21.4601 6.87638 21.8831 7.28324 22.0063L10.5917 22.9702C10.6399 22.9862 10.6881 22.9916 10.7362 22.997C11.0949 23.0291 11.4375 22.8042 11.5446 22.4454L11.9194 21.1656C12.6367 21.1709 13.3541 21.096 14.0554 20.93L14.6978 22.0973C14.7942 22.274 14.9601 22.4079 15.1529 22.4668C15.3509 22.5257 15.5597 22.4989 15.7364 22.4026L18.7611 20.7425C19.1305 20.539 19.2697 20.0732 19.0663 19.6983L18.4238 18.531C18.9378 18.0276 19.3875 17.4653 19.7729 16.8549L21.0524 17.2351Z" stroke="white" stroke-width="1.5" stroke-miterlimit="10" stroke-linejoin="bevel"/>
</svg>
