<svg width="24" height="25" viewBox="0 0 24 25" fill="none" xmlns="http://www.w3.org/2000/svg">
<path fill-rule="evenodd" clip-rule="evenodd" d="M11.4721 24.2771L12.5396 24.2766L18.8953 17.8317L18.8954 17.8315C20.2588 16.4522 21.1865 14.6957 21.5625 12.7847C21.9385 10.8736 21.7463 8.8924 21.0097 7.09142C20.273 5.29035 19.0246 3.74942 17.421 2.66458C15.8172 1.57966 13.9307 1 12 1C10.0693 1 8.18276 1.57966 6.57902 2.66457C4.97539 3.74941 3.72699 5.29035 2.99034 7.09142C2.25373 8.8924 2.06146 10.8736 2.43748 12.7847C2.81351 14.6958 3.74125 16.4524 5.10475 17.8317L11.4721 24.2771ZM20.0907 12.4951C19.8427 13.7558 19.3123 14.936 18.5468 15.9477C18.3558 15.6497 18.1025 15.3204 17.7695 14.9927C16.7136 13.9535 14.9284 13 12 13C9.07165 13 7.28641 13.9535 6.2305 14.9927C5.89746 15.3204 5.64416 15.6497 5.45324 15.9477C4.68775 14.936 4.15732 13.7558 3.90926 12.4951C3.58979 10.8714 3.75329 9.18837 4.37871 7.65926C5.00409 6.13024 6.06279 4.82479 7.4195 3.90699C8.7761 2.98926 10.3701 2.5 12 2.5C13.6299 2.5 15.2239 2.98926 16.5805 3.90699C17.9372 4.82479 18.9959 6.13025 19.6213 7.65927C20.2467 9.18837 20.4102 10.8714 20.0907 12.4951ZM12.0052 22.6823L6.51143 17.1213L6.52946 17.0847C6.66561 16.8125 6.89933 16.439 7.28263 16.0618C8.03266 15.3237 9.42835 14.5 12 14.5C14.5717 14.5 15.9673 15.3237 16.7174 16.0618C17.1007 16.439 17.3344 16.8125 17.4705 17.0847L17.4888 17.1217L12.0052 22.6823ZM9.75 8.75C9.75 7.50736 10.7574 6.5 12 6.5C13.2426 6.5 14.25 7.50736 14.25 8.75C14.25 9.99264 13.2426 11 12 11C10.7574 11 9.75 9.99264 9.75 8.75ZM12 5C9.92894 5 8.25 6.67893 8.25 8.75C8.25 10.8211 9.92894 12.5 12 12.5C14.0711 12.5 15.75 10.8211 15.75 8.75C15.75 6.67893 14.0711 5 12 5Z" fill="white"/>
</svg>
