<svg id="Слой_1" data-name="Слой 1" xmlns="http://www.w3.org/2000/svg" viewBox="0 0 24 24"><defs><style>.cls-1{fill:#fff;}</style></defs><title>emergency-2</title><path class="cls-1" d="M20.46,4.59l-0.54.52h0ZM16.74,3V3ZM13,4.59l0.54,0.52h0Zm-1,1,0.52,0.54,0,0Zm-1-1-0.54.52h0ZM3.54,12.27L3,12.79H3Zm1,1,0.54-.52h0ZM12,21l-0.54.52h1.08Zm8.46-8.73-0.54-.52h0ZM7.5,10L7,9.46v1.07ZM11,13.5L10.47,14h1.07ZM15.3,9l0.54-.52H14.76Zm5.69-5a6,6,0,0,0-2-1.35L18.46,4.1a4.5,4.5,0,0,1,1.46,1ZM19,2.72a5.87,5.87,0,0,0-2.31-.47v1.5a4.37,4.37,0,0,1,1.72.35Zm-2.31-.47a5.87,5.87,0,0,0-2.31.47L15,4.1a4.37,4.37,0,0,1,1.72-.35V2.25Zm-2.31.47a6,6,0,0,0-2,1.35l1.08,1A4.5,4.5,0,0,1,15,4.1Zm-2,1.35-1,1,1.08,1,1-1Zm0.06,1-1-1-1.08,1,1,1Zm-1-1A5.93,5.93,0,0,0,7.26,2.25v1.5a4.43,4.43,0,0,1,3.18,1.36ZM7.26,2.25A5.93,5.93,0,0,0,3,4.07l1.08,1A4.43,4.43,0,0,1,7.26,3.75V2.25ZM3,4.07A6.27,6.27,0,0,0,1.25,8.43h1.5A4.77,4.77,0,0,1,4.08,5.11ZM1.25,8.43A6.27,6.27,0,0,0,3,12.79l1.08-1A4.77,4.77,0,0,1,2.75,8.43H1.25ZM3,12.79l1,1,1.08-1-1-1Zm1,1,7.44,7.68,1.08-1L5.09,12.8Zm8.52,7.68L20,13.84l-1.08-1-7.44,7.68ZM20,13.84l1-1-1.08-1-1,1Zm1-1a6.2,6.2,0,0,0,1.3-2l-1.39-.56a4.69,4.69,0,0,1-1,1.52Zm1.3-2a6.33,6.33,0,0,0,.45-2.36h-1.5a4.83,4.83,0,0,1-.35,1.8Zm0.45-2.36a6.33,6.33,0,0,0-.45-2.36l-1.39.56a4.83,4.83,0,0,1,.35,1.8h1.5ZM22.3,6.07a6.2,6.2,0,0,0-1.3-2l-1.08,1a4.7,4.7,0,0,1,1,1.52Zm-10.82-1L7,9.46l1,1.08,4.5-4.36ZM11.54,14l4.3-4.45-1.08-1L10.46,13Zm3.22-4.45,4.14,4.27,1.08-1L15.84,8.52ZM7,10.53l3.5,3.5L11.53,13,8,9.47Z"/></svg>