<svg id="Слой_1" data-name="Слой 1" xmlns="http://www.w3.org/2000/svg" viewBox="0 0 24 24"><defs><style>.cls-1{fill:#fff;}</style></defs><title>emergency-1</title><path class="cls-1" d="M12,16.75A4.75,4.75,0,1,1,16.75,12,4.76,4.76,0,0,1,12,16.75Zm0-8A3.25,3.25,0,1,0,15.25,12,3.25,3.25,0,0,0,12,8.75Z"/><path class="cls-1" d="M10.8,23.75H10.67a1.39,1.39,0,0,1-.32-0.07l-3.27-1a1.53,1.53,0,0,1-1-1.88l0.22-.75a9.9,9.9,0,0,1-.92-0.74l-0.68.38a1.52,1.52,0,0,1-2.06-.6l-1.66-3a1.51,1.51,0,0,1-.12-1.16A1.54,1.54,0,0,1,1.54,14l0.69-.38a9.92,9.92,0,0,1-.13-1.18l-0.75-.22a1.53,1.53,0,0,1-1-1.88l1-3.31A1.52,1.52,0,0,1,3.17,6L3.91,6.26a10.07,10.07,0,0,1,.74-0.92L4.28,4.65a1.52,1.52,0,0,1,.6-2.06l3-1.66A1.51,1.51,0,0,1,9.06.81a1.54,1.54,0,0,1,.9.73l0.38,0.69a9.88,9.88,0,0,1,1.18-.13l0.22-.75A1.54,1.54,0,0,1,12.46.44,1.5,1.5,0,0,1,13.62.31l3.3,1a1.53,1.53,0,0,1,1,1.88l-0.22.75a9.82,9.82,0,0,1,.92.74l0.68-.38a1.53,1.53,0,0,1,1.17-.12,1.54,1.54,0,0,1,.89.73l1.66,3a1.52,1.52,0,0,1-.6,2.06l-0.68.38a9.81,9.81,0,0,1,.13,1.18l0.75,0.22a1.53,1.53,0,0,1,.91.73,1.51,1.51,0,0,1,.12,1.16l-1,3.3a1.53,1.53,0,0,1-1.88,1l-0.76-.23a10,10,0,0,1-.74.92l0.38,0.68a1.53,1.53,0,0,1-.6,2.06l-3,1.66a1.51,1.51,0,0,1-1.16.13,1.53,1.53,0,0,1-.9-0.73l-0.37-.68a9.76,9.76,0,0,1-1.18.13l-0.22.75A1.53,1.53,0,0,1,10.8,23.75Zm-5.7-6L6,17.9a8.25,8.25,0,0,0,1.54,1.23L7.86,20,7.48,21.26l3.32,1L11.2,21l0.72-.54a8,8,0,0,0,2-.22l0.83,0.37,0.64,1.17,3-1.65-0.63-1.19L17.9,18a8.51,8.51,0,0,0,1.24-1.54L20,16.14l1.28,0.38s0,0,0,0l1-3.3L21,12.8l-0.54-.72a8.31,8.31,0,0,0-.22-2l0.37-.83,1.17-.64-1.65-3-1.19.63L18,6.1a8.24,8.24,0,0,0-1.54-1.23L16.14,4l0.38-1.28-3.32-1L12.8,3l-0.73.54a9,9,0,0,0-2,.22L9.29,3.43,8.64,2.25l-3,1.65L6.23,5.1,6.1,6A8.5,8.5,0,0,0,4.86,7.54L4,7.86,2.74,7.48l-1,3.32L3,11.2l0.54,0.73a8.51,8.51,0,0,0,.22,2l-0.37.83-1.17.64,1.65,3Z"/></svg>