<svg width="24" height="24" viewBox="0 0 24 24" fill="none" xmlns="http://www.w3.org/2000/svg">
<path fill-rule="evenodd" clip-rule="evenodd" d="M2.75 1L2 1.75V21.75L2.75 22.5H18.75L19.5 21.75V18.3633C21.309 17.1524 22.5 15.0903 22.5 12.75C22.5 10.4097 21.309 8.34755 19.5 7.13666V1.75L18.75 1H2.75ZM15.75 19.5C16.5389 19.5 17.2962 19.3647 18 19.1159V21H3.5V2.5H18V6.38409C17.2962 6.13535 16.5389 6 15.75 6C12.0221 6 9 9.02208 9 12.75C9 16.4779 12.0221 19.5 15.75 19.5ZM15.75 7.5C12.8505 7.5 10.5 9.8505 10.5 12.75C10.5 15.6495 12.8505 18 15.75 18C18.6495 18 21 15.6495 21 12.75C21 9.8505 18.6495 7.5 15.75 7.5ZM18.2075 10.2321L14.9318 13.6638L13.2925 11.9464L12.2075 12.9821L14.3893 15.2679H15.4743L19.2925 11.2679L18.2075 10.2321Z" fill="white"/>
</svg>
