<svg width="24" height="26" viewBox="0 0 24 26" fill="none" xmlns="http://www.w3.org/2000/svg">
<path fill-rule="evenodd" clip-rule="evenodd" d="M1 1.25L0.25 2V16L1 16.75H9.57274L8.25959 24.8804L9.33187 25.6726L15 22.8758L20.6681 25.6726L21.7404 24.8805L20.4287 16.75H23L23.75 16V2L23 1.25H1ZM18.9747 17.1551C17.9421 18.1431 16.5419 18.75 15 18.75C13.4587 18.75 12.059 18.1436 11.0266 17.1563L9.97228 23.6839L14.6681 21.3669H15.3319L20.028 23.6841L18.9747 17.1551ZM9.25 13C9.25 13.7985 9.41275 14.5589 9.70689 15.25H1.75V2.75H22.25V15.25H20.2931C20.5872 14.5589 20.75 13.7985 20.75 13C20.75 9.82436 18.1756 7.25 15 7.25C11.8244 7.25 9.25 9.82436 9.25 13ZM15 8.75C12.6528 8.75 10.75 10.6528 10.75 13C10.75 15.3472 12.6528 17.25 15 17.25C17.3472 17.25 19.25 15.3472 19.25 13C19.25 10.6528 17.3472 8.75 15 8.75Z" fill="white"/>
</svg>
