<svg width="24" height="24" viewBox="0 0 24 24" fill="none" xmlns="http://www.w3.org/2000/svg">
<path fill-rule="evenodd" clip-rule="evenodd" d="M12.75 14.325L12.75 3H11.25L11.25 14.325C9.53832 14.6725 8.25 16.1858 8.25 18C8.25 20.0711 9.92893 21.75 12 21.75C14.0711 21.75 15.75 20.0711 15.75 18C15.75 16.1858 14.4617 14.6725 12.75 14.325ZM9.75 18C9.75 16.7574 10.7574 15.75 12 15.75C13.2426 15.75 14.25 16.7574 14.25 18C14.25 19.2426 13.2426 20.25 12 20.25C10.7574 20.25 9.75 19.2426 9.75 18ZM14.25 3.25H15H17H17.75V4.75H17H15H14.25V3.25ZM7 5.25H6.25V6.75H7H9H9.75V5.25H9H7ZM14.25 7.25H15H17H17.75V8.75H17H15H14.25V7.25ZM7 10.25H6.25V11.75H7H9H9.75V10.25H9H7Z" fill="#8A8CCE"/>
</svg>
