<svg id="Слой_1" data-name="Слой 1" xmlns="http://www.w3.org/2000/svg" viewBox="0 0 24 24"><defs><style>.cls-1{fill:#fff;}</style></defs><title>legal-1</title><path class="cls-1" d="M15.25,13.25H12.5V10.5l-0.75-.75A4.25,4.25,0,1,0,16,14Zm-1.16,2.23a2.75,2.75,0,1,1-3-4.17v2.65L11.8,14.7h2.65A2.75,2.75,0,0,1,14.09,15.48Z"/><path class="cls-1" d="M20.28,7.22l-6-6A0.75,0.75,0,0,0,13.75,1h-10L3,1.75v20L3.75,22.5h16l0.75-.75v-14ZM14.5,3.56L18.44,7.5H14.5V3.56ZM19,21H4.5V2.5H13V8.25L13.75,9H19V21Z"/></svg>