<svg width="24" height="24" viewBox="0 0 24 24" fill="none" xmlns="http://www.w3.org/2000/svg">
<path fill-rule="evenodd" clip-rule="evenodd" d="M12 1.75C9.1005 1.75 6.75 4.10051 6.75 7C6.75 9.8995 9.1005 12.25 12 12.25C14.8995 12.25 17.25 9.8995 17.25 7C17.25 4.10051 14.8995 1.75 12 1.75ZM5.25 7C5.25 3.27208 8.27208 0.25 12 0.25C15.7279 0.25 18.75 3.27208 18.75 7C18.75 10.7279 15.7279 13.75 12 13.75C8.27208 13.75 5.25 10.7279 5.25 7ZM8.65152 15.9161C9.71312 15.4763 10.8509 15.25 12 15.25V16.75C11.0479 16.75 10.1052 16.9375 9.22554 17.3019C8.34593 17.6662 7.5467 18.2003 6.87348 18.8735C6.20025 19.5467 5.66622 20.3459 5.30187 21.2255C4.93753 22.1052 4.75 23.0479 4.75 24H3.25C3.25 22.8509 3.47633 21.7131 3.91605 20.6515C4.35578 19.5899 5.0003 18.6253 5.81282 17.8128C6.62533 17.0003 7.58992 16.3558 8.65152 15.9161ZM21 19V23H15V19H21ZM14 18H15H16C15.25 18 15.25 17.9996 15.25 17.9992L15.25 17.9984L15.25 17.9967L15.25 17.9926L15.2502 17.9822L15.2509 17.9526C15.2517 17.9291 15.2531 17.8981 15.2558 17.8606C15.2611 17.786 15.2714 17.6843 15.2915 17.5642C15.3309 17.3276 15.4112 17.0006 15.5792 16.6646C15.7487 16.3256 16.0147 15.9638 16.4277 15.6885C16.8455 15.41 17.3688 15.25 18 15.25C18.6312 15.25 19.1545 15.41 19.5723 15.6885C19.9853 15.9638 20.2513 16.3256 20.4208 16.6646C20.5888 17.0006 20.6691 17.3276 20.7085 17.5642C20.7286 17.6843 20.7389 17.786 20.7442 17.8606C20.7469 17.8981 20.7483 17.9291 20.7491 17.9526L20.7498 17.9822L20.75 17.9926L20.75 17.9967L20.75 17.9984L20.75 17.9992C20.75 17.9996 20.75 18 20 18H21H22V19V23V24H21H15H14V23V19V18ZM19.2493 17.9891C19.2496 17.9935 19.2497 17.9972 19.2498 18H16.7502C16.7504 17.9936 16.7509 17.9825 16.752 17.9675C16.7545 17.9327 16.7598 17.8782 16.771 17.8108C16.7941 17.6724 16.8388 17.4994 16.9208 17.3354C17.0013 17.1744 17.1103 17.0362 17.2598 16.9365C17.4045 16.84 17.6312 16.75 18 16.75C18.3688 16.75 18.5955 16.84 18.7402 16.9365C18.8897 17.0362 18.9987 17.1744 19.0792 17.3354C19.1612 17.4994 19.2059 17.6724 19.229 17.8108C19.2402 17.8782 19.2455 17.9327 19.248 17.9675C19.2486 17.976 19.249 17.9832 19.2493 17.9891ZM17 22.5H19L18.5 22C19 21.5 19 21 19 20.5C19 20 18.5 19.5 18 19.5C17.5 19.5 17 19.5 17 20.5C17 21.075 17 21.3194 17.0951 21.5183C17.1653 21.6653 17.2875 21.7875 17.5 22L17 22.5Z" fill="white"/>
</svg>
