<svg xmlns="http://www.w3.org/2000/svg" viewBox="0 0 24 24">
<path d="M5.25,7A6.75,6.75,0,1,1,12,13.75,6.75,6.75,0,0,1,5.25,7ZM12,1.75A5.25,5.25,0,1,0,17.25,7,5.25,5.25,0,0,0,12,1.75Z"/>
<path d="M8.65,15.92A8.75,8.75,0,0,1,12,15.25v1.5A7.25,7.25,0,0,0,4.75,24H3.25A8.75,8.75,0,0,1,8.65,15.92Z"/>
<path d="M16.48,22.56h2l-0.5-.5a1.84,1.84,0,0,0,.5-1.5,1.08,1.08,0,0,0-1-1,0.82,0.82,0,0,0-1,1,2.52,2.52,0,0,0,.1,1,1.93,1.93,0,0,0,.4.48Z"/>
<path d="M13.48,18h1.25v0s0-.05,0-0.09,0-.18,0-0.3a3.21,3.21,0,0,1,.29-0.9,2.5,2.5,0,0,1,.85-1,3,3,0,0,1,3.14,0,2.5,2.5,0,0,1,.85,1,3.21,3.21,0,0,1,.29.9c0,0.12,0,.22,0,0.3s0,0.07,0,.09v0h1.25v6h-8V18Zm7,1.06h-6v4h6v-4ZM16.23,18h2.5a1.23,1.23,0,0,0-.38-0.94A1.4,1.4,0,0,0,16.7,17,1.28,1.28,0,0,0,16.23,18Z"/>
</svg>