<svg width="24" height="24" viewBox="0 0 24 24" fill="none" xmlns="http://www.w3.org/2000/svg">
<path fill-rule="evenodd" clip-rule="evenodd" d="M1 1V12L12 1H1ZM23 12V23H12L23 12ZM17.5 1L1 17.0417V22.9999L6.95833 23L23 6.5V1H17.5Z" fill="#8A8CCE"/>
<path d="M1 12H0.25L1.53033 12.5303L1 12ZM1 1V0.25L0.25 1H1ZM12 1L12.5303 1.53033L12 0.25V1ZM23 23V23.75L23.75 23H23ZM23 12H23.75L22.4697 11.4697L23 12ZM12 23L11.4697 22.4697L12 23.75V23ZM1 17.0417L0.477191 16.5039L0.25 17.0417H1ZM17.5 1V0.25L16.9772 0.462254L17.5 1ZM1 22.9999H0.25L0.999988 23.7499L1 22.9999ZM6.95833 23L6.95832 23.75L7.49608 23.5228L6.95833 23ZM23 6.5L23.5377 7.02281L23.75 6.5H23ZM23 1H23.75L23 0.25V1ZM1.75 12V1H0.25V12H1.75ZM11.4697 0.46967L0.46967 11.4697L1.53033 12.5303L12.5303 1.53033L11.4697 0.46967ZM1 1.75H12V0.25H1V1.75ZM23.75 23V12H22.25V23H23.75ZM12 23.75H23V22.25H12V23.75ZM22.4697 11.4697L11.4697 22.4697L12.5303 23.5303L23.5303 12.5303L22.4697 11.4697ZM1.52281 17.5794L18.0228 1.53775L16.9772 0.462254L0.477191 16.5039L1.52281 17.5794ZM1.75 22.9999V17.0417H0.25V22.9999H1.75ZM6.95835 22.25L1.00001 22.2499L0.999988 23.7499L6.95832 23.75L6.95835 22.25ZM22.4623 5.97719L6.42059 22.4772L7.49608 23.5228L23.5377 7.02281L22.4623 5.97719ZM22.25 1V6.5H23.75V1H22.25ZM17.5 1.75H23V0.25H17.5V1.75Z" fill="#8A8CCE"/>
</svg>
