<svg xmlns="http://www.w3.org/2000/svg" viewBox="0 0 24 24">
<path fill="#8a8cce" style="fill: var(--color1, #8a8cce)" d="M1,1V12L12,1H1Z"/>
<path fill="#8a8cce" style="fill: var(--color1, #8a8cce)" d="M1.35,12.35L0.5,12V1L1,0.5H12l0.35,0.85ZM1.5,1.5v9.29L10.79,1.5H1.5Z"/>
<path fill="#4e4f67" style="fill: var(--color2, #4e4f67)" d="M23,23H12L23,12V23Z"/>
<path fill="#4e4f67" style="fill: var(--color2, #4e4f67)" d="M23,23.5H12l-0.35-.85,11-11L23.5,12V23Zm-9.79-1H22.5V13.21Z"/>
<path fill="#4e4f67" style="fill: var(--color2, #4e4f67)" d="M1,17L17.5,1H23V6.5L7,23H1V17Z"/>
<path fill="#4e4f67" style="fill: var(--color2, #4e4f67)" d="M7,23.5H1L0.5,23V17l0.15-.36,16.5-16L17.5,0.5H23L23.5,1V6.5l-0.14.35-16,16.5Zm-5.46-1H6.75L22.5,6.3V1.5H17.7L1.5,17.25V22.5Z"/>
</svg>