<svg width="24" height="24" viewBox="0 0 24 24" fill="none" xmlns="http://www.w3.org/2000/svg">
<path d="M1 17.0417L17.5 1H23V6.5L6.95833 23L1 22.9999V17.0417Z" fill="#8A8CCE"/>
<path d="M1 17.0417L0.477191 16.5039L0.25 17.0417H1ZM17.5 1V0.25L16.9772 0.462254L17.5 1ZM23 1H23.75L23 0.25V1ZM23 6.5L23.5377 7.02281L23.75 6.5H23ZM6.95833 23L6.95832 23.75L7.49608 23.5228L6.95833 23ZM1 22.9999H0.25L0.999988 23.7499L1 22.9999ZM1.52281 17.5794L18.0228 1.53775L16.9772 0.462254L0.477191 16.5039L1.52281 17.5794ZM17.5 1.75H23V0.25H17.5V1.75ZM22.25 1V6.5H23.75V1H22.25ZM22.4623 5.97719L6.42059 22.4772L7.49608 23.5228L23.5377 7.02281L22.4623 5.97719ZM6.95835 22.25L1.00001 22.2499L0.999988 23.7499L6.95832 23.75L6.95835 22.25ZM1.75 22.9999V17.0417H0.25V22.9999H1.75Z" fill="#8A8CCE"/>
</svg>
