<svg width="24" height="24" viewBox="0 0 24 24" fill="none" xmlns="http://www.w3.org/2000/svg">
<path fill-rule="evenodd" clip-rule="evenodd" d="M1 12V1H12L1 12ZM12 23H23V12L12 23Z" fill="#8A8CCE"/>
<path d="M1 1V0.25L0.25 1H1ZM1 12H0.25L1.53033 12.5303L1 12ZM12 1L12.5303 1.53033L12 0.25V1ZM23 23V23.75L23.75 23H23ZM12 23L11.4697 22.4697L12 23.75V23ZM23 12H23.75L22.4697 11.4697L23 12ZM0.25 1V12H1.75V1H0.25ZM12 0.25H1V1.75H12V0.25ZM1.53033 12.5303L12.5303 1.53033L11.4697 0.46967L0.46967 11.4697L1.53033 12.5303ZM23 22.25H12V23.75H23V22.25ZM22.25 12V23H23.75V12H22.25ZM12.5303 23.5303L23.5303 12.5303L22.4697 11.4697L11.4697 22.4697L12.5303 23.5303Z" fill="#8A8CCE"/>
</svg>
