<svg width="24" height="24" viewBox="0 0 24 24" fill="none" xmlns="http://www.w3.org/2000/svg">
<path fill-rule="evenodd" clip-rule="evenodd" d="M12 1.75C9.1005 1.75 6.75 4.10051 6.75 7C6.75 9.8995 9.1005 12.25 12 12.25C14.8995 12.25 17.25 9.8995 17.25 7C17.25 4.10051 14.8995 1.75 12 1.75ZM5.25 7C5.25 3.27208 8.27208 0.25 12 0.25C15.7279 0.25 18.75 3.27208 18.75 7C18.75 10.7279 15.7279 13.75 12 13.75C8.27208 13.75 5.25 10.7279 5.25 7ZM8.65152 15.9161C9.71312 15.4763 10.8509 15.25 12 15.25V16.75C11.0479 16.75 10.1052 16.9375 9.22554 17.3019C8.34593 17.6662 7.5467 18.2003 6.87348 18.8735C6.20025 19.5467 5.66622 20.3459 5.30187 21.2255C4.93753 22.1052 4.75 23.0479 4.75 24H3.25C3.25 22.8509 3.47633 21.7131 3.91605 20.6515C4.35578 19.5899 5.0003 18.6253 5.81282 17.8128C6.62533 17.0003 7.58992 16.3558 8.65152 15.9161ZM18.2508 15V16.3372C18.884 16.4869 19.4456 16.8219 19.8752 17.2817L21.0508 16.4L21.9508 17.6L20.6226 18.5961C20.7056 18.8831 20.75 19.1863 20.75 19.5C20.75 19.8137 20.7056 20.1169 20.6226 20.4039L21.9508 21.4L21.0508 22.6L19.8752 21.7183C19.4456 22.1781 18.884 22.5131 18.2508 22.6628V24H16.7508V22.6632C16.1173 22.5137 15.5553 22.1789 15.1254 21.719L13.9508 22.6L13.0508 21.4L14.3776 20.4049C14.2945 20.1176 14.25 19.814 14.25 19.5C14.25 19.186 14.2945 18.8824 14.3776 18.5951L13.0508 17.6L13.9508 16.4L15.1254 17.281C15.5553 16.8211 16.1173 16.4863 16.7508 16.3368V15H18.2508ZM17.5 17.75C16.5335 17.75 15.75 18.5335 15.75 19.5C15.75 20.4665 16.5335 21.25 17.5 21.25C18.4665 21.25 19.25 20.4665 19.25 19.5C19.25 18.5335 18.4665 17.75 17.5 17.75Z" fill="white"/>
</svg>
