<svg width="24" height="24" viewBox="0 0 24 24" fill="none" xmlns="http://www.w3.org/2000/svg">
<path d="M21.3036 4.76815L20.7623 5.28726L20.7625 5.28751L21.3036 4.76815ZM17.2095 3V3.75V3ZM13.1153 4.76815L13.6565 5.28738L13.6567 5.28726L13.1153 4.76815ZM11.9997 5.93095L12.5245 6.46682L12.5409 6.45018L11.9997 5.93095ZM10.8841 4.76815L10.3429 5.28738L10.8841 4.76815ZM2.69584 13.3027L2.15465 13.8219H2.15465L2.69584 13.3027ZM3.81147 14.4655L4.35266 13.9462L4.35266 13.9462L3.81147 14.4655ZM11.9997 23L11.4585 23.5192H12.5409L11.9997 23ZM21.3036 13.3027L20.7625 12.7833L20.7624 12.7834L21.3036 13.3027ZM7.05 10.7778L6.52527 10.2419L6.51701 11.3054L7.05 10.7778ZM10.9 14.6667L10.367 15.1943L11.4421 15.185L10.9 14.6667ZM15.6332 9.71696L16.1745 9.19778L15.0912 9.19861L15.6332 9.71696ZM21.8449 4.24903C21.2392 3.61742 20.5183 3.11464 19.7227 2.771L19.1279 4.14807C19.7372 4.4112 20.2929 4.79777 20.7623 5.28726L21.8449 4.24903ZM19.7227 2.771C18.9269 2.42733 18.0728 2.25 17.2095 2.25V3.75C17.8669 3.75 18.5187 3.88497 19.1279 4.14807L19.7227 2.771ZM17.2095 2.25C16.3461 2.25 15.492 2.42733 14.6963 2.771L15.291 4.14807C15.9002 3.88497 16.552 3.75 17.2095 3.75V2.25ZM14.6963 2.771C13.9006 3.11464 13.1797 3.61742 12.574 4.24903L13.6567 5.28726C14.1261 4.79777 14.6817 4.4112 15.291 4.14807L14.6963 2.771ZM12.5741 4.24891L11.4585 5.41171L12.5409 6.45018L13.6565 5.28738L12.5741 4.24891ZM12.5409 5.41171L11.4253 4.24891L10.3429 5.28738L11.4585 6.45018L12.5409 5.41171ZM11.4253 4.24891C10.2014 2.97329 8.53474 2.25059 6.78997 2.25059V3.75059C8.11639 3.75059 9.3951 4.2995 10.3429 5.28738L11.4253 4.24891ZM6.78997 2.25059C5.0452 2.25059 3.37851 2.97329 2.15465 4.24891L3.23704 5.28738C4.18484 4.2995 5.46355 3.75059 6.78997 3.75059V2.25059ZM2.15465 4.24891C0.931801 5.52347 0.25 7.24575 0.25 9.03541L1.75 9.03541C1.75 7.62399 2.28822 6.27632 3.23704 5.28738L2.15465 4.24891ZM0.25 9.03541C0.25 10.8251 0.931801 12.5474 2.15465 13.8219L3.23704 12.7834C2.28822 11.7945 1.75 10.4468 1.75 9.03541L0.25 9.03541ZM2.15465 13.8219L3.27027 14.9847L4.35266 13.9462L3.23704 12.7834L2.15465 13.8219ZM3.27027 14.9847L11.4585 23.5192L12.5409 22.4808L4.35266 13.9462L3.27027 14.9847ZM12.5409 23.5192L20.7292 14.9847L19.6468 13.9462L11.4585 22.4808L12.5409 23.5192ZM20.7292 14.9847L21.8448 13.8219L20.7624 12.7834L19.6468 13.9462L20.7292 14.9847ZM21.8447 13.822C22.4506 13.1908 22.9297 12.4429 23.2561 11.622L21.8622 11.0679C21.6064 11.7113 21.2322 12.294 20.7625 12.7833L21.8447 13.822ZM23.2561 11.622C23.5824 10.8011 23.75 9.92227 23.75 9.03541H22.25C22.25 9.73366 22.118 10.4244 21.8622 11.0679L23.2561 11.622ZM23.75 9.03541C23.75 8.14854 23.5824 7.26969 23.2561 6.44881L21.8622 7.00293C22.118 7.64643 22.25 8.33716 22.25 9.03541H23.75ZM23.2561 6.44881C22.9297 5.62788 22.4506 4.88004 21.8447 4.24878L20.7625 5.28751C21.2322 5.77683 21.6064 6.35948 21.8622 7.00293L23.2561 6.44881ZM11.475 5.39508L6.52527 10.2419L7.57473 11.3136L12.5245 6.46682L11.475 5.39508ZM11.4421 15.185L16.1753 10.2353L15.0912 9.19861L10.3579 14.1483L11.4421 15.185ZM15.092 10.2361L19.6467 14.9846L20.7292 13.9463L16.1745 9.19778L15.092 10.2361ZM6.51701 11.3054L10.367 15.1943L11.433 14.139L7.58299 10.2501L6.51701 11.3054Z" fill="white"/>
</svg>
