<svg width="24" height="24" viewBox="0 0 24 24" fill="none" xmlns="http://www.w3.org/2000/svg">
<path fill-rule="evenodd" clip-rule="evenodd" d="M4 2.25L3.25 3V6H4.75V3.75H6.66667V2.25H4ZM9.33333 3.75H14.6667V2.25H9.33333V3.75ZM17.3333 3.75H19.25V6H20.75V3L20 2.25H17.3333V3.75ZM4.75 15V9H3.25V15H4.75ZM19.25 9V15H20.75V9H19.25ZM4.75 21V18H3.25V21V21.75H4.75V21ZM19.25 18V21V21.75H20.75V21V18H19.25ZM12.3235 9H9.5V17H10.9118V14.28H12.3235C13.3745 14.28 14.1667 14.04 14.7 13.56C15.2333 13.08 15.5 12.44 15.5 11.64C15.5 10.7867 15.2451 10.1352 14.7353 9.68571C14.2333 9.22857 13.4294 9 12.3235 9ZM10.9118 13.0686V10.2114H12.3235C12.9118 10.2114 13.3392 10.3371 13.6059 10.5886C13.8804 10.8324 14.0176 11.1829 14.0176 11.64C14.0176 12.0743 13.8765 12.421 13.5941 12.68C13.3118 12.939 12.8882 13.0686 12.3235 13.0686H10.9118Z" fill="#8A8CCE"/>
</svg>
