<svg width="24" height="24" viewBox="0 0 24 24" fill="none" xmlns="http://www.w3.org/2000/svg">
<path fill-rule="evenodd" clip-rule="evenodd" d="M11.4697 2.46973L8.46967 5.46973L9.53033 6.53039L11.25 4.81072V9.00006L12.75 9.00006V4.81072L14.4697 6.53039L15.5303 5.46973L12.5303 2.46973H11.4697ZM2 13.2501L1.25 14.0001V17.0001V20.0001L2 20.7501H5L5.75 20.0001V17.7501H9.75V20.0001L10.5 20.7501H13.5L14.25 20.0001V17.7501H18.25V20.0001L19 20.7501H22L22.75 20.0001V17.0001V14.0001L22 13.2501H2ZM2.75 17.7501H4.25V19.2501H2.75V17.7501ZM5 16.2501H2.75V14.7501H21.25V16.2501H19H13.5H10.5H5ZM19.75 17.7501H21.25V19.2501H19.75V17.7501ZM11.25 19.2501V17.7501H12.75V19.2501H11.25Z" fill="#8A8CCE"/>
</svg>
