<svg width="24" height="24" viewBox="0 0 24 24" fill="none" xmlns="http://www.w3.org/2000/svg">
<path fill-rule="evenodd" clip-rule="evenodd" d="M11.7161 1.80664L3.21612 5.30664L2.75171 6.00627L3.50168 6.00015C2.75171 6.00627 2.75171 6.00638 2.75171 6.00651L2.75171 6.00686L2.75172 6.00791L2.75176 6.0114L2.7519 6.02387L2.75255 6.07017C2.7532 6.11031 2.7543 6.16871 2.75614 6.24363C2.75984 6.39342 2.76651 6.6094 2.77848 6.87745C2.8024 7.41309 2.84757 8.15902 2.93268 9.00175C3.10088 10.667 3.43191 12.7867 4.10176 14.3997C4.89051 16.299 6.81689 18.2454 8.44141 19.6631C9.27019 20.3864 10.052 20.9986 10.6264 21.4299C10.9139 21.6459 11.1502 21.817 11.3154 21.9348C11.3981 21.9937 11.463 22.0392 11.5077 22.0704L11.5594 22.1062L11.5732 22.1158L11.5771 22.1184L11.5782 22.1192L11.5786 22.1194C11.5787 22.1195 11.5789 22.1196 12.0017 21.5001L11.5789 22.1196L12.4247 22.1194L12.0017 21.5001C12.4247 22.1194 12.4248 22.1194 12.425 22.1193L12.4254 22.119L12.4265 22.1182L12.4304 22.1156L12.4442 22.106L12.4958 22.0702C12.5405 22.0391 12.6054 21.9935 12.688 21.9346C12.8531 21.8169 13.0892 21.6457 13.3765 21.4298C13.9505 20.9984 14.7317 20.3862 15.5599 19.6629C17.1833 18.2451 19.1084 16.2989 19.8971 14.3997C20.5669 12.7869 20.8987 10.6673 21.0676 9.00207C21.153 8.15936 21.1986 7.41345 21.2228 6.87783C21.2349 6.60979 21.2417 6.39382 21.2454 6.24402C21.2473 6.16911 21.2484 6.11071 21.2491 6.07058L21.2498 6.02429L21.2499 6.01182L21.25 6.00833L21.25 6.00727L21.25 6.00692C21.25 6.0068 21.25 6.00669 20.5 6.00015L21.25 6.00669L20.7856 5.30666L12.2873 1.80666L11.7161 1.80664ZM4.27699 6.81053C4.27185 6.6954 4.26774 6.59052 4.26445 6.49716L12.0017 3.31125L19.737 6.49701C19.7336 6.59032 19.7295 6.69511 19.7243 6.81015C19.701 7.32479 19.6573 8.042 19.5752 8.8507C19.4091 10.4883 19.0931 12.4246 18.5118 13.8244C17.8698 15.3703 16.1935 17.1181 14.5732 18.5331C13.7796 19.2262 13.0283 19.815 12.4753 20.2307C12.2938 20.3671 12.1341 20.4845 12.0015 20.5807C11.8688 20.4845 11.7088 20.367 11.5271 20.2305C10.9737 19.8149 10.2219 19.226 9.42769 18.5329C7.80625 17.1179 6.12898 15.3702 5.48705 13.8244C4.90581 12.4248 4.59049 10.4886 4.42509 8.85101C4.34341 8.04234 4.29997 7.32516 4.27699 6.81053ZM16.8211 9.3534L17.3074 8.78237L16.1653 7.80989L15.6791 8.38091L11.6942 13.0606L9.40256 10.19L8.93464 9.60384L7.76237 10.5397L8.23029 11.1258L11.0894 14.7073L12.2466 14.7256L16.8211 9.3534Z" fill="#8A8CCE"/>
</svg>
