<svg width="24" height="24" viewBox="0 0 24 24" fill="none" xmlns="http://www.w3.org/2000/svg">
<path fill-rule="evenodd" clip-rule="evenodd" d="M3.29043 12.6759C3.10851 12.4047 2.9653 12.1737 2.86202 12C2.9653 11.8263 3.10851 11.5953 3.29043 11.3241C3.71244 10.6952 4.33793 9.85799 5.15092 9.02331C6.78861 7.34195 9.10674 5.75 12 5.75C14.8933 5.75 17.2114 7.34195 18.8491 9.02331C19.6621 9.85799 20.2876 10.6952 20.7096 11.3241C20.8915 11.5953 21.0348 11.8263 21.138 12C21.0348 12.1737 20.8915 12.4047 20.7096 12.6759C20.2876 13.3048 19.6621 14.142 18.8491 14.9767C17.2114 16.658 14.8933 18.25 12 18.25C9.10674 18.25 6.78861 16.658 5.15092 14.9767C4.33793 14.142 3.71244 13.3048 3.29043 12.6759ZM22.6653 11.6537C22.6654 11.654 22.6656 11.6543 22 12C22.6656 12.3457 22.6654 12.346 22.6653 12.3463L22.6649 12.347L22.6639 12.3489L22.661 12.3546L22.6509 12.3734C22.6425 12.3893 22.6304 12.4116 22.6149 12.4399C22.5837 12.4966 22.5383 12.5775 22.4789 12.6792C22.3601 12.8824 22.185 13.1692 21.9552 13.5116C21.4965 14.1952 20.8152 15.108 19.9237 16.0233C18.1522 17.842 15.4704 19.75 12 19.75C8.52968 19.75 5.84781 17.842 4.0764 16.0233C3.18485 15.108 2.50352 14.1952 2.04485 13.5116C1.81506 13.1692 1.63994 12.8824 1.52118 12.6792C1.46176 12.5775 1.41637 12.4966 1.3852 12.4399C1.36961 12.4116 1.35757 12.3893 1.34911 12.3734L1.3391 12.3546L1.33611 12.3489L1.33512 12.347L1.33476 12.3463C1.33461 12.346 1.33447 12.3457 2.00003 12C1.33447 11.6543 1.33461 11.654 1.33476 11.6537L1.33512 11.653L1.33611 11.6511L1.3391 11.6454L1.34911 11.6266C1.35757 11.6107 1.36961 11.5884 1.3852 11.5601C1.41637 11.5034 1.46176 11.4225 1.52118 11.3208C1.63994 11.1176 1.81506 10.8308 2.04485 10.4884C2.50352 9.80479 3.18485 8.89201 4.0764 7.97669C5.84781 6.15805 8.52968 4.25 12 4.25C15.4704 4.25 18.1522 6.15805 19.9237 7.97669C20.8152 8.89201 21.4965 9.80479 21.9552 10.4884C22.185 10.8308 22.3601 11.1176 22.4789 11.3208C22.5383 11.4225 22.5837 11.5034 22.6149 11.5601C22.6304 11.5884 22.6425 11.6107 22.6509 11.6266L22.661 11.6454L22.6639 11.6511L22.6649 11.653L22.6653 11.6537ZM22 12L22.6656 11.6543V12.3457L22 12ZM1.33447 11.6543L2.00003 12L1.33447 12.3457V11.6543ZM9.75003 12C9.75003 10.7574 10.7574 9.75 12 9.75C13.2427 9.75 14.25 10.7574 14.25 12C14.25 13.2426 13.2427 14.25 12 14.25C10.7574 14.25 9.75003 13.2426 9.75003 12ZM12 8.25C9.92896 8.25 8.25003 9.92893 8.25003 12C8.25003 14.0711 9.92896 15.75 12 15.75C14.0711 15.75 15.75 14.0711 15.75 12C15.75 9.92893 14.0711 8.25 12 8.25Z" fill="white"/>
</svg>
