<svg aria-hidden="true" style="position: absolute; width: 0; height: 0; overflow: hidden;" version="1.1" xmlns="http://www.w3.org/2000/svg" xmlns:xlink="http://www.w3.org/1999/xlink">
<defs>
<symbol id="icon-24-ceiling" viewBox="0 0 32 32">
<path fill="#8a8cce" style="fill: var(--color1, #8a8cce)" d="M26.667 3.667h-21.333v-2h21.333v2zM15.293 5.96h1.414l4 4-1.414 1.414-2.293-2.293v13.838l2.293-2.293 1.414 1.414-4 4h-1.414l-4-4 1.414-1.414 2.293 2.293v-13.838l-2.293 2.293-1.414-1.414 4-4zM5.333 30.333h21.333v-2h-21.333v2z"></path>
</symbol>
<symbol id="icon-24-cleaning-1" viewBox="0 0 32 32">
<path fill="#fff" style="fill: var(--color2, #fff)" d="M14.667 29c-4.227 0-9.64-1.813-12-2.6l-0.373-0.12-0.267-1.76c1.8-1.286 3.097-3.174 3.602-5.366l0.012-0.061 0.173-0.427c0.667-2.667 1.333-5.427 3.52-7.36 1.532-1.25 3.508-2.008 5.662-2.008 0.764 0 1.505 0.095 2.213 0.275l-0.062-0.013 7.64-5.013 1.253 0.133 4 4 0.093 1.333-5.333 7.187c0.107 0.433 0.179 0.936 0.2 1.452l0 0.015c0.003 0.089 0.005 0.195 0.005 0.3 0 2.769-1.134 5.272-2.963 7.072l-0.001 0.001c-1.938 1.787-4.52 2.901-7.362 2.96l-0.012 0zM4.667 25c2.947 1.071 6.356 1.787 9.901 1.995l0.099 0.005c2.302-0.054 4.386-0.946 5.968-2.38l-0.008 0.007c1.469-1.429 2.38-3.424 2.38-5.632 0-0.115-0.003-0.23-0.007-0.344l0.001 0.016c-0.005-0.538-0.083-1.056-0.223-1.548l0.010 0.041c-0.652-2.113-2.044-3.834-3.866-4.898l-0.040-0.022c-0.512-0.264-1.11-0.496-1.735-0.665l-0.065-0.015c-0.619-0.197-1.331-0.31-2.069-0.31-1.646 0-3.16 0.564-4.36 1.508l0.015-0.011c-1.707 1.52-2.32 4-2.907 6.347l-0.12 0.48c-0.507 2.113-1.549 3.934-2.974 5.374l0.001-0.001zM19.547 10.333l0.24 0.12c1.814 1.026 3.256 2.524 4.186 4.328l0.027 0.058 4-5.413-2.8-2.76zM17.333 10.587v0z"></path>
</symbol>
<symbol id="icon-24-cleaning-2" viewBox="0 0 32 32">
<path fill="#fff" style="fill: var(--color2, #fff)" d="M28.044 9.047l-8.727-8.727c-0.197-0.197-0.47-0.32-0.771-0.32h-14.546l-1.091 1.091v29.091l1.091 1.091h23.273l1.091-1.091v-20.364zM19.636 3.724l5.731 5.731h-5.731v-5.731zM26.182 29.091h-21.091v-26.909h12.364v8.364l1.091 1.091h7.636v17.455z"></path>
<path fill="#fff" style="fill: var(--color2, #fff)" d="M9.818 15.273h-1.091v2.182h13.818v-2.182h-12.727z"></path>
<path fill="#fff" style="fill: var(--color2, #fff)" d="M9.818 21.091h-1.091v2.182h13.818v-2.182h-12.727z"></path>
<path fill="#fff" style="fill: var(--color2, #fff)" d="M11.273 9.455h-2.545v2.182h5.091v-2.182h-2.545z"></path>
</symbol>
<symbol id="icon-24-cleaning-3" viewBox="0 0 32 32">
<path fill="#fff" style="fill: var(--color2, #fff)" d="M32 2.667c0 0.736-0.597 1.333-1.333 1.333s-1.333-0.597-1.333-1.333c0-0.736 0.597-1.333 1.333-1.333s1.333 0.597 1.333 1.333zM28 5.333c0 0.736-0.597 1.333-1.333 1.333s-1.333-0.597-1.333-1.333c0-0.736 0.597-1.333 1.333-1.333s1.333 0.597 1.333 1.333zM28 9.333c0 0.736-0.597 1.333-1.333 1.333s-1.333-0.597-1.333-1.333c0-0.736 0.597-1.333 1.333-1.333s1.333 0.597 1.333 1.333zM30.667 13.333c0.736 0 1.333-0.597 1.333-1.333s-0.597-1.333-1.333-1.333c-0.736 0-1.333 0.597-1.333 1.333s0.597 1.333 1.333 1.333zM30.667 8.667c0.736 0 1.333-0.597 1.333-1.333s-0.597-1.333-1.333-1.333c-0.736 0-1.333 0.597-1.333 1.333s0.597 1.333 1.333 1.333zM17 5.486v3.17l-1.333 0.533v-3.97l1.333 0.267zM15.475 3.142l-0.809-0.809h-9.333l-1 1v7.171l-2.615 7.846-0.051 0.316v12l1 1h14.667l1-1v-12l-0.051-0.316-2.369-7.105 1.509-0.604 1.641 4.376 1.873-0.702-1.493-3.982h1.89l1-1v-4.667l-1-1h-3.234l-2.624-0.525zM13.667 4.333v5.333h-7.333v-5.333h7.333zM19 8.333v-2.667h1.333v2.667h-1.333zM3.667 18.829l2.387-7.162h7.892l2.387 7.162v10.838h-12.667v-10.838z"></path>
</symbol>
<symbol id="icon-24-columns" viewBox="0 0 32 32">
<path fill="#8a8cce" style="fill: var(--color1, #8a8cce)" d="M13.333 5v-2h-10.667v2h1.667v22h-1.667v2h10.667v-2h-1.667v-22h1.667zM9.667 5v22h-3.333v-22h3.333zM20.333 5h-1.667v-2h10.667v2h-1.667v22h1.667v2h-10.667v-2h1.667v-22zM22.333 27h3.333v-22h-3.333v22z"></path>
</symbol>
<symbol id="icon-24-dropdown-close" viewBox="0 0 32 32">
<path fill="#8a8cce" style="fill: var(--color1, #8a8cce)" d="M20.271 19.114l-4.271-4.271-4.271 4.271-1.305-1.305 5.575-5.575 5.575 5.575-1.305 1.305z"></path>
<path fill="#4d4d4d" style="fill: var(--color3, #4d4d4d)" d="M16 30.154c-7.817 0-14.154-6.337-14.154-14.154v0h-1.231c0 8.497 6.888 15.385 15.385 15.385v0-1.231zM30.154 16c0 7.817-6.337 14.154-14.154 14.154v0 1.231c8.497 0 15.385-6.888 15.385-15.385v0h-1.231zM16 1.846c7.817 0 14.154 6.337 14.154 14.154v0h1.231c0-8.497-6.888-15.385-15.385-15.385v0 1.231zM16 0.615c-8.497 0-15.385 6.888-15.385 15.385v0h1.231c0-7.817 6.337-14.154 14.154-14.154v0-1.231z"></path>
</symbol>
<symbol id="icon-24-dropdown-open" viewBox="0 0 32 32">
<path fill="#8a8cce" style="fill: var(--color1, #8a8cce)" d="M16 19.766l-5.575-5.575 1.305-1.305 4.271 4.271 4.271-4.271 1.305 1.305-5.575 5.575z"></path>
<path fill="#4d4d4d" style="fill: var(--color3, #4d4d4d)" d="M16 30.154c-7.817 0-14.154-6.337-14.154-14.154v0h-1.231c0 8.497 6.888 15.385 15.385 15.385v0-1.231zM30.154 16c0 7.817-6.337 14.154-14.154 14.154v0 1.231c8.497 0 15.385-6.888 15.385-15.385v0h-1.231zM16 1.846c7.817 0 14.154 6.337 14.154 14.154v0h1.231c0-8.497-6.888-15.385-15.385-15.385v0 1.231zM16 0.615c-8.497 0-15.385 6.888-15.385 15.385v0h1.231c0-7.817 6.337-14.154 14.154-14.154v0-1.231z"></path>
</symbol>
<symbol id="icon-24-electricity" viewBox="0 0 32 32">
<path fill="#8a8cce" style="fill: var(--color1, #8a8cce)" d="M10.413 30.027l-1.667-1.013 3.413-10.453h-4.827l-0.667-1.68 14.187-14.907 1.693 0.96-2.773 10.067h4.893l0.667 1.667zM9.667 16.573h3.867l0.947 1.333-2.48 7.653 10.32-10.56h-3.853l-0.96-1.267 2.067-7.52z"></path>
</symbol>
<symbol id="icon-24-emergency-1" viewBox="0 0 32 32">
<path fill="#fff" style="fill: var(--color2, #fff)" d="M16 22.333c-3.498 0-6.333-2.836-6.333-6.333s2.836-6.333 6.333-6.333c3.498 0 6.333 2.836 6.333 6.333v0c-0.008 3.495-2.839 6.326-6.333 6.333h-0.001zM16 11.667c-2.393 0-4.333 1.94-4.333 4.333s1.94 4.333 4.333 4.333c2.393 0 4.333-1.94 4.333-4.333v0c0-2.393-1.94-4.333-4.333-4.333v0z"></path>
<path fill="#fff" style="fill: var(--color2, #fff)" d="M14.4 31.667h-0.173c-0.158-0.016-0.302-0.049-0.44-0.097l0.013 0.004-4.36-1.333c-0.827-0.273-1.413-1.039-1.413-1.941 0-0.201 0.029-0.396 0.084-0.58l-0.004 0.014 0.293-1c-0.458-0.327-0.858-0.651-1.237-0.996l0.011 0.010-0.907 0.507c-0.281 0.156-0.615 0.248-0.972 0.248-0.76 0-1.423-0.419-1.77-1.038l-0.005-0.010-2.213-4c-0.155-0.279-0.246-0.611-0.246-0.964 0-0.208 0.031-0.408 0.090-0.596l-0.004 0.014c0.136-0.526 0.462-0.96 0.898-1.235l0.009-0.005 0.92-0.507c-0.082-0.451-0.144-0.991-0.172-1.541l-0.001-0.032-1-0.293c-0.827-0.273-1.413-1.039-1.413-1.941 0-0.201 0.029-0.396 0.084-0.58l-0.004 0.014 1.333-4.413c0.262-0.837 1.030-1.433 1.938-1.433 0.174 0 0.342 0.022 0.503 0.063l-0.014-0.003 0.987 0.347c0.328-0.458 0.651-0.858 0.997-1.238l-0.010 0.011-0.493-0.92c-0.156-0.281-0.248-0.615-0.248-0.972 0-0.76 0.419-1.423 1.038-1.77l0.010-0.005 4-2.213c0.281-0.158 0.617-0.251 0.974-0.251 0.214 0 0.42 0.033 0.614 0.095l-0.014-0.004c0.52 0.162 0.941 0.509 1.195 0.963l0.005 0.010 0.507 0.92c0.451-0.082 0.992-0.144 1.542-0.172l0.032-0.001 0.293-1c0.155-0.523 0.499-0.949 0.95-1.208l0.010-0.005c0.282-0.161 0.619-0.256 0.979-0.256 0.203 0 0.398 0.030 0.582 0.086l-0.014-0.004 4.4 1.333c0.827 0.273 1.413 1.039 1.413 1.941 0 0.201-0.029 0.396-0.084 0.58l0.004-0.014-0.293 1c0.458 0.327 0.858 0.65 1.237 0.996l-0.010-0.009 0.907-0.507c0.281-0.155 0.616-0.247 0.972-0.247 0.21 0 0.412 0.032 0.602 0.090l-0.014-0.004c0.514 0.165 0.93 0.511 1.181 0.963l0.005 0.010 2.213 4c0.156 0.281 0.248 0.615 0.248 0.972 0 0.76-0.419 1.423-1.038 1.77l-0.010 0.005-0.907 0.507c0.082 0.451 0.144 0.992 0.172 1.542l0.001 0.031 1 0.293c0.526 0.157 0.952 0.506 1.208 0.963l0.005 0.010c0.155 0.279 0.246 0.611 0.246 0.964 0 0.208-0.031 0.408-0.090 0.596l0.004-0.014-1.333 4.4c-0.273 0.827-1.039 1.413-1.941 1.413-0.201 0-0.396-0.029-0.58-0.084l0.014 0.004-1.013-0.307c-0.327 0.458-0.651 0.858-0.996 1.238l0.010-0.011 0.507 0.907c0.153 0.28 0.244 0.613 0.244 0.967 0 0.761-0.416 1.424-1.033 1.775l-0.010 0.005-4 2.213c-0.282 0.16-0.62 0.255-0.98 0.255-0.202 0-0.397-0.030-0.581-0.085l0.014 0.004c-0.52-0.16-0.942-0.508-1.195-0.963l-0.005-0.010-0.493-0.907c-0.451 0.082-0.992 0.144-1.542 0.172l-0.031 0.001-0.293 1c-0.24 0.846-0.991 1.46-1.89 1.493l-0.004 0zM6.8 23.667l1.2 0.2c0.603 0.613 1.277 1.155 2.007 1.613l0.046 0.027 0.427 1.16-0.507 1.68 4.427 1.333 0.533-1.68 0.96-0.72c0.052 0.001 0.114 0.001 0.176 0.001 0.884 0 1.742-0.107 2.564-0.31l-0.073 0.015 1.107 0.493 0.853 1.56 4-2.2-0.84-1.587 0.187-1.253c0.616-0.605 1.161-1.278 1.626-2.007l0.027-0.046 1.147-0.427 1.707 0.507s0 0 0 0l1.333-4.4-1.707-0.56-0.72-0.96c0-0.039 0.001-0.085 0.001-0.131 0-0.9-0.107-1.774-0.31-2.612l0.015 0.076 0.493-1.107 1.56-0.853-2.2-4-1.587 0.84-1.253-0.187c-0.603-0.613-1.277-1.155-2.007-1.613l-0.046-0.027-0.427-1.16 0.507-1.707-4.427-1.333-0.533 1.707-0.973 0.72c-0.009-0-0.019-0-0.029-0-0.935 0-1.845 0.107-2.718 0.309l0.081-0.016-1.040-0.44-0.867-1.573-4 2.2 0.787 1.6-0.173 1.2c-0.616 0.605-1.161 1.278-1.626 2.007l-0.027 0.046-1.147 0.427-1.68-0.507-1.333 4.427 1.68 0.533 0.72 0.973c-0 0.030-0 0.066-0 0.101 0 0.91 0.107 1.795 0.309 2.643l-0.016-0.077-0.493 1.107-1.56 0.853 2.2 4z"></path>
</symbol>
<symbol id="icon-24-emergency-2" viewBox="0 0 24 25">
<path fill="#fff" style="fill: var(--color2, #fff)" d="M11.4721 24.2771L12.5396 24.2766L18.8953 17.8317L18.8954 17.8315C20.2588 16.4522 21.1865 14.6957 21.5625 12.7847C21.9385 10.8736 21.7463 8.8924 21.0097 7.09142C20.273 5.29035 19.0246 3.74942 17.421 2.66458C15.8172 1.57966 13.9307 1 12 1C10.0693 1 8.18276 1.57966 6.57902 2.66457C4.97539 3.74941 3.72699 5.29035 2.99034 7.09142C2.25373 8.8924 2.06146 10.8736 2.43748 12.7847C2.81351 14.6958 3.74125 16.4524 5.10475 17.8317L11.4721 24.2771ZM20.0907 12.4951C19.8427 13.7558 19.3123 14.936 18.5468 15.9477C18.3558 15.6497 18.1025 15.3204 17.7695 14.9927C16.7136 13.9535 14.9284 13 12 13C9.07165 13 7.28641 13.9535 6.2305 14.9927C5.89746 15.3204 5.64416 15.6497 5.45324 15.9477C4.68775 14.936 4.15732 13.7558 3.90926 12.4951C3.58979 10.8714 3.75329 9.18837 4.37871 7.65926C5.00409 6.13024 6.06279 4.82479 7.4195 3.90699C8.7761 2.98926 10.3701 2.5 12 2.5C13.6299 2.5 15.2239 2.98926 16.5805 3.90699C17.9372 4.82479 18.9959 6.13025 19.6213 7.65927C20.2467 9.18837 20.4102 10.8714 20.0907 12.4951ZM12.0052 22.6823L6.51143 17.1213L6.52946 17.0847C6.66561 16.8125 6.89933 16.439 7.28263 16.0618C8.03266 15.3237 9.42835 14.5 12 14.5C14.5717 14.5 15.9673 15.3237 16.7174 16.0618C17.1007 16.439 17.3344 16.8125 17.4705 17.0847L17.4888 17.1217L12.0052 22.6823ZM9.75 8.75C9.75 7.50736 10.7574 6.5 12 6.5C13.2426 6.5 14.25 7.50736 14.25 8.75C14.25 9.99264 13.2426 11 12 11C10.7574 11 9.75 9.99264 9.75 8.75ZM12 5C9.92894 5 8.25 6.67893 8.25 8.75C8.25 10.8211 9.92894 12.5 12 12.5C14.0711 12.5 15.75 10.8211 15.75 8.75C15.75 6.67893 14.0711 5 12 5Z"></path>
</symbol>
<symbol id="icon-24-fire-dept-1" viewBox="0 0 32 32">
<path fill="#fff" style="fill: var(--color2, #fff)" d="M3.667 1.333l-1 1v26.667l1 1h21.333l1-1v-4.516c2.412-1.615 4-4.364 4-7.484s-1.588-5.87-4-7.484v-7.182l-1-1h-21.333zM21 26c1.052 0 2.062-0.18 3-0.512v2.512h-19.333v-24.667h19.333v5.179c-0.938-0.332-1.948-0.512-3-0.512-4.971 0-9 4.029-9 9s4.029 9 9 9zM21 10c3.866 0 7 3.134 7 7s-3.134 7-7 7c-3.866 0-7-3.134-7-7s3.134-7 7-7zM24.277 13.643l1.447 1.381-5.091 5.333h-1.447l-2.909-3.048 1.447-1.381 2.186 2.29 4.368-4.576z"></path>
</symbol>
<symbol id="icon-24-fire-dept-2" viewBox="0 0 32 32">
<path d="M29.538 1.538h-27.077l-0.923 0.923v17.231l0.923 0.923h10.548l-1.612 10.006 1.317 0.972 6.978-3.434 6.978 3.446 1.317-0.972-1.612-10.006h3.163l0.923-0.935v-17.231zM20.098 26.302h-0.812l-5.748 2.843 1.231-8.025c1.269 1.215 2.993 1.963 4.892 1.963s3.624-0.748 4.895-1.966l-0.003 0.002 1.292 8.025zM14.462 16c0-2.889 2.342-5.231 5.231-5.231s5.231 2.342 5.231 5.231c0 2.889-2.342 5.231-5.231 5.231v0c-2.889 0-5.231-2.342-5.231-5.231v0zM28.615 18.769h-2.462c0.354-0.814 0.56-1.763 0.56-2.759 0-3.908-3.168-7.077-7.077-7.077s-7.077 3.168-7.077 7.077c0 0.997 0.206 1.945 0.578 2.805l-0.018-0.046h-9.846v-15.385h25.231v15.385z"></path>
</symbol>
<symbol id="icon-24-floor" viewBox="0 0 32 32">
<path fill="#8a8cce" style="fill: var(--color1, #8a8cce)" d="M4 3h24l1 1v24l-1 1h-24l-1-1v-24l1-1zM5 14.919l9.919-9.919h-9.919v9.919zM5 17.748v7.838l20.586-20.586h-7.838l-12.748 12.748zM6.414 27h7.84l12.746-12.746v-7.84l-20.586 20.586zM27 27v-9.918l-9.918 9.918h9.918z"></path>
</symbol>
<symbol id="icon-24-gates" viewBox="0 0 32 32">
<path fill="#8a8cce" style="fill: var(--color1, #8a8cce)" d="M5.333 3l-1 1v24h2v-15h19.333v15h2v-24l-1-1h-21.333zM25.667 11h-19.333v-6h19.333v6zM15.293 24.707h1.414l4-4-1.414-1.414-2.293 2.293v-5.586h-2v5.586l-2.293-2.293-1.414 1.414 4 4z"></path>
</symbol>
<symbol id="icon-24-heating" viewBox="0 0 32 32">
<path fill="#8a8cce" style="fill: var(--color1, #8a8cce)" d="M17 19.1v-15.1h-2v15.1c-2.282 0.463-4 2.481-4 4.9 0 2.761 2.239 5 5 5s5-2.239 5-5c0-2.419-1.718-4.437-4-4.9zM13 24c0-1.657 1.343-3 3-3s3 1.343 3 3c0 1.657-1.343 3-3 3s-3-1.343-3-3zM19 4.333h4.667v2h-4.667v-2zM9.333 7h-1v2h4.667v-2h-3.667zM19 9.667h4.667v2h-4.667v-2zM9.333 13.667h-1v2h4.667v-2h-3.667z"></path>
</symbol>
<symbol id="icon-24-legal-1" viewBox="0 0 32 32">
<path fill="#fff" style="fill: var(--color2, #fff)" d="M20.333 17.667h-3.667v-3.667l-1-1c-3.13 0-5.667 2.537-5.667 5.667s2.537 5.667 5.667 5.667c3.13 0 5.667-2.537 5.667-5.667v0zM18.787 20.64c-0.665 1.001-1.788 1.652-3.063 1.652-2.025 0-3.667-1.642-3.667-3.667 0-1.692 1.146-3.116 2.704-3.539l0.026-0.006v3.533l0.947 0.987h3.533c-0.114 0.396-0.278 0.741-0.488 1.053l0.008-0.013z"></path>
<path fill="#fff" style="fill: var(--color2, #fff)" d="M27.040 9.627l-8-8c-0.181-0.181-0.431-0.293-0.707-0.293h-13.333l-1 1v26.667l1 1h21.333l1-1v-18.667zM19.333 4.747l5.253 5.253h-5.253v-5.253zM25.333 28h-19.333v-24.667h11.333v7.667l1 1h7v16z"></path>
</symbol>
<symbol id="icon-24-legal-2" viewBox="0 0 24 24">
<path fill="#fff" style="fill: var(--color2, #fff)" d="M5.25,7A6.75,6.75,0,1,1,12,13.75,6.75,6.75,0,0,1,5.25,7ZM12,1.75A5.25,5.25,0,1,0,17.25,7,5.25,5.25,0,0,0,12,1.75Z"/>
<path fill="#fff" style="fill: var(--color2, #fff)" d="M8.65,15.92A8.75,8.75,0,0,1,12,15.25v1.5A7.25,7.25,0,0,0,4.75,24H3.25A8.75,8.75,0,0,1,8.65,15.92Z"/>
<path fill="#fff" style="fill: var(--color2, #fff)" d="M16.48,22.56h2l-0.5-.5a1.84,1.84,0,0,0,.5-1.5,1.08,1.08,0,0,0-1-1,0.82,0.82,0,0,0-1,1,2.52,2.52,0,0,0,.1,1,1.93,1.93,0,0,0,.4.48Z"/>
<path fill="#fff" style="fill: var(--color2, #fff)" d="M13.48,18h1.25v0s0-.05,0-0.09,0-.18,0-0.3a3.21,3.21,0,0,1,.29-0.9,2.5,2.5,0,0,1,.85-1,3,3,0,0,1,3.14,0,2.5,2.5,0,0,1,.85,1,3.21,3.21,0,0,1,.29.9c0,0.12,0,.22,0,0.3s0,0.07,0,.09v0h1.25v6h-8V18Zm7,1.06h-6v4h6v-4ZM16.23,18h2.5a1.23,1.23,0,0,0-.38-0.94A1.4,1.4,0,0,0,16.7,17,1.28,1.28,0,0,0,16.23,18Z"/>
</symbol>
<symbol id="icon-24-legal-3" viewBox="0 0 32 32">
<path fill="#fff" style="fill: var(--color2, #fff)" d="M28 29h-24l-1-1v-18.667l1-1h5v-4.333l1-1h12l1 1v4.333h5l1 1v18.667zM5 27h22v-8.227h-22v8.227zM23 16.773h4v-6.44h-22v6.44h4v-2.773h2v2.773h10v-2.773h2v2.773zM11 8.333h10v-3.333h-10v3.333z"></path>
</symbol>
<symbol id="icon-24-lvl-1" viewBox="0 0 24 24">
<path fill="#8a8cce" style="fill: var(--color1, #8a8cce)" d="M1,1V12L12,1H1Z"/>
<path fill="#8a8cce" style="fill: var(--color1, #8a8cce)" d="M1.35,12.35L0.5,12V1L1,0.5H12l0.35,0.85ZM1.5,1.5v9.29L10.79,1.5H1.5Z"/>
<path fill="#4e4f67" style="fill: var(--color2, #4e4f67)" d="M23,23H12L23,12V23Z"/>
<path fill="#4e4f67" style="fill: var(--color2, #4e4f67)" d="M23,23.5H12l-0.35-.85,11-11L23.5,12V23Zm-9.79-1H22.5V13.21Z"/>
<path fill="#4e4f67" style="fill: var(--color2, #4e4f67)" d="M1,17L17.5,1H23V6.5L7,23H1V17Z"/>
<path fill="#4e4f67" style="fill: var(--color2, #4e4f67)" d="M7,23.5H1L0.5,23V17l0.15-.36,16.5-16L17.5,0.5H23L23.5,1V6.5l-0.14.35-16,16.5Zm-5.46-1H6.75L22.5,6.3V1.5H17.7L1.5,17.25V22.5Z"/>
</symbol>
<symbol id="icon-24-lvl-2" viewBox="0 0 24 24">
<path fill="#8a8cce" style="fill: var(--color1, #8a8cce)" d="M1,1V12L12,1H1Z"/>
<path fill="#8a8cce" style="fill: var(--color1, #8a8cce)" d="M1.35,12.35L0.5,12V1L1,0.5H12l0.35,0.85ZM1.5,1.5v9.29L10.79,1.5H1.5Z"/>
<path fill="#4e4f67" style="fill: var(--color2, #4e4f67)" d="M23,23H12L23,12V23Z"/>
<path fill="#4e4f67" style="fill: var(--color2, #4e4f67)" d="M23,23.5H12l-0.35-.85,11-11L23.5,12V23Zm-9.79-1H22.5V13.21Z"/>
<path fill="#8a8cce" style="fill: var(--color1, #8a8cce)" d="M1,17L17.5,1H23V6.5L7,23H1V17Z"/>
<path fill="#8a8cce" style="fill: var(--color1, #8a8cce)" d="M7,23.5H1L0.5,23V17l0.15-.36,16.5-16L17.5,0.5H23L23.5,1V6.5l-0.14.35-16,16.5Zm-5.46-1H6.75L22.5,6.3V1.5H17.7L1.5,17.25V22.5Z"/>
</symbol>
<symbol id="icon-24-lvl-3" viewBox="0 0 32 32">
<path fill="#8a8cce" style="fill: var(--color1, #8a8cce)" d="M1.333 1.333v14.667l14.667-14.667h-14.667zM30.667 16v14.667h-14.667l14.667-14.667zM23.333 1.333l-22 21.389v7.944l7.944 0 21.389-22v-7.333h-7.333z"></path>
<path fill="#8a8cce" style="fill: var(--color1, #8a8cce)" d="M1.333 16h-1l1.707 0.707-0.707-0.707zM1.333 1.333v-1l-1 1h1zM16 1.333l0.707 0.707-0.707-1.707v1zM30.667 30.667v1l1-1h-1zM30.667 16h1l-1.707-0.707 0.707 0.707zM16 30.667l-0.707-0.707 0.707 1.707v-1zM1.333 22.722l-0.697-0.717-0.303 0.717h1zM23.333 1.333v-1l-0.697 0.283 0.697 0.717zM1.333 30.667h-1l1 1 0-1zM9.278 30.667v1l0.717-0.303-0.717-0.697zM30.667 8.667l0.717 0.697 0.283-0.697h-1zM30.667 1.333h1l-1-1v1zM2.333 16v-14.667h-2v14.667h2zM15.293 0.626l-14.667 14.667 1.414 1.414 14.667-14.667-1.414-1.414zM1.333 2.333h14.667v-2h-14.667v2zM31.667 30.667v-14.667h-2v14.667h2zM16 31.667h14.667v-2h-14.667v2zM29.96 15.293l-14.667 14.667 1.414 1.414 14.667-14.667-1.414-1.414zM2.030 23.439l22-21.389-1.394-1.434-22 21.389 1.394 1.434zM2.333 30.667v-7.944h-2v7.944h2zM9.278 29.667l-7.944-0-0 2 7.944 0 0-2zM29.95 7.97l-21.389 22 1.434 1.394 21.389-22-1.434-1.394zM29.667 1.333v7.333h2v-7.333h-2zM23.333 2.333h7.333v-2h-7.333v2z"></path>
</symbol>
<symbol id="icon-24-management-1" viewBox="0 0 32 32">
<path fill="#fff" style="fill: var(--color2, #fff)" d="M29.333 30.333h-26.667v-2h3v-13.667l0.6-0.92 8.733-3.747v-7.333l1.52-0.853 10 6 0.48 0.853v19.667h2.333v2zM17 28.333h8v-19.107l-8-4.8v23.907zM7.667 28.333h7.333v-16.147l-7.333 3.147v13.013z"></path>
</symbol>
<symbol id="icon-24-management-2" viewBox="0 0 32 32">
<path fill="#fff" style="fill: var(--color2, #fff)" d="M16 2.333c-3.866 0-7 3.134-7 7s3.134 7 7 7c3.866 0 7-3.134 7-7s-3.134-7-7-7zM7 9.333c0-4.971 4.029-9 9-9s9 4.029 9 9c0 4.971-4.029 9-9 9s-9-4.029-9-9zM11.535 21.221c1.415-0.586 2.932-0.888 4.465-0.888v2c-1.269 0-2.526 0.25-3.699 0.736s-2.238 1.198-3.136 2.095-1.61 1.963-2.095 3.136c-0.486 1.173-0.736 2.43-0.736 3.699h-2c0-1.532 0.302-3.049 0.888-4.465s1.446-2.702 2.529-3.785c1.083-1.083 2.369-1.943 3.785-2.529zM24.334 20v1.783c0.844 0.2 1.593 0.646 2.166 1.259l1.567-1.176 1.2 1.6-1.771 1.328c0.111 0.383 0.17 0.787 0.17 1.205s-0.059 0.823-0.17 1.205l1.771 1.328-1.2 1.6-1.567-1.176c-0.573 0.613-1.322 1.060-2.166 1.259v1.783h-2v-1.782c-0.845-0.199-1.594-0.646-2.167-1.259l-1.566 1.175-1.2-1.6 1.769-1.327c-0.111-0.383-0.17-0.788-0.17-1.207s0.059-0.823 0.17-1.207l-1.769-1.327 1.2-1.6 1.566 1.175c0.573-0.613 1.323-1.060 2.167-1.259v-1.782h2zM23.333 23.667c-1.289 0-2.333 1.045-2.333 2.333s1.045 2.333 2.333 2.333c1.289 0 2.333-1.045 2.333-2.333s-1.045-2.333-2.333-2.333z"></path>
</symbol>
<symbol id="icon-24-management-3" viewBox="0 0 24 24">
<path fill="#fff" style="fill: var(--color2, #fff)" d="M21.3036 4.76815L20.7623 5.28726L20.7625 5.28751L21.3036 4.76815ZM17.2095 3V3.75V3ZM13.1153 4.76815L13.6565 5.28738L13.6567 5.28726L13.1153 4.76815ZM11.9997 5.93095L12.5245 6.46682L12.5409 6.45018L11.9997 5.93095ZM10.8841 4.76815L10.3429 5.28738L10.8841 4.76815ZM2.69584 13.3027L2.15465 13.8219H2.15465L2.69584 13.3027ZM3.81147 14.4655L4.35266 13.9462L4.35266 13.9462L3.81147 14.4655ZM11.9997 23L11.4585 23.5192H12.5409L11.9997 23ZM21.3036 13.3027L20.7625 12.7833L20.7624 12.7834L21.3036 13.3027ZM7.05 10.7778L6.52527 10.2419L6.51701 11.3054L7.05 10.7778ZM10.9 14.6667L10.367 15.1943L11.4421 15.185L10.9 14.6667ZM15.6332 9.71696L16.1745 9.19778L15.0912 9.19861L15.6332 9.71696ZM21.8449 4.24903C21.2392 3.61742 20.5183 3.11464 19.7227 2.771L19.1279 4.14807C19.7372 4.4112 20.2929 4.79777 20.7623 5.28726L21.8449 4.24903ZM19.7227 2.771C18.9269 2.42733 18.0728 2.25 17.2095 2.25V3.75C17.8669 3.75 18.5187 3.88497 19.1279 4.14807L19.7227 2.771ZM17.2095 2.25C16.3461 2.25 15.492 2.42733 14.6963 2.771L15.291 4.14807C15.9002 3.88497 16.552 3.75 17.2095 3.75V2.25ZM14.6963 2.771C13.9006 3.11464 13.1797 3.61742 12.574 4.24903L13.6567 5.28726C14.1261 4.79777 14.6817 4.4112 15.291 4.14807L14.6963 2.771ZM12.5741 4.24891L11.4585 5.41171L12.5409 6.45018L13.6565 5.28738L12.5741 4.24891ZM12.5409 5.41171L11.4253 4.24891L10.3429 5.28738L11.4585 6.45018L12.5409 5.41171ZM11.4253 4.24891C10.2014 2.97329 8.53474 2.25059 6.78997 2.25059V3.75059C8.11639 3.75059 9.3951 4.2995 10.3429 5.28738L11.4253 4.24891ZM6.78997 2.25059C5.0452 2.25059 3.37851 2.97329 2.15465 4.24891L3.23704 5.28738C4.18484 4.2995 5.46355 3.75059 6.78997 3.75059V2.25059ZM2.15465 4.24891C0.931801 5.52347 0.25 7.24575 0.25 9.03541L1.75 9.03541C1.75 7.62399 2.28822 6.27632 3.23704 5.28738L2.15465 4.24891ZM0.25 9.03541C0.25 10.8251 0.931801 12.5474 2.15465 13.8219L3.23704 12.7834C2.28822 11.7945 1.75 10.4468 1.75 9.03541L0.25 9.03541ZM2.15465 13.8219L3.27027 14.9847L4.35266 13.9462L3.23704 12.7834L2.15465 13.8219ZM3.27027 14.9847L11.4585 23.5192L12.5409 22.4808L4.35266 13.9462L3.27027 14.9847ZM12.5409 23.5192L20.7292 14.9847L19.6468 13.9462L11.4585 22.4808L12.5409 23.5192ZM20.7292 14.9847L21.8448 13.8219L20.7624 12.7834L19.6468 13.9462L20.7292 14.9847ZM21.8447 13.822C22.4506 13.1908 22.9297 12.4429 23.2561 11.622L21.8622 11.0679C21.6064 11.7113 21.2322 12.294 20.7625 12.7833L21.8447 13.822ZM23.2561 11.622C23.5824 10.8011 23.75 9.92227 23.75 9.03541H22.25C22.25 9.73366 22.118 10.4244 21.8622 11.0679L23.2561 11.622ZM23.75 9.03541C23.75 8.14854 23.5824 7.26969 23.2561 6.44881L21.8622 7.00293C22.118 7.64643 22.25 8.33716 22.25 9.03541H23.75ZM23.2561 6.44881C22.9297 5.62788 22.4506 4.88004 21.8447 4.24878L20.7625 5.28751C21.2322 5.77683 21.6064 6.35948 21.8622 7.00293L23.2561 6.44881ZM11.475 5.39508L6.52527 10.2419L7.57473 11.3136L12.5245 6.46682L11.475 5.39508ZM11.4421 15.185L16.1753 10.2353L15.0912 9.19861L10.3579 14.1483L11.4421 15.185ZM15.092 10.2361L19.6467 14.9846L20.7292 13.9463L16.1745 9.19778L15.092 10.2361ZM6.51701 11.3054L10.367 15.1943L11.433 14.139L7.58299 10.2501L6.51701 11.3054Z"></path>
</symbol>
<symbol id="icon-24-occupancy" viewBox="0 0 32 32">
<path fill="#8a8cce" style="fill: var(--color1, #8a8cce)" d="M16 29c-0.645-0.001-1.278-0.049-1.897-0.142l0.070 0.009c-6.338-0.939-11.146-6.341-11.146-12.867 0-2.461 0.684-4.762 1.872-6.724l-0.033 0.058 1.333-0.347 8.76 5.333v-10.32l1.040-1c7.18 0 13 5.82 13 13s-5.82 13-13 13v0zM6.093 11.213c-0.694 1.401-1.1 3.050-1.1 4.794 0 6.075 4.925 11 11 11s11-4.925 11-11c0-5.721-4.367-10.422-9.95-10.95l-0.044-0.003v10.947l-1.52 0.853z"></path>
</symbol>
<symbol id="icon-24-ok" viewBox="0 0 32 32">
<path fill="#8a8cce" style="fill: var(--color1, #8a8cce)" d="M14 24l-1.178 1.179h2.357l-1.179-1.179zM26.821 8.822l-14 14 2.357 2.357 14-14-2.357-2.357zM15.179 22.821l-8-8-2.357 2.357 8 8 2.357-2.357z"></path>
</symbol>
<symbol id="icon-24-parking" viewBox="0 0 32 32">
<path fill="#8a8cce" style="fill: var(--color1, #8a8cce)" d="M5.333 3l-1 1v4h2v-3h2.556v-2h-3.556zM12.444 5h7.111v-2h-7.111v2zM23.111 5h2.556v3h2v-4l-1-1h-3.556v2zM6.333 20v-8h-2v8h2zM25.667 12v8h2v-8h-2zM6.333 28v-4h-2v5h2v-1zM25.667 24v5h2v-5h-2zM16.431 12h-3.765v10.667h1.882v-3.627h1.882c1.401 0 2.458-0.32 3.169-0.96s1.067-1.493 1.067-2.56c0-1.138-0.34-2.006-1.020-2.606-0.669-0.61-1.741-0.914-3.216-0.914zM14.549 17.425v-3.81h1.882c0.784 0 1.354 0.168 1.71 0.503 0.366 0.325 0.549 0.792 0.549 1.402 0 0.579-0.188 1.041-0.565 1.387s-0.941 0.518-1.694 0.518h-1.882z"></path>
</symbol>
<symbol id="icon-24-phone" viewBox="0 0 32 32">
<path fill="#8a8cce" style="fill: var(--color1, #8a8cce)" d="M28 21.893v4.715c0 0.338-0.128 0.663-0.358 0.91s-0.545 0.397-0.882 0.421c-0.583 0.040-1.059 0.061-1.427 0.061-11.783 0-21.333-9.551-21.333-21.333 0-0.368 0.020-0.844 0.061-1.427 0.024-0.337 0.174-0.652 0.421-0.882s0.572-0.358 0.91-0.358h4.715c0.165-0 0.325 0.061 0.448 0.172s0.2 0.263 0.216 0.428c0.031 0.307 0.059 0.551 0.085 0.736 0.265 1.849 0.808 3.648 1.611 5.335 0.127 0.267 0.044 0.585-0.196 0.756l-2.877 2.056c1.759 4.099 5.026 7.366 9.125 9.125l2.053-2.872c0.084-0.117 0.206-0.201 0.346-0.238s0.288-0.023 0.418 0.039c1.687 0.801 3.485 1.343 5.333 1.607 0.185 0.027 0.429 0.056 0.733 0.085 0.164 0.017 0.317 0.094 0.427 0.217s0.172 0.282 0.171 0.447h-0.001z"></path>
</symbol>
<symbol id="icon-24-ramp" viewBox="0 0 32 32">
<path fill="#8a8cce" style="fill: var(--color1, #8a8cce)" d="M15.293 3.293l-4 4 1.414 1.414 2.293-2.293v5.586h2v-5.586l2.293 2.293 1.414-1.414-4-4h-1.414zM2.667 17.667l-1 1v8l1 1h4l1-1v-3h5.333v3l1 1h4l1-1v-3h5.333v3l1 1h4l1-1v-8l-1-1h-26.667zM3.667 23.667h2v2h-2v-2zM6.667 21.667h-3v-2h24.667v2h-21.667zM26.333 23.667h2v2h-2v-2zM15 25.667v-2h2v2h-2z"></path>
</symbol>
<symbol id="icon-24-rating" viewBox="0 0 32 32">
<path fill="#8a8cce" style="fill: var(--color1, #8a8cce)" d="M23.253 27.6l-7.253-5.333-7.253 5.333-1.533-1.12 2.773-8.52-7.32-5.267 0.653-1.813h8.96l2.773-8.52h1.907l2.773 8.52h8.96l0.64 1.813-7.253 5.333 2.773 8.52zM15.413 20.293h1.173l5.333 3.88-2.040-6.28 0.36-1.12 5.333-3.88h-6.667l-0.947-0.693-1.96-6.293-2.040 6.28-0.947 0.693h-6.667l5.333 3.88 0.36 1.12-1.973 6.293z"></path>
</symbol>
<symbol id="icon-24-security" viewBox="0 0 32 32">
<path fill="#8a8cce" style="fill: var(--color1, #8a8cce)" d="M15.621 2.409l-11.333 4.667-0.619 0.933 1-0.008c-1 0.008-1 0.008-1 0.008v0.002l0 0.005 0 0.017 0.001 0.062c0.001 0.054 0.002 0.131 0.005 0.231 0.005 0.2 0.014 0.488 0.030 0.845 0.032 0.714 0.092 1.709 0.206 2.832 0.224 2.22 0.666 5.047 1.559 7.197 1.052 2.532 3.62 5.128 5.786 7.018 1.105 0.964 2.147 1.781 2.913 2.356 0.383 0.288 0.698 0.516 0.919 0.673 0.11 0.079 0.197 0.139 0.256 0.181l0.095 0.065c0 0 0 0 0.564-0.826l-0.564 0.826 1.128-0-0.564-0.826c0.564 0.826 0.564 0.826 0.564 0.826l0.001-0 0.001-0.001 0.005-0.003 0.018-0.013 0.069-0.048c0.060-0.041 0.146-0.102 0.256-0.181 0.22-0.157 0.535-0.385 0.918-0.673 0.765-0.575 1.807-1.391 2.911-2.356 2.165-1.89 4.731-4.485 5.783-7.018 0.893-2.15 1.335-4.977 1.561-7.197 0.114-1.124 0.175-2.118 0.207-2.832 0.016-0.357 0.025-0.645 0.030-0.845 0.003-0.1 0.004-0.178 0.005-0.231l0.001-0.062 0-0.017 0-0.005v-0.002c0-0 0-0-1-0.009l1 0.009-0.619-0.933-11.331-4.667-0.762-0zM5.703 9.081c-0.007-0.153-0.012-0.293-0.017-0.418l10.316-4.248 10.314 4.248c-0.005 0.124-0.010 0.264-0.017 0.418-0.031 0.686-0.089 1.642-0.199 2.721-0.221 2.183-0.643 4.765-1.418 6.632-0.856 2.061-3.091 4.392-5.251 6.278-1.058 0.924-2.060 1.709-2.797 2.263-0.242 0.182-0.455 0.338-0.632 0.467-0.177-0.128-0.39-0.285-0.633-0.467-0.738-0.554-1.74-1.339-2.799-2.263-2.162-1.887-4.398-4.217-5.254-6.278-0.775-1.866-1.195-4.448-1.416-6.631-0.109-1.078-0.167-2.034-0.197-2.721zM22.428 12.471l0.648-0.761-1.523-1.297-5.961 7.001-3.679-4.609-1.563 1.248 4.436 5.557 1.543 0.024 6.099-7.163z"></path>
</symbol>
<symbol id="icon-24-service-1" viewBox="0 0 32 32">
<path fill="#fff" style="fill: var(--color2, #fff)" d="M4.387 16.901c0.563 0.839 1.397 1.955 2.481 3.068 2.184 2.242 5.274 4.364 9.132 4.364s6.949-2.123 9.132-4.364c1.084-1.113 1.918-2.229 2.481-3.068 0.243-0.362 0.434-0.67 0.571-0.901-0.138-0.232-0.329-0.54-0.571-0.901-0.563-0.839-1.397-1.955-2.481-3.068-2.184-2.242-5.274-4.364-9.132-4.364s-6.949 2.123-9.132 4.364c-1.084 1.113-1.918 2.229-2.481 3.068-0.243 0.362-0.433 0.67-0.571 0.901 0.138 0.232 0.329 0.54 0.571 0.901zM30.22 15.538c0 0 0 0.001-0.887 0.462 0.887 0.461 0.887 0.461 0.887 0.462l-0.001 0.001-0.001 0.003-0.004 0.008-0.013 0.025c-0.011 0.021-0.027 0.051-0.048 0.089-0.042 0.076-0.102 0.183-0.181 0.319-0.158 0.271-0.392 0.653-0.698 1.11-0.612 0.911-1.52 2.129-2.709 3.349-2.362 2.425-5.938 4.969-10.565 4.969s-8.203-2.544-10.565-4.969c-1.189-1.22-2.097-2.437-2.709-3.349-0.306-0.457-0.54-0.839-0.698-1.11-0.079-0.136-0.14-0.243-0.181-0.319-0.021-0.038-0.037-0.067-0.048-0.089l-0.013-0.025-0.004-0.008-0.001-0.003-0-0.001c-0-0-0-0.001 0.887-0.462-0.887-0.461-0.887-0.461-0.887-0.462l0-0.001 0.001-0.003 0.004-0.008 0.013-0.025c0.011-0.021 0.027-0.051 0.048-0.089 0.042-0.076 0.102-0.183 0.181-0.319 0.158-0.271 0.392-0.653 0.698-1.11 0.612-0.911 1.52-2.129 2.709-3.349 2.362-2.425 5.938-4.969 10.565-4.969s8.203 2.544 10.565 4.969c1.189 1.22 2.097 2.437 2.709 3.349 0.306 0.457 0.54 0.839 0.698 1.11 0.079 0.136 0.14 0.243 0.181 0.319 0.021 0.038 0.037 0.067 0.048 0.089l0.013 0.025 0.004 0.008 0.001 0.003 0.001 0.001zM29.333 16l0.887 0.461v-0.922l-0.887 0.461zM1.779 15.539v0.922l0.887-0.461-0.887-0.461zM13 16c0-1.657 1.343-3 3-3s3 1.343 3 3-1.343 3-3 3c-1.657 0-3-1.343-3-3zM16 11c-2.761 0-5 2.239-5 5s2.239 5 5 5c2.761 0 5-2.239 5-5s-2.239-5-5-5z"></path>
</symbol>
<symbol id="icon-24-service-2" viewBox="0 0 32 32">
<path fill="#fff" style="fill: var(--color2, #fff)" d="M19.333 30.333h-5.333l-1-1v-17.667h-8.333l-1-1v-2.667l0.52-0.88 7.333-4 0.48-0.12h15.333l1 1v6.667l-1 1h-7v17.667zM15 28.333h3.333v-17.667l1-1h1.667v-4.667h-8.747l-6.587 3.6v1.067h8.333l1 1v17.667zM23 9.667h3.333v-4.667h-3.333v4.667z"></path>
</symbol>
<symbol id="icon-24-square-1" viewBox="0 0 32 32">
<path fill="#8a8cce" style="fill: var(--color1, #8a8cce)" d="M4.994 3.995l-1 1v5.89h2v-3.476l6.335 6.335 1.414-1.414-6.335-6.335h3.476v-2h-5.89zM27.001 3.995l1 1v5.89h-2v-3.476l-6.335 6.335-1.414-1.414 6.335-6.335h-3.476v-2h5.89zM3.994 27l1 1h5.89v-2h-3.476l6.335-6.335-1.414-1.414-6.335 6.335v-3.476h-2v5.89zM27.001 28l1-1v-5.89h-2v3.476l-6.335-6.335-1.414 1.414 6.335 6.335h-3.476v2h5.89z"></path>
</symbol>
<symbol id="icon-24-square-2" viewBox="0 0 32 32">
<path fill="#8a8cce" style="fill: var(--color1, #8a8cce)" d="M28 29h-8v-2h8v2zM16 29h-8v-2h8v2zM5 28h-2v-8h2v8zM29 24h-2v-8h2v8zM5 16h-2v-8h2v8zM29 12h-2v-8h2v8zM24 5h-8v-2h8v2zM12 5h-8v-2h8v2z"></path>
</symbol>
<symbol id="icon-24-stillage" viewBox="0 0 24 24">
<path fill="#8a8cce" style="fill: var(--color1, #8a8cce)" d="M3.75,5.25V3H2.25V21h1.5V18.75h7.5V21h1.5V18.75h7.5V21h1.5V3h-1.5V5.25h-7.5V3h-1.5V5.25H3.75Zm7.5,10.5v1.5H3.75v-1.5h7.5Zm0-3v1.5H3.75v-1.5h7.5Zm0-3v1.5H3.75V9.75h7.5Zm0-3v1.5H3.75V6.75h7.5Zm9,9v1.5h-7.5v-1.5h7.5Zm0-3v1.5h-7.5v-1.5h7.5Zm0-3v1.5h-7.5V9.75h7.5Zm0-3v1.5h-7.5V6.75h7.5Z"></path>
</symbol>
<symbol id="icon-24-temp" viewBox="0 0 32 32">
<path fill="#8a8cce" style="fill: var(--color1, #8a8cce)" d="M3 4l1-1h24l1 1v12l-1 1h-24l-1-1v-12zM5 5v6h22v-6h-22zM27 13h-22v2h22v-2zM4.626 24.626l4-4h1.414l4 4-1.414 1.414-2.293-2.293v5.586h-2v-5.586l-2.293 2.293-1.414-1.414zM23.374 20.626h-1.414l-4 4 1.414 1.414 2.293-2.293v5.586h2v-5.586l2.293 2.293 1.414-1.414-4-4z"></path>
</symbol>
<symbol id="icon-24-ventilation" viewBox="0 0 24 24">
<path fill="#8a8cce" style="fill: var(--color1, #8a8cce)" d="M5,1.75H5.75V0.25H5A4.76,4.76,0,0,0,1.72,1.72,4.76,4.76,0,0,0,.25,5V5.75h1.5V5a3.27,3.27,0,0,1,1-2.22A3.27,3.27,0,0,1,5,1.75Z"/>
<path fill="#8a8cce" style="fill: var(--color1, #8a8cce)" d="M18.25,22.25H19A3.56,3.56,0,0,0,22.25,19V18.25h1.5V19A5,5,0,0,1,19,23.75H18.25v-1.5Z"/>
<path fill="#8a8cce" style="fill: var(--color1, #8a8cce)" d="M11.25,2l1.28-.53,5,5V7.53l-3.72,3.72H22l0.53,1.28-5,5H16.47l-3.72-3.72V22l-1.28.53-5-5V16.47l3.72-3.72H2L1.47,11.47l5-5H7.53l3.72,3.72V2Zm-1.06,9.25L7,8.06,3.81,11.25h6.38Zm2.56-1.06L15.94,7,12.75,3.81v6.38Zm1,2.56L17,15.94l3.19-3.19H13.78Zm-2.53,1.1L8.06,17l3.19,3.19V13.84Z"/>
</symbol>
<symbol id="icon-24-water" viewBox="0 0 32 32">
<path fill="#8a8cce" style="fill: var(--color1, #8a8cce)" d="M15.117 3.534l-3.127 5.938c-1.124 2.13-2.358 4.468-3.125 6.848-0.831 2.58-1.154 5.324-0.149 8.035 0.459 1.238 1.218 2.419 2.436 3.285 1.22 0.867 2.818 1.361 4.851 1.361s3.631-0.493 4.851-1.361c1.217-0.866 1.977-2.047 2.436-3.285 1.005-2.711 0.682-5.455-0.149-8.035-0.767-2.38-2.001-4.718-3.125-6.848v-0l-0.257-0.487-2.87-5.451h-1.77zM14.017 9.916l1.985-3.77 2.225 4.226c1.142 2.165 2.297 4.355 3.008 6.561 0.755 2.344 0.968 4.593 0.178 6.727-0.352 0.951-0.899 1.766-1.72 2.35-0.818 0.582-1.989 0.99-3.691 0.99s-2.874-0.409-3.691-0.99c-0.82-0.583-1.367-1.399-1.72-2.35-0.791-2.134-0.578-4.382 0.178-6.727 0.711-2.206 1.866-4.396 3.008-6.561l0.24-0.456zM12.485 18.981c0-0 0-0.001 0.969 0.249l0.969 0.248-0.001 0.002-0.006 0.025c-0.006 0.025-0.014 0.064-0.025 0.116-0.021 0.105-0.048 0.259-0.071 0.444-0.046 0.379-0.069 0.854-0.002 1.305 0.068 0.457 0.215 0.803 0.432 1.028 0.193 0.2 0.54 0.409 1.251 0.409h1v2h-1c-1.153 0-2.057-0.363-2.692-1.022-0.61-0.633-0.867-1.432-0.97-2.121-0.104-0.694-0.064-1.364-0.005-1.843 0.030-0.244 0.066-0.448 0.095-0.593 0.015-0.073 0.028-0.132 0.037-0.174 0.005-0.021 0.009-0.038 0.012-0.051l0.004-0.016 0.001-0.005 0.001-0.002 0-0.001z"></path>
</symbol>
</defs>
</svg>
