<svg aria-hidden="true" style="position: absolute; width: 0; height: 0; overflow: hidden;" version="1.1" xmlns="http://www.w3.org/2000/svg" xmlns:xlink="http://www.w3.org/1999/xlink">
<defs>
<symbol id="icon-24-ceiling" viewBox="0 0 32 32">
<path fill="#8a8cce" style="fill: var(--color1, #8a8cce)" d="M26.667 3.667h-21.333v-2h21.333v2zM15.293 5.96h1.414l4 4-1.414 1.414-2.293-2.293v13.838l2.293-2.293 1.414 1.414-4 4h-1.414l-4-4 1.414-1.414 2.293 2.293v-13.838l-2.293 2.293-1.414-1.414 4-4zM5.333 30.333h21.333v-2h-21.333v2z"></path>
</symbol>
<symbol id="icon-24-cleaning-1" viewBox="0 0 32 32">
<path fill="#fff" style="fill: var(--color2, #fff)" d="M14.667 29c-4.227 0-9.64-1.813-12-2.6l-0.373-0.12-0.267-1.76c1.8-1.286 3.097-3.174 3.602-5.366l0.012-0.061 0.173-0.427c0.667-2.667 1.333-5.427 3.52-7.36 1.532-1.25 3.508-2.008 5.662-2.008 0.764 0 1.505 0.095 2.213 0.275l-0.062-0.013 7.64-5.013 1.253 0.133 4 4 0.093 1.333-5.333 7.187c0.107 0.433 0.179 0.936 0.2 1.452l0 0.015c0.003 0.089 0.005 0.195 0.005 0.3 0 2.769-1.134 5.272-2.963 7.072l-0.001 0.001c-1.938 1.787-4.52 2.901-7.362 2.96l-0.012 0zM4.667 25c2.947 1.071 6.356 1.787 9.901 1.995l0.099 0.005c2.302-0.054 4.386-0.946 5.968-2.38l-0.008 0.007c1.469-1.429 2.38-3.424 2.38-5.632 0-0.115-0.003-0.23-0.007-0.344l0.001 0.016c-0.005-0.538-0.083-1.056-0.223-1.548l0.010 0.041c-0.652-2.113-2.044-3.834-3.866-4.898l-0.040-0.022c-0.512-0.264-1.11-0.496-1.735-0.665l-0.065-0.015c-0.619-0.197-1.331-0.31-2.069-0.31-1.646 0-3.16 0.564-4.36 1.508l0.015-0.011c-1.707 1.52-2.32 4-2.907 6.347l-0.12 0.48c-0.507 2.113-1.549 3.934-2.974 5.374l0.001-0.001zM19.547 10.333l0.24 0.12c1.814 1.026 3.256 2.524 4.186 4.328l0.027 0.058 4-5.413-2.8-2.76zM17.333 10.587v0z"></path>
</symbol>
<symbol id="icon-24-cleaning-2" viewBox="0 0 32 32">
<path fill="#fff" style="fill: var(--color2, #fff)" d="M28.044 9.047l-8.727-8.727c-0.197-0.197-0.47-0.32-0.771-0.32h-14.546l-1.091 1.091v1.164c0 0.625 0 1.353 0 1.745v23.273c0 0.393 0 1.12 0 1.745v1.164l1.091 1.091h23.273l1.091-1.091v-20.364zM19.636 3.724l5.731 5.731h-5.731v-5.731zM26.182 27.273h-21.091v1.745c0-0.625 0-1.353 0-1.745v-23.273c0-0.393 0-1.12 0-1.745v-0.073h12.364v8.364l1.091 1.091h7.636v15.636z"></path>
<path fill="#fff" style="fill: var(--color2, #fff)" d="M9.455 15.636h-1.091v2.182h13.818v-2.182h-12.727z"></path>
<path fill="#fff" style="fill: var(--color2, #fff)" d="M9.455 21.455h-1.091v2.182h13.818v-2.182h-12.727z"></path>
<path fill="#fff" style="fill: var(--color2, #fff)" d="M10.909 9.818h-2.545v2.182h5.091v-2.182h-2.545z"></path>
</symbol>
<symbol id="icon-24-cleaning-3" viewBox="0 0 32 32">
<path fill="#fff" style="fill: var(--color2, #fff)" d="M32 2.667c0 0.736-0.597 1.333-1.333 1.333s-1.333-0.597-1.333-1.333c0-0.736 0.597-1.333 1.333-1.333s1.333 0.597 1.333 1.333zM28 5.333c0 0.736-0.597 1.333-1.333 1.333s-1.333-0.597-1.333-1.333c0-0.736 0.597-1.333 1.333-1.333s1.333 0.597 1.333 1.333zM28 9.333c0 0.736-0.597 1.333-1.333 1.333s-1.333-0.597-1.333-1.333c0-0.736 0.597-1.333 1.333-1.333s1.333 0.597 1.333 1.333zM30.667 13.333c0.736 0 1.333-0.597 1.333-1.333s-0.597-1.333-1.333-1.333c-0.736 0-1.333 0.597-1.333 1.333s0.597 1.333 1.333 1.333zM30.667 8.667c0.736 0 1.333-0.597 1.333-1.333s-0.597-1.333-1.333-1.333c-0.736 0-1.333 0.597-1.333 1.333s0.597 1.333 1.333 1.333zM17 5.486v3.17l-1.333 0.533v-3.97l1.333 0.267zM15.475 3.142l-0.809-0.809h-9.333l-1 1v7.171l-2.615 7.846-0.051 0.316v12l1 1h14.667l1-1v-12l-0.051-0.316-2.369-7.105 1.509-0.604 1.641 4.376 1.873-0.702-1.493-3.982h1.89l1-1v-4.667l-1-1h-3.234l-2.624-0.525zM13.667 4.333v5.333h-7.333v-5.333h7.333zM19 8.333v-2.667h1.333v2.667h-1.333zM3.667 18.829l2.387-7.162h7.892l2.387 7.162v10.838h-12.667v-10.838z"></path>
</symbol>
<symbol id="icon-24-columns" viewBox="0 0 32 32">
<path fill="#8a8cce" style="fill: var(--color1, #8a8cce)" d="M13.333 5v-2h-10.667v2h1.667v22h-1.667v2h10.667v-2h-1.667v-22h1.667zM9.667 5v22h-3.333v-22h3.333zM20.333 5h-1.667v-2h10.667v2h-1.667v22h1.667v2h-10.667v-2h1.667v-22zM22.333 27h3.333v-22h-3.333v22z"></path>
</symbol>
<symbol id="icon-24-dropdown-close" viewBox="0 0 32 32">
<path fill="#8a8cce" style="fill: var(--color, #8a8cce)" d="M20.271 19.114l-4.271-4.271-4.271 4.271-1.305-1.305 5.575-5.575 5.575 5.575-1.305 1.305z"></path>
<path fill="#4d4d4d" style="fill: var(--color--border, #4d4d4d)" d="M16 30.154c-7.817 0-14.154-6.337-14.154-14.154v0h-1.231c0 8.497 6.888 15.385 15.385 15.385v0-1.231zM30.154 16c0 7.817-6.337 14.154-14.154 14.154v0 1.231c8.497 0 15.385-6.888 15.385-15.385v0h-1.231zM16 1.846c7.817 0 14.154 6.337 14.154 14.154v0h1.231c0-8.497-6.888-15.385-15.385-15.385v0 1.231zM16 0.615c-8.497 0-15.385 6.888-15.385 15.385v0h1.231c0-7.817 6.337-14.154 14.154-14.154v0-1.231z"></path>
</symbol>
<symbol id="icon-24-dropdown-open" viewBox="0 0 32 32">
<path class='arrow' fill="#8a8cce" style="fill: var(--color, #8a8cce)" d="M16 19.766l-5.575-5.575 1.305-1.305 4.271 4.271 4.271-4.271 1.305 1.305-5.575 5.575z"></path>
<path fill="#4d4d4d" style="fill: var(--color-border, #4d4d4d)" d="M16 30.154c-7.817 0-14.154-6.337-14.154-14.154v0h-1.231c0 8.497 6.888 15.385 15.385 15.385v0-1.231zM30.154 16c0 7.817-6.337 14.154-14.154 14.154v0 1.231c8.497 0 15.385-6.888 15.385-15.385v0h-1.231zM16 1.846c7.817 0 14.154 6.337 14.154 14.154v0h1.231c0-8.497-6.888-15.385-15.385-15.385v0 1.231zM16 0.615c-8.497 0-15.385 6.888-15.385 15.385v0h1.231c0-7.817 6.337-14.154 14.154-14.154v0-1.231z"></path>
</symbol>
<symbol id="icon-24-electricity" viewBox="0 0 32 32">
<path fill="#8a8cce" style="fill: var(--color1, #8a8cce)" d="M10.413 30.027l-1.667-1.013 3.413-10.453h-4.827l-0.667-1.68 14.187-14.907 1.693 0.96-2.773 10.067h4.893l0.667 1.667zM9.667 16.573h3.867l0.947 1.333-2.48 7.653 10.32-10.56h-3.853l-0.96-1.267 2.067-7.52z"></path>
</symbol>
<symbol id="icon-24-emergency-1" viewBox="0 0 32 32">
<path fill="#fff" style="fill: var(--color2, #fff)" d="M16 22.333c-3.498 0-6.333-2.836-6.333-6.333s2.836-6.333 6.333-6.333c3.498 0 6.333 2.836 6.333 6.333v0c-0.008 3.495-2.839 6.326-6.333 6.333h-0.001zM16 11.667c-2.393 0-4.333 1.94-4.333 4.333s1.94 4.333 4.333 4.333c2.393 0 4.333-1.94 4.333-4.333v0c0-2.393-1.94-4.333-4.333-4.333v0z"></path>
<path fill="#fff" style="fill: var(--color2, #fff)" d="M14.4 31.667h-0.173c-0.158-0.016-0.302-0.049-0.44-0.097l0.013 0.004-4.36-1.333c-0.827-0.273-1.413-1.039-1.413-1.941 0-0.201 0.029-0.396 0.084-0.58l-0.004 0.014 0.293-1c-0.458-0.327-0.858-0.651-1.237-0.996l0.011 0.010-0.907 0.507c-0.281 0.156-0.615 0.248-0.972 0.248-0.76 0-1.423-0.419-1.77-1.038l-0.005-0.010-2.213-4c-0.155-0.279-0.246-0.611-0.246-0.964 0-0.208 0.031-0.408 0.090-0.596l-0.004 0.014c0.136-0.526 0.462-0.96 0.898-1.235l0.009-0.005 0.92-0.507c-0.082-0.451-0.144-0.991-0.172-1.541l-0.001-0.032-1-0.293c-0.827-0.273-1.413-1.039-1.413-1.941 0-0.201 0.029-0.396 0.084-0.58l-0.004 0.014 1.333-4.413c0.262-0.837 1.030-1.433 1.938-1.433 0.174 0 0.342 0.022 0.503 0.063l-0.014-0.003 0.987 0.347c0.328-0.458 0.651-0.858 0.997-1.238l-0.010 0.011-0.493-0.92c-0.156-0.281-0.248-0.615-0.248-0.972 0-0.76 0.419-1.423 1.038-1.77l0.010-0.005 4-2.213c0.281-0.158 0.617-0.251 0.974-0.251 0.214 0 0.42 0.033 0.614 0.095l-0.014-0.004c0.52 0.162 0.941 0.509 1.195 0.963l0.005 0.010 0.507 0.92c0.451-0.082 0.992-0.144 1.542-0.172l0.032-0.001 0.293-1c0.155-0.523 0.499-0.949 0.95-1.208l0.010-0.005c0.282-0.161 0.619-0.256 0.979-0.256 0.203 0 0.398 0.030 0.582 0.086l-0.014-0.004 4.4 1.333c0.827 0.273 1.413 1.039 1.413 1.941 0 0.201-0.029 0.396-0.084 0.58l0.004-0.014-0.293 1c0.458 0.327 0.858 0.65 1.237 0.996l-0.010-0.009 0.907-0.507c0.281-0.155 0.616-0.247 0.972-0.247 0.21 0 0.412 0.032 0.602 0.090l-0.014-0.004c0.514 0.165 0.93 0.511 1.181 0.963l0.005 0.010 2.213 4c0.156 0.281 0.248 0.615 0.248 0.972 0 0.76-0.419 1.423-1.038 1.77l-0.010 0.005-0.907 0.507c0.082 0.451 0.144 0.992 0.172 1.542l0.001 0.031 1 0.293c0.526 0.157 0.952 0.506 1.208 0.963l0.005 0.010c0.155 0.279 0.246 0.611 0.246 0.964 0 0.208-0.031 0.408-0.090 0.596l0.004-0.014-1.333 4.4c-0.273 0.827-1.039 1.413-1.941 1.413-0.201 0-0.396-0.029-0.58-0.084l0.014 0.004-1.013-0.307c-0.327 0.458-0.651 0.858-0.996 1.238l0.010-0.011 0.507 0.907c0.153 0.28 0.244 0.613 0.244 0.967 0 0.761-0.416 1.424-1.033 1.775l-0.010 0.005-4 2.213c-0.282 0.16-0.62 0.255-0.98 0.255-0.202 0-0.397-0.030-0.581-0.085l0.014 0.004c-0.52-0.16-0.942-0.508-1.195-0.963l-0.005-0.010-0.493-0.907c-0.451 0.082-0.992 0.144-1.542 0.172l-0.031 0.001-0.293 1c-0.24 0.846-0.991 1.46-1.89 1.493l-0.004 0zM6.8 23.667l1.2 0.2c0.603 0.613 1.277 1.155 2.007 1.613l0.046 0.027 0.427 1.16-0.507 1.68 4.427 1.333 0.533-1.68 0.96-0.72c0.052 0.001 0.114 0.001 0.176 0.001 0.884 0 1.742-0.107 2.564-0.31l-0.073 0.015 1.107 0.493 0.853 1.56 4-2.2-0.84-1.587 0.187-1.253c0.616-0.605 1.161-1.278 1.626-2.007l0.027-0.046 1.147-0.427 1.707 0.507s0 0 0 0l1.333-4.4-1.707-0.56-0.72-0.96c0-0.039 0.001-0.085 0.001-0.131 0-0.9-0.107-1.774-0.31-2.612l0.015 0.076 0.493-1.107 1.56-0.853-2.2-4-1.587 0.84-1.253-0.187c-0.603-0.613-1.277-1.155-2.007-1.613l-0.046-0.027-0.427-1.16 0.507-1.707-4.427-1.333-0.533 1.707-0.973 0.72c-0.009-0-0.019-0-0.029-0-0.935 0-1.845 0.107-2.718 0.309l0.081-0.016-1.040-0.44-0.867-1.573-4 2.2 0.787 1.6-0.173 1.2c-0.616 0.605-1.161 1.278-1.626 2.007l-0.027 0.046-1.147 0.427-1.68-0.507-1.333 4.427 1.68 0.533 0.72 0.973c-0 0.030-0 0.066-0 0.101 0 0.91 0.107 1.795 0.309 2.643l-0.016-0.077-0.493 1.107-1.56 0.853 2.2 4z"></path>
</symbol>
<symbol id="icon-24-emergency-2" viewBox="0 0 32 32">
<path fill="#fff" style="fill: var(--color2, #fff)" d="M27.28 6.12l-0.72 0.693zM22.32 4v0zM17.333 6.12l0.72 0.693zM16 7.453l0.693 0.72zM14.667 6.12l-0.72 0.693zM4.72 16.36l-0.72 0.693zM6.053 17.693l0.72-0.693zM16 28l-0.72 0.693h1.44zM27.28 16.36l-0.72-0.693zM10 13.333l-0.667-0.72v1.427zM14.667 18l-0.707 0.667h1.427zM20.4 12l0.72-0.693h-1.44zM27.987 5.333c-0.74-0.756-1.626-1.364-2.614-1.78l-0.053-0.020-0.707 1.933c0.759 0.328 1.405 0.778 1.945 1.332l0.001 0.001zM25.333 3.627c-0.905-0.396-1.96-0.627-3.069-0.627-0.004 0-0.008 0-0.012 0h0.001v2c0.003 0 0.006 0 0.009 0 0.826 0 1.611 0.172 2.322 0.481l-0.038-0.015zM22.253 3c-0.003 0-0.007 0-0.011 0-1.109 0-2.164 0.231-3.119 0.646l0.051-0.020 0.827 1.84c0.674-0.295 1.459-0.467 2.285-0.467 0.003 0 0.006 0 0.009 0h-0v-2zM19.173 3.627c-1.040 0.436-1.927 1.044-2.665 1.799l-0.001 0.001 1.44 1.333c0.572-0.55 1.255-0.989 2.012-1.28l0.041-0.014zM16.507 5.427l-1.333 1.333 1.44 1.333 1.333-1.333zM16.587 6.76l-1.333-1.333-1.44 1.333 1.333 1.333zM15.253 5.427c-1.412-1.468-3.382-2.39-5.567-2.427l-0.007-0v2c1.665 0.005 3.168 0.699 4.238 1.811l0.002 0.002zM9.68 3c-2.231 0.006-4.244 0.934-5.678 2.424l-0.002 0.003 1.44 1.333c1.072-1.087 2.561-1.76 4.207-1.76 0.012 0 0.024 0 0.035 0h-0.002v-2zM4 5.427c-1.444 1.5-2.333 3.543-2.333 5.794 0 0.007 0 0.014 0 0.021v-0.001h2c-0-0.006-0-0.013-0-0.021 0-1.711 0.676-3.265 1.775-4.408l-0.002 0.002zM1.667 11.24c0 0.006-0 0.013-0 0.019 0 2.251 0.889 4.294 2.336 5.797l-0.003-0.003 1.44-1.333c-1.098-1.141-1.774-2.695-1.774-4.406 0-0.026 0-0.052 0-0.078l-0 0.004h-2zM4 17.053l1.333 1.333 1.44-1.333-1.333-1.333zM5.333 18.387l9.92 10.24 1.44-1.333-9.907-10.227zM16.693 28.627l9.973-10.173-1.44-1.333-9.92 10.24zM26.667 18.453l1.333-1.333-1.44-1.333-1.333 1.333zM28 17.12c0.724-0.746 1.31-1.632 1.713-2.612l0.020-0.055-1.853-0.747c-0.326 0.787-0.776 1.46-1.334 2.027l0.001-0.001zM29.733 14.453c0.38-0.926 0.6-2 0.6-3.125 0-0.007 0-0.015-0-0.022v0.001h-2c-0.001 0.865-0.172 1.69-0.482 2.443l0.016-0.043zM30.333 11.307c0-0.006 0-0.014 0-0.021 0-1.126-0.22-2.2-0.62-3.182l0.020 0.056-1.853 0.747c0.294 0.71 0.466 1.535 0.467 2.4v0h2zM29.733 8.093c-0.423-1.035-1.009-1.92-1.735-2.669l0.002 0.002-1.44 1.333c0.557 0.566 1.007 1.239 1.318 1.985l0.015 0.041zM15.307 6.76l-5.973 5.853 1.333 1.44 6-5.813zM15.387 18.667l5.733-5.933-1.44-1.333-5.733 5.933zM19.68 12.733l5.52 5.693 1.44-1.333-5.52-5.733zM9.333 14.040l4.667 4.667 1.373-1.373-4.707-4.707z"></path>
</symbol>
<symbol id="icon-24-fire-dept-1" viewBox="0 0 32 32">
<path fill="#fff" style="fill: var(--color2, #fff)" d="M3.667 1.333l-1 1v26.667l1 1h21.333l1-1v-4.516c2.412-1.615 4-4.364 4-7.484s-1.588-5.87-4-7.484v-7.182l-1-1h-21.333zM21 26c1.052 0 2.062-0.18 3-0.512v2.512h-19.333v-24.667h19.333v5.179c-0.938-0.332-1.948-0.512-3-0.512-4.971 0-9 4.029-9 9s4.029 9 9 9zM21 10c3.866 0 7 3.134 7 7s-3.134 7-7 7c-3.866 0-7-3.134-7-7s3.134-7 7-7zM24.277 13.643l1.447 1.381-5.091 5.333h-1.447l-2.909-3.048 1.447-1.381 2.186 2.29 4.368-4.576z"></path>
</symbol>
<symbol id="icon-24-fire-dept-2" viewBox="0 0 32 32">
<path fill="#fff" style="fill: var(--color2, #fff)" d="M2.462 1.538l-0.923 0.923v17.231l0.923 0.923h10.551l-1.616 10.007 1.32 0.975 6.976-3.442 6.976 3.442 1.32-0.975-1.614-10.007h3.165l0.923-0.923v-17.231l-0.923-0.923h-27.077zM24.584 21.114c-1.271 1.216-2.994 1.963-4.892 1.963s-3.62-0.746-4.89-1.961l-1.298 8.034 5.779-2.852h0.817l5.78 2.852-1.296-8.036zM12.615 16c0 0.983 0.2 1.919 0.562 2.769h-9.793v-15.385h25.231v15.385h-2.409c0.362-0.851 0.562-1.786 0.562-2.769 0-3.908-3.169-7.077-7.077-7.077s-7.077 3.168-7.077 7.077zM19.692 10.769c-2.889 0-5.231 2.342-5.231 5.231s2.342 5.231 5.231 5.231c2.889 0 5.231-2.342 5.231-5.231s-2.342-5.231-5.231-5.231z"></path>
</symbol>
<symbol id="icon-24-floor" viewBox="0 0 32 32">
<path fill="#8a8cce" style="fill: var(--color1, #8a8cce)" d="M4 3h24l1 1v24l-1 1h-24l-1-1v-24l1-1zM5 14.919l9.919-9.919h-9.919v9.919zM5 17.748v7.838l20.586-20.586h-7.838l-12.748 12.748zM6.414 27h7.84l12.746-12.746v-7.84l-20.586 20.586zM27 27v-9.918l-9.918 9.918h9.918z"></path>
</symbol>
<symbol id="icon-24-gates" viewBox="0 0 32 32">
<path fill="#8a8cce" style="fill: var(--color1, #8a8cce)" d="M5.333 3l-1 1v24h2v-15h19.333v15h2v-24l-1-1h-21.333zM25.667 11h-19.333v-6h19.333v6zM15.293 24.707h1.414l4-4-1.414-1.414-2.293 2.293v-5.586h-2v5.586l-2.293-2.293-1.414 1.414 4 4z"></path>
</symbol>
<symbol id="icon-24-heating" viewBox="0 0 32 32">
<path fill="#8a8cce" style="fill: var(--color1, #8a8cce)" d="M17 19.1v-15.1h-2v15.1c-2.282 0.463-4 2.481-4 4.9 0 2.761 2.239 5 5 5s5-2.239 5-5c0-2.419-1.718-4.437-4-4.9zM13 24c0-1.657 1.343-3 3-3s3 1.343 3 3c0 1.657-1.343 3-3 3s-3-1.343-3-3zM19 4.333h4.667v2h-4.667v-2zM9.333 7h-1v2h4.667v-2h-3.667zM19 9.667h4.667v2h-4.667v-2zM9.333 13.667h-1v2h4.667v-2h-3.667z"></path>
</symbol>
<symbol id="icon-24-legal-2" viewBox="0 0 32 32">
<path fill="#fff" style="fill: var(--color2, #fff)" d="M16 2.333c-3.866 0-7 3.134-7 7s3.134 7 7 7c3.866 0 7-3.134 7-7s-3.134-7-7-7zM7 9.333c0-4.971 4.029-9 9-9s9 4.029 9 9c0 4.971-4.029 9-9 9s-9-4.029-9-9zM11.535 21.221c1.415-0.586 2.932-0.888 4.465-0.888v2c-1.269 0-2.526 0.25-3.699 0.736s-2.238 1.198-3.136 2.095-1.61 1.963-2.095 3.136c-0.486 1.173-0.736 2.43-0.736 3.699h-2c0-1.532 0.302-3.049 0.888-4.465s1.446-2.702 2.529-3.785c1.083-1.083 2.369-1.943 3.785-2.529zM28 25.333v5.333h-8v-5.333h8zM18.667 24h2.667c-1 0-1-0.001-1-0.001v-0.009l0-0.014 0.001-0.039c0.001-0.031 0.003-0.073 0.007-0.123 0.007-0.099 0.021-0.235 0.048-0.395 0.053-0.315 0.16-0.751 0.384-1.199 0.226-0.452 0.581-0.934 1.131-1.301 0.557-0.371 1.255-0.585 2.096-0.585s1.539 0.213 2.096 0.585c0.551 0.367 0.905 0.849 1.131 1.301 0.224 0.448 0.331 0.884 0.384 1.199 0.027 0.16 0.041 0.296 0.048 0.395 0.004 0.050 0.005 0.091 0.007 0.123l0.001 0.039 0 0.014v0.009c0 0.001 0 0.001-1 0.001h2.667v8h-10.667v-8zM25.666 23.985c0 0.006 0.001 0.011 0.001 0.015h-3.333c0-0.009 0.001-0.023 0.002-0.043 0.003-0.046 0.010-0.119 0.025-0.209 0.031-0.185 0.090-0.415 0.2-0.634 0.107-0.215 0.253-0.399 0.452-0.532 0.193-0.129 0.495-0.249 0.987-0.249s0.794 0.12 0.987 0.249c0.199 0.133 0.345 0.317 0.452 0.532 0.109 0.219 0.169 0.449 0.2 0.634 0.015 0.090 0.022 0.163 0.025 0.209 0.001 0.011 0.001 0.021 0.002 0.029zM22.667 30h2.667l-0.667-0.667c0.667-0.667 0.667-1.333 0.667-2s-0.667-1.333-1.333-1.333c-0.667 0-1.333 0-1.333 1.333 0 0.767 0 1.093 0.127 1.358 0.094 0.196 0.257 0.359 0.54 0.642l-0.667 0.667z"></path>
</symbol>
<symbol id="icon-24-legal-3" viewBox="0 0 32 32">
<path fill="#fff" style="fill: var(--color2, #fff)" d="M28 29h-24l-1-1v-18.667l1-1h5v-4.333l1-1h12l1 1v4.333h5l1 1v18.667zM5 27h22v-8.227h-22v8.227zM23 16.773h4v-6.44h-22v6.44h4v-2.773h2v2.773h10v-2.773h2v2.773zM11 8.333h10v-3.333h-10v3.333z"></path>
</symbol>
<symbol id="icon-24-lvl-1" viewBox="0 0 32 32">
<path fill="#8a8cce" style="fill: var(--color1, #8a8cce)" d="M1.333 22.722l22-21.389h7.333v7.333l-21.389 22-7.944-0v-7.944z"></path>
<path fill="#8a8cce" style="fill: var(--color1, #8a8cce)" d="M1.333 22.722l-0.697-0.717-0.303 0.717h1zM23.333 1.333v-1l-0.697 0.283 0.697 0.717zM30.667 1.333h1l-1-1v1zM30.667 8.667l0.717 0.697 0.283-0.697h-1zM9.278 30.667v1l0.717-0.303-0.717-0.697zM1.333 30.667h-1l1 1 0-1zM2.030 23.439l22-21.389-1.394-1.434-22 21.389 1.394 1.434zM23.333 2.333h7.333v-2h-7.333v2zM29.667 1.333v7.333h2v-7.333h-2zM29.95 7.97l-21.389 22 1.434 1.394 21.389-22-1.434-1.394zM9.278 29.667l-7.944-0-0 2 7.944 0 0-2zM2.333 30.667v-7.944h-2v7.944h2z"></path>
</symbol>
<symbol id="icon-24-lvl-2" viewBox="0 0 32 32">
<path fill="#8a8cce" style="fill: var(--color1, #8a8cce)" d="M1.333 16v-14.667h14.667l-14.667 14.667zM16 30.667h14.667v-14.667l-14.667 14.667z"></path>
<path fill="#8a8cce" style="fill: var(--color1, #8a8cce)" d="M1.333 1.333v-1l-1 1h1zM1.333 16h-1l1.707 0.707-0.707-0.707zM16 1.333l0.707 0.707-0.707-1.707v1zM30.667 30.667v1l1-1h-1zM16 30.667l-0.707-0.707 0.707 1.707v-1zM30.667 16h1l-1.707-0.707 0.707 0.707zM0.333 1.333v14.667h2v-14.667h-2zM16 0.333h-14.667v2h14.667v-2zM2.040 16.707l14.667-14.667-1.414-1.414-14.667 14.667 1.414 1.414zM30.667 29.667h-14.667v2h14.667v-2zM29.667 16v14.667h2v-14.667h-2zM16.707 31.374l14.667-14.667-1.414-1.414-14.667 14.667 1.414 1.414z"></path>
</symbol>
<symbol id="icon-24-lvl-3" viewBox="0 0 32 32">
<path fill="#8a8cce" style="fill: var(--color1, #8a8cce)" d="M1.333 1.333v14.667l14.667-14.667h-14.667zM30.667 16v14.667h-14.667l14.667-14.667zM23.333 1.333l-22 21.389v7.944l7.944 0 21.389-22v-7.333h-7.333z"></path>
<path fill="#8a8cce" style="fill: var(--color1, #8a8cce)" d="M1.333 16h-1l1.707 0.707-0.707-0.707zM1.333 1.333v-1l-1 1h1zM16 1.333l0.707 0.707-0.707-1.707v1zM30.667 30.667v1l1-1h-1zM30.667 16h1l-1.707-0.707 0.707 0.707zM16 30.667l-0.707-0.707 0.707 1.707v-1zM1.333 22.722l-0.697-0.717-0.303 0.717h1zM23.333 1.333v-1l-0.697 0.283 0.697 0.717zM1.333 30.667h-1l1 1 0-1zM9.278 30.667v1l0.717-0.303-0.717-0.697zM30.667 8.667l0.717 0.697 0.283-0.697h-1zM30.667 1.333h1l-1-1v1zM2.333 16v-14.667h-2v14.667h2zM15.293 0.626l-14.667 14.667 1.414 1.414 14.667-14.667-1.414-1.414zM1.333 2.333h14.667v-2h-14.667v2zM31.667 30.667v-14.667h-2v14.667h2zM16 31.667h14.667v-2h-14.667v2zM29.96 15.293l-14.667 14.667 1.414 1.414 14.667-14.667-1.414-1.414zM2.030 23.439l22-21.389-1.394-1.434-22 21.389 1.394 1.434zM2.333 30.667v-7.944h-2v7.944h2zM9.278 29.667l-7.944-0-0 2 7.944 0 0-2zM29.95 7.97l-21.389 22 1.434 1.394 21.389-22-1.434-1.394zM29.667 1.333v7.333h2v-7.333h-2zM23.333 2.333h7.333v-2h-7.333v2z"></path>
</symbol>
<symbol id="icon-24-management-1" viewBox="0 0 32 32">
<path fill="#fff" style="fill: var(--color2, #fff)" d="M29.333 30.333h-26.667v-2h3v-13.667l0.6-0.92 8.733-3.747v-7.333l1.52-0.853 10 6 0.48 0.853v19.667h2.333v2zM17 28.333h8v-19.107l-8-4.8v23.907zM7.667 28.333h7.333v-16.147l-7.333 3.147v13.013z"></path>
</symbol>
<symbol id="icon-24-management-2" viewBox="0 0 32 32">
<path fill="#fff" style="fill: var(--color2, #fff)" d="M16 2.333c-3.866 0-7 3.134-7 7s3.134 7 7 7c3.866 0 7-3.134 7-7s-3.134-7-7-7zM7 9.333c0-4.971 4.029-9 9-9s9 4.029 9 9c0 4.971-4.029 9-9 9s-9-4.029-9-9zM11.535 21.221c1.415-0.586 2.932-0.888 4.465-0.888v2c-1.269 0-2.526 0.25-3.699 0.736s-2.238 1.198-3.136 2.095-1.61 1.963-2.095 3.136c-0.486 1.173-0.736 2.43-0.736 3.699h-2c0-1.532 0.302-3.049 0.888-4.465s1.446-2.702 2.529-3.785c1.083-1.083 2.369-1.943 3.785-2.529zM24.334 20v1.783c0.844 0.2 1.593 0.646 2.166 1.259l1.567-1.176 1.2 1.6-1.771 1.328c0.111 0.383 0.17 0.787 0.17 1.205s-0.059 0.823-0.17 1.205l1.771 1.328-1.2 1.6-1.567-1.176c-0.573 0.613-1.322 1.060-2.166 1.259v1.783h-2v-1.782c-0.845-0.199-1.594-0.646-2.167-1.259l-1.566 1.175-1.2-1.6 1.769-1.327c-0.111-0.383-0.17-0.788-0.17-1.207s0.059-0.823 0.17-1.207l-1.769-1.327 1.2-1.6 1.566 1.175c0.573-0.613 1.323-1.060 2.167-1.259v-1.782h2zM23.333 23.667c-1.289 0-2.333 1.045-2.333 2.333s1.045 2.333 2.333 2.333c1.289 0 2.333-1.045 2.333-2.333s-1.045-2.333-2.333-2.333z"></path>
</symbol>
<symbol id="icon-24-occupancy" viewBox="0 0 32 32">
<path fill="#8a8cce" style="fill: var(--color1, #8a8cce)" d="M16 29c-0.645-0.001-1.278-0.049-1.897-0.142l0.070 0.009c-6.338-0.939-11.146-6.341-11.146-12.867 0-2.461 0.684-4.762 1.872-6.724l-0.033 0.058 1.333-0.347 8.76 5.333v-10.32l1.040-1c7.18 0 13 5.82 13 13s-5.82 13-13 13v0zM6.093 11.213c-0.694 1.401-1.1 3.050-1.1 4.794 0 6.075 4.925 11 11 11s11-4.925 11-11c0-5.721-4.367-10.422-9.95-10.95l-0.044-0.003v10.947l-1.52 0.853z"></path>
</symbol>
<symbol id="icon-24-ok" viewBox="0 0 32 32">
<path fill="#8a8cce" style="fill: var(--color1, #8a8cce)" d="M14 24l-1.178 1.179h2.357l-1.179-1.179zM26.821 8.822l-14 14 2.357 2.357 14-14-2.357-2.357zM15.179 22.821l-8-8-2.357 2.357 8 8 2.357-2.357z"></path>
</symbol>
<symbol id="icon-24-parking" viewBox="0 0 32 32">
<path fill="#8a8cce" style="fill: var(--color1, #8a8cce)" d="M5.333 3l-1 1v4h2v-3h2.556v-2h-3.556zM12.444 5h7.111v-2h-7.111v2zM23.111 5h2.556v3h2v-4l-1-1h-3.556v2zM6.333 20v-8h-2v8h2zM25.667 12v8h2v-8h-2zM6.333 28v-4h-2v5h2v-1zM25.667 24v5h2v-5h-2zM16.431 12h-3.765v10.667h1.882v-3.627h1.882c1.401 0 2.458-0.32 3.169-0.96s1.067-1.493 1.067-2.56c0-1.138-0.34-2.006-1.020-2.606-0.669-0.61-1.741-0.914-3.216-0.914zM14.549 17.425v-3.81h1.882c0.784 0 1.354 0.168 1.71 0.503 0.366 0.325 0.549 0.792 0.549 1.402 0 0.579-0.188 1.041-0.565 1.387s-0.941 0.518-1.694 0.518h-1.882z"></path>
</symbol>
<symbol id="icon-24-phone" viewBox="0 0 32 32">
<path fill="#8a8cce" style="fill: var(--color1, #8a8cce)" d="M28 21.893v4.715c0 0.338-0.128 0.663-0.358 0.91s-0.545 0.397-0.882 0.421c-0.583 0.040-1.059 0.061-1.427 0.061-11.783 0-21.333-9.551-21.333-21.333 0-0.368 0.020-0.844 0.061-1.427 0.024-0.337 0.174-0.652 0.421-0.882s0.572-0.358 0.91-0.358h4.715c0.165-0 0.325 0.061 0.448 0.172s0.2 0.263 0.216 0.428c0.031 0.307 0.059 0.551 0.085 0.736 0.265 1.849 0.808 3.648 1.611 5.335 0.127 0.267 0.044 0.585-0.196 0.756l-2.877 2.056c1.759 4.099 5.026 7.366 9.125 9.125l2.053-2.872c0.084-0.117 0.206-0.201 0.346-0.238s0.288-0.023 0.418 0.039c1.687 0.801 3.485 1.343 5.333 1.607 0.185 0.027 0.429 0.056 0.733 0.085 0.164 0.017 0.317 0.094 0.427 0.217s0.172 0.282 0.171 0.447h-0.001z"></path>
</symbol>
<symbol id="icon-24-ramp" viewBox="0 0 32 32">
<path fill="#8a8cce" style="fill: var(--color1, #8a8cce)" d="M15.293 3.293l-4 4 1.414 1.414 2.293-2.293v5.586h2v-5.586l2.293 2.293 1.414-1.414-4-4h-1.414zM2.667 17.667l-1 1v8l1 1h4l1-1v-3h5.333v3l1 1h4l1-1v-3h5.333v3l1 1h4l1-1v-8l-1-1h-26.667zM3.667 23.667h2v2h-2v-2zM6.667 21.667h-3v-2h24.667v2h-21.667zM26.333 23.667h2v2h-2v-2zM15 25.667v-2h2v2h-2z"></path>
</symbol>
<symbol id="icon-rating" viewBox="0 0 32 32">
<path fill="#8a8cce" style="fill: var(--color1, #8a8cce)" d="M23.253 27.6l-7.253-5.333-7.253 5.333-1.533-1.12 2.773-8.52-7.32-5.267 0.653-1.813h8.96l2.773-8.52h1.907l2.773 8.52h8.96l0.64 1.813-7.253 5.333 2.773 8.52zM15.413 20.293h1.173l5.333 3.88-2.040-6.28 0.36-1.12 5.333-3.88h-6.667l-0.947-0.693-1.96-6.293-2.040 6.28-0.947 0.693h-6.667l5.333 3.88 0.36 1.12-1.973 6.293z"></path>
</symbol>
<symbol id="icon-24-security" viewBox="0 0 32 32">
<path fill="#8a8cce" style="fill: var(--color1, #8a8cce)" d="M15.621 2.409l-11.333 4.667-0.619 0.933 1-0.008c-1 0.008-1 0.008-1 0.008v0.002l0 0.005 0 0.017 0.001 0.062c0.001 0.054 0.002 0.131 0.005 0.231 0.005 0.2 0.014 0.488 0.030 0.845 0.032 0.714 0.092 1.709 0.206 2.832 0.224 2.22 0.666 5.047 1.559 7.197 1.052 2.532 3.62 5.128 5.786 7.018 1.105 0.964 2.147 1.781 2.913 2.356 0.383 0.288 0.698 0.516 0.919 0.673 0.11 0.079 0.197 0.139 0.256 0.181l0.095 0.065c0 0 0 0 0.564-0.826l-0.564 0.826 1.128-0-0.564-0.826c0.564 0.826 0.564 0.826 0.564 0.826l0.001-0 0.001-0.001 0.005-0.003 0.018-0.013 0.069-0.048c0.060-0.041 0.146-0.102 0.256-0.181 0.22-0.157 0.535-0.385 0.918-0.673 0.765-0.575 1.807-1.391 2.911-2.356 2.165-1.89 4.731-4.485 5.783-7.018 0.893-2.15 1.335-4.977 1.561-7.197 0.114-1.124 0.175-2.118 0.207-2.832 0.016-0.357 0.025-0.645 0.030-0.845 0.003-0.1 0.004-0.178 0.005-0.231l0.001-0.062 0-0.017 0-0.005v-0.002c0-0 0-0-1-0.009l1 0.009-0.619-0.933-11.331-4.667-0.762-0zM5.703 9.081c-0.007-0.153-0.012-0.293-0.017-0.418l10.316-4.248 10.314 4.248c-0.005 0.124-0.010 0.264-0.017 0.418-0.031 0.686-0.089 1.642-0.199 2.721-0.221 2.183-0.643 4.765-1.418 6.632-0.856 2.061-3.091 4.392-5.251 6.278-1.058 0.924-2.060 1.709-2.797 2.263-0.242 0.182-0.455 0.338-0.632 0.467-0.177-0.128-0.39-0.285-0.633-0.467-0.738-0.554-1.74-1.339-2.799-2.263-2.162-1.887-4.398-4.217-5.254-6.278-0.775-1.866-1.195-4.448-1.416-6.631-0.109-1.078-0.167-2.034-0.197-2.721zM22.428 12.471l0.648-0.761-1.523-1.297-5.961 7.001-3.679-4.609-1.563 1.248 4.436 5.557 1.543 0.024 6.099-7.163z"></path>
</symbol>
<symbol id="icon-24-square-1" viewBox="0 0 32 32">
<path fill="#8a8cce" style="fill: var(--color1, #8a8cce)" d="M4.994 3.995l-1 1v5.89h2v-3.476l6.335 6.335 1.414-1.414-6.335-6.335h3.476v-2h-5.89zM27.001 3.995l1 1v5.89h-2v-3.476l-6.335 6.335-1.414-1.414 6.335-6.335h-3.476v-2h5.89zM3.994 27l1 1h5.89v-2h-3.476l6.335-6.335-1.414-1.414-6.335 6.335v-3.476h-2v5.89zM27.001 28l1-1v-5.89h-2v3.476l-6.335-6.335-1.414 1.414 6.335 6.335h-3.476v2h5.89z"></path>
</symbol>
<symbol id="icon-24-square-2" viewBox="0 0 32 32">
<path fill="#8a8cce" style="fill: var(--color1, #8a8cce)" d="M28 29h-8v-2h8v2zM16 29h-8v-2h8v2zM5 28h-2v-8h2v8zM29 24h-2v-8h2v8zM5 16h-2v-8h2v8zM29 12h-2v-8h2v8zM24 5h-8v-2h8v2zM12 5h-8v-2h8v2z"></path>
</symbol>
<symbol id="icon-24-stillage" viewBox="0 0 32 32">
<path fill="#8a8cce" style="fill: var(--color1, #8a8cce)" d="M5 7v-3h-2v24h2v-3h10v3h2v-3h10v3h2v-24h-2v3h-10v-3h-2v3h-10zM27 9h-10v2h10v-2zM27 13h-10v2h10v-2zM27 17h-10v2h10v-2zM27 21h-10v2h10v-2zM15 21v2h-10v-2h10zM15 17v2h-10v-2h10zM15 13v2h-10v-2h10zM15 9v2h-10v-2h10z"></path>
</symbol>
<symbol id="icon-24-temp" viewBox="0 0 32 32">
<path fill="#8a8cce" style="fill: var(--color1, #8a8cce)" d="M3 4l1-1h24l1 1v12l-1 1h-24l-1-1v-12zM5 5v6h22v-6h-22zM27 13h-22v2h22v-2zM4.626 24.626l4-4h1.414l4 4-1.414 1.414-2.293-2.293v5.586h-2v-5.586l-2.293 2.293-1.414-1.414zM23.374 20.626h-1.414l-4 4 1.414 1.414 2.293-2.293v5.586h2v-5.586l2.293 2.293 1.414-1.414-4-4z"></path>
</symbol>
<symbol id="icon-24-ventilation" viewBox="0 0 32 32">
<path fill="#8a8cce" style="fill: var(--color1, #8a8cce)" d="M6.667 2.333h1v-2h-1c-1.659 0-3.233 0.819-4.374 1.96s-1.96 2.715-1.96 4.374v1h2v-1c0-1.008 0.514-2.1 1.374-2.96s1.951-1.374 2.96-1.374zM15 2.667l1.707-0.707 6.667 6.667v1.414l-4.959 4.96h10.919l0.707 1.707-6.667 6.667h-1.414l-4.96-4.959v10.919l-1.707 0.707-6.667-6.667v-1.414l4.96-4.96h-10.919l-0.707-1.707 6.667-6.667h1.414l4.96 4.96v-10.919zM13.586 15l-4.252-4.252-4.252 4.252h8.505zM15 26.919l-4.252-4.252 4.252-4.252v8.505zM26.919 17l-4.252 4.252-4.252-4.252h8.505zM17 13.586l4.252-4.252-4.252-4.252v8.505zM24.333 29.667h1c1.008 0 2.1-0.514 2.96-1.374s1.374-1.951 1.374-2.96v-1h2v1c0 1.659-0.819 3.233-1.96 4.374s-2.715 1.96-4.374 1.96h-1v-2z"></path>
</symbol>
<symbol id="icon-24-water" viewBox="0 0 32 32">
<path fill="#8a8cce" style="fill: var(--color1, #8a8cce)" d="M15.117 3.534l-3.127 5.938c-1.124 2.13-2.358 4.468-3.125 6.848-0.831 2.58-1.154 5.324-0.149 8.035 0.459 1.238 1.218 2.419 2.436 3.285 1.22 0.867 2.818 1.361 4.851 1.361s3.631-0.493 4.851-1.361c1.217-0.866 1.977-2.047 2.436-3.285 1.005-2.711 0.682-5.455-0.149-8.035-0.767-2.38-2.001-4.718-3.125-6.848v-0l-0.257-0.487-2.87-5.451h-1.77zM14.017 9.916l1.985-3.77 2.225 4.226c1.142 2.165 2.297 4.355 3.008 6.561 0.755 2.344 0.968 4.593 0.178 6.727-0.352 0.951-0.899 1.766-1.72 2.35-0.818 0.582-1.989 0.99-3.691 0.99s-2.874-0.409-3.691-0.99c-0.82-0.583-1.367-1.399-1.72-2.35-0.791-2.134-0.578-4.382 0.178-6.727 0.711-2.206 1.866-4.396 3.008-6.561l0.24-0.456zM12.485 18.981c0-0 0-0.001 0.969 0.249l0.969 0.248-0.001 0.002-0.006 0.025c-0.006 0.025-0.014 0.064-0.025 0.116-0.021 0.105-0.048 0.259-0.071 0.444-0.046 0.379-0.069 0.854-0.002 1.305 0.068 0.457 0.215 0.803 0.432 1.028 0.193 0.2 0.54 0.409 1.251 0.409h1v2h-1c-1.153 0-2.057-0.363-2.692-1.022-0.61-0.633-0.867-1.432-0.97-2.121-0.104-0.694-0.064-1.364-0.005-1.843 0.030-0.244 0.066-0.448 0.095-0.593 0.015-0.073 0.028-0.132 0.037-0.174 0.005-0.021 0.009-0.038 0.012-0.051l0.004-0.016 0.001-0.005 0.001-0.002 0-0.001z"></path>
</symbol>
</defs>
</svg>
