<svg width="24" height="24" viewBox="0 0 24 24" fill="none" xmlns="http://www.w3.org/2000/svg">
<path fill-rule="evenodd" clip-rule="evenodd" d="M3.74585 2.99609L2.99585 3.74609V7.41355V8.16355H4.49585V7.41355V5.55679L8.71653 9.77761L9.24685 10.3079L10.3075 9.2473L9.77721 8.71696L5.55647 4.49609H7.4132H8.1632V2.99609H7.4132H3.74585ZM20.2504 2.99609L21.0004 3.74609V7.41355V8.16355H19.5004V7.41355V5.55679L15.2797 9.77761L14.7494 10.3079L13.6887 9.2473L14.219 8.71696L18.4398 4.49609H16.5831H15.8331V2.99609H16.5831H20.2504ZM2.99585 20.25L3.74585 21H7.4132H8.1632V19.5H7.4132H5.55647L9.77721 15.2791L10.3075 14.7488L9.24685 13.6881L8.71653 14.2185L4.49585 18.4393V16.5825V15.8325H2.99585V16.5825V20.25ZM20.2504 21L21.0004 20.25V16.5825V15.8325H19.5004V16.5825V18.4393L15.2797 14.2185L14.7494 13.6881L13.6887 14.7488L14.219 15.2791L18.4398 19.5H16.5831H15.8331V21H16.5831H20.2504Z" fill="#8A8CCE"/>
</svg>
