<svg width="24" height="24" viewBox="0 0 24 24" fill="none" xmlns="http://www.w3.org/2000/svg">
<path fill-rule="evenodd" clip-rule="evenodd" d="M2.25 3L3 2.25H21L21.75 3V9V12L21 12.75H3L2.25 12V9V3ZM3.75 3.75V8.25H20.25V3.75H3.75ZM20.25 9.75H3.75V11.25H20.25V9.75ZM3.46967 18.4697L6.46967 15.4697H7.53033L10.5303 18.4697L9.46967 19.5303L7.75 17.8107L7.75 22H6.25V17.8107L4.53033 19.5303L3.46967 18.4697ZM17.5303 15.4697H16.4697L13.4697 18.4697L14.5303 19.5303L16.25 17.8107L16.25 22H17.75L17.75 17.8107L19.4697 19.5303L20.5303 18.4697L17.5303 15.4697Z" fill="#8A8CCE"/>
</svg>
