<svg width="24" height="24" viewBox="0 0 24 24" fill="none" xmlns="http://www.w3.org/2000/svg">
<path fill-rule="evenodd" clip-rule="evenodd" d="M11.3381 2.65039L9.18571 6.73852L8.99298 7.10394C8.14976 8.70132 7.22418 10.4547 6.64906 12.2398C6.02571 14.1746 5.7836 16.2328 6.53697 18.2659C6.88102 19.1943 7.45072 20.08 8.36379 20.7294C9.27859 21.38 10.477 21.7498 12.0017 21.7498C13.5265 21.7498 14.7249 21.38 15.6397 20.7294C16.5527 20.08 17.1225 19.1943 17.4665 18.2659C18.2199 16.2328 17.9778 14.1746 17.3544 12.2398C16.7793 10.4547 15.8537 8.70134 15.0105 7.10397L15.0105 7.10395L14.8178 6.73853L12.6654 2.65039H11.3381ZM10.513 7.43733L12.0017 4.60968L13.4905 7.43733L13.6706 7.77899C14.5273 9.40302 15.3936 11.0451 15.9267 12.6998C16.4932 14.4581 16.653 16.1442 16.06 17.7447C15.7957 18.458 15.3855 19.0695 14.7703 19.507C14.1569 19.9432 13.2787 20.2498 12.0017 20.2498C10.7247 20.2498 9.84655 19.9432 9.23313 19.507C8.61798 19.0695 8.20782 18.458 7.94351 17.7447C7.35046 16.1442 7.51029 14.4581 8.07679 12.6998C8.60991 11.0451 9.47615 9.40302 10.3329 7.77899L10.513 7.43733ZM9.36382 14.2355C9.3639 14.2352 9.36397 14.2349 10.0902 14.4222L10.8169 14.6079L10.8167 14.6085L10.8163 14.6103L10.8117 14.6294C10.8075 14.6478 10.8009 14.6775 10.7931 14.7166C10.7774 14.7952 10.757 14.9105 10.74 15.0498C10.7052 15.3344 10.6882 15.6905 10.7387 16.0288C10.7898 16.3712 10.8999 16.6307 11.0629 16.7998C11.2073 16.9498 11.4677 17.1069 12.0014 17.1069H12.7514V18.6069H12.0014C11.1366 18.6069 10.4589 18.3348 9.98274 17.8407C9.52512 17.3657 9.33224 16.7666 9.25517 16.2503C9.1775 15.7299 9.20714 15.2273 9.25105 14.8679C9.27337 14.6852 9.30032 14.5321 9.32214 14.4229C9.33307 14.3681 9.3428 14.3239 9.35015 14.2921C9.35382 14.2762 9.35691 14.2633 9.35926 14.2537L9.36222 14.2418L9.36325 14.2377L9.36365 14.2361L9.36382 14.2355Z" fill="#8A8CCE"/>
</svg>
