<svg id="Слой_1" data-name="Слой 1" xmlns="http://www.w3.org/2000/svg" viewBox="0 0 72 72"><defs><style>.cls-1{fill:#8a8cce;}</style></defs><title>audit-2</title><path class="cls-1" d="M61.47,18.47h-14l-0.75-.75V4L48,3.46,62,17.18ZM48.19,17H59.63L48.19,5.78V17Z"/><path class="cls-1" d="M61.47,57.39H22l-0.75-.75q0-16.75,0-33.5V4L22,3.25H47.44L48,3.46,62,17.18l0.23,0.54V56.64Zm-38.73-1.5h38V18L47.14,4.75H22.74V23.14Q22.74,39.52,22.74,55.89Z"/><path class="cls-1" d="M56.53,62.33H17l-0.75-.75q0-15.85,0-31.71V8.94L17,8.19H22v1.5H17.79V29.88q0,15.48,0,31h38V56.64h1.5v4.94Z"/><path class="cls-1" d="M51.59,67.26H12.11l-0.75-.75q0-14.15,0-28.3,0-12.17,0-24.34l0.75-.75H17v1.5H12.85q0,11.8,0,23.59,0,13.78,0,27.55h38V61.57h1.5v4.94Z"/><rect class="cls-1" x="27.57" y="47.01" width="28.29" height="1.5"/><rect class="cls-1" x="27.57" y="41.19" width="28.29" height="1.5"/><rect class="cls-1" x="27.57" y="35.38" width="28.29" height="1.5"/><rect class="cls-1" x="27.57" y="29.57" width="28.29" height="1.5"/><rect class="cls-1" x="27.57" y="23.76" width="28.29" height="1.5"/><rect class="cls-1" x="27.57" y="17.94" width="16.57" height="1.5"/><rect class="cls-1" x="27.57" y="12.13" width="15.91" height="1.5"/></svg>