<svg width="72" height="72" viewBox="0 0 72 72" fill="none" xmlns="http://www.w3.org/2000/svg">
<path d="M41.9795 20.4652V4L58.813 20.4652H41.9795Z" stroke="#8A8CCE" stroke-width="1.5" stroke-miterlimit="10" stroke-linejoin="bevel"/>
<path d="M58.812 27.6159V20.4652L41.9785 4H11.4575C11.4532 25.0533 11.4503 46.1067 11.4576 67.16H58.8273C58.8273 64.2956 58.8273 61.4312 58.8273 58.5668" stroke="#8A8CCE" stroke-width="1.5" stroke-miterlimit="10" stroke-linejoin="bevel"/>
<path d="M42.529 56.5107H18.1611" stroke="#8A8CCE" stroke-width="1.5" stroke-miterlimit="10" stroke-linejoin="bevel"/>
<path d="M36.8513 49.5293H18.1611" stroke="#8A8CCE" stroke-width="1.5" stroke-miterlimit="10" stroke-linejoin="bevel"/>
<path d="M35.8079 42.5625H18.1611" stroke="#8A8CCE" stroke-width="1.5" stroke-miterlimit="10" stroke-linejoin="bevel"/>
<path d="M37.5725 35.5801H18.1611" stroke="#8A8CCE" stroke-width="1.5" stroke-miterlimit="10" stroke-linejoin="bevel"/>
<path d="M44.1709 28.6133H18.1611" stroke="#8A8CCE" stroke-width="1.5" stroke-miterlimit="10" stroke-linejoin="bevel"/>
<path d="M38.0329 21.6318H18.1611" stroke="#8A8CCE" stroke-width="1.5" stroke-miterlimit="10" stroke-linejoin="bevel"/>
<path d="M37.2503 14.665H18.1611" stroke="#8A8CCE" stroke-width="1.5" stroke-miterlimit="10" stroke-linejoin="bevel"/>
<path d="M70 43C70 33.6112 62.3888 26 53 26C43.6112 26 36 33.6112 36 43C36 52.3888 43.6112 60 53 60C62.3888 60 70 52.3888 70 43Z" stroke="#8A8CCE" stroke-width="1.5" stroke-miterlimit="10" stroke-linejoin="bevel"/>
<path d="M62.4556 47.2875C62.8679 47.3673 63.2669 47.1014 63.3467 46.6894L63.985 43.3265C64.0249 43.1271 63.985 42.9277 63.8653 42.7549C63.7457 42.5821 63.5728 42.4758 63.3733 42.4359L62.0699 42.1834C62.0034 41.4789 61.8704 40.7744 61.631 40.0965L62.7216 39.3522C63.0674 39.1129 63.1605 38.6477 62.9211 38.3021L60.9926 35.4709C60.8729 35.2981 60.7 35.1918 60.5006 35.1519C60.3011 35.112 60.1016 35.1519 59.9287 35.2715L58.8381 36.0159C58.2928 35.5506 57.6943 35.1652 57.056 34.8462L57.3087 33.5435C57.3885 33.1315 57.1225 32.7327 56.7102 32.653L53.3454 32.015C53.1459 31.9751 52.9464 32.015 52.7735 32.1346C52.6006 32.2542 52.4942 32.427 52.4543 32.6264L52.2016 33.929C51.4967 33.9955 50.7919 34.1417 50.1136 34.3677L49.3688 33.2777C49.2491 33.1049 49.0762 32.9986 48.8767 32.9587C48.6772 32.9188 48.4777 32.9587 48.3048 33.0783L45.472 35.0057C45.2991 35.1253 45.1927 35.2981 45.1528 35.4975C45.1129 35.6969 45.1528 35.8962 45.2725 36.069L46.0173 37.159C45.5518 37.704 45.1661 38.3021 44.8469 38.9401L43.5436 38.6876C43.3441 38.6477 43.1446 38.6876 42.9717 38.8072C42.7988 38.9268 42.6924 39.0996 42.6525 39.299L42.0141 42.6619C41.9343 43.0739 42.2003 43.4727 42.6126 43.5524L43.916 43.805C43.9825 44.5095 44.1288 45.214 44.3549 45.8919L43.2643 46.6362C43.0914 46.7558 42.985 46.9286 42.9451 47.128C42.9052 47.3274 42.9451 47.5268 43.0648 47.6996L44.9932 50.5308C45.1129 50.7036 45.2858 50.8099 45.4853 50.8498C45.6848 50.8897 45.8843 50.8498 46.0572 50.7302L47.1478 49.9858C47.6931 50.451 48.2915 50.8365 48.9299 51.1555L48.6772 52.4581C48.5974 52.8702 48.8634 53.2689 49.2757 53.3487L52.6405 53.9867C52.6937 54 52.7336 54 52.7868 54C53.1459 54 53.4651 53.7474 53.5316 53.3753L53.7843 52.0727C54.4891 52.0062 55.194 51.8733 55.8723 51.634L56.6171 52.724C56.7368 52.8968 56.9097 53.0031 57.1092 53.043C57.3087 53.0828 57.5081 53.043 57.681 52.9233L60.5138 50.996C60.8596 50.7567 60.9527 50.2915 60.7133 49.9459L59.9686 48.856C60.4341 48.311 60.8197 47.7129 61.1389 47.0748L62.4556 47.2875Z" stroke="#8A8CCE" stroke-width="1.5" stroke-miterlimit="10" stroke-linejoin="bevel"/>
<path d="M54.1235 37.1107C52.5489 36.8043 50.9597 37.1399 49.6329 38.0443C48.3062 38.9488 47.4168 40.3055 47.1106 41.881C46.8044 43.4565 47.1398 45.0466 48.0437 46.3741C48.9477 47.7017 50.3036 48.5915 51.8782 48.8979C52.2573 48.9708 52.6363 49 53.0008 49C55.8147 49 58.337 47.0014 58.891 44.1276C59.518 40.8744 57.3748 37.7234 54.1235 37.1107Z" stroke="#8A8CCE" stroke-width="1.5" stroke-miterlimit="10" stroke-linejoin="bevel"/>
</svg>
