<svg id="Слой_1" data-name="Слой 1" xmlns="http://www.w3.org/2000/svg" viewBox="0 0 72 72"><defs><style>.cls-1{fill:#8a8cce;}</style></defs><title>audit-4</title><path class="cls-1" d="M58.81,21.22H42l-0.75-.75V4l1.27-.54L59.34,19.93Zm-16.08-1.5H57L42.73,5.78V19.72Z"/><path class="cls-1" d="M58.83,67.91H11.46l-0.75-.75q0-31.58,0-63.16l0.75-.75H42L42.5,3.46,59.34,19.93l0.23,0.54v7.15h-1.5V20.78l-16.39-16H12.21q0,30.83,0,61.66H58.08V58.57h1.5v8.59Z"/><rect class="cls-1" x="18.16" y="55.76" width="24.37" height="1.5"/><rect class="cls-1" x="18.16" y="48.78" width="18.69" height="1.5"/><rect class="cls-1" x="18.16" y="41.81" width="17.65" height="1.5"/><rect class="cls-1" x="18.16" y="34.83" width="19.41" height="1.5"/><rect class="cls-1" x="18.16" y="27.86" width="26.01" height="1.5"/><rect class="cls-1" x="18.16" y="20.88" width="19.87" height="1.5"/><rect class="cls-1" x="18.16" y="13.92" width="19.09" height="1.5"/><path class="cls-1" d="M53,60.75A17.75,17.75,0,1,1,70.75,43,17.77,17.77,0,0,1,53,60.75Zm0-34A16.25,16.25,0,1,0,69.25,43,16.27,16.27,0,0,0,53,26.75Z"/><path class="cls-1" d="M52.79,54.75a1.24,1.24,0,0,1-.33,0l-3.32-.63a1.51,1.51,0,0,1-1.2-1.77l0.15-.76a9.57,9.57,0,0,1-1-.64l-0.63.43a1.5,1.5,0,0,1-1.14.24,1.54,1.54,0,0,1-1-.62l-1.93-2.84A1.48,1.48,0,0,1,42.21,47a1.53,1.53,0,0,1,.63-1l0.64-.44a9.88,9.88,0,0,1-.24-1.14l-0.77-.15a1.51,1.51,0,0,1-1.19-1.77l0.64-3.36a1.53,1.53,0,0,1,.63-1A1.49,1.49,0,0,1,43.69,38l0.76,0.15a9.35,9.35,0,0,1,.64-1l-0.43-.63a1.49,1.49,0,0,1-.24-1.14,1.53,1.53,0,0,1,.63-1l2.84-1.93A1.49,1.49,0,0,1,49,32.22a1.53,1.53,0,0,1,1,.63l0.44,0.64a10.33,10.33,0,0,1,1.15-.24l0.15-.77a1.53,1.53,0,0,1,.63-1,1.48,1.48,0,0,1,1.15-.24l3.36,0.64A1.51,1.51,0,0,1,58,33.69l-0.15.76a9.52,9.52,0,0,1,1,.64l0.63-.43a1.47,1.47,0,0,1,1.14-.24,1.53,1.53,0,0,1,1,.63l1.93,2.84A1.51,1.51,0,0,1,63.15,40l-0.64.43a9.49,9.49,0,0,1,.24,1.15l0.77,0.15a1.53,1.53,0,0,1,1,.63,1.48,1.48,0,0,1,.24,1.14l-0.64,3.36A1.51,1.51,0,0,1,62.33,48l-0.78-.13a9.6,9.6,0,0,1-.65,1l0.43,0.63a1.48,1.48,0,0,1,.24,1.11,1.51,1.51,0,0,1-.63,1L58.1,53.54a1.49,1.49,0,0,1-1.14.24,1.52,1.52,0,0,1-1-.63l-0.43-.63a9.21,9.21,0,0,1-1.15.24l-0.15.77A1.5,1.5,0,0,1,52.79,54.75Zm-6.06-5.38,0.91,0a8,8,0,0,0,1.63,1.07l0.4,0.81-0.25,1.3,3.37,0.65L53,51.93l0.67-.6a7.91,7.91,0,0,0,1.91-.4l0.87,0.28,0.75,1.09,2.86-1.92-0.74-1.1,0-.91a8.07,8.07,0,0,0,1.07-1.63l0.79-.4,1.34,0.22h0l0.64-3.36-1.32-.27-0.6-.67a8,8,0,0,0-.4-1.91l0.28-.87,1.09-.74-1.93-2.84-1.11.74-0.91,0a8.06,8.06,0,0,0-1.63-1.07l-0.4-.81,0.25-1.3-3.37-.65-0.27,1.32-0.67.6a8.66,8.66,0,0,0-1.92.4l-0.86-.29L48.75,33.7l-2.86,1.93,0.74,1.11,0,0.91a8.06,8.06,0,0,0-1.07,1.63l-0.81.4-1.3-.25L42.75,42.8l1.31,0.27,0.6,0.67a8.63,8.63,0,0,0,.4,1.92l-0.29.86-1.09.74,1.93,2.85Z"/><path class="cls-1" d="M53,49.75a6.75,6.75,0,1,1,6.63-5.48A6.76,6.76,0,0,1,53,49.75Zm0-12a5.19,5.19,0,0,0-2.93.91A5.26,5.26,0,0,0,47.85,42,5.18,5.18,0,0,0,48.66,46,5.25,5.25,0,1,0,54,37.85h0A5.19,5.19,0,0,0,53,37.75Z"/></svg>