<svg width="72" height="72" viewBox="0 0 72 72" fill="none" xmlns="http://www.w3.org/2000/svg">
<path d="M31.8741 66.6527L7.76532 45.3204C6.26912 43.9938 6.14573 41.711 7.48768 40.2456L28.6966 16.7538C29.8844 15.4273 31.3034 14.3475 32.8922 13.53L47.3914 6.1416L65.9473 22.5689L60.487 37.6697C59.8854 39.351 58.9599 40.9089 57.8031 42.2663L36.9489 66.3134C35.6378 67.825 33.3549 67.9793 31.8741 66.6527Z" stroke="#8A8CCE" stroke-width="1.5" stroke-miterlimit="10" stroke-linejoin="bevel"/>
<path d="M54.2563 12.2496L60.673 5L65.4701 9.22637L59.0534 16.476" stroke="#8A8CCE" stroke-width="1.5" stroke-miterlimit="10" stroke-linejoin="bevel"/>
<path d="M56.0662 38.781L32.4895 17.918L19.6507 32.4267L43.2275 53.2897L56.0662 38.781Z" stroke="#8A8CCE" stroke-width="1.5" stroke-miterlimit="10" stroke-linejoin="bevel"/>
<path d="M23.229 41.8819L16.5291 35.9531L10.6003 42.653L17.3002 48.5818L23.229 41.8819Z" stroke="#8A8CCE" stroke-width="1.5" stroke-miterlimit="10" stroke-linejoin="bevel"/>
<path d="M40.111 56.8321L33.4111 50.9033L27.4824 57.6032L34.1823 63.532L40.111 56.8321Z" stroke="#8A8CCE" stroke-width="1.5" stroke-miterlimit="10" stroke-linejoin="bevel"/>
</svg>
