<svg id="Слой_1" data-name="Слой 1" xmlns="http://www.w3.org/2000/svg" viewBox="0 0 72 72"><defs><style>.cls-1{fill:#8a8cce;}</style></defs><title>audit-1</title><path class="cls-1" d="M41.08,48.87H40.84a2.84,2.84,0,0,1-.45-0.09l-6.61-1.93a2.29,2.29,0,0,1-1.37-1.1A2.26,2.26,0,0,1,32.23,44l0.58-2a18.77,18.77,0,0,1-2.61-2.1l-1.86,1A2.3,2.3,0,0,1,25.24,40l-3.33-6.06a2.3,2.3,0,0,1,.92-3.11l1.86-1a19.35,19.35,0,0,1-.37-3.33l-2-.59A2.29,2.29,0,0,1,20.74,23l1.94-6.63A2.31,2.31,0,0,1,23.78,15a2.24,2.24,0,0,1,1.74-.18l2,0.58a18.83,18.83,0,0,1,2.1-2.62l-1-1.86a2.4,2.4,0,0,1-.19-1.72,2.32,2.32,0,0,1,1.11-1.39l6.06-3.33a2.24,2.24,0,0,1,1.75-.18,2.31,2.31,0,0,1,1.36,1.1l1,1.86a19.41,19.41,0,0,1,3.33-.37l0.59-2a2.31,2.31,0,0,1,1.11-1.37,2.23,2.23,0,0,1,1.74-.18l6.62,1.94a2.29,2.29,0,0,1,1.55,2.84l-0.58,2a18.76,18.76,0,0,1,2.62,2.1l1.86-1A2.24,2.24,0,0,1,60.3,11a2.3,2.3,0,0,1,1.36,1.1L65,18.19a2.29,2.29,0,0,1-.9,3.11l-1.86,1a19.53,19.53,0,0,1,.37,3.33l2,0.59a2.28,2.28,0,0,1,1.55,2.85l-1.94,6.62a2.3,2.3,0,0,1-2.84,1.56l-2.05-.58a18.75,18.75,0,0,1-2.1,2.62l1,1.86a2.29,2.29,0,0,1-.9,3.11l-6.06,3.33a2.3,2.3,0,0,1-3.11-.92l-1-1.86a19.48,19.48,0,0,1-3.33.37l-0.59,2A2.28,2.28,0,0,1,41.08,48.87ZM30,38.29l0.89,0.13A17.25,17.25,0,0,0,34.09,41l0.33,0.85-0.74,2.56a0.78,0.78,0,0,0,.06.6,0.8,0.8,0,0,0,.48.38l6.63,1.94,0.16,0a0.76,0.76,0,0,0,.82-0.57l0.74-2.56,0.73-.54a16.92,16.92,0,0,0,4.11-.45l0.82,0.37L49.51,46a0.82,0.82,0,0,0,.49.39,0.8,0.8,0,0,0,.6-0.07l6-3.32A0.79,0.79,0,0,0,57,41.89l-1.29-2.35,0.13-.89a17.25,17.25,0,0,0,2.58-3.22l0.84-.33,2.6,0.73a0.78,0.78,0,0,0,1-.54l1.94-6.63a0.78,0.78,0,0,0-.55-1l-2.55-.74L61.1,26.2a18,18,0,0,0-.45-4.11L61,21.27,63.37,20a0.79,0.79,0,0,0,.31-1.07l-3.33-6.06a0.82,0.82,0,0,0-.49-0.39,0.75,0.75,0,0,0-.58.07l-2.36,1.29L56,13.7a17.3,17.3,0,0,0-3.22-2.58l-0.33-.85,0.74-2.56a0.78,0.78,0,0,0-.54-1L46.06,4.79a0.74,0.74,0,0,0-.59.05,0.82,0.82,0,0,0-.39.49L44.34,7.88l-0.73.54a18.25,18.25,0,0,0-4.11.45L38.67,8.5,37.39,6.15a0.82,0.82,0,0,0-.49-0.39,0.74,0.74,0,0,0-.58.06L30.25,9.16a0.82,0.82,0,0,0-.39.49,0.87,0.87,0,0,0,.07.6l1.28,2.33-0.13.9A17.31,17.31,0,0,0,28.5,16.7L27.65,17l-2.56-.74a0.74,0.74,0,0,0-.59.05,0.82,0.82,0,0,0-.39.49l-1.94,6.62a0.78,0.78,0,0,0,.54,1l2.56,0.74,0.54,0.73A17.85,17.85,0,0,0,26.26,30l-0.37.82-2.35,1.29a0.82,0.82,0,0,0-.39.49,0.8,0.8,0,0,0,.07.6l3.32,6a0.8,0.8,0,0,0,1.09.32Z"/><path class="cls-1" d="M43.49,40.38q-0.68,0-1.36-.06a14.33,14.33,0,1,1,5.36-28A14.33,14.33,0,0,1,43.49,40.38Zm0-27.16a12.83,12.83,0,0,0-3.56,25.15,12.67,12.67,0,0,0,2.37.46,12.83,12.83,0,0,0,4.8-25.09h0A12.9,12.9,0,0,0,43.45,13.22Z"/><polygon class="cls-1" points="26.15 52.63 21.03 48.31 20.99 47.2 29.83 38.4 30.89 39.47 22.63 47.69 26.5 50.95 32.99 41.85 34.22 42.72 27.25 52.49 26.15 52.63"/><path class="cls-1" d="M14.76,69.32l-8.25-7L6.43,61.31l13-15.37,1.06-.09,8.25,7,0.09,1.06-13,15.37ZM8.06,61.7l7.1,6,12-14.22-7.1-6Z"/><rect class="cls-1" x="16.97" y="51.94" width="1.5" height="10.34" transform="translate(-37.37 33.85) rotate(-49.87)"/><rect class="cls-1" x="20.07" y="48.26" width="1.5" height="10.34" transform="translate(-33.45 34.91) rotate(-49.87)"/></svg>