<svg width="72" height="72" viewBox="0 0 72 72" fill="none" xmlns="http://www.w3.org/2000/svg">
<path d="M47.4395 17.7196V4L61.4678 17.7196H47.4395Z" stroke="#8A8CCE" stroke-width="1.5" stroke-miterlimit="10" stroke-linejoin="bevel"/>
<path d="M47.4419 4H21.988C21.9874 21.5477 21.9929 39.0954 21.9878 56.6431H61.4703C61.4703 43.6686 61.4703 30.6941 61.4703 17.7196L47.4419 4Z" stroke="#8A8CCE" stroke-width="1.5" stroke-miterlimit="10" stroke-linejoin="bevel"/>
<path d="M21.9854 8.94043H17.0445C17.0474 26.4881 17.0333 44.0358 17.0449 61.5835H56.5269C56.5269 59.9366 56.5269 58.2897 56.5269 56.6427" stroke="#8A8CCE" stroke-width="1.5" stroke-miterlimit="10" stroke-linejoin="bevel"/>
<path d="M17.0458 13.8672H12.1047C12.1159 31.4149 12.088 48.9626 12.1056 66.5103H51.5873C51.5873 64.8633 51.5873 63.2164 51.5873 61.5695" stroke="#8A8CCE" stroke-width="1.5" stroke-miterlimit="10" stroke-linejoin="bevel"/>
<path d="M55.865 47.7617H27.573" stroke="#8A8CCE" stroke-width="1.5" stroke-miterlimit="10" stroke-linejoin="bevel"/>
<path d="M55.865 41.9385H27.573" stroke="#8A8CCE" stroke-width="1.5" stroke-miterlimit="10" stroke-linejoin="bevel"/>
<path d="M55.865 36.1299H27.573" stroke="#8A8CCE" stroke-width="1.5" stroke-miterlimit="10" stroke-linejoin="bevel"/>
<path d="M55.865 30.3213H27.573" stroke="#8A8CCE" stroke-width="1.5" stroke-miterlimit="10" stroke-linejoin="bevel"/>
<path d="M55.865 24.5137H27.573" stroke="#8A8CCE" stroke-width="1.5" stroke-miterlimit="10" stroke-linejoin="bevel"/>
<path d="M44.1453 18.6904H27.573" stroke="#8A8CCE" stroke-width="1.5" stroke-miterlimit="10" stroke-linejoin="bevel"/>
<path d="M43.4836 12.8818H27.573" stroke="#8A8CCE" stroke-width="1.5" stroke-miterlimit="10" stroke-linejoin="bevel"/>
</svg>
