<svg width="72" height="72" viewBox="0 0 72 72" fill="none" xmlns="http://www.w3.org/2000/svg">
<path d="M61.6117 36.5423C62.4297 36.7847 63.2779 36.3151 63.5202 35.4972L65.4591 28.8627C65.5803 28.4689 65.5197 28.0448 65.3379 27.6964C65.141 27.3329 64.8078 27.0754 64.4139 26.9542L61.8541 26.212C61.8692 24.773 61.7026 23.334 61.3845 21.9253L63.7323 20.6378C64.4745 20.2289 64.7472 19.2897 64.3382 18.5475L61.0058 12.4887C60.8089 12.1251 60.4757 11.8676 60.0818 11.7464C59.688 11.6253 59.2639 11.6859 58.9155 11.8828L56.5677 13.1703C55.5528 12.1403 54.432 11.2314 53.205 10.4741L53.9473 7.91422C54.1896 7.09627 53.72 6.24803 52.9021 6.00568L46.2676 4.06684C45.8738 3.94567 45.4497 3.99111 45.1013 4.18802C44.7378 4.38493 44.4803 4.71817 44.3591 5.112L43.6169 7.67186C42.1779 7.65672 40.7389 7.82334 39.3303 8.14143L38.0427 5.79362C37.8458 5.43009 37.5126 5.17258 37.1188 5.05141C36.7249 4.93023 36.3008 4.97567 35.9524 5.17259L29.8936 8.50496C29.5301 8.70187 29.2726 9.03511 29.1514 9.42893C29.0453 9.82276 29.0908 10.2469 29.2726 10.5953L30.5601 12.9431C29.53 13.9579 28.6212 15.0788 27.8639 16.3057L25.304 15.5635C24.9102 15.4424 24.486 15.4878 24.1377 15.6847C23.7741 15.8816 23.5166 16.2149 23.3955 16.6087L21.4566 23.2431C21.2143 24.0611 21.6838 24.9093 22.5018 25.1517L25.0616 25.8939C25.0465 27.3329 25.2131 28.7718 25.5312 30.1805L23.1834 31.468C22.8199 31.6649 22.5624 31.9982 22.4412 32.392C22.32 32.7858 22.3806 33.21 22.5624 33.5583L25.8947 39.6172C26.0916 39.9807 26.4249 40.2382 26.8187 40.3594C27.2125 40.4806 27.6367 40.42 27.985 40.2382L30.3328 38.9507C31.3477 39.9807 32.4686 40.8896 33.6955 41.6469L32.9533 44.2068C32.711 45.0247 33.1805 45.873 33.9985 46.1153L40.6329 48.0542C40.7238 48.0845 40.8298 48.0996 40.9207 48.1147C41.6478 48.1905 42.3294 47.7361 42.5414 47.009L43.2837 44.4491C44.7226 44.4643 46.1616 44.2977 47.5703 43.9796L48.8578 46.3274C49.0547 46.6909 49.388 46.9484 49.7818 47.0696C50.1756 47.1908 50.5997 47.1302 50.9481 46.9484L57.007 43.616C57.7492 43.2071 58.0218 42.2679 57.6129 41.5257L56.3254 39.1779C57.3554 38.1631 58.2642 37.0422 59.0215 35.8153L61.6117 36.5423Z" stroke="#8A8CCE" stroke-width="1.5" stroke-miterlimit="10" stroke-linejoin="bevel"/>
<path d="M47.2684 13.0192C43.7845 12.0044 40.1189 12.3982 36.938 14.1553C33.7571 15.8972 31.4548 18.7752 30.4399 22.259C29.425 25.7428 29.8189 29.4085 31.5759 32.5894C33.3179 35.7703 36.1958 38.0726 39.6797 39.0875C40.5128 39.3298 41.361 39.4965 42.1941 39.5722C48.5407 40.1781 54.6602 36.2095 56.5081 29.8629C58.5833 22.668 54.4481 15.1096 47.2684 13.0192Z" stroke="#8A8CCE" stroke-width="1.5" stroke-miterlimit="10" stroke-linejoin="bevel"/>
<path d="M30.363 38.9355L21.5171 47.736L26.6368 52.053L33.6045 42.2831" stroke="#8A8CCE" stroke-width="1.5" stroke-miterlimit="10" stroke-linejoin="bevel"/>
<path d="M19.9566 46.4234L7 61.79L15.245 68.7419L28.2016 53.3752L19.9566 46.4234Z" stroke="#8A8CCE" stroke-width="1.5" stroke-miterlimit="10" stroke-linejoin="bevel"/>
<path d="M13.7629 53.7793L21.6698 60.444" stroke="#8A8CCE" stroke-width="1.5" stroke-miterlimit="10" stroke-linejoin="bevel"/>
<path d="M16.8665 50.0996L24.7733 56.7644" stroke="#8A8CCE" stroke-width="1.5" stroke-miterlimit="10" stroke-linejoin="bevel"/>
</svg>
