<svg id="Слой_1" data-name="Слой 1" xmlns="http://www.w3.org/2000/svg" viewBox="0 0 72 72"><defs><style>.cls-1{fill:#8a8cce;}</style></defs><title>cleaning-3</title><path class="cls-1" d="M66.92,68.79L41,68.74,40.25,68V55.76l0.06-.3,3-7.07L44,47.95,64,48l0.69,0.46,3,7,0.06,0.29V68ZM41.75,67.24l24.42,0V55.92l-2.71-6.42-18.93,0-2.79,6.47V67.24Z"/><rect class="cls-1" x="53.24" y="42.9" width="1.5" height="25.92" transform="translate(-1.97 109.76) rotate(-89.9)"/><rect class="cls-1" x="54.53" y="61.43" width="12.15" height="1.5" transform="translate(-1.65 122.7) rotate(-89.93)"/><rect class="cls-1" x="57.85" y="61.32" width="12.15" height="1.5" transform="translate(1.76 125.91) rotate(-89.93)"/><rect class="cls-1" x="47.89" y="60.9" width="12.15" height="1.5" transform="translate(-7.82 115.45) rotate(-89.85)"/><rect class="cls-1" x="41.25" y="61.12" width="12.15" height="1.5" transform="translate(-14.61 109.12) rotate(-89.93)"/><rect class="cls-1" x="44.57" y="61.12" width="12.15" height="1.5" transform="translate(-11.3 112.43) rotate(-89.93)"/><rect class="cls-1" x="51.22" y="61.32" width="12.15" height="1.5" transform="translate(-4.86 119.28) rotate(-89.93)"/><rect class="cls-1" x="37.93" y="61.12" width="12.15" height="1.5" transform="translate(-17.92 105.8) rotate(-89.93)"/><polygon class="cls-1" points="52.75 49 51.25 49 51.29 4 52.04 3.25 56 3.25 56.75 4 56.71 48.95 55.21 48.94 55.25 4.75 52.79 4.75 52.75 49"/><path class="cls-1" d="M32.5,28.53H13.42L12.71,28l-8-23.78,0.71-1h35l0.71,1L33.21,28ZM14,27H32l6-17.78H8ZM6.95,8.5l-0.09,0Zm32,0h0ZM7.49,7.75H38.43l1-3h-33Z"/><polygon class="cls-1" points="24.96 68.75 21 68.75 20.25 68 20.29 28.05 21.79 28.05 21.75 67.25 24.21 67.25 24.25 28 25.75 28 25.71 68 24.96 68.75"/></svg>