<svg id="Слой_1" data-name="Слой 1" xmlns="http://www.w3.org/2000/svg" viewBox="0 0 72 72"><defs><style>.cls-1{fill:#8a8cce;}</style></defs><title>cleaning-4</title><path class="cls-1" d="M50.41,42.74A4.4,4.4,0,0,1,47,41.11a4.28,4.28,0,0,1-1-2.56,4.42,4.42,0,0,1-3.3-1.62,3.79,3.79,0,0,1-.47-0.7A4.35,4.35,0,0,1,38,34.7a4.42,4.42,0,0,1-.31-5.13A4.41,4.41,0,0,1,37,27.09a4.39,4.39,0,0,1-2-7.74,4.28,4.28,0,0,1,1.49-.79,4.35,4.35,0,0,1,1.08-2.42,3.89,3.89,0,0,1-.44-0.47,4.39,4.39,0,0,1,5.11-6.81,4,4,0,0,1,.61-0.61,4.41,4.41,0,0,1,4.48-.63A4.4,4.4,0,0,1,55,5.88a4.51,4.51,0,0,1,.78,1.49A4.43,4.43,0,0,1,58,8.05l0.18-.15a4.38,4.38,0,0,1,7.15,3.38A4.35,4.35,0,0,1,68.71,16,4.29,4.29,0,0,1,70,17.07a4.41,4.41,0,0,1-.65,6.2l-0.23.18a4.44,4.44,0,0,1-.52,5.07l0.18,0.21a4.4,4.4,0,0,1-3.25,7.17,4.37,4.37,0,0,1-7.2,4.22,4.4,4.4,0,0,1-4,.18A4.35,4.35,0,0,1,50.41,42.74Zm-4-5.69,0.68,0.2L47.51,38a2.85,2.85,0,0,0,.63,2.14A2.88,2.88,0,0,0,53.21,39l1.19-.42a2.9,2.9,0,0,0,3.59,0L59,38.65a2.88,2.88,0,0,0,4.72-3.26l0.84-1.1a2.9,2.9,0,0,0,3-4.63,3.61,3.61,0,0,0-.57-0.52l-0.18-.81-0.06,0,0-.07v0h0L67,27.93l0.14-.11a2.94,2.94,0,0,0,.5-3.89l-0.14-.6c0-.08,0-0.17,0-0.25l0.39-.66a3,3,0,0,0,.5-0.32,2.88,2.88,0,0,0-.81-5l-0.46-.88a2.87,2.87,0,0,0-2.69-3.58l-0.7-.87a2.88,2.88,0,0,0-.59-2.3,2.91,2.91,0,0,0-4.08-.43,3,3,0,0,0-.45.45l-1.08.08a2.92,2.92,0,0,0-2.28-.72l-0.83-.65A2.88,2.88,0,0,0,49.76,6.4,2.88,2.88,0,0,0,48.7,8.83l-1.23.63a2.91,2.91,0,0,0-3.7,0,2.69,2.69,0,0,0-.65.78l-1,.27a2.89,2.89,0,0,0-3.79,4.27,2.84,2.84,0,0,0,.84.7l0.08,1.25-0.15.1A2.9,2.9,0,0,0,38,19.15l-0.63.76a2.88,2.88,0,0,0-1.38.61,2.91,2.91,0,0,0-.43,4.08,2.87,2.87,0,0,0,2.17,1.06l0.71,0.58c0,0.09,0,.17,0,0.25l0,0.42a2.94,2.94,0,0,0,.64,2.15l0.07,0.18,0,0,0.09,0.37-0.17.48a2.91,2.91,0,0,0,0,3.69,2.86,2.86,0,0,0,3.25.88l0.8,0.18,0.21,0.32a2.5,2.5,0,0,0,.46.84A2.94,2.94,0,0,0,46.38,37Z"/><path class="cls-1" d="M52.61,28.21a4.72,4.72,0,1,1,4.72-4.72A4.72,4.72,0,0,1,52.61,28.21Zm0-7.94a3.22,3.22,0,1,0,3.22,3.22A3.22,3.22,0,0,0,52.61,20.27Z"/><path class="cls-1" d="M14.34,68.06a3.56,3.56,0,0,1-2.77-1.33L1.88,54.81a3.61,3.61,0,0,1-.79-2.65,3.56,3.56,0,0,1,1.32-2.42L25.68,30.88,36,26.33,35.44,26c-1.65-.94-1.65-0.94-1.64-1.41l1.5,0.07-0.75-.05L35,24c0.13,0.09.63,0.37,1.17,0.67,2.14,1.21,2.14,1.21,2.18,1.67L38.07,27l-0.16.1L26.37,32.21,3.35,50.9a2.11,2.11,0,0,0-.31,3l9.69,11.92a2.08,2.08,0,0,0,3,.29l1.58-1.27L47.16,40.53l1.25,0.85a1.34,1.34,0,0,1-.32.33L16.62,67.25A3.64,3.64,0,0,1,14.34,68.06Z"/><path class="cls-1" d="M22.54,62.43l-1.05-.11-6.63-8.17L15,53.09l10.73-8.72,1.05,0.11,6.63,8.17-0.11,1.05Zm-6.05-8.64,5.69,7L31.74,53l-5.69-7Z"/><polygon class="cls-1" points="21.46 35.24 18.06 31.04 18.17 29.99 22.11 26.78 23.16 26.89 26.56 31.09 25.4 32.03 22.47 28.42 19.7 30.68 22.63 34.29 21.46 35.24"/></svg>