<svg width="72" height="72" viewBox="0 0 72 72" fill="none" xmlns="http://www.w3.org/2000/svg">
<path d="M4.00049 55.9995C15.9078 57.6416 28.0027 61.6435 39.6723 64.6127L39.7705 64.6291C39.7868 64.6291 39.8195 64.6454 39.8522 64.6454C40.2284 64.7109 40.6046 64.7599 40.9808 64.7599C41.6023 64.7599 42.2075 64.6454 42.8617 64.4328C42.8781 64.4328 42.8944 64.4164 42.9272 64.4164L43.1071 64.351C43.2216 64.3183 43.3361 64.2529 43.4342 64.1875L65.2366 48.3713C66.5005 47.4995 67.9026 45.7269 67.9026 43.9225C67.9026 41.3055 65.9563 39.1629 63.3557 38.9012C62.5005 38.8151 61.0559 38.8206 60.0028 39.5227C59.1362 40.1004 58.2973 40.7282 57.4512 41.3382L44.3011 49.8597C44.1048 49.8924 43.8922 49.8924 43.6141 49.8924C40.7483 49.2373 37.8848 48.4589 35.0599 47.6516C34.0295 47.3572 32.9337 47.0628 31.8705 46.8011C30.3822 46.4086 29.2045 46.0978 28.7466 45.967C28.0433 45.5253 27.618 44.7566 27.618 43.9388C27.618 42.7939 28.4194 41.8126 29.548 41.5836H37.9222C39.9013 41.5836 41.5205 39.9643 41.5205 37.9853C41.5205 36.0062 39.9177 34.387 37.9222 34.387H28.8774C27.6998 34.3542 26.2441 34.3379 24.4613 34.3379C20.2251 34.3379 17.2483 36.0062 14.9094 37.6418C14.337 38.0507 13.7809 38.4596 13.2248 38.8685C10.6569 40.7658 4.01644 42.4995 4.01644 42.4995L4.00049 55.9995Z" stroke="#8A8CCE" stroke-width="1.5" stroke-miterlimit="10" stroke-linejoin="bevel"/>
<path d="M51.7116 23.7066C53.3962 25.4076 56.3403 31.9336 62.3102 30.5761M50.076 23.2814C50.583 23.6248 51.27 23.5758 51.6952 23.1342C52.1368 22.6926 52.1859 22.0219 51.8424 21.5149C47.8843 15.7903 48.4077 8.11941 53.02 3C57.796 8.6428 57.7633 17.0498 52.7584 22.6762L52.5621 22.9052C52.4476 23.036 52.3331 23.1669 52.2186 23.2977C52.1368 23.3795 52.0714 23.4286 52.0223 23.4776C51.9569 23.5431 51.8915 23.5921 51.8261 23.6575C51.7934 23.6903 51.7606 23.723 51.7116 23.7557C51.6462 23.8047 51.5807 23.8538 51.5317 23.9192C45.9216 28.9242 37.531 28.9732 31.8882 24.2136C36.9912 19.8303 44.4495 19.405 50.076 23.2814ZM32.3625 3.91594C41.0148 4.47204 48.2605 10.8508 49.8306 19.4704C49.9778 20.2228 50.0596 20.9425 50.1087 21.6621C40.5078 21.0406 32.9677 13.4678 32.3625 3.91594Z" stroke="#8A8CCE" stroke-width="1.5" stroke-miterlimit="10" stroke-linejoin="bevel"/>
</svg>
