<svg id="Слой_1" data-name="Слой 1" xmlns="http://www.w3.org/2000/svg" viewBox="0 0 72 72"><defs><style>.cls-1{fill:#8a8cce;}</style></defs><title>cleaning-5</title><path class="cls-1" d="M41,65.51a7.26,7.26,0,0,1-1.26-.12h0l-0.18,0c-3.38-.86-6.8-1.8-10.11-2.72-8.39-2.32-17.07-4.72-25.54-5.89L3.25,56l0-13.5,0.56-.72c0.06,0,6.53-1.72,9-3.51l0.13-.09L14.47,37a16.67,16.67,0,0,1,10-3.44c1.79,0,3.25,0,4.44,0h9a4.35,4.35,0,1,1,0,8.7H29.63a1.64,1.64,0,0,0-1.26,1.6,1.66,1.66,0,0,0,.7,1.34L32,46.06c1.11,0.27,2.21.57,3.25,0.87,3.4,1,6,1.66,8.43,2.21H44l13.61-8.86c0.64-.47,1.28-0.93,1.94-1.37a6.09,6.09,0,0,1,3.84-.74,5.78,5.78,0,0,1,5.22,5.77,6.69,6.69,0,0,1-3,5.07L43.88,64.79a2,2,0,0,1-.56.28l-0.22.07h0A6.67,6.67,0,0,1,41,65.51ZM39.91,63.9H40a5.78,5.78,0,0,0,1,.1,5.23,5.23,0,0,0,1.65-.29h0l0.18-.07A0.55,0.55,0,0,0,43,63.56L64.8,47.76a5.3,5.3,0,0,0,2.36-3.84,4.29,4.29,0,0,0-3.87-4.28,4.74,4.74,0,0,0-2.86.5c-0.64.43-1.27,0.88-1.89,1.34l-0.64.46L44.71,50.49l-0.28.11a4.79,4.79,0,0,1-.81,0l-0.17,0c-2.48-.57-5.13-1.26-8.59-2.25-1-.29-2.11-0.58-3.16-0.84l-3.15-.84-0.19-.09a3.13,3.13,0,0,1-1.48-2.66,3.16,3.16,0,0,1,2.53-3.09h8.52a2.85,2.85,0,1,0,0-5.7h-9c-1.19,0-2.64,0-4.42,0a15.27,15.27,0,0,0-9.12,3.17L13.8,39.38l-0.13.09c-2.23,1.65-7.22,3.13-8.9,3.6V55.35c8.37,1.21,16.86,3.56,25.09,5.84,3.3,0.91,6.71,1.86,10,2.7h0.05Z"/><path class="cls-1" d="M60.71,31.51c-4.18,0-6.78-3.59-8.4-5.84-0.23-.32-0.45-0.62-0.65-0.88a15.82,15.82,0,0,1-20.25,0V23.64a15.59,15.59,0,0,1,10.17-3.76h0A19.77,19.77,0,0,1,31.61,4l0.8-.8a19.71,19.71,0,0,1,16,10.13,15.65,15.65,0,0,1,4-10.8l1.13,0a15.84,15.84,0,0,1-.27,20.66l-0.54.62h0c0.23,0.29.48,0.63,0.74,1,1.73,2.4,4.35,6,8.63,5l0.33,1.46A8,8,0,0,1,60.71,31.51Zm-27.62-7.3a14.33,14.33,0,0,0,17-.08,2.06,2.06,0,0,1-.44-0.23h0A14.18,14.18,0,0,0,33.09,24.21ZM50.5,22.66a0.51,0.51,0,0,0,.66,0,0.52,0.52,0,0,0,.07-0.68l-0.38-.58c0,0.08,0,.17,0,0.26l-0.77.77ZM53,4.18a14.15,14.15,0,0,0-.54,16.91,2.13,2.13,0,0,1,.25.49A14.35,14.35,0,0,0,53,4.18Zm-19.81.56a18.3,18.3,0,0,0,16.1,16.09c0-.42-0.11-0.82-0.19-1.22A18.22,18.22,0,0,0,33.19,4.74Z"/></svg>