<svg width="72" height="72" viewBox="0 0 72 72" fill="none" xmlns="http://www.w3.org/2000/svg">
<path d="M67.2442 32.5208C67.2442 37.9348 63.9348 42.5709 59.2377 44.523C58.1854 45.1635 56.9501 45.5143 55.6233 45.5143H16.658C16.3377 45.5143 16.0175 45.4991 15.6972 45.4533C9.1242 44.7975 4 39.2463 4 32.5055C4 25.9478 8.86494 20.5186 15.1787 19.634C16.1242 14.4946 20.6231 10.6057 26.0219 10.6057C27.8214 10.6057 29.5295 11.0479 31.0241 11.8105C33.8912 8.27234 38.2833 6 43.194 6C50.5753 6 56.7518 11.109 58.3989 17.987C60.6407 18.2615 62.3793 20.1373 62.4403 22.4249C65.3837 24.8345 67.2442 28.4641 67.2442 32.5208Z" stroke="#8A8CCE" stroke-width="1.5" stroke-miterlimit="10" stroke-linejoin="bevel"/>
<path d="M36.5129 64.6688C38.4585 64.6688 40.0358 63.0916 40.0358 61.1459C40.0358 59.2003 38.4585 57.623 36.5129 57.623C34.5672 57.623 32.99 59.2003 32.99 61.1459C32.99 63.0916 34.5672 64.6688 36.5129 64.6688Z" stroke="#8A8CCE" stroke-width="1.5" stroke-miterlimit="10" stroke-linejoin="bevel"/>
<path d="M40.5073 68.8928L38.1282 64.2871" stroke="#8A8CCE" stroke-width="1.5" stroke-miterlimit="10" stroke-linejoin="bevel"/>
<path d="M34.8944 58.02L32.561 53.5059" stroke="#8A8CCE" stroke-width="1.5" stroke-miterlimit="10" stroke-linejoin="bevel"/>
<path d="M44.4576 57.0283L39.6384 59.5294" stroke="#8A8CCE" stroke-width="1.5" stroke-miterlimit="10" stroke-linejoin="bevel"/>
<path d="M33.3868 62.7627L28.2778 65.401" stroke="#8A8CCE" stroke-width="1.5" stroke-miterlimit="10" stroke-linejoin="bevel"/>
<path d="M45.0536 63.9826L39.8379 62.3203" stroke="#8A8CCE" stroke-width="1.5" stroke-miterlimit="10" stroke-linejoin="bevel"/>
<path d="M33.1418 60.1849L27.6821 58.4463" stroke="#8A8CCE" stroke-width="1.5" stroke-miterlimit="10" stroke-linejoin="bevel"/>
<path d="M39.1356 52.5293L37.458 57.7755" stroke="#8A8CCE" stroke-width="1.5" stroke-miterlimit="10" stroke-linejoin="bevel"/>
<path d="M35.3239 64.4707L33.6006 69.8999" stroke="#8A8CCE" stroke-width="1.5" stroke-miterlimit="10" stroke-linejoin="bevel"/>
<path d="M59.803 57.9898C61.3781 57.9898 62.6549 56.713 62.6549 55.138C62.6549 53.5629 61.3781 52.2861 59.803 52.2861C58.228 52.2861 56.9512 53.5629 56.9512 55.138C56.9512 56.713 58.228 57.9898 59.803 57.9898Z" stroke="#8A8CCE" stroke-width="1.5" stroke-miterlimit="10" stroke-linejoin="bevel"/>
<path d="M59.5576 62.1988L59.6949 58.0049" stroke="#8A8CCE" stroke-width="1.5" stroke-miterlimit="10" stroke-linejoin="bevel"/>
<path d="M59.894 52.2856L60.0161 48.168" stroke="#8A8CCE" stroke-width="1.5" stroke-miterlimit="10" stroke-linejoin="bevel"/>
<path d="M67.0449 55.381L62.6375 55.2285" stroke="#8A8CCE" stroke-width="1.5" stroke-miterlimit="10" stroke-linejoin="bevel"/>
<path d="M56.9351 55.0461L52.2837 54.8936" stroke="#8A8CCE" stroke-width="1.5" stroke-miterlimit="10" stroke-linejoin="bevel"/>
<path d="M64.7131 60.5212L61.6782 57.2881" stroke="#8A8CCE" stroke-width="1.5" stroke-miterlimit="10" stroke-linejoin="bevel"/>
<path d="M57.7881 53.1239L54.616 49.7383" stroke="#8A8CCE" stroke-width="1.5" stroke-miterlimit="10" stroke-linejoin="bevel"/>
<path d="M65.0489 50.0889L61.8005 53.139" stroke="#8A8CCE" stroke-width="1.5" stroke-miterlimit="10" stroke-linejoin="bevel"/>
<path d="M57.638 57.0283L54.2676 60.1699" stroke="#8A8CCE" stroke-width="1.5" stroke-miterlimit="10" stroke-linejoin="bevel"/>
<path d="M11.7934 56.8309C13.2337 56.8309 14.4013 55.6634 14.4013 54.2231C14.4013 52.7828 13.2337 51.6152 11.7934 51.6152C10.3531 51.6152 9.18555 52.7828 9.18555 54.2231C9.18555 55.6634 10.3531 56.8309 11.7934 56.8309Z" stroke="#8A8CCE" stroke-width="1.5" stroke-miterlimit="10" stroke-linejoin="bevel"/>
<path d="M11.5774 60.6746L11.6994 56.8467" stroke="#8A8CCE" stroke-width="1.5" stroke-miterlimit="10" stroke-linejoin="bevel"/>
<path d="M11.8843 51.5999L12.0063 47.833" stroke="#8A8CCE" stroke-width="1.5" stroke-miterlimit="10" stroke-linejoin="bevel"/>
<path d="M18.4275 54.4371L14.4014 54.2998" stroke="#8A8CCE" stroke-width="1.5" stroke-miterlimit="10" stroke-linejoin="bevel"/>
<path d="M9.18447 54.131L4.91431 53.9785" stroke="#8A8CCE" stroke-width="1.5" stroke-miterlimit="10" stroke-linejoin="bevel"/>
<path d="M16.2922 59.1497L13.5166 56.1758" stroke="#8A8CCE" stroke-width="1.5" stroke-miterlimit="10" stroke-linejoin="bevel"/>
<path d="M9.96291 52.3777L7.05005 49.2666" stroke="#8A8CCE" stroke-width="1.5" stroke-miterlimit="10" stroke-linejoin="bevel"/>
<path d="M16.6129 49.5869L13.6238 52.3778" stroke="#8A8CCE" stroke-width="1.5" stroke-miterlimit="10" stroke-linejoin="bevel"/>
<path d="M9.82415 55.9463L6.72827 58.8287" stroke="#8A8CCE" stroke-width="1.5" stroke-miterlimit="10" stroke-linejoin="bevel"/>
</svg>
