<svg id="Слой_1" data-name="Слой 1" xmlns="http://www.w3.org/2000/svg" viewBox="0 0 72 72"><defs><style>.cls-1{fill:#8a8cce;}</style></defs><title>cleaning-6</title><path class="cls-1" d="M55.62,46.26h-39a7.44,7.44,0,0,1-1.07-.07,13.76,13.76,0,0,1-1-27.22,11.77,11.77,0,0,1,16.27-8.09A16.39,16.39,0,0,1,59,17.33a5.39,5.39,0,0,1,4.16,4.73,13.75,13.75,0,0,1-3.59,23.14A7.7,7.7,0,0,1,55.62,46.26ZM26,11.36a10.27,10.27,0,0,0-10.11,8.41l-0.63.61a12.26,12.26,0,0,0,.49,24.33,6.23,6.23,0,0,0,.89.06h39a6.2,6.2,0,0,0,3.22-.88l0.1-.05A12.25,12.25,0,0,0,62,23l-0.27-.56a3.87,3.87,0,0,0-3.38-3.71l-0.64-.57a14.89,14.89,0,0,0-26.06-5.88l-0.92.2A10.3,10.3,0,0,0,26,11.36Z"/><path class="cls-1" d="M36.51,65.42a4.27,4.27,0,1,1,4.27-4.27A4.28,4.28,0,0,1,36.51,65.42Zm0-7a2.77,2.77,0,1,0,2.77,2.77A2.78,2.78,0,0,0,36.51,58.37Z"/><rect class="cls-1" x="38.57" y="64" width="1.5" height="5.18" transform="translate(-26.18 25.47) rotate(-27.32)"/><rect class="cls-1" x="32.98" y="53.22" width="1.5" height="5.08" transform="translate(-21.84 21.72) rotate(-27.34)"/><rect class="cls-1" x="39.33" y="57.53" width="5.43" height="1.5" transform="translate(-22.12 25.92) rotate(-27.43)"/><rect class="cls-1" x="27.96" y="63.33" width="5.75" height="1.5" transform="translate(-25.98 21.31) rotate(-27.33)"/><rect class="cls-1" x="41.7" y="60.41" width="1.5" height="5.47" transform="translate(-30.61 84.42) rotate(-72.32)"/><rect class="cls-1" x="29.66" y="56.45" width="1.5" height="5.73" transform="translate(-35.33 70.3) rotate(-72.34)"/><rect class="cls-1" x="35.54" y="54.4" width="5.51" height="1.5" transform="translate(-25.9 74.83) rotate(-72.27)"/><rect class="cls-1" x="31.61" y="66.44" width="5.7" height="1.5" transform="translate(-40 79.74) rotate(-72.41)"/><path class="cls-1" d="M59.8,58.74a3.6,3.6,0,1,1,3.6-3.6A3.61,3.61,0,0,1,59.8,58.74Zm0-5.7a2.1,2.1,0,1,0,2.1,2.1A2.1,2.1,0,0,0,59.8,53Z"/><rect class="cls-1" x="57.53" y="59.35" width="4.2" height="1.5" transform="translate(-2.38 117.74) rotate(-88.14)"/><rect class="cls-1" x="57.9" y="49.48" width="4.12" height="1.5" transform="translate(7.96 108.65) rotate(-88.28)"/><rect class="cls-1" x="64.09" y="53.1" width="1.5" height="4.41" transform="matrix(0.03, -1, 1, 0.03, 7.33, 118.2)"/><rect class="cls-1" x="53.86" y="52.64" width="1.5" height="4.65" transform="translate(-2.12 107.75) rotate(-88.12)"/><rect class="cls-1" x="62.45" y="56.69" width="1.5" height="4.43" transform="translate(-23.2 59.21) rotate(-43.19)"/><rect class="cls-1" x="55.45" y="49.11" width="1.5" height="4.64" transform="translate(-19.98 52.32) rotate(-43.13)"/><rect class="cls-1" x="61.2" y="50.86" width="4.46" height="1.5" transform="translate(-18.14 57.42) rotate(-43.21)"/><rect class="cls-1" x="53.65" y="57.85" width="4.61" height="1.5" transform="translate(-24.93 53.9) rotate(-43)"/><path class="cls-1" d="M11.79,57.58a3.36,3.36,0,1,1,3.36-3.36A3.36,3.36,0,0,1,11.79,57.58Zm0-5.22a1.86,1.86,0,1,0,1.86,1.86A1.86,1.86,0,0,0,11.79,52.37Z"/><rect class="cls-1" x="9.72" y="58.01" width="3.83" height="1.5" transform="matrix(0.03, -1, 1, 0.03, -47.46, 68.56)"/><rect class="cls-1" x="10.06" y="48.97" width="3.77" height="1.5" transform="translate(-38.13 60.04) rotate(-88.13)"/><rect class="cls-1" x="15.66" y="52.35" width="1.5" height="4.03" transform="translate(-38.48 68.92) rotate(-88.04)"/><rect class="cls-1" x="6.3" y="51.92" width="1.5" height="4.27" transform="translate(-47.22 59.17) rotate(-87.96)"/><rect class="cls-1" x="14.15" y="55.63" width="1.5" height="4.07" transform="translate(-35.34 25.68) rotate(-43.03)"/><rect class="cls-1" x="7.76" y="48.69" width="1.5" height="4.26" transform="translate(-32.44 19.53) rotate(-43.11)"/><rect class="cls-1" x="13.07" y="50.23" width="4.09" height="1.5" transform="translate(-30.73 24.04) rotate(-43.05)"/><rect class="cls-1" x="6.16" y="56.64" width="4.23" height="1.5" transform="translate(-36.9 21.04) rotate(-42.97)"/></svg>