<svg width="72" height="72" viewBox="0 0 72 72" fill="none" xmlns="http://www.w3.org/2000/svg">
<path d="M64.4146 35.01C65.5044 35.3028 66.7244 35.1076 67.684 34.3269C69.2456 33.0582 69.4895 30.7484 68.2208 29.1869C68.0256 28.9429 67.7816 28.7477 67.5376 28.5526C67.5539 28.52 67.5539 28.4875 67.5702 28.4712C67.5865 28.455 67.6027 28.455 67.619 28.4387C69.1154 27.2188 69.3919 25.0717 68.3021 23.5102C68.3021 23.3638 68.2859 23.2337 68.2859 23.0873C68.4973 22.9734 68.7088 22.8433 68.904 22.6806C70.4655 21.4119 70.7095 19.1022 69.4407 17.5407C69.0178 17.0202 68.4811 16.6623 67.8792 16.4346C68.1395 15.3611 67.928 14.1899 67.1798 13.2628C66.4966 12.417 65.5044 11.9778 64.496 11.929C64.6586 10.9368 64.4309 9.87951 63.7477 9.03369C62.479 7.47219 60.1693 7.2282 58.6078 8.49692C58.3963 8.65958 58.2174 8.85477 58.0547 9.04996C57.2577 8.33427 56.2005 8.02522 55.192 8.13908C55.1106 7.50472 54.8504 6.88662 54.4275 6.34985C53.1588 4.78834 50.849 4.54436 49.2875 5.81308C48.3278 6.59384 47.8724 7.7487 47.9537 8.8873C46.6362 7.78123 44.6843 7.71617 43.3017 8.83851C42.9602 9.11502 42.6836 9.4566 42.4722 9.83071C41.1872 9.03369 39.4793 9.06622 38.2431 10.0747C36.6816 11.3434 36.4376 13.6532 37.7063 15.2147C37.9991 15.5888 38.357 15.8653 38.7473 16.093C38.6823 16.1418 38.6009 16.1743 38.5359 16.2394C37.625 16.9876 37.1696 18.0774 37.2021 19.1672C36.584 19.2648 35.9822 19.5088 35.4617 19.9317C33.9002 21.2004 33.6562 23.5102 34.9249 25.0717C35.6243 25.9338 36.6328 26.3729 37.6575 26.4055C37.6901 26.5519 37.7063 26.682 37.7389 26.8284C37.6413 27.7555 37.9015 28.7315 38.5359 29.5285L38.5521 29.5448C38.5521 29.561 38.5684 29.5773 38.5684 29.5936C37.4786 30.9111 37.4298 32.8467 38.5521 34.2293C39.5606 35.4817 41.236 35.8721 42.6511 35.3354C42.6674 35.3516 42.6674 35.3516 42.6836 35.3679C42.8138 35.7583 43.009 36.1324 43.2855 36.4577C44.0825 37.4336 45.2699 37.8891 46.441 37.7915C46.5549 37.8403 46.6525 37.8891 46.7663 37.9379C46.6687 38.8813 46.9127 39.8572 47.5634 40.638C48.8321 42.1995 51.1418 42.4435 52.7033 41.1747C53.354 40.638 53.7606 39.9385 53.9395 39.1741C55.257 40.1825 57.1276 40.1988 58.4614 39.1253C59.7301 40.6868 62.0398 40.9308 63.6013 39.662C64.9839 38.5397 65.3092 36.539 64.4146 35.01Z" stroke="#8A8CCE" stroke-width="1.5" stroke-miterlimit="10" stroke-linejoin="bevel"/>
<path d="M52.606 27.4621C54.798 27.4621 56.5749 25.6852 56.5749 23.4932C56.5749 21.3013 54.798 19.5244 52.606 19.5244C50.4141 19.5244 48.6372 21.3013 48.6372 23.4932C48.6372 25.6852 50.4141 27.4621 52.606 27.4621Z" stroke="#8A8CCE" stroke-width="1.5" stroke-miterlimit="10" stroke-linejoin="bevel"/>
<path d="M34.5507 24.6162C34.4857 24.6487 37.69 26.3729 37.6087 26.438L25.9787 31.5617L22.0424 34.766L2.8814 50.316C1.6452 51.3082 1.46628 53.0975 2.45849 54.3337L12.1529 66.2564C13.1451 67.4764 14.918 67.6553 16.1542 66.6631L17.732 65.3944L28.4674 56.6759L35.3152 51.1131L39.2515 47.9087L47.6284 41.1097C47.6934 41.0609 47.7422 41.012 47.7748 40.9633" stroke="#8A8CCE" stroke-width="1.5" stroke-miterlimit="10" stroke-linejoin="bevel"/>
<path d="M32.7983 53.1307L26.1641 44.9609L15.4311 53.6768L22.0653 61.8465L32.7983 53.1307Z" stroke="#8A8CCE" stroke-width="1.5" stroke-miterlimit="10" stroke-linejoin="bevel"/>
<path d="M22.0421 34.7661L18.6426 30.5696L22.5789 27.3652L25.9784 31.5618" stroke="#8A8CCE" stroke-width="1.5" stroke-miterlimit="10" stroke-linejoin="bevel"/>
</svg>
