<svg id="Слой_1" data-name="Слой 1" xmlns="http://www.w3.org/2000/svg" viewBox="0 0 72 72"><defs><style>.cls-1{fill:#8a8cce;}</style></defs><title>cleaning-2</title><path class="cls-1" d="M53,59.43H19.44L18.75,59,6.38,31,7.07,30H65.34L66,31,53.65,59Zm-33-1.5H52.48L64.19,31.45h-56Z"/><path class="cls-1" d="M15.11,31.38l-0.33-.68L14.63,30,15,29.86a12.46,12.46,0,0,1,2.32-4.18A9.48,9.48,0,0,1,23,17.85a11.23,11.23,0,0,1,8.53-.16,13.28,13.28,0,0,1,20.67,8.1l0.26,0.12a7.78,7.78,0,0,1,2.5.52,8.25,8.25,0,0,1,4.42,3.95l-1.34.68a6.77,6.77,0,0,0-3.63-3.23,6.46,6.46,0,0,0-2.18-.42l-0.32-.09c-0.21-.11-0.44-0.21-0.67-0.31l-0.46-.59a11.36,11.36,0,0,0-7.33-8.88,11.41,11.41,0,0,0-11.32,1.59l-0.77.11-0.3-.12a9.76,9.76,0,0,0-7.45.1A8,8,0,0,0,18.78,26l-0.18.44a10.91,10.91,0,0,0-2.29,4.21l-0.54.53-0.39.09Z"/><path class="cls-1" d="M37.6,27.36a3.6,3.6,0,1,1,3.6-3.6A3.61,3.61,0,0,1,37.6,27.36Zm0-5.71a2.1,2.1,0,1,0,2.1,2.1A2.11,2.11,0,0,0,37.6,21.65Z"/><path class="cls-1" d="M12.81,23.61a2.71,2.71,0,1,1,2.71-2.71A2.71,2.71,0,0,1,12.81,23.61Zm0-3.92A1.21,1.21,0,1,0,14,20.9,1.21,1.21,0,0,0,12.81,19.69Z"/><path class="cls-1" d="M56.67,16.71a4.23,4.23,0,1,1,4.23-4.23A4.24,4.24,0,0,1,56.67,16.71Zm0-7a2.73,2.73,0,1,0,2.73,2.73A2.73,2.73,0,0,0,56.67,9.75Z"/><polygon class="cls-1" points="10.17 38.46 1.58 38.46 0.83 37.71 0.83 33.2 1.58 32.45 8.17 32.45 8.17 33.95 2.33 33.95 2.33 36.96 10.17 36.96 10.17 38.46"/><polygon class="cls-1" points="70.14 39.64 61.55 39.64 61.55 38.14 69.39 38.14 69.39 35.11 63.54 35.11 63.54 33.61 70.14 33.61 70.89 34.36 70.89 38.89 70.14 39.64"/><rect class="cls-1" x="17.67" y="53.95" width="37.07" height="1.5"/></svg>