<svg width="72" height="72" viewBox="0 0 72 72" fill="none" xmlns="http://www.w3.org/2000/svg">
<path d="M52.9687 58.6804H19.441L7.06812 30.7041H65.3416L52.9687 58.6804Z" stroke="#8A8CCE" stroke-width="1.5" stroke-miterlimit="10" stroke-linejoin="bevel"/>
<path d="M14.7839 30.7047C14.9251 30.6577 15.0505 30.6106 15.1917 30.5793C15.3171 30.5479 15.4583 30.5165 15.5837 30.4852C16.0385 28.8386 16.8853 27.3018 18.0301 25.9845C18.0928 25.1377 18.2653 24.3066 18.5789 23.4754C20.4137 18.6611 26.1219 16.4029 31.3125 18.4102C31.438 18.4573 31.5634 18.5043 31.6732 18.5513C34.8252 15.9795 39.42 15.1798 43.7325 16.842C48.092 18.5043 50.9618 22.2522 51.542 26.3138C51.7929 26.4236 52.0438 26.5334 52.2791 26.6588C53.0788 26.6902 53.91 26.8156 54.6941 27.1293C56.4975 27.8193 57.9088 29.1209 58.7243 30.7204" stroke="#8A8CCE" stroke-width="1.5" stroke-miterlimit="10" stroke-linejoin="bevel"/>
<path d="M37.6004 26.6115C39.1767 26.6115 40.4545 25.3337 40.4545 23.7574C40.4545 22.1811 39.1767 20.9033 37.6004 20.9033C36.0242 20.9033 34.7463 22.1811 34.7463 23.7574C34.7463 25.3337 36.0242 26.6115 37.6004 26.6115Z" stroke="#8A8CCE" stroke-width="1.5" stroke-miterlimit="10" stroke-linejoin="bevel"/>
<path d="M12.8074 22.8628C13.89 22.8628 14.7676 21.9852 14.7676 20.9026C14.7676 19.82 13.89 18.9424 12.8074 18.9424C11.7248 18.9424 10.8472 19.82 10.8472 20.9026C10.8472 21.9852 11.7248 22.8628 12.8074 22.8628Z" stroke="#8A8CCE" stroke-width="1.5" stroke-miterlimit="10" stroke-linejoin="bevel"/>
<path d="M56.6696 15.9627C58.5923 15.9627 60.1509 14.4041 60.1509 12.4814C60.1509 10.5587 58.5923 9 56.6696 9C54.7469 9 53.1882 10.5587 53.1882 12.4814C53.1882 14.4041 54.7469 15.9627 56.6696 15.9627Z" stroke="#8A8CCE" stroke-width="1.5" stroke-miterlimit="10" stroke-linejoin="bevel"/>
<path d="M8.16593 33.1953H1.57959V37.7117H10.1732" stroke="#8A8CCE" stroke-width="1.5" stroke-miterlimit="10" stroke-linejoin="bevel"/>
<path d="M63.5382 34.3564H70.1402V38.8885H61.5466" stroke="#8A8CCE" stroke-width="1.5" stroke-miterlimit="10" stroke-linejoin="bevel"/>
<path d="M17.6692 54.6963H54.7409" stroke="#8A8CCE" stroke-width="1.5" stroke-miterlimit="10" stroke-linejoin="bevel"/>
</svg>
