<svg width="72" height="72" viewBox="0 0 72 72" fill="none" xmlns="http://www.w3.org/2000/svg">
<path d="M41.0004 67.9928L66.9238 68.0391L66.9238 55.7647L63.9672 48.7438L44.0437 48.6975L41.0004 55.7647L41.0004 67.9928Z" stroke="#8A8CCE" stroke-width="1.5" stroke-miterlimit="10" stroke-linejoin="bevel"/>
<path d="M66.9551 55.8896L41.0316 55.8434" stroke="#8A8CCE" stroke-width="1.5" stroke-miterlimit="10" stroke-linejoin="bevel"/>
<path d="M60.5977 68.2492L60.6136 56.1016" stroke="#8A8CCE" stroke-width="1.5" stroke-miterlimit="10" stroke-linejoin="bevel"/>
<path d="M63.9141 68.1476L63.93 56" stroke="#8A8CCE" stroke-width="1.5" stroke-miterlimit="10" stroke-linejoin="bevel"/>
<path d="M53.9492 67.7228L53.9811 55.5752" stroke="#8A8CCE" stroke-width="1.5" stroke-miterlimit="10" stroke-linejoin="bevel"/>
<path d="M47.3164 67.9455L47.3324 55.7979" stroke="#8A8CCE" stroke-width="1.5" stroke-miterlimit="10" stroke-linejoin="bevel"/>
<path d="M50.6328 67.9455L50.6488 55.7979" stroke="#8A8CCE" stroke-width="1.5" stroke-miterlimit="10" stroke-linejoin="bevel"/>
<path d="M57.2812 68.1476L57.2972 56" stroke="#8A8CCE" stroke-width="1.5" stroke-miterlimit="10" stroke-linejoin="bevel"/>
<path d="M44 67.9455L44.016 55.7979" stroke="#8A8CCE" stroke-width="1.5" stroke-miterlimit="10" stroke-linejoin="bevel"/>
<path d="M52 49L52.0372 4H56L55.9628 48.9457" stroke="#8A8CCE" stroke-width="1.5" stroke-miterlimit="10" stroke-linejoin="bevel"/>
<path d="M6.94903 8.5L13.4203 27.7845H32.4958L38.9671 8.5M6.94903 8.5L5.43896 4H40.4772L38.9671 8.5M6.94903 8.5H38.9671" stroke="#8A8CCE" stroke-width="1.5" stroke-miterlimit="10" stroke-linejoin="bevel"/>
<path d="M24.9995 28L24.9623 68H20.9995L21.0367 28.0518" stroke="#8A8CCE" stroke-width="1.5" stroke-miterlimit="10" stroke-linejoin="bevel"/>
</svg>
