<svg width="72" height="72" viewBox="0 0 72 72" fill="none" xmlns="http://www.w3.org/2000/svg">
<path d="M43.1929 21.0196V5L59.583 21.0196H43.1929Z" stroke="#8A8CCE" stroke-width="1.5" stroke-miterlimit="10" stroke-linejoin="bevel"/>
<path d="M59.5819 21.0196H60.3319L60.1062 20.4833L59.5819 21.0196ZM43.1918 5L43.716 4.46364L43.1918 4.25V5ZM13.4652 5V4.25L12.7152 4.99902L13.4652 5ZM13.4643 66.5H12.7143L13.4643 67.25V66.5ZM59.5819 66.5V67.25L60.3319 66.5H59.5819ZM60.3319 27.9847V21.0196H58.8319V27.9847H60.3319ZM60.1062 20.4833L43.716 4.46364L42.6676 5.53636L59.0577 21.556L60.1062 20.4833ZM43.1918 4.25H13.4652V5.75H43.1918V4.25ZM60.3319 66.5C60.3319 66.4945 60.3319 66.4891 60.3319 66.4836C60.3319 66.4782 60.3319 66.4727 60.3319 66.4673C60.3319 66.4618 60.3319 66.4564 60.3319 66.4509C60.3319 66.4455 60.3319 66.44 60.3319 66.4346C60.3319 66.4291 60.3319 66.4237 60.3319 66.4182C60.3319 66.4128 60.3319 66.4073 60.3319 66.4019C60.3319 66.3964 60.3319 66.391 60.3319 66.3855C60.3319 66.3801 60.3319 66.3746 60.3319 66.3692C60.3319 66.3637 60.3319 66.3583 60.3319 66.3528C60.3319 66.3474 60.3319 66.3419 60.3319 66.3365C60.3319 66.331 60.3319 66.3256 60.3319 66.3201C60.3319 66.3147 60.3319 66.3092 60.3319 66.3038C60.3319 66.2983 60.3319 66.2929 60.3319 66.2874C60.3319 66.282 60.3319 66.2765 60.3319 66.2711C60.3319 66.2656 60.3319 66.2602 60.3319 66.2547C60.3319 66.2492 60.3319 66.2438 60.3319 66.2383C60.3319 66.2329 60.3319 66.2274 60.3319 66.222C60.3319 66.2165 60.3319 66.2111 60.3319 66.2056C60.3319 66.2002 60.3319 66.1947 60.3319 66.1893C60.3319 66.1838 60.3319 66.1784 60.3319 66.1729C60.3319 66.1675 60.3319 66.162 60.3319 66.1566C60.3319 66.1511 60.3319 66.1457 60.3319 66.1402C60.3319 66.1348 60.3319 66.1293 60.3319 66.1239C60.3319 66.1184 60.3319 66.113 60.3319 66.1075C60.3319 66.1021 60.3319 66.0966 60.3319 66.0912C60.3319 66.0857 60.3319 66.0803 60.3319 66.0748C60.3319 66.0694 60.3319 66.0639 60.3319 66.0585C60.3319 66.053 60.3319 66.0476 60.3319 66.0421C60.3319 66.0367 60.3319 66.0312 60.3319 66.0258C60.3319 66.0203 60.3319 66.0149 60.3319 66.0094C60.3319 66.0039 60.3319 65.9985 60.3319 65.993C60.3319 65.9876 60.3319 65.9821 60.3319 65.9767C60.3319 65.9712 60.3319 65.9658 60.3319 65.9603C60.3319 65.9549 60.3319 65.9494 60.3319 65.944C60.3319 65.9385 60.3319 65.9331 60.3319 65.9276C60.3319 65.9222 60.3319 65.9167 60.3319 65.9113C60.3319 65.9058 60.3319 65.9004 60.3319 65.8949C60.3319 65.8895 60.3319 65.884 60.3319 65.8786C60.3319 65.8731 60.3319 65.8677 60.3319 65.8622C60.3319 65.8568 60.3319 65.8513 60.3319 65.8459C60.3319 65.8404 60.3319 65.835 60.3319 65.8295C60.3319 65.8241 60.3319 65.8186 60.3319 65.8132C60.3319 65.8077 60.3319 65.8023 60.3319 65.7968C60.3319 65.7914 60.3319 65.7859 60.3319 65.7805C60.3319 65.775 60.3319 65.7696 60.3319 65.7641C60.3319 65.7587 60.3319 65.7532 60.3319 65.7477C60.3319 65.7423 60.3319 65.7368 60.3319 65.7314C60.3319 65.7259 60.3319 65.7205 60.3319 65.715C60.3319 65.7096 60.3319 65.7041 60.3319 65.6987C60.3319 65.6932 60.3319 65.6878 60.3319 65.6823C60.3319 65.6769 60.3319 65.6714 60.3319 65.666C60.3319 65.6605 60.3319 65.6551 60.3319 65.6496C60.3319 65.6442 60.3319 65.6387 60.3319 65.6333C60.3319 65.6278 60.3319 65.6224 60.3319 65.6169C60.3319 65.6115 60.3319 65.606 60.3319 65.6006C60.3319 65.5951 60.3319 65.5897 60.3319 65.5842C60.3319 65.5788 60.3319 65.5733 60.3319 65.5679C60.3319 65.5624 60.3319 65.557 60.3319 65.5515C60.3319 65.5461 60.3319 65.5406 60.3319 65.5352C60.3319 65.5297 60.3319 65.5243 60.3319 65.5188C60.3319 65.5134 60.3319 65.5079 60.3319 65.5024C60.3319 65.497 60.3319 65.4915 60.3319 65.4861C60.3319 65.4806 60.3319 65.4752 60.3319 65.4697C60.3319 65.4643 60.3319 65.4588 60.3319 65.4534C60.3319 65.4479 60.3319 65.4425 60.3319 65.437C60.3319 65.4316 60.3319 65.4261 60.3319 65.4207C60.3319 65.4152 60.3319 65.4098 60.3319 65.4043C60.3319 65.3989 60.3319 65.3934 60.3319 65.388C60.3319 65.3825 60.3319 65.3771 60.3319 65.3716C60.3319 65.3662 60.3319 65.3607 60.3319 65.3553C60.3319 65.3498 60.3319 65.3444 60.3319 65.3389C60.3319 65.3335 60.3319 65.328 60.3319 65.3226C60.3319 65.3171 60.3319 65.3117 60.3319 65.3062C60.3319 65.3008 60.3319 65.2953 60.3319 65.2899C60.3319 65.2844 60.3319 65.279 60.3319 65.2735C60.3319 65.2681 60.3319 65.2626 60.3319 65.2571C60.3319 65.2517 60.3319 65.2462 60.3319 65.2408C60.3319 65.2353 60.3319 65.2299 60.3319 65.2244C60.3319 65.219 60.3319 65.2135 60.3319 65.2081C60.3319 65.2026 60.3319 65.1972 60.3319 65.1917C60.3319 65.1863 60.3319 65.1808 60.3319 65.1754C60.3319 65.1699 60.3319 65.1645 60.3319 65.159C60.3319 65.1536 60.3319 65.1481 60.3319 65.1427C60.3319 65.1372 60.3319 65.1318 60.3319 65.1263C60.3319 65.1209 60.3319 65.1154 60.3319 65.11C60.3319 65.1045 60.3319 65.0991 60.3319 65.0936C60.3319 65.0882 60.3319 65.0827 60.3319 65.0773C60.3319 65.0718 60.3319 65.0664 60.3319 65.0609C60.3319 65.0555 60.3319 65.05 60.3319 65.0446C60.3319 65.0391 60.3319 65.0337 60.3319 65.0282C60.3319 65.0228 60.3319 65.0173 60.3319 65.0118C60.3319 65.0064 60.3319 65.0009 60.3319 64.9955C60.3319 64.99 60.3319 64.9846 60.3319 64.9791C60.3319 64.9737 60.3319 64.9682 60.3319 64.9628C60.3319 64.9573 60.3319 64.9519 60.3319 64.9464C60.3319 64.941 60.3319 64.9355 60.3319 64.9301C60.3319 64.9246 60.3319 64.9192 60.3319 64.9137C60.3319 64.9083 60.3319 64.9028 60.3319 64.8974C60.3319 64.8919 60.3319 64.8865 60.3319 64.881C60.3319 64.8756 60.3319 64.8701 60.3319 64.8647C60.3319 64.8592 60.3319 64.8538 60.3319 64.8483C60.3319 64.8429 60.3319 64.8374 60.3319 64.832C60.3319 64.8265 60.3319 64.8211 60.3319 64.8156C60.3319 64.8102 60.3319 64.8047 60.3319 64.7993C60.3319 64.7938 60.3319 64.7884 60.3319 64.7829C60.3319 64.7775 60.3319 64.772 60.3319 64.7665C60.3319 64.7611 60.3319 64.7556 60.3319 64.7502C60.3319 64.7447 60.3319 64.7393 60.3319 64.7338C60.3319 64.7284 60.3319 64.7229 60.3319 64.7175C60.3319 64.712 60.3319 64.7066 60.3319 64.7011C60.3319 64.6957 60.3319 64.6902 60.3319 64.6848C60.3319 64.6793 60.3319 64.6739 60.3319 64.6684C60.3319 64.663 60.3319 64.6575 60.3319 64.6521C60.3319 64.6466 60.3319 64.6412 60.3319 64.6357C60.3319 64.6303 60.3319 64.6248 60.3319 64.6194C60.3319 64.6139 60.3319 64.6085 60.3319 64.603C60.3319 64.5976 60.3319 64.5921 60.3319 64.5867C60.3319 64.5812 60.3319 64.5758 60.3319 64.5703C60.3319 64.5649 60.3319 64.5594 60.3319 64.554C60.3319 64.5485 60.3319 64.5431 60.3319 64.5376C60.3319 64.5322 60.3319 64.5267 60.3319 64.5213C60.3319 64.5158 60.3319 64.5103 60.3319 64.5049C60.3319 64.4994 60.3319 64.494 60.3319 64.4885C60.3319 64.4831 60.3319 64.4776 60.3319 64.4722C60.3319 64.4667 60.3319 64.4613 60.3319 64.4558C60.3319 64.4504 60.3319 64.4449 60.3319 64.4395C60.3319 64.434 60.3319 64.4286 60.3319 64.4231C60.3319 64.4177 60.3319 64.4122 60.3319 64.4068C60.3319 64.4013 60.3319 64.3959 60.3319 64.3904C60.3319 64.385 60.3319 64.3795 60.3319 64.3741C60.3319 64.3686 60.3319 64.3632 60.3319 64.3577C60.3319 64.3523 60.3319 64.3468 60.3319 64.3414C60.3319 64.3359 60.3319 64.3305 60.3319 64.325C60.3319 64.3196 60.3319 64.3141 60.3319 64.3087C60.3319 64.3032 60.3319 64.2978 60.3319 64.2923C60.3319 64.2869 60.3319 64.2814 60.3319 64.276C60.3319 64.2705 60.3319 64.265 60.3319 64.2596C60.3319 64.2541 60.3319 64.2487 60.3319 64.2432C60.3319 64.2378 60.3319 64.2323 60.3319 64.2269C60.3319 64.2214 60.3319 64.216 60.3319 64.2105C60.3319 64.2051 60.3319 64.1996 60.3319 64.1942C60.3319 64.1887 60.3319 64.1833 60.3319 64.1778C60.3319 64.1724 60.3319 64.1669 60.3319 64.1615C60.3319 64.156 60.3319 64.1506 60.3319 64.1451C60.3319 64.1397 60.3319 64.1342 60.3319 64.1288C60.3319 64.1233 60.3319 64.1179 60.3319 64.1124C60.3319 64.107 60.3319 64.1015 60.3319 64.0961C60.3319 64.0906 60.3319 64.0852 60.3319 64.0797C60.3319 64.0743 60.3319 64.0688 60.3319 64.0634C60.3319 64.0579 60.3319 64.0525 60.3319 64.047C60.3319 64.0416 60.3319 64.0361 60.3319 64.0307C60.3319 64.0252 60.3319 64.0197 60.3319 64.0143C60.3319 64.0088 60.3319 64.0034 60.3319 63.9979C60.3319 63.9925 60.3319 63.987 60.3319 63.9816C60.3319 63.9761 60.3319 63.9707 60.3319 63.9652C60.3319 63.9598 60.3319 63.9543 60.3319 63.9489C60.3319 63.9434 60.3319 63.938 60.3319 63.9325C60.3319 63.9271 60.3319 63.9216 60.3319 63.9162C60.3319 63.9107 60.3319 63.9053 60.3319 63.8998C60.3319 63.8944 60.3319 63.8889 60.3319 63.8835C60.3319 63.878 60.3319 63.8726 60.3319 63.8671C60.3319 63.8617 60.3319 63.8562 60.3319 63.8508C60.3319 63.8453 60.3319 63.8399 60.3319 63.8344C60.3319 63.829 60.3319 63.8235 60.3319 63.8181C60.3319 63.8126 60.3319 63.8072 60.3319 63.8017C60.3319 63.7963 60.3319 63.7908 60.3319 63.7854C60.3319 63.7799 60.3319 63.7744 60.3319 63.769C60.3319 63.7635 60.3319 63.7581 60.3319 63.7526C60.3319 63.7472 60.3319 63.7417 60.3319 63.7363C60.3319 63.7308 60.3319 63.7254 60.3319 63.7199C60.3319 63.7145 60.3319 63.709 60.3319 63.7036C60.3319 63.6981 60.3319 63.6927 60.3319 63.6872C60.3319 63.6818 60.3319 63.6763 60.3319 63.6709C60.3319 63.6654 60.3319 63.66 60.3319 63.6545C60.3319 63.6491 60.3319 63.6436 60.3319 63.6382C60.3319 63.6327 60.3319 63.6273 60.3319 63.6218C60.3319 63.6164 60.3319 63.6109 60.3319 63.6055C60.3319 63.6 60.3319 63.5946 60.3319 63.5891C60.3319 63.5837 60.3319 63.5782 60.3319 63.5728C60.3319 63.5673 60.3319 63.5619 60.3319 63.5564C60.3319 63.551 60.3319 63.5455 60.3319 63.5401C60.3319 63.5346 60.3319 63.5292 60.3319 63.5237C60.3319 63.5182 60.3319 63.5128 60.3319 63.5073C60.3319 63.5019 60.3319 63.4964 60.3319 63.491C60.3319 63.4855 60.3319 63.4801 60.3319 63.4746C60.3319 63.4692 60.3319 63.4637 60.3319 63.4583C60.3319 63.4528 60.3319 63.4474 60.3319 63.4419C60.3319 63.4365 60.3319 63.431 60.3319 63.4256C60.3319 63.4201 60.3319 63.4147 60.3319 63.4092C60.3319 63.4038 60.3319 63.3983 60.3319 63.3929C60.3319 63.3874 60.3319 63.382 60.3319 63.3765C60.3319 63.3711 60.3319 63.3656 60.3319 63.3602C60.3319 63.3547 60.3319 63.3493 60.3319 63.3438C60.3319 63.3384 60.3319 63.3329 60.3319 63.3275C60.3319 63.322 60.3319 63.3166 60.3319 63.3111C60.3319 63.3057 60.3319 63.3002 60.3319 63.2948C60.3319 63.2893 60.3319 63.2839 60.3319 63.2784C60.3319 63.2729 60.3319 63.2675 60.3319 63.262C60.3319 63.2566 60.3319 63.2511 60.3319 63.2457C60.3319 63.2402 60.3319 63.2348 60.3319 63.2293C60.3319 63.2239 60.3319 63.2184 60.3319 63.213C60.3319 63.2075 60.3319 63.2021 60.3319 63.1966C60.3319 63.1912 60.3319 63.1857 60.3319 63.1803C60.3319 63.1748 60.3319 63.1694 60.3319 63.1639C60.3319 63.1585 60.3319 63.153 60.3319 63.1476C60.3319 63.1421 60.3319 63.1367 60.3319 63.1312C60.3319 63.1258 60.3319 63.1203 60.3319 63.1149C60.3319 63.1094 60.3319 63.104 60.3319 63.0985C60.3319 63.0931 60.3319 63.0876 60.3319 63.0822C60.3319 63.0767 60.3319 63.0713 60.3319 63.0658C60.3319 63.0604 60.3319 63.0549 60.3319 63.0495C60.3319 63.044 60.3319 63.0386 60.3319 63.0331C60.3319 63.0276 60.3319 63.0222 60.3319 63.0167C60.3319 63.0113 60.3319 63.0058 60.3319 63.0004C60.3319 62.9949 60.3319 62.9895 60.3319 62.984C60.3319 62.9786 60.3319 62.9731 60.3319 62.9677C60.3319 62.9622 60.3319 62.9568 60.3319 62.9513C60.3319 62.9459 60.3319 62.9404 60.3319 62.935C60.3319 62.9295 60.3319 62.9241 60.3319 62.9186C60.3319 62.9132 60.3319 62.9077 60.3319 62.9023C60.3319 62.8968 60.3319 62.8914 60.3319 62.8859C60.3319 62.8805 60.3319 62.875 60.3319 62.8696C60.3319 62.8641 60.3319 62.8587 60.3319 62.8532C60.3319 62.8478 60.3319 62.8423 60.3319 62.8369C60.3319 62.8314 60.3319 62.826 60.3319 62.8205C60.3319 62.8151 60.3319 62.8096 60.3319 62.8042C60.3319 62.7987 60.3319 62.7933 60.3319 62.7878C60.3319 62.7823 60.3319 62.7769 60.3319 62.7714C60.3319 62.766 60.3319 62.7605 60.3319 62.7551C60.3319 62.7496 60.3319 62.7442 60.3319 62.7387C60.3319 62.7333 60.3319 62.7278 60.3319 62.7224C60.3319 62.7169 60.3319 62.7115 60.3319 62.706C60.3319 62.7006 60.3319 62.6951 60.3319 62.6897C60.3319 62.6842 60.3319 62.6788 60.3319 62.6733C60.3319 62.6679 60.3319 62.6624 60.3319 62.657C60.3319 62.6515 60.3319 62.6461 60.3319 62.6406C60.3319 62.6352 60.3319 62.6297 60.3319 62.6243C60.3319 62.6188 60.3319 62.6134 60.3319 62.6079C60.3319 62.6025 60.3319 62.597 60.3319 62.5916C60.3319 62.5861 60.3319 62.5807 60.3319 62.5752C60.3319 62.5698 60.3319 62.5643 60.3319 62.5589C60.3319 62.5534 60.3319 62.548 60.3319 62.5425C60.3319 62.537 60.3319 62.5316 60.3319 62.5261C60.3319 62.5207 60.3319 62.5152 60.3319 62.5098C60.3319 62.5043 60.3319 62.4989 60.3319 62.4934C60.3319 62.488 60.3319 62.4825 60.3319 62.4771C60.3319 62.4716 60.3319 62.4662 60.3319 62.4607C60.3319 62.4553 60.3319 62.4498 60.3319 62.4444C60.3319 62.4389 60.3319 62.4335 60.3319 62.428C60.3319 62.4226 60.3319 62.4171 60.3319 62.4117C60.3319 62.4062 60.3319 62.4008 60.3319 62.3953C60.3319 62.3899 60.3319 62.3844 60.3319 62.379C60.3319 62.3735 60.3319 62.3681 60.3319 62.3626C60.3319 62.3572 60.3319 62.3517 60.3319 62.3463C60.3319 62.3408 60.3319 62.3354 60.3319 62.3299C60.3319 62.3245 60.3319 62.319 60.3319 62.3136C60.3319 62.3081 60.3319 62.3027 60.3319 62.2972C60.3319 62.2918 60.3319 62.2863 60.3319 62.2808C60.3319 62.2754 60.3319 62.2699 60.3319 62.2645C60.3319 62.259 60.3319 62.2536 60.3319 62.2481C60.3319 62.2427 60.3319 62.2372 60.3319 62.2318C60.3319 62.2263 60.3319 62.2209 60.3319 62.2154C60.3319 62.21 60.3319 62.2045 60.3319 62.1991C60.3319 62.1936 60.3319 62.1882 60.3319 62.1827C60.3319 62.1773 60.3319 62.1718 60.3319 62.1664C60.3319 62.1609 60.3319 62.1555 60.3319 62.15C60.3319 62.1446 60.3319 62.1391 60.3319 62.1337C60.3319 62.1282 60.3319 62.1228 60.3319 62.1173C60.3319 62.1119 60.3319 62.1064 60.3319 62.101C60.3319 62.0955 60.3319 62.0901 60.3319 62.0846C60.3319 62.0792 60.3319 62.0737 60.3319 62.0683C60.3319 62.0628 60.3319 62.0574 60.3319 62.0519C60.3319 62.0465 60.3319 62.041 60.3319 62.0355C60.3319 62.0301 60.3319 62.0246 60.3319 62.0192C60.3319 62.0137 60.3319 62.0083 60.3319 62.0028C60.3319 61.9974 60.3319 61.9919 60.3319 61.9865C60.3319 61.981 60.3319 61.9756 60.3319 61.9701C60.3319 61.9647 60.3319 61.9592 60.3319 61.9538C60.3319 61.9483 60.3319 61.9429 60.3319 61.9374C60.3319 61.932 60.3319 61.9265 60.3319 61.9211C60.3319 61.9156 60.3319 61.9102 60.3319 61.9047C60.3319 61.8993 60.3319 61.8938 60.3319 61.8884C60.3319 61.8829 60.3319 61.8775 60.3319 61.872C60.3319 61.8666 60.3319 61.8611 60.3319 61.8557C60.3319 61.8502 60.3319 61.8448 60.3319 61.8393C60.3319 61.8339 60.3319 61.8284 60.3319 61.823C60.3319 61.8175 60.3319 61.8121 60.3319 61.8066C60.3319 61.8012 60.3319 61.7957 60.3319 61.7902C60.3319 61.7848 60.3319 61.7793 60.3319 61.7739C60.3319 61.7684 60.3319 61.763 60.3319 61.7575C60.3319 61.7521 60.3319 61.7466 60.3319 61.7412C60.3319 61.7357 60.3319 61.7303 60.3319 61.7248C60.3319 61.7194 60.3319 61.7139 60.3319 61.7085C60.3319 61.703 60.3319 61.6976 60.3319 61.6921C60.3319 61.6867 60.3319 61.6812 60.3319 61.6758C60.3319 61.6703 60.3319 61.6649 60.3319 61.6594C60.3319 61.654 60.3319 61.6485 60.3319 61.6431C60.3319 61.6376 60.3319 61.6322 60.3319 61.6267C60.3319 61.6213 60.3319 61.6158 60.3319 61.6104C60.3319 61.6049 60.3319 61.5995 60.3319 61.594C60.3319 61.5886 60.3319 61.5831 60.3319 61.5777C60.3319 61.5722 60.3319 61.5668 60.3319 61.5613C60.3319 61.5559 60.3319 61.5504 60.3319 61.5449C60.3319 61.5395 60.3319 61.534 60.3319 61.5286C60.3319 61.5231 60.3319 61.5177 60.3319 61.5122C60.3319 61.5068 60.3319 61.5013 60.3319 61.4959C60.3319 61.4904 60.3319 61.485 60.3319 61.4795C60.3319 61.4741 60.3319 61.4686 60.3319 61.4632C60.3319 61.4577 60.3319 61.4523 60.3319 61.4468C60.3319 61.4414 60.3319 61.4359 60.3319 61.4305C60.3319 61.425 60.3319 61.4196 60.3319 61.4141C60.3319 61.4087 60.3319 61.4032 60.3319 61.3978C60.3319 61.3923 60.3319 61.3869 60.3319 61.3814C60.3319 61.376 60.3319 61.3705 60.3319 61.3651C60.3319 61.3596 60.3319 61.3542 60.3319 61.3487C60.3319 61.3433 60.3319 61.3378 60.3319 61.3324C60.3319 61.3269 60.3319 61.3215 60.3319 61.316C60.3319 61.3106 60.3319 61.3051 60.3319 61.2996C60.3319 61.2942 60.3319 61.2887 60.3319 61.2833C60.3319 61.2778 60.3319 61.2724 60.3319 61.2669C60.3319 61.2615 60.3319 61.256 60.3319 61.2506C60.3319 61.2451 60.3319 61.2397 60.3319 61.2342C60.3319 61.2288 60.3319 61.2233 60.3319 61.2179C60.3319 61.2124 60.3319 61.207 60.3319 61.2015C60.3319 61.1961 60.3319 61.1906 60.3319 61.1852C60.3319 61.1797 60.3319 61.1743 60.3319 61.1688C60.3319 61.1634 60.3319 61.1579 60.3319 61.1525C60.3319 61.147 60.3319 61.1416 60.3319 61.1361C60.3319 61.1307 60.3319 61.1252 60.3319 61.1198C60.3319 61.1143 60.3319 61.1089 60.3319 61.1034C60.3319 61.098 60.3319 61.0925 60.3319 61.0871C60.3319 61.0816 60.3319 61.0762 60.3319 61.0707C60.3319 61.0653 60.3319 61.0598 60.3319 61.0544C60.3319 61.0489 60.3319 61.0434 60.3319 61.038C60.3319 61.0325 60.3319 61.0271 60.3319 61.0216C60.3319 61.0162 60.3319 61.0107 60.3319 61.0053C60.3319 60.9998 60.3319 60.9944 60.3319 60.9889C60.3319 60.9835 60.3319 60.978 60.3319 60.9726C60.3319 60.9671 60.3319 60.9617 60.3319 60.9562C60.3319 60.9508 60.3319 60.9453 60.3319 60.9399C60.3319 60.9344 60.3319 60.929 60.3319 60.9235C60.3319 60.9181 60.3319 60.9126 60.3319 60.9072C60.3319 60.9017 60.3319 60.8963 60.3319 60.8908C60.3319 60.8854 60.3319 60.8799 60.3319 60.8745C60.3319 60.869 60.3319 60.8636 60.3319 60.8581C60.3319 60.8527 60.3319 60.8472 60.3319 60.8418C60.3319 60.8363 60.3319 60.8309 60.3319 60.8254C60.3319 60.82 60.3319 60.8145 60.3319 60.8091C60.3319 60.8036 60.3319 60.7981 60.3319 60.7927C60.3319 60.7872 60.3319 60.7818 60.3319 60.7763C60.3319 60.7709 60.3319 60.7654 60.3319 60.76C60.3319 60.7545 60.3319 60.7491 60.3319 60.7436C60.3319 60.7382 60.3319 60.7327 60.3319 60.7273C60.3319 60.7218 60.3319 60.7164 60.3319 60.7109C60.3319 60.7055 60.3319 60.7 60.3319 60.6946C60.3319 60.6891 60.3319 60.6837 60.3319 60.6782C60.3319 60.6728 60.3319 60.6673 60.3319 60.6619C60.3319 60.6564 60.3319 60.651 60.3319 60.6455C60.3319 60.6401 60.3319 60.6346 60.3319 60.6292C60.3319 60.6237 60.3319 60.6183 60.3319 60.6128C60.3319 60.6074 60.3319 60.6019 60.3319 60.5965C60.3319 60.591 60.3319 60.5856 60.3319 60.5801C60.3319 60.5747 60.3319 60.5692 60.3319 60.5638C60.3319 60.5583 60.3319 60.5528 60.3319 60.5474C60.3319 60.5419 60.3319 60.5365 60.3319 60.531C60.3319 60.5256 60.3319 60.5201 60.3319 60.5147C60.3319 60.5092 60.3319 60.5038 60.3319 60.4983C60.3319 60.4929 60.3319 60.4874 60.3319 60.482C60.3319 60.4765 60.3319 60.4711 60.3319 60.4656C60.3319 60.4602 60.3319 60.4547 60.3319 60.4493C60.3319 60.4438 60.3319 60.4384 60.3319 60.4329C60.3319 60.4275 60.3319 60.422 60.3319 60.4166C60.3319 60.4111 60.3319 60.4057 60.3319 60.4002C60.3319 60.3948 60.3319 60.3893 60.3319 60.3839C60.3319 60.3784 60.3319 60.373 60.3319 60.3675C60.3319 60.3621 60.3319 60.3566 60.3319 60.3512C60.3319 60.3457 60.3319 60.3403 60.3319 60.3348C60.3319 60.3294 60.3319 60.3239 60.3319 60.3185C60.3319 60.313 60.3319 60.3075 60.3319 60.3021C60.3319 60.2966 60.3319 60.2912 60.3319 60.2857C60.3319 60.2803 60.3319 60.2748 60.3319 60.2694C60.3319 60.2639 60.3319 60.2585 60.3319 60.253C60.3319 60.2476 60.3319 60.2421 60.3319 60.2367C60.3319 60.2312 60.3319 60.2258 60.3319 60.2203C60.3319 60.2149 60.3319 60.2094 60.3319 60.204C60.3319 60.1985 60.3319 60.1931 60.3319 60.1876C60.3319 60.1822 60.3319 60.1767 60.3319 60.1713C60.3319 60.1658 60.3319 60.1604 60.3319 60.1549C60.3319 60.1495 60.3319 60.144 60.3319 60.1386C60.3319 60.1331 60.3319 60.1277 60.3319 60.1222C60.3319 60.1168 60.3319 60.1113 60.3319 60.1059C60.3319 60.1004 60.3319 60.095 60.3319 60.0895C60.3319 60.0841 60.3319 60.0786 60.3319 60.0732C60.3319 60.0677 60.3319 60.0623 60.3319 60.0568C60.3319 60.0513 60.3319 60.0459 60.3319 60.0404C60.3319 60.035 60.3319 60.0295 60.3319 60.0241C60.3319 60.0186 60.3319 60.0132 60.3319 60.0077C60.3319 60.0023 60.3319 59.9968 60.3319 59.9914C60.3319 59.9859 60.3319 59.9805 60.3319 59.975C60.3319 59.9696 60.3319 59.9641 60.3319 59.9587C60.3319 59.9532 60.3319 59.9478 60.3319 59.9423C60.3319 59.9369 60.3319 59.9314 60.3319 59.926C60.3319 59.9205 60.3319 59.9151 60.3319 59.9096C60.3319 59.9042 60.3319 59.8987 60.3319 59.8933C60.3319 59.8878 60.3319 59.8824 60.3319 59.8769C60.3319 59.8715 60.3319 59.866 60.3319 59.8606C60.3319 59.8551 60.3319 59.8497 60.3319 59.8442C60.3319 59.8388 60.3319 59.8333 60.3319 59.8279C60.3319 59.8224 60.3319 59.817 60.3319 59.8115C60.3319 59.806 60.3319 59.8006 60.3319 59.7951C60.3319 59.7897 60.3319 59.7842 60.3319 59.7788C60.3319 59.7733 60.3319 59.7679 60.3319 59.7624C60.3319 59.757 60.3319 59.7515 60.3319 59.7461C60.3319 59.7406 60.3319 59.7352 60.3319 59.7297C60.3319 59.7243 60.3319 59.7188 60.3319 59.7134C60.3319 59.7079 60.3319 59.7025 60.3319 59.697C60.3319 59.6916 60.3319 59.6861 60.3319 59.6807C60.3319 59.6752 60.3319 59.6698 60.3319 59.6643C60.3319 59.6589 60.3319 59.6534 60.3319 59.648C60.3319 59.6425 60.3319 59.6371 60.3319 59.6316C60.3319 59.6262 60.3319 59.6207 60.3319 59.6153C60.3319 59.6098 60.3319 59.6044 60.3319 59.5989C60.3319 59.5935 60.3319 59.588 60.3319 59.5826C60.3319 59.5771 60.3319 59.5717 60.3319 59.5662C60.3319 59.5607 60.3319 59.5553 60.3319 59.5498C60.3319 59.5444 60.3319 59.5389 60.3319 59.5335C60.3319 59.528 60.3319 59.5226 60.3319 59.5171C60.3319 59.5117 60.3319 59.5062 60.3319 59.5008C60.3319 59.4953 60.3319 59.4899 60.3319 59.4844C60.3319 59.479 60.3319 59.4735 60.3319 59.4681C60.3319 59.4626 60.3319 59.4572 60.3319 59.4517C60.3319 59.4463 60.3319 59.4408 60.3319 59.4354C60.3319 59.4299 60.3319 59.4245 60.3319 59.419C60.3319 59.4136 60.3319 59.4081 60.3319 59.4027C60.3319 59.3972 60.3319 59.3918 60.3319 59.3863C60.3319 59.3809 60.3319 59.3754 60.3319 59.37C60.3319 59.3645 60.3319 59.3591 60.3319 59.3536C60.3319 59.3482 60.3319 59.3427 60.3319 59.3373C60.3319 59.3318 60.3319 59.3264 60.3319 59.3209C60.3319 59.3154 60.3319 59.31 60.3319 59.3045C60.3319 59.2991 60.3319 59.2936 60.3319 59.2882C60.3319 59.2827 60.3319 59.2773 60.3319 59.2718C60.3319 59.2664 60.3319 59.2609 60.3319 59.2555C60.3319 59.25 60.3319 59.2446 60.3319 59.2391C60.3319 59.2337 60.3319 59.2282 60.3319 59.2228C60.3319 59.2173 60.3319 59.2119 60.3319 59.2064C60.3319 59.201 60.3319 59.1955 60.3319 59.1901C60.3319 59.1846 60.3319 59.1792 60.3319 59.1737C60.3319 59.1683 60.3319 59.1628 60.3319 59.1574C60.3319 59.1519 60.3319 59.1465 60.3319 59.141C60.3319 59.1356 60.3319 59.1301 60.3319 59.1247C60.3319 59.1192 60.3319 59.1138 60.3319 59.1083C60.3319 59.1029 60.3319 59.0974 60.3319 59.092C60.3319 59.0865 60.3319 59.0811 60.3319 59.0756C60.3319 59.0701 60.3319 59.0647 60.3319 59.0592C60.3319 59.0538 60.3319 59.0483 60.3319 59.0429C60.3319 59.0374 60.3319 59.032 60.3319 59.0265C60.3319 59.0211 60.3319 59.0156 60.3319 59.0102C60.3319 59.0047 60.3319 58.9993 60.3319 58.9938C60.3319 58.9884 60.3319 58.9829 60.3319 58.9775C60.3319 58.972 60.3319 58.9666 60.3319 58.9611C60.3319 58.9557 60.3319 58.9502 60.3319 58.9448C60.3319 58.9393 60.3319 58.9339 60.3319 58.9284C60.3319 58.923 60.3319 58.9175 60.3319 58.9121C60.3319 58.9066 60.3319 58.9012 60.3319 58.8957C60.3319 58.8903 60.3319 58.8848 60.3319 58.8794C60.3319 58.8739 60.3319 58.8685 60.3319 58.863C60.3319 58.8576 60.3319 58.8521 60.3319 58.8467C60.3319 58.8412 60.3319 58.8358 60.3319 58.8303C60.3319 58.8249 60.3319 58.8194 60.3319 58.8139C60.3319 58.8085 60.3319 58.803 60.3319 58.7976C60.3319 58.7921 60.3319 58.7867 60.3319 58.7812C60.3319 58.7758 60.3319 58.7703 60.3319 58.7649C60.3319 58.7594 60.3319 58.754 60.3319 58.7485C60.3319 58.7431 60.3319 58.7376 60.3319 58.7322C60.3319 58.7267 60.3319 58.7213 60.3319 58.7158C60.3319 58.7104 60.3319 58.7049 60.3319 58.6995C60.3319 58.694 60.3319 58.6886 60.3319 58.6831C60.3319 58.6777 60.3319 58.6722 60.3319 58.6668C60.3319 58.6613 60.3319 58.6559 60.3319 58.6504C60.3319 58.645 60.3319 58.6395 60.3319 58.6341C60.3319 58.6286 60.3319 58.6232 60.3319 58.6177C60.3319 58.6123 60.3319 58.6068 60.3319 58.6014C60.3319 58.5959 60.3319 58.5905 60.3319 58.585C60.3319 58.5796 60.3319 58.5741 60.3319 58.5686C60.3319 58.5632 60.3319 58.5577 60.3319 58.5523C60.3319 58.5468 60.3319 58.5414 60.3319 58.5359C60.3319 58.5305 60.3319 58.525 60.3319 58.5196C60.3319 58.5141 60.3319 58.5087 60.3319 58.5032C60.3319 58.4978 60.3319 58.4923 60.3319 58.4869C60.3319 58.4814 60.3319 58.476 60.3319 58.4705C60.3319 58.4651 60.3319 58.4596 60.3319 58.4542C60.3319 58.4487 60.3319 58.4433 60.3319 58.4378C60.3319 58.4324 60.3319 58.4269 60.3319 58.4215C60.3319 58.416 60.3319 58.4106 60.3319 58.4051C60.3319 58.3997 60.3319 58.3942 60.3319 58.3888C60.3319 58.3833 60.3319 58.3779 60.3319 58.3724C60.3319 58.367 60.3319 58.3615 60.3319 58.3561C60.3319 58.3506 60.3319 58.3452 60.3319 58.3397C60.3319 58.3343 60.3319 58.3288 60.3319 58.3233C60.3319 58.3179 60.3319 58.3124 60.3319 58.307C60.3319 58.3015 60.3319 58.2961 60.3319 58.2906C60.3319 58.2852 60.3319 58.2797 60.3319 58.2743C60.3319 58.2688 60.3319 58.2634 60.3319 58.2579C60.3319 58.2525 60.3319 58.247 60.3319 58.2416C60.3319 58.2361 60.3319 58.2307 60.3319 58.2252C60.3319 58.2198 60.3319 58.2143 60.3319 58.2089C60.3319 58.2034 60.3319 58.198 60.3319 58.1925C60.3319 58.1871 60.3319 58.1816 60.3319 58.1762C60.3319 58.1707 60.3319 58.1653 60.3319 58.1598C60.3319 58.1544 60.3319 58.1489 60.3319 58.1435C60.3319 58.138 60.3319 58.1326 60.3319 58.1271H58.8319C58.8319 58.1326 58.8319 58.138 58.8319 58.1435C58.8319 58.1489 58.8319 58.1544 58.8319 58.1598C58.8319 58.1653 58.8319 58.1707 58.8319 58.1762C58.8319 58.1816 58.8319 58.1871 58.8319 58.1925C58.8319 58.198 58.8319 58.2034 58.8319 58.2089C58.8319 58.2143 58.8319 58.2198 58.8319 58.2252C58.8319 58.2307 58.8319 58.2361 58.8319 58.2416C58.8319 58.247 58.8319 58.2525 58.8319 58.2579C58.8319 58.2634 58.8319 58.2688 58.8319 58.2743C58.8319 58.2797 58.8319 58.2852 58.8319 58.2906C58.8319 58.2961 58.8319 58.3015 58.8319 58.307C58.8319 58.3124 58.8319 58.3179 58.8319 58.3233C58.8319 58.3288 58.8319 58.3343 58.8319 58.3397C58.8319 58.3452 58.8319 58.3506 58.8319 58.3561C58.8319 58.3615 58.8319 58.367 58.8319 58.3724C58.8319 58.3779 58.8319 58.3833 58.8319 58.3888C58.8319 58.3942 58.8319 58.3997 58.8319 58.4051C58.8319 58.4106 58.8319 58.416 58.8319 58.4215C58.8319 58.4269 58.8319 58.4324 58.8319 58.4378C58.8319 58.4433 58.8319 58.4487 58.8319 58.4542C58.8319 58.4596 58.8319 58.4651 58.8319 58.4705C58.8319 58.476 58.8319 58.4814 58.8319 58.4869C58.8319 58.4923 58.8319 58.4978 58.8319 58.5032C58.8319 58.5087 58.8319 58.5141 58.8319 58.5196C58.8319 58.525 58.8319 58.5305 58.8319 58.5359C58.8319 58.5414 58.8319 58.5468 58.8319 58.5523C58.8319 58.5577 58.8319 58.5632 58.8319 58.5686C58.8319 58.5741 58.8319 58.5796 58.8319 58.585C58.8319 58.5905 58.8319 58.5959 58.8319 58.6014C58.8319 58.6068 58.8319 58.6123 58.8319 58.6177C58.8319 58.6232 58.8319 58.6286 58.8319 58.6341C58.8319 58.6395 58.8319 58.645 58.8319 58.6504C58.8319 58.6559 58.8319 58.6613 58.8319 58.6668C58.8319 58.6722 58.8319 58.6777 58.8319 58.6831C58.8319 58.6886 58.8319 58.694 58.8319 58.6995C58.8319 58.7049 58.8319 58.7104 58.8319 58.7158C58.8319 58.7213 58.8319 58.7267 58.8319 58.7322C58.8319 58.7376 58.8319 58.7431 58.8319 58.7485C58.8319 58.754 58.8319 58.7594 58.8319 58.7649C58.8319 58.7703 58.8319 58.7758 58.8319 58.7812C58.8319 58.7867 58.8319 58.7921 58.8319 58.7976C58.8319 58.803 58.8319 58.8085 58.8319 58.8139C58.8319 58.8194 58.8319 58.8249 58.8319 58.8303C58.8319 58.8358 58.8319 58.8412 58.8319 58.8467C58.8319 58.8521 58.8319 58.8576 58.8319 58.863C58.8319 58.8685 58.8319 58.8739 58.8319 58.8794C58.8319 58.8848 58.8319 58.8903 58.8319 58.8957C58.8319 58.9012 58.8319 58.9066 58.8319 58.9121C58.8319 58.9175 58.8319 58.923 58.8319 58.9284C58.8319 58.9339 58.8319 58.9393 58.8319 58.9448C58.8319 58.9502 58.8319 58.9557 58.8319 58.9611C58.8319 58.9666 58.8319 58.972 58.8319 58.9775C58.8319 58.9829 58.8319 58.9884 58.8319 58.9938C58.8319 58.9993 58.8319 59.0047 58.8319 59.0102C58.8319 59.0156 58.8319 59.0211 58.8319 59.0265C58.8319 59.032 58.8319 59.0374 58.8319 59.0429C58.8319 59.0483 58.8319 59.0538 58.8319 59.0592C58.8319 59.0647 58.8319 59.0701 58.8319 59.0756C58.8319 59.0811 58.8319 59.0865 58.8319 59.092C58.8319 59.0974 58.8319 59.1029 58.8319 59.1083C58.8319 59.1138 58.8319 59.1192 58.8319 59.1247C58.8319 59.1301 58.8319 59.1356 58.8319 59.141C58.8319 59.1465 58.8319 59.1519 58.8319 59.1574C58.8319 59.1628 58.8319 59.1683 58.8319 59.1737C58.8319 59.1792 58.8319 59.1846 58.8319 59.1901C58.8319 59.1955 58.8319 59.201 58.8319 59.2064C58.8319 59.2119 58.8319 59.2173 58.8319 59.2228C58.8319 59.2282 58.8319 59.2337 58.8319 59.2391C58.8319 59.2446 58.8319 59.25 58.8319 59.2555C58.8319 59.2609 58.8319 59.2664 58.8319 59.2718C58.8319 59.2773 58.8319 59.2827 58.8319 59.2882C58.8319 59.2936 58.8319 59.2991 58.8319 59.3045C58.8319 59.31 58.8319 59.3154 58.8319 59.3209C58.8319 59.3264 58.8319 59.3318 58.8319 59.3373C58.8319 59.3427 58.8319 59.3482 58.8319 59.3536C58.8319 59.3591 58.8319 59.3645 58.8319 59.37C58.8319 59.3754 58.8319 59.3809 58.8319 59.3863C58.8319 59.3918 58.8319 59.3972 58.8319 59.4027C58.8319 59.4081 58.8319 59.4136 58.8319 59.419C58.8319 59.4245 58.8319 59.4299 58.8319 59.4354C58.8319 59.4408 58.8319 59.4463 58.8319 59.4517C58.8319 59.4572 58.8319 59.4626 58.8319 59.4681C58.8319 59.4735 58.8319 59.479 58.8319 59.4844C58.8319 59.4899 58.8319 59.4953 58.8319 59.5008C58.8319 59.5062 58.8319 59.5117 58.8319 59.5171C58.8319 59.5226 58.8319 59.528 58.8319 59.5335C58.8319 59.5389 58.8319 59.5444 58.8319 59.5498C58.8319 59.5553 58.8319 59.5607 58.8319 59.5662C58.8319 59.5717 58.8319 59.5771 58.8319 59.5826C58.8319 59.588 58.8319 59.5935 58.8319 59.5989C58.8319 59.6044 58.8319 59.6098 58.8319 59.6153C58.8319 59.6207 58.8319 59.6262 58.8319 59.6316C58.8319 59.6371 58.8319 59.6425 58.8319 59.648C58.8319 59.6534 58.8319 59.6589 58.8319 59.6643C58.8319 59.6698 58.8319 59.6752 58.8319 59.6807C58.8319 59.6861 58.8319 59.6916 58.8319 59.697C58.8319 59.7025 58.8319 59.7079 58.8319 59.7134C58.8319 59.7188 58.8319 59.7243 58.8319 59.7297C58.8319 59.7352 58.8319 59.7406 58.8319 59.7461C58.8319 59.7515 58.8319 59.757 58.8319 59.7624C58.8319 59.7679 58.8319 59.7733 58.8319 59.7788C58.8319 59.7842 58.8319 59.7897 58.8319 59.7951C58.8319 59.8006 58.8319 59.806 58.8319 59.8115C58.8319 59.817 58.8319 59.8224 58.8319 59.8279C58.8319 59.8333 58.8319 59.8388 58.8319 59.8442C58.8319 59.8497 58.8319 59.8551 58.8319 59.8606C58.8319 59.866 58.8319 59.8715 58.8319 59.8769C58.8319 59.8824 58.8319 59.8878 58.8319 59.8933C58.8319 59.8987 58.8319 59.9042 58.8319 59.9096C58.8319 59.9151 58.8319 59.9205 58.8319 59.926C58.8319 59.9314 58.8319 59.9369 58.8319 59.9423C58.8319 59.9478 58.8319 59.9532 58.8319 59.9587C58.8319 59.9641 58.8319 59.9696 58.8319 59.975C58.8319 59.9805 58.8319 59.9859 58.8319 59.9914C58.8319 59.9968 58.8319 60.0023 58.8319 60.0077C58.8319 60.0132 58.8319 60.0186 58.8319 60.0241C58.8319 60.0295 58.8319 60.035 58.8319 60.0404C58.8319 60.0459 58.8319 60.0513 58.8319 60.0568C58.8319 60.0623 58.8319 60.0677 58.8319 60.0732C58.8319 60.0786 58.8319 60.0841 58.8319 60.0895C58.8319 60.095 58.8319 60.1004 58.8319 60.1059C58.8319 60.1113 58.8319 60.1168 58.8319 60.1222C58.8319 60.1277 58.8319 60.1331 58.8319 60.1386C58.8319 60.144 58.8319 60.1495 58.8319 60.1549C58.8319 60.1604 58.8319 60.1658 58.8319 60.1713C58.8319 60.1767 58.8319 60.1822 58.8319 60.1876C58.8319 60.1931 58.8319 60.1985 58.8319 60.204C58.8319 60.2094 58.8319 60.2149 58.8319 60.2203C58.8319 60.2258 58.8319 60.2312 58.8319 60.2367C58.8319 60.2421 58.8319 60.2476 58.8319 60.253C58.8319 60.2585 58.8319 60.2639 58.8319 60.2694C58.8319 60.2748 58.8319 60.2803 58.8319 60.2857C58.8319 60.2912 58.8319 60.2966 58.8319 60.3021C58.8319 60.3075 58.8319 60.313 58.8319 60.3185C58.8319 60.3239 58.8319 60.3294 58.8319 60.3348C58.8319 60.3403 58.8319 60.3457 58.8319 60.3512C58.8319 60.3566 58.8319 60.3621 58.8319 60.3675C58.8319 60.373 58.8319 60.3784 58.8319 60.3839C58.8319 60.3893 58.8319 60.3948 58.8319 60.4002C58.8319 60.4057 58.8319 60.4111 58.8319 60.4166C58.8319 60.422 58.8319 60.4275 58.8319 60.4329C58.8319 60.4384 58.8319 60.4438 58.8319 60.4493C58.8319 60.4547 58.8319 60.4602 58.8319 60.4656C58.8319 60.4711 58.8319 60.4765 58.8319 60.482C58.8319 60.4874 58.8319 60.4929 58.8319 60.4983C58.8319 60.5038 58.8319 60.5092 58.8319 60.5147C58.8319 60.5201 58.8319 60.5256 58.8319 60.531C58.8319 60.5365 58.8319 60.5419 58.8319 60.5474C58.8319 60.5528 58.8319 60.5583 58.8319 60.5638C58.8319 60.5692 58.8319 60.5747 58.8319 60.5801C58.8319 60.5856 58.8319 60.591 58.8319 60.5965C58.8319 60.6019 58.8319 60.6074 58.8319 60.6128C58.8319 60.6183 58.8319 60.6237 58.8319 60.6292C58.8319 60.6346 58.8319 60.6401 58.8319 60.6455C58.8319 60.651 58.8319 60.6564 58.8319 60.6619C58.8319 60.6673 58.8319 60.6728 58.8319 60.6782C58.8319 60.6837 58.8319 60.6891 58.8319 60.6946C58.8319 60.7 58.8319 60.7055 58.8319 60.7109C58.8319 60.7164 58.8319 60.7218 58.8319 60.7273C58.8319 60.7327 58.8319 60.7382 58.8319 60.7436C58.8319 60.7491 58.8319 60.7545 58.8319 60.76C58.8319 60.7654 58.8319 60.7709 58.8319 60.7763C58.8319 60.7818 58.8319 60.7872 58.8319 60.7927C58.8319 60.7981 58.8319 60.8036 58.8319 60.8091C58.8319 60.8145 58.8319 60.82 58.8319 60.8254C58.8319 60.8309 58.8319 60.8363 58.8319 60.8418C58.8319 60.8472 58.8319 60.8527 58.8319 60.8581C58.8319 60.8636 58.8319 60.869 58.8319 60.8745C58.8319 60.8799 58.8319 60.8854 58.8319 60.8908C58.8319 60.8963 58.8319 60.9017 58.8319 60.9072C58.8319 60.9126 58.8319 60.9181 58.8319 60.9235C58.8319 60.929 58.8319 60.9344 58.8319 60.9399C58.8319 60.9453 58.8319 60.9508 58.8319 60.9562C58.8319 60.9617 58.8319 60.9671 58.8319 60.9726C58.8319 60.978 58.8319 60.9835 58.8319 60.9889C58.8319 60.9944 58.8319 60.9998 58.8319 61.0053C58.8319 61.0107 58.8319 61.0162 58.8319 61.0216C58.8319 61.0271 58.8319 61.0325 58.8319 61.038C58.8319 61.0434 58.8319 61.0489 58.8319 61.0544C58.8319 61.0598 58.8319 61.0653 58.8319 61.0707C58.8319 61.0762 58.8319 61.0816 58.8319 61.0871C58.8319 61.0925 58.8319 61.098 58.8319 61.1034C58.8319 61.1089 58.8319 61.1143 58.8319 61.1198C58.8319 61.1252 58.8319 61.1307 58.8319 61.1361C58.8319 61.1416 58.8319 61.147 58.8319 61.1525C58.8319 61.1579 58.8319 61.1634 58.8319 61.1688C58.8319 61.1743 58.8319 61.1797 58.8319 61.1852C58.8319 61.1906 58.8319 61.1961 58.8319 61.2015C58.8319 61.207 58.8319 61.2124 58.8319 61.2179C58.8319 61.2233 58.8319 61.2288 58.8319 61.2342C58.8319 61.2397 58.8319 61.2451 58.8319 61.2506C58.8319 61.256 58.8319 61.2615 58.8319 61.2669C58.8319 61.2724 58.8319 61.2778 58.8319 61.2833C58.8319 61.2887 58.8319 61.2942 58.8319 61.2996C58.8319 61.3051 58.8319 61.3106 58.8319 61.316C58.8319 61.3215 58.8319 61.3269 58.8319 61.3324C58.8319 61.3378 58.8319 61.3433 58.8319 61.3487C58.8319 61.3542 58.8319 61.3596 58.8319 61.3651C58.8319 61.3705 58.8319 61.376 58.8319 61.3814C58.8319 61.3869 58.8319 61.3923 58.8319 61.3978C58.8319 61.4032 58.8319 61.4087 58.8319 61.4141C58.8319 61.4196 58.8319 61.425 58.8319 61.4305C58.8319 61.4359 58.8319 61.4414 58.8319 61.4468C58.8319 61.4523 58.8319 61.4577 58.8319 61.4632C58.8319 61.4686 58.8319 61.4741 58.8319 61.4795C58.8319 61.485 58.8319 61.4904 58.8319 61.4959C58.8319 61.5013 58.8319 61.5068 58.8319 61.5122C58.8319 61.5177 58.8319 61.5231 58.8319 61.5286C58.8319 61.534 58.8319 61.5395 58.8319 61.5449C58.8319 61.5504 58.8319 61.5559 58.8319 61.5613C58.8319 61.5668 58.8319 61.5722 58.8319 61.5777C58.8319 61.5831 58.8319 61.5886 58.8319 61.594C58.8319 61.5995 58.8319 61.6049 58.8319 61.6104C58.8319 61.6158 58.8319 61.6213 58.8319 61.6267C58.8319 61.6322 58.8319 61.6376 58.8319 61.6431C58.8319 61.6485 58.8319 61.654 58.8319 61.6594C58.8319 61.6649 58.8319 61.6703 58.8319 61.6758C58.8319 61.6812 58.8319 61.6867 58.8319 61.6921C58.8319 61.6976 58.8319 61.703 58.8319 61.7085C58.8319 61.7139 58.8319 61.7194 58.8319 61.7248C58.8319 61.7303 58.8319 61.7357 58.8319 61.7412C58.8319 61.7466 58.8319 61.7521 58.8319 61.7575C58.8319 61.763 58.8319 61.7684 58.8319 61.7739C58.8319 61.7793 58.8319 61.7848 58.8319 61.7902C58.8319 61.7957 58.8319 61.8012 58.8319 61.8066C58.8319 61.8121 58.8319 61.8175 58.8319 61.823C58.8319 61.8284 58.8319 61.8339 58.8319 61.8393C58.8319 61.8448 58.8319 61.8502 58.8319 61.8557C58.8319 61.8611 58.8319 61.8666 58.8319 61.872C58.8319 61.8775 58.8319 61.8829 58.8319 61.8884C58.8319 61.8938 58.8319 61.8993 58.8319 61.9047C58.8319 61.9102 58.8319 61.9156 58.8319 61.9211C58.8319 61.9265 58.8319 61.932 58.8319 61.9374C58.8319 61.9429 58.8319 61.9483 58.8319 61.9538C58.8319 61.9592 58.8319 61.9647 58.8319 61.9701C58.8319 61.9756 58.8319 61.981 58.8319 61.9865C58.8319 61.9919 58.8319 61.9974 58.8319 62.0028C58.8319 62.0083 58.8319 62.0137 58.8319 62.0192C58.8319 62.0246 58.8319 62.0301 58.8319 62.0355C58.8319 62.041 58.8319 62.0465 58.8319 62.0519C58.8319 62.0574 58.8319 62.0628 58.8319 62.0683C58.8319 62.0737 58.8319 62.0792 58.8319 62.0846C58.8319 62.0901 58.8319 62.0955 58.8319 62.101C58.8319 62.1064 58.8319 62.1119 58.8319 62.1173C58.8319 62.1228 58.8319 62.1282 58.8319 62.1337C58.8319 62.1391 58.8319 62.1446 58.8319 62.15C58.8319 62.1555 58.8319 62.1609 58.8319 62.1664C58.8319 62.1718 58.8319 62.1773 58.8319 62.1827C58.8319 62.1882 58.8319 62.1936 58.8319 62.1991C58.8319 62.2045 58.8319 62.21 58.8319 62.2154C58.8319 62.2209 58.8319 62.2263 58.8319 62.2318C58.8319 62.2372 58.8319 62.2427 58.8319 62.2481C58.8319 62.2536 58.8319 62.259 58.8319 62.2645C58.8319 62.2699 58.8319 62.2754 58.8319 62.2808C58.8319 62.2863 58.8319 62.2918 58.8319 62.2972C58.8319 62.3027 58.8319 62.3081 58.8319 62.3136C58.8319 62.319 58.8319 62.3245 58.8319 62.3299C58.8319 62.3354 58.8319 62.3408 58.8319 62.3463C58.8319 62.3517 58.8319 62.3572 58.8319 62.3626C58.8319 62.3681 58.8319 62.3735 58.8319 62.379C58.8319 62.3844 58.8319 62.3899 58.8319 62.3953C58.8319 62.4008 58.8319 62.4062 58.8319 62.4117C58.8319 62.4171 58.8319 62.4226 58.8319 62.428C58.8319 62.4335 58.8319 62.4389 58.8319 62.4444C58.8319 62.4498 58.8319 62.4553 58.8319 62.4607C58.8319 62.4662 58.8319 62.4716 58.8319 62.4771C58.8319 62.4825 58.8319 62.488 58.8319 62.4934C58.8319 62.4989 58.8319 62.5043 58.8319 62.5098C58.8319 62.5152 58.8319 62.5207 58.8319 62.5261C58.8319 62.5316 58.8319 62.537 58.8319 62.5425C58.8319 62.548 58.8319 62.5534 58.8319 62.5589C58.8319 62.5643 58.8319 62.5698 58.8319 62.5752C58.8319 62.5807 58.8319 62.5861 58.8319 62.5916C58.8319 62.597 58.8319 62.6025 58.8319 62.6079C58.8319 62.6134 58.8319 62.6188 58.8319 62.6243C58.8319 62.6297 58.8319 62.6352 58.8319 62.6406C58.8319 62.6461 58.8319 62.6515 58.8319 62.657C58.8319 62.6624 58.8319 62.6679 58.8319 62.6733C58.8319 62.6788 58.8319 62.6842 58.8319 62.6897C58.8319 62.6951 58.8319 62.7006 58.8319 62.706C58.8319 62.7115 58.8319 62.7169 58.8319 62.7224C58.8319 62.7278 58.8319 62.7333 58.8319 62.7387C58.8319 62.7442 58.8319 62.7496 58.8319 62.7551C58.8319 62.7605 58.8319 62.766 58.8319 62.7714C58.8319 62.7769 58.8319 62.7823 58.8319 62.7878C58.8319 62.7933 58.8319 62.7987 58.8319 62.8042C58.8319 62.8096 58.8319 62.8151 58.8319 62.8205C58.8319 62.826 58.8319 62.8314 58.8319 62.8369C58.8319 62.8423 58.8319 62.8478 58.8319 62.8532C58.8319 62.8587 58.8319 62.8641 58.8319 62.8696C58.8319 62.875 58.8319 62.8805 58.8319 62.8859C58.8319 62.8914 58.8319 62.8968 58.8319 62.9023C58.8319 62.9077 58.8319 62.9132 58.8319 62.9186C58.8319 62.9241 58.8319 62.9295 58.8319 62.935C58.8319 62.9404 58.8319 62.9459 58.8319 62.9513C58.8319 62.9568 58.8319 62.9622 58.8319 62.9677C58.8319 62.9731 58.8319 62.9786 58.8319 62.984C58.8319 62.9895 58.8319 62.9949 58.8319 63.0004C58.8319 63.0058 58.8319 63.0113 58.8319 63.0167C58.8319 63.0222 58.8319 63.0276 58.8319 63.0331C58.8319 63.0386 58.8319 63.044 58.8319 63.0495C58.8319 63.0549 58.8319 63.0604 58.8319 63.0658C58.8319 63.0713 58.8319 63.0767 58.8319 63.0822C58.8319 63.0876 58.8319 63.0931 58.8319 63.0985C58.8319 63.104 58.8319 63.1094 58.8319 63.1149C58.8319 63.1203 58.8319 63.1258 58.8319 63.1312C58.8319 63.1367 58.8319 63.1421 58.8319 63.1476C58.8319 63.153 58.8319 63.1585 58.8319 63.1639C58.8319 63.1694 58.8319 63.1748 58.8319 63.1803C58.8319 63.1857 58.8319 63.1912 58.8319 63.1966C58.8319 63.2021 58.8319 63.2075 58.8319 63.213C58.8319 63.2184 58.8319 63.2239 58.8319 63.2293C58.8319 63.2348 58.8319 63.2402 58.8319 63.2457C58.8319 63.2511 58.8319 63.2566 58.8319 63.262C58.8319 63.2675 58.8319 63.2729 58.8319 63.2784C58.8319 63.2839 58.8319 63.2893 58.8319 63.2948C58.8319 63.3002 58.8319 63.3057 58.8319 63.3111C58.8319 63.3166 58.8319 63.322 58.8319 63.3275C58.8319 63.3329 58.8319 63.3384 58.8319 63.3438C58.8319 63.3493 58.8319 63.3547 58.8319 63.3602C58.8319 63.3656 58.8319 63.3711 58.8319 63.3765C58.8319 63.382 58.8319 63.3874 58.8319 63.3929C58.8319 63.3983 58.8319 63.4038 58.8319 63.4092C58.8319 63.4147 58.8319 63.4201 58.8319 63.4256C58.8319 63.431 58.8319 63.4365 58.8319 63.4419C58.8319 63.4474 58.8319 63.4528 58.8319 63.4583C58.8319 63.4637 58.8319 63.4692 58.8319 63.4746C58.8319 63.4801 58.8319 63.4855 58.8319 63.491C58.8319 63.4964 58.8319 63.5019 58.8319 63.5073C58.8319 63.5128 58.8319 63.5182 58.8319 63.5237C58.8319 63.5292 58.8319 63.5346 58.8319 63.5401C58.8319 63.5455 58.8319 63.551 58.8319 63.5564C58.8319 63.5619 58.8319 63.5673 58.8319 63.5728C58.8319 63.5782 58.8319 63.5837 58.8319 63.5891C58.8319 63.5946 58.8319 63.6 58.8319 63.6055C58.8319 63.6109 58.8319 63.6164 58.8319 63.6218C58.8319 63.6273 58.8319 63.6327 58.8319 63.6382C58.8319 63.6436 58.8319 63.6491 58.8319 63.6545C58.8319 63.66 58.8319 63.6654 58.8319 63.6709C58.8319 63.6763 58.8319 63.6818 58.8319 63.6872C58.8319 63.6927 58.8319 63.6981 58.8319 63.7036C58.8319 63.709 58.8319 63.7145 58.8319 63.7199C58.8319 63.7254 58.8319 63.7308 58.8319 63.7363C58.8319 63.7417 58.8319 63.7472 58.8319 63.7526C58.8319 63.7581 58.8319 63.7635 58.8319 63.769C58.8319 63.7744 58.8319 63.7799 58.8319 63.7854C58.8319 63.7908 58.8319 63.7963 58.8319 63.8017C58.8319 63.8072 58.8319 63.8126 58.8319 63.8181C58.8319 63.8235 58.8319 63.829 58.8319 63.8344C58.8319 63.8399 58.8319 63.8453 58.8319 63.8508C58.8319 63.8562 58.8319 63.8617 58.8319 63.8671C58.8319 63.8726 58.8319 63.878 58.8319 63.8835C58.8319 63.8889 58.8319 63.8944 58.8319 63.8998C58.8319 63.9053 58.8319 63.9107 58.8319 63.9162C58.8319 63.9216 58.8319 63.9271 58.8319 63.9325C58.8319 63.938 58.8319 63.9434 58.8319 63.9489C58.8319 63.9543 58.8319 63.9598 58.8319 63.9652C58.8319 63.9707 58.8319 63.9761 58.8319 63.9816C58.8319 63.987 58.8319 63.9925 58.8319 63.9979C58.8319 64.0034 58.8319 64.0088 58.8319 64.0143C58.8319 64.0197 58.8319 64.0252 58.8319 64.0307C58.8319 64.0361 58.8319 64.0416 58.8319 64.047C58.8319 64.0525 58.8319 64.0579 58.8319 64.0634C58.8319 64.0688 58.8319 64.0743 58.8319 64.0797C58.8319 64.0852 58.8319 64.0906 58.8319 64.0961C58.8319 64.1015 58.8319 64.107 58.8319 64.1124C58.8319 64.1179 58.8319 64.1233 58.8319 64.1288C58.8319 64.1342 58.8319 64.1397 58.8319 64.1451C58.8319 64.1506 58.8319 64.156 58.8319 64.1615C58.8319 64.1669 58.8319 64.1724 58.8319 64.1778C58.8319 64.1833 58.8319 64.1887 58.8319 64.1942C58.8319 64.1996 58.8319 64.2051 58.8319 64.2105C58.8319 64.216 58.8319 64.2214 58.8319 64.2269C58.8319 64.2323 58.8319 64.2378 58.8319 64.2432C58.8319 64.2487 58.8319 64.2541 58.8319 64.2596C58.8319 64.265 58.8319 64.2705 58.8319 64.276C58.8319 64.2814 58.8319 64.2869 58.8319 64.2923C58.8319 64.2978 58.8319 64.3032 58.8319 64.3087C58.8319 64.3141 58.8319 64.3196 58.8319 64.325C58.8319 64.3305 58.8319 64.3359 58.8319 64.3414C58.8319 64.3468 58.8319 64.3523 58.8319 64.3577C58.8319 64.3632 58.8319 64.3686 58.8319 64.3741C58.8319 64.3795 58.8319 64.385 58.8319 64.3904C58.8319 64.3959 58.8319 64.4013 58.8319 64.4068C58.8319 64.4122 58.8319 64.4177 58.8319 64.4231C58.8319 64.4286 58.8319 64.434 58.8319 64.4395C58.8319 64.4449 58.8319 64.4504 58.8319 64.4558C58.8319 64.4613 58.8319 64.4667 58.8319 64.4722C58.8319 64.4776 58.8319 64.4831 58.8319 64.4885C58.8319 64.494 58.8319 64.4994 58.8319 64.5049C58.8319 64.5103 58.8319 64.5158 58.8319 64.5213C58.8319 64.5267 58.8319 64.5322 58.8319 64.5376C58.8319 64.5431 58.8319 64.5485 58.8319 64.554C58.8319 64.5594 58.8319 64.5649 58.8319 64.5703C58.8319 64.5758 58.8319 64.5812 58.8319 64.5867C58.8319 64.5921 58.8319 64.5976 58.8319 64.603C58.8319 64.6085 58.8319 64.6139 58.8319 64.6194C58.8319 64.6248 58.8319 64.6303 58.8319 64.6357C58.8319 64.6412 58.8319 64.6466 58.8319 64.6521C58.8319 64.6575 58.8319 64.663 58.8319 64.6684C58.8319 64.6739 58.8319 64.6793 58.8319 64.6848C58.8319 64.6902 58.8319 64.6957 58.8319 64.7011C58.8319 64.7066 58.8319 64.712 58.8319 64.7175C58.8319 64.7229 58.8319 64.7284 58.8319 64.7338C58.8319 64.7393 58.8319 64.7447 58.8319 64.7502C58.8319 64.7556 58.8319 64.7611 58.8319 64.7665C58.8319 64.772 58.8319 64.7775 58.8319 64.7829C58.8319 64.7884 58.8319 64.7938 58.8319 64.7993C58.8319 64.8047 58.8319 64.8102 58.8319 64.8156C58.8319 64.8211 58.8319 64.8265 58.8319 64.832C58.8319 64.8374 58.8319 64.8429 58.8319 64.8483C58.8319 64.8538 58.8319 64.8592 58.8319 64.8647C58.8319 64.8701 58.8319 64.8756 58.8319 64.881C58.8319 64.8865 58.8319 64.8919 58.8319 64.8974C58.8319 64.9028 58.8319 64.9083 58.8319 64.9137C58.8319 64.9192 58.8319 64.9246 58.8319 64.9301C58.8319 64.9355 58.8319 64.941 58.8319 64.9464C58.8319 64.9519 58.8319 64.9573 58.8319 64.9628C58.8319 64.9682 58.8319 64.9737 58.8319 64.9791C58.8319 64.9846 58.8319 64.99 58.8319 64.9955C58.8319 65.0009 58.8319 65.0064 58.8319 65.0118C58.8319 65.0173 58.8319 65.0228 58.8319 65.0282C58.8319 65.0337 58.8319 65.0391 58.8319 65.0446C58.8319 65.05 58.8319 65.0555 58.8319 65.0609C58.8319 65.0664 58.8319 65.0718 58.8319 65.0773C58.8319 65.0827 58.8319 65.0882 58.8319 65.0936C58.8319 65.0991 58.8319 65.1045 58.8319 65.11C58.8319 65.1154 58.8319 65.1209 58.8319 65.1263C58.8319 65.1318 58.8319 65.1372 58.8319 65.1427C58.8319 65.1481 58.8319 65.1536 58.8319 65.159C58.8319 65.1645 58.8319 65.1699 58.8319 65.1754C58.8319 65.1808 58.8319 65.1863 58.8319 65.1917C58.8319 65.1972 58.8319 65.2026 58.8319 65.2081C58.8319 65.2135 58.8319 65.219 58.8319 65.2244C58.8319 65.2299 58.8319 65.2353 58.8319 65.2408C58.8319 65.2462 58.8319 65.2517 58.8319 65.2571C58.8319 65.2626 58.8319 65.2681 58.8319 65.2735C58.8319 65.279 58.8319 65.2844 58.8319 65.2899C58.8319 65.2953 58.8319 65.3008 58.8319 65.3062C58.8319 65.3117 58.8319 65.3171 58.8319 65.3226C58.8319 65.328 58.8319 65.3335 58.8319 65.3389C58.8319 65.3444 58.8319 65.3498 58.8319 65.3553C58.8319 65.3607 58.8319 65.3662 58.8319 65.3716C58.8319 65.3771 58.8319 65.3825 58.8319 65.388C58.8319 65.3934 58.8319 65.3989 58.8319 65.4043C58.8319 65.4098 58.8319 65.4152 58.8319 65.4207C58.8319 65.4261 58.8319 65.4316 58.8319 65.437C58.8319 65.4425 58.8319 65.4479 58.8319 65.4534C58.8319 65.4588 58.8319 65.4643 58.8319 65.4697C58.8319 65.4752 58.8319 65.4806 58.8319 65.4861C58.8319 65.4915 58.8319 65.497 58.8319 65.5024C58.8319 65.5079 58.8319 65.5134 58.8319 65.5188C58.8319 65.5243 58.8319 65.5297 58.8319 65.5352C58.8319 65.5406 58.8319 65.5461 58.8319 65.5515C58.8319 65.557 58.8319 65.5624 58.8319 65.5679C58.8319 65.5733 58.8319 65.5788 58.8319 65.5842C58.8319 65.5897 58.8319 65.5951 58.8319 65.6006C58.8319 65.606 58.8319 65.6115 58.8319 65.6169C58.8319 65.6224 58.8319 65.6278 58.8319 65.6333C58.8319 65.6387 58.8319 65.6442 58.8319 65.6496C58.8319 65.6551 58.8319 65.6605 58.8319 65.666C58.8319 65.6714 58.8319 65.6769 58.8319 65.6823C58.8319 65.6878 58.8319 65.6932 58.8319 65.6987C58.8319 65.7041 58.8319 65.7096 58.8319 65.715C58.8319 65.7205 58.8319 65.7259 58.8319 65.7314C58.8319 65.7368 58.8319 65.7423 58.8319 65.7477C58.8319 65.7532 58.8319 65.7587 58.8319 65.7641C58.8319 65.7696 58.8319 65.775 58.8319 65.7805C58.8319 65.7859 58.8319 65.7914 58.8319 65.7968C58.8319 65.8023 58.8319 65.8077 58.8319 65.8132C58.8319 65.8186 58.8319 65.8241 58.8319 65.8295C58.8319 65.835 58.8319 65.8404 58.8319 65.8459C58.8319 65.8513 58.8319 65.8568 58.8319 65.8622C58.8319 65.8677 58.8319 65.8731 58.8319 65.8786C58.8319 65.884 58.8319 65.8895 58.8319 65.8949C58.8319 65.9004 58.8319 65.9058 58.8319 65.9113C58.8319 65.9167 58.8319 65.9222 58.8319 65.9276C58.8319 65.9331 58.8319 65.9385 58.8319 65.944C58.8319 65.9494 58.8319 65.9549 58.8319 65.9603C58.8319 65.9658 58.8319 65.9712 58.8319 65.9767C58.8319 65.9821 58.8319 65.9876 58.8319 65.993C58.8319 65.9985 58.8319 66.0039 58.8319 66.0094C58.8319 66.0149 58.8319 66.0203 58.8319 66.0258C58.8319 66.0312 58.8319 66.0367 58.8319 66.0421C58.8319 66.0476 58.8319 66.053 58.8319 66.0585C58.8319 66.0639 58.8319 66.0694 58.8319 66.0748C58.8319 66.0803 58.8319 66.0857 58.8319 66.0912C58.8319 66.0966 58.8319 66.1021 58.8319 66.1075C58.8319 66.113 58.8319 66.1184 58.8319 66.1239C58.8319 66.1293 58.8319 66.1348 58.8319 66.1402C58.8319 66.1457 58.8319 66.1511 58.8319 66.1566C58.8319 66.162 58.8319 66.1675 58.8319 66.1729C58.8319 66.1784 58.8319 66.1838 58.8319 66.1893C58.8319 66.1947 58.8319 66.2002 58.8319 66.2056C58.8319 66.2111 58.8319 66.2165 58.8319 66.222C58.8319 66.2274 58.8319 66.2329 58.8319 66.2383C58.8319 66.2438 58.8319 66.2492 58.8319 66.2547C58.8319 66.2602 58.8319 66.2656 58.8319 66.2711C58.8319 66.2765 58.8319 66.282 58.8319 66.2874C58.8319 66.2929 58.8319 66.2983 58.8319 66.3038C58.8319 66.3092 58.8319 66.3147 58.8319 66.3201C58.8319 66.3256 58.8319 66.331 58.8319 66.3365C58.8319 66.3419 58.8319 66.3474 58.8319 66.3528C58.8319 66.3583 58.8319 66.3637 58.8319 66.3692C58.8319 66.3746 58.8319 66.3801 58.8319 66.3855C58.8319 66.391 58.8319 66.3964 58.8319 66.4019C58.8319 66.4073 58.8319 66.4128 58.8319 66.4182C58.8319 66.4237 58.8319 66.4291 58.8319 66.4346C58.8319 66.44 58.8319 66.4455 58.8319 66.4509C58.8319 66.4564 58.8319 66.4618 58.8319 66.4673C58.8319 66.4727 58.8319 66.4782 58.8319 66.4836C58.8319 66.4891 58.8319 66.4945 58.8319 66.5H60.3319ZM13.4643 67.25C13.4944 67.25 13.5244 67.25 13.5544 67.25C13.5844 67.25 13.6145 67.25 13.6445 67.25C13.6745 67.25 13.7045 67.25 13.7346 67.25C13.7646 67.25 13.7946 67.25 13.8246 67.25C13.8547 67.25 13.8847 67.25 13.9147 67.25C13.9447 67.25 13.9748 67.25 14.0048 67.25C14.0348 67.25 14.0648 67.25 14.0949 67.25C14.1249 67.25 14.1549 67.25 14.1849 67.25C14.2149 67.25 14.245 67.25 14.275 67.25C14.305 67.25 14.335 67.25 14.3651 67.25C14.3951 67.25 14.4251 67.25 14.4551 67.25C14.4852 67.25 14.5152 67.25 14.5452 67.25C14.5752 67.25 14.6053 67.25 14.6353 67.25C14.6653 67.25 14.6953 67.25 14.7254 67.25C14.7554 67.25 14.7854 67.25 14.8154 67.25C14.8455 67.25 14.8755 67.25 14.9055 67.25C14.9355 67.25 14.9656 67.25 14.9956 67.25C15.0256 67.25 15.0556 67.25 15.0857 67.25C15.1157 67.25 15.1457 67.25 15.1757 67.25C15.2058 67.25 15.2358 67.25 15.2658 67.25C15.2958 67.25 15.3259 67.25 15.3559 67.25C15.3859 67.25 15.4159 67.25 15.446 67.25C15.476 67.25 15.506 67.25 15.536 67.25C15.5661 67.25 15.5961 67.25 15.6261 67.25C15.6561 67.25 15.6861 67.25 15.7162 67.25C15.7462 67.25 15.7762 67.25 15.8062 67.25C15.8363 67.25 15.8663 67.25 15.8963 67.25C15.9263 67.25 15.9564 67.25 15.9864 67.25C16.0164 67.25 16.0464 67.25 16.0765 67.25C16.1065 67.25 16.1365 67.25 16.1665 67.25C16.1966 67.25 16.2266 67.25 16.2566 67.25C16.2866 67.25 16.3167 67.25 16.3467 67.25C16.3767 67.25 16.4067 67.25 16.4368 67.25C16.4668 67.25 16.4968 67.25 16.5268 67.25C16.5569 67.25 16.5869 67.25 16.6169 67.25C16.6469 67.25 16.677 67.25 16.707 67.25C16.737 67.25 16.767 67.25 16.7971 67.25C16.8271 67.25 16.8571 67.25 16.8871 67.25C16.9172 67.25 16.9472 67.25 16.9772 67.25C17.0072 67.25 17.0373 67.25 17.0673 67.25C17.0973 67.25 17.1273 67.25 17.1573 67.25C17.1874 67.25 17.2174 67.25 17.2474 67.25C17.2774 67.25 17.3075 67.25 17.3375 67.25C17.3675 67.25 17.3975 67.25 17.4276 67.25C17.4576 67.25 17.4876 67.25 17.5176 67.25C17.5477 67.25 17.5777 67.25 17.6077 67.25C17.6377 67.25 17.6678 67.25 17.6978 67.25C17.7278 67.25 17.7578 67.25 17.7879 67.25C17.8179 67.25 17.8479 67.25 17.8779 67.25C17.908 67.25 17.938 67.25 17.968 67.25C17.998 67.25 18.0281 67.25 18.0581 67.25C18.0881 67.25 18.1181 67.25 18.1482 67.25C18.1782 67.25 18.2082 67.25 18.2382 67.25C18.2683 67.25 18.2983 67.25 18.3283 67.25C18.3583 67.25 18.3884 67.25 18.4184 67.25C18.4484 67.25 18.4784 67.25 18.5084 67.25C18.5385 67.25 18.5685 67.25 18.5985 67.25C18.6285 67.25 18.6586 67.25 18.6886 67.25C18.7186 67.25 18.7486 67.25 18.7787 67.25C18.8087 67.25 18.8387 67.25 18.8687 67.25C18.8988 67.25 18.9288 67.25 18.9588 67.25C18.9888 67.25 19.0189 67.25 19.0489 67.25C19.0789 67.25 19.1089 67.25 19.139 67.25C19.169 67.25 19.199 67.25 19.229 67.25C19.2591 67.25 19.2891 67.25 19.3191 67.25C19.3491 67.25 19.3792 67.25 19.4092 67.25C19.4392 67.25 19.4692 67.25 19.4993 67.25C19.5293 67.25 19.5593 67.25 19.5893 67.25C19.6194 67.25 19.6494 67.25 19.6794 67.25C19.7094 67.25 19.7395 67.25 19.7695 67.25C19.7995 67.25 19.8295 67.25 19.8596 67.25C19.8896 67.25 19.9196 67.25 19.9496 67.25C19.9796 67.25 20.0097 67.25 20.0397 67.25C20.0697 67.25 20.0997 67.25 20.1298 67.25C20.1598 67.25 20.1898 67.25 20.2198 67.25C20.2499 67.25 20.2799 67.25 20.3099 67.25C20.3399 67.25 20.37 67.25 20.4 67.25C20.43 67.25 20.46 67.25 20.4901 67.25C20.5201 67.25 20.5501 67.25 20.5801 67.25C20.6102 67.25 20.6402 67.25 20.6702 67.25C20.7002 67.25 20.7303 67.25 20.7603 67.25C20.7903 67.25 20.8203 67.25 20.8504 67.25C20.8804 67.25 20.9104 67.25 20.9404 67.25C20.9705 67.25 21.0005 67.25 21.0305 67.25C21.0605 67.25 21.0906 67.25 21.1206 67.25C21.1506 67.25 21.1806 67.25 21.2107 67.25C21.2407 67.25 21.2707 67.25 21.3007 67.25C21.3307 67.25 21.3608 67.25 21.3908 67.25C21.4208 67.25 21.4508 67.25 21.4809 67.25C21.5109 67.25 21.5409 67.25 21.5709 67.25C21.601 67.25 21.631 67.25 21.661 67.25C21.691 67.25 21.7211 67.25 21.7511 67.25C21.7811 67.25 21.8111 67.25 21.8412 67.25C21.8712 67.25 21.9012 67.25 21.9312 67.25C21.9613 67.25 21.9913 67.25 22.0213 67.25C22.0513 67.25 22.0814 67.25 22.1114 67.25C22.1414 67.25 22.1714 67.25 22.2015 67.25C22.2315 67.25 22.2615 67.25 22.2915 67.25C22.3216 67.25 22.3516 67.25 22.3816 67.25C22.4116 67.25 22.4417 67.25 22.4717 67.25C22.5017 67.25 22.5317 67.25 22.5618 67.25C22.5918 67.25 22.6218 67.25 22.6518 67.25C22.6819 67.25 22.7119 67.25 22.7419 67.25C22.7719 67.25 22.8019 67.25 22.832 67.25C22.862 67.25 22.892 67.25 22.922 67.25C22.9521 67.25 22.9821 67.25 23.0121 67.25C23.0421 67.25 23.0722 67.25 23.1022 67.25C23.1322 67.25 23.1622 67.25 23.1923 67.25C23.2223 67.25 23.2523 67.25 23.2823 67.25C23.3124 67.25 23.3424 67.25 23.3724 67.25C23.4024 67.25 23.4325 67.25 23.4625 67.25C23.4925 67.25 23.5225 67.25 23.5526 67.25C23.5826 67.25 23.6126 67.25 23.6426 67.25C23.6727 67.25 23.7027 67.25 23.7327 67.25C23.7627 67.25 23.7928 67.25 23.8228 67.25C23.8528 67.25 23.8828 67.25 23.9129 67.25C23.9429 67.25 23.9729 67.25 24.0029 67.25C24.033 67.25 24.063 67.25 24.093 67.25C24.123 67.25 24.1531 67.25 24.1831 67.25C24.2131 67.25 24.2431 67.25 24.2731 67.25C24.3032 67.25 24.3332 67.25 24.3632 67.25C24.3932 67.25 24.4233 67.25 24.4533 67.25C24.4833 67.25 24.5133 67.25 24.5434 67.25C24.5734 67.25 24.6034 67.25 24.6334 67.25C24.6635 67.25 24.6935 67.25 24.7235 67.25C24.7535 67.25 24.7836 67.25 24.8136 67.25C24.8436 67.25 24.8736 67.25 24.9037 67.25C24.9337 67.25 24.9637 67.25 24.9937 67.25C25.0238 67.25 25.0538 67.25 25.0838 67.25C25.1138 67.25 25.1439 67.25 25.1739 67.25C25.2039 67.25 25.2339 67.25 25.264 67.25C25.294 67.25 25.324 67.25 25.354 67.25C25.3841 67.25 25.4141 67.25 25.4441 67.25C25.4741 67.25 25.5042 67.25 25.5342 67.25C25.5642 67.25 25.5942 67.25 25.6242 67.25C25.6543 67.25 25.6843 67.25 25.7143 67.25C25.7443 67.25 25.7744 67.25 25.8044 67.25C25.8344 67.25 25.8644 67.25 25.8945 67.25C25.9245 67.25 25.9545 67.25 25.9845 67.25C26.0146 67.25 26.0446 67.25 26.0746 67.25C26.1046 67.25 26.1347 67.25 26.1647 67.25C26.1947 67.25 26.2247 67.25 26.2548 67.25C26.2848 67.25 26.3148 67.25 26.3448 67.25C26.3749 67.25 26.4049 67.25 26.4349 67.25C26.4649 67.25 26.495 67.25 26.525 67.25C26.555 67.25 26.585 67.25 26.6151 67.25C26.6451 67.25 26.6751 67.25 26.7051 67.25C26.7352 67.25 26.7652 67.25 26.7952 67.25C26.8252 67.25 26.8553 67.25 26.8853 67.25C26.9153 67.25 26.9453 67.25 26.9754 67.25C27.0054 67.25 27.0354 67.25 27.0654 67.25C27.0954 67.25 27.1255 67.25 27.1555 67.25C27.1855 67.25 27.2155 67.25 27.2456 67.25C27.2756 67.25 27.3056 67.25 27.3356 67.25C27.3657 67.25 27.3957 67.25 27.4257 67.25C27.4557 67.25 27.4858 67.25 27.5158 67.25C27.5458 67.25 27.5758 67.25 27.6059 67.25C27.6359 67.25 27.6659 67.25 27.6959 67.25C27.726 67.25 27.756 67.25 27.786 67.25C27.816 67.25 27.8461 67.25 27.8761 67.25C27.9061 67.25 27.9361 67.25 27.9662 67.25C27.9962 67.25 28.0262 67.25 28.0562 67.25C28.0863 67.25 28.1163 67.25 28.1463 67.25C28.1763 67.25 28.2064 67.25 28.2364 67.25C28.2664 67.25 28.2964 67.25 28.3265 67.25C28.3565 67.25 28.3865 67.25 28.4165 67.25C28.4466 67.25 28.4766 67.25 28.5066 67.25C28.5366 67.25 28.5666 67.25 28.5967 67.25C28.6267 67.25 28.6567 67.25 28.6867 67.25C28.7168 67.25 28.7468 67.25 28.7768 67.25C28.8068 67.25 28.8369 67.25 28.8669 67.25C28.8969 67.25 28.9269 67.25 28.957 67.25C28.987 67.25 29.017 67.25 29.047 67.25C29.0771 67.25 29.1071 67.25 29.1371 67.25C29.1671 67.25 29.1972 67.25 29.2272 67.25C29.2572 67.25 29.2872 67.25 29.3173 67.25C29.3473 67.25 29.3773 67.25 29.4073 67.25C29.4374 67.25 29.4674 67.25 29.4974 67.25C29.5274 67.25 29.5575 67.25 29.5875 67.25C29.6175 67.25 29.6475 67.25 29.6776 67.25C29.7076 67.25 29.7376 67.25 29.7676 67.25C29.7977 67.25 29.8277 67.25 29.8577 67.25C29.8877 67.25 29.9177 67.25 29.9478 67.25C29.9778 67.25 30.0078 67.25 30.0378 67.25C30.0679 67.25 30.0979 67.25 30.1279 67.25C30.1579 67.25 30.188 67.25 30.218 67.25C30.248 67.25 30.278 67.25 30.3081 67.25C30.3381 67.25 30.3681 67.25 30.3981 67.25C30.4282 67.25 30.4582 67.25 30.4882 67.25C30.5182 67.25 30.5483 67.25 30.5783 67.25C30.6083 67.25 30.6383 67.25 30.6684 67.25C30.6984 67.25 30.7284 67.25 30.7584 67.25C30.7885 67.25 30.8185 67.25 30.8485 67.25C30.8785 67.25 30.9086 67.25 30.9386 67.25C30.9686 67.25 30.9986 67.25 31.0287 67.25C31.0587 67.25 31.0887 67.25 31.1187 67.25C31.1488 67.25 31.1788 67.25 31.2088 67.25C31.2388 67.25 31.2689 67.25 31.2989 67.25C31.3289 67.25 31.3589 67.25 31.3889 67.25C31.419 67.25 31.449 67.25 31.479 67.25C31.509 67.25 31.5391 67.25 31.5691 67.25C31.5991 67.25 31.6291 67.25 31.6592 67.25C31.6892 67.25 31.7192 67.25 31.7492 67.25C31.7793 67.25 31.8093 67.25 31.8393 67.25C31.8693 67.25 31.8994 67.25 31.9294 67.25C31.9594 67.25 31.9894 67.25 32.0195 67.25C32.0495 67.25 32.0795 67.25 32.1095 67.25C32.1396 67.25 32.1696 67.25 32.1996 67.25C32.2296 67.25 32.2597 67.25 32.2897 67.25C32.3197 67.25 32.3497 67.25 32.3798 67.25C32.4098 67.25 32.4398 67.25 32.4698 67.25C32.4999 67.25 32.5299 67.25 32.5599 67.25C32.5899 67.25 32.62 67.25 32.65 67.25C32.68 67.25 32.71 67.25 32.74 67.25C32.7701 67.25 32.8001 67.25 32.8301 67.25C32.8601 67.25 32.8902 67.25 32.9202 67.25C32.9502 67.25 32.9802 67.25 33.0103 67.25C33.0403 67.25 33.0703 67.25 33.1003 67.25C33.1304 67.25 33.1604 67.25 33.1904 67.25C33.2204 67.25 33.2505 67.25 33.2805 67.25C33.3105 67.25 33.3405 67.25 33.3706 67.25C33.4006 67.25 33.4306 67.25 33.4606 67.25C33.4907 67.25 33.5207 67.25 33.5507 67.25C33.5807 67.25 33.6108 67.25 33.6408 67.25C33.6708 67.25 33.7008 67.25 33.7309 67.25C33.7609 67.25 33.7909 67.25 33.8209 67.25C33.851 67.25 33.881 67.25 33.911 67.25C33.941 67.25 33.9711 67.25 34.0011 67.25C34.0311 67.25 34.0611 67.25 34.0912 67.25C34.1212 67.25 34.1512 67.25 34.1812 67.25C34.2112 67.25 34.2413 67.25 34.2713 67.25C34.3013 67.25 34.3313 67.25 34.3614 67.25C34.3914 67.25 34.4214 67.25 34.4514 67.25C34.4815 67.25 34.5115 67.25 34.5415 67.25C34.5715 67.25 34.6016 67.25 34.6316 67.25C34.6616 67.25 34.6916 67.25 34.7217 67.25C34.7517 67.25 34.7817 67.25 34.8117 67.25C34.8418 67.25 34.8718 67.25 34.9018 67.25C34.9318 67.25 34.9619 67.25 34.9919 67.25C35.0219 67.25 35.0519 67.25 35.082 67.25C35.112 67.25 35.142 67.25 35.172 67.25C35.2021 67.25 35.2321 67.25 35.2621 67.25C35.2921 67.25 35.3222 67.25 35.3522 67.25C35.3822 67.25 35.4122 67.25 35.4423 67.25C35.4723 67.25 35.5023 67.25 35.5323 67.25C35.5623 67.25 35.5924 67.25 35.6224 67.25C35.6524 67.25 35.6824 67.25 35.7125 67.25C35.7425 67.25 35.7725 67.25 35.8025 67.25C35.8326 67.25 35.8626 67.25 35.8926 67.25C35.9226 67.25 35.9527 67.25 35.9827 67.25C36.0127 67.25 36.0427 67.25 36.0728 67.25C36.1028 67.25 36.1328 67.25 36.1628 67.25C36.1929 67.25 36.2229 67.25 36.2529 67.25C36.2829 67.25 36.313 67.25 36.343 67.25C36.373 67.25 36.403 67.25 36.4331 67.25C36.4631 67.25 36.4931 67.25 36.5231 67.25C36.5532 67.25 36.5832 67.25 36.6132 67.25C36.6432 67.25 36.6733 67.25 36.7033 67.25C36.7333 67.25 36.7633 67.25 36.7934 67.25C36.8234 67.25 36.8534 67.25 36.8834 67.25C36.9135 67.25 36.9435 67.25 36.9735 67.25C37.0035 67.25 37.0335 67.25 37.0636 67.25C37.0936 67.25 37.1236 67.25 37.1536 67.25C37.1837 67.25 37.2137 67.25 37.2437 67.25C37.2737 67.25 37.3038 67.25 37.3338 67.25C37.3638 67.25 37.3938 67.25 37.4239 67.25C37.4539 67.25 37.4839 67.25 37.5139 67.25C37.544 67.25 37.574 67.25 37.604 67.25C37.634 67.25 37.6641 67.25 37.6941 67.25C37.7241 67.25 37.7541 67.25 37.7842 67.25C37.8142 67.25 37.8442 67.25 37.8742 67.25C37.9043 67.25 37.9343 67.25 37.9643 67.25C37.9943 67.25 38.0244 67.25 38.0544 67.25C38.0844 67.25 38.1144 67.25 38.1445 67.25C38.1745 67.25 38.2045 67.25 38.2345 67.25C38.2646 67.25 38.2946 67.25 38.3246 67.25C38.3546 67.25 38.3847 67.25 38.4147 67.25C38.4447 67.25 38.4747 67.25 38.5047 67.25C38.5348 67.25 38.5648 67.25 38.5948 67.25C38.6248 67.25 38.6549 67.25 38.6849 67.25C38.7149 67.25 38.7449 67.25 38.775 67.25C38.805 67.25 38.835 67.25 38.865 67.25C38.8951 67.25 38.9251 67.25 38.9551 67.25C38.9851 67.25 39.0152 67.25 39.0452 67.25C39.0752 67.25 39.1052 67.25 39.1353 67.25C39.1653 67.25 39.1953 67.25 39.2253 67.25C39.2554 67.25 39.2854 67.25 39.3154 67.25C39.3454 67.25 39.3755 67.25 39.4055 67.25C39.4355 67.25 39.4655 67.25 39.4956 67.25C39.5256 67.25 39.5556 67.25 39.5856 67.25C39.6157 67.25 39.6457 67.25 39.6757 67.25C39.7057 67.25 39.7358 67.25 39.7658 67.25C39.7958 67.25 39.8258 67.25 39.8559 67.25C39.8859 67.25 39.9159 67.25 39.9459 67.25C39.9759 67.25 40.006 67.25 40.036 67.25C40.066 67.25 40.096 67.25 40.1261 67.25C40.1561 67.25 40.1861 67.25 40.2161 67.25C40.2462 67.25 40.2762 67.25 40.3062 67.25C40.3362 67.25 40.3663 67.25 40.3963 67.25C40.4263 67.25 40.4563 67.25 40.4864 67.25C40.5164 67.25 40.5464 67.25 40.5764 67.25C40.6065 67.25 40.6365 67.25 40.6665 67.25C40.6965 67.25 40.7266 67.25 40.7566 67.25C40.7866 67.25 40.8166 67.25 40.8467 67.25C40.8767 67.25 40.9067 67.25 40.9367 67.25C40.9668 67.25 40.9968 67.25 41.0268 67.25C41.0568 67.25 41.0869 67.25 41.1169 67.25C41.1469 67.25 41.1769 67.25 41.207 67.25C41.237 67.25 41.267 67.25 41.297 67.25C41.327 67.25 41.3571 67.25 41.3871 67.25C41.4171 67.25 41.4471 67.25 41.4772 67.25C41.5072 67.25 41.5372 67.25 41.5672 67.25C41.5973 67.25 41.6273 67.25 41.6573 67.25C41.6873 67.25 41.7174 67.25 41.7474 67.25C41.7774 67.25 41.8074 67.25 41.8375 67.25C41.8675 67.25 41.8975 67.25 41.9275 67.25C41.9576 67.25 41.9876 67.25 42.0176 67.25C42.0476 67.25 42.0777 67.25 42.1077 67.25C42.1377 67.25 42.1677 67.25 42.1978 67.25C42.2278 67.25 42.2578 67.25 42.2878 67.25C42.3179 67.25 42.3479 67.25 42.3779 67.25C42.4079 67.25 42.438 67.25 42.468 67.25C42.498 67.25 42.528 67.25 42.5581 67.25C42.5881 67.25 42.6181 67.25 42.6481 67.25C42.6782 67.25 42.7082 67.25 42.7382 67.25C42.7682 67.25 42.7982 67.25 42.8283 67.25C42.8583 67.25 42.8883 67.25 42.9183 67.25C42.9484 67.25 42.9784 67.25 43.0084 67.25C43.0384 67.25 43.0685 67.25 43.0985 67.25C43.1285 67.25 43.1585 67.25 43.1886 67.25C43.2186 67.25 43.2486 67.25 43.2786 67.25C43.3087 67.25 43.3387 67.25 43.3687 67.25C43.3987 67.25 43.4288 67.25 43.4588 67.25C43.4888 67.25 43.5188 67.25 43.5489 67.25C43.5789 67.25 43.6089 67.25 43.6389 67.25C43.669 67.25 43.699 67.25 43.729 67.25C43.759 67.25 43.7891 67.25 43.8191 67.25C43.8491 67.25 43.8791 67.25 43.9092 67.25C43.9392 67.25 43.9692 67.25 43.9992 67.25C44.0293 67.25 44.0593 67.25 44.0893 67.25C44.1193 67.25 44.1493 67.25 44.1794 67.25C44.2094 67.25 44.2394 67.25 44.2694 67.25C44.2995 67.25 44.3295 67.25 44.3595 67.25C44.3895 67.25 44.4196 67.25 44.4496 67.25C44.4796 67.25 44.5096 67.25 44.5397 67.25C44.5697 67.25 44.5997 67.25 44.6297 67.25C44.6598 67.25 44.6898 67.25 44.7198 67.25C44.7498 67.25 44.7799 67.25 44.8099 67.25C44.8399 67.25 44.8699 67.25 44.9 67.25C44.93 67.25 44.96 67.25 44.99 67.25C45.0201 67.25 45.0501 67.25 45.0801 67.25C45.1101 67.25 45.1402 67.25 45.1702 67.25C45.2002 67.25 45.2302 67.25 45.2603 67.25C45.2903 67.25 45.3203 67.25 45.3503 67.25C45.3804 67.25 45.4104 67.25 45.4404 67.25C45.4704 67.25 45.5005 67.25 45.5305 67.25C45.5605 67.25 45.5905 67.25 45.6205 67.25C45.6506 67.25 45.6806 67.25 45.7106 67.25C45.7406 67.25 45.7707 67.25 45.8007 67.25C45.8307 67.25 45.8607 67.25 45.8908 67.25C45.9208 67.25 45.9508 67.25 45.9808 67.25C46.0109 67.25 46.0409 67.25 46.0709 67.25C46.1009 67.25 46.131 67.25 46.161 67.25C46.191 67.25 46.221 67.25 46.2511 67.25C46.2811 67.25 46.3111 67.25 46.3411 67.25C46.3712 67.25 46.4012 67.25 46.4312 67.25C46.4612 67.25 46.4913 67.25 46.5213 67.25C46.5513 67.25 46.5813 67.25 46.6114 67.25C46.6414 67.25 46.6714 67.25 46.7014 67.25C46.7315 67.25 46.7615 67.25 46.7915 67.25C46.8215 67.25 46.8516 67.25 46.8816 67.25C46.9116 67.25 46.9416 67.25 46.9716 67.25C47.0017 67.25 47.0317 67.25 47.0617 67.25C47.0917 67.25 47.1218 67.25 47.1518 67.25C47.1818 67.25 47.2118 67.25 47.2419 67.25C47.2719 67.25 47.3019 67.25 47.3319 67.25C47.362 67.25 47.392 67.25 47.422 67.25C47.452 67.25 47.4821 67.25 47.5121 67.25C47.5421 67.25 47.5721 67.25 47.6022 67.25C47.6322 67.25 47.6622 67.25 47.6922 67.25C47.7223 67.25 47.7523 67.25 47.7823 67.25C47.8123 67.25 47.8424 67.25 47.8724 67.25C47.9024 67.25 47.9324 67.25 47.9625 67.25C47.9925 67.25 48.0225 67.25 48.0525 67.25C48.0826 67.25 48.1126 67.25 48.1426 67.25C48.1726 67.25 48.2027 67.25 48.2327 67.25C48.2627 67.25 48.2927 67.25 48.3228 67.25C48.3528 67.25 48.3828 67.25 48.4128 67.25C48.4428 67.25 48.4729 67.25 48.5029 67.25C48.5329 67.25 48.5629 67.25 48.593 67.25C48.623 67.25 48.653 67.25 48.683 67.25C48.7131 67.25 48.7431 67.25 48.7731 67.25C48.8031 67.25 48.8332 67.25 48.8632 67.25C48.8932 67.25 48.9232 67.25 48.9533 67.25C48.9833 67.25 49.0133 67.25 49.0433 67.25C49.0734 67.25 49.1034 67.25 49.1334 67.25C49.1634 67.25 49.1935 67.25 49.2235 67.25C49.2535 67.25 49.2835 67.25 49.3136 67.25C49.3436 67.25 49.3736 67.25 49.4036 67.25C49.4337 67.25 49.4637 67.25 49.4937 67.25C49.5237 67.25 49.5538 67.25 49.5838 67.25C49.6138 67.25 49.6438 67.25 49.6739 67.25C49.7039 67.25 49.7339 67.25 49.7639 67.25C49.7939 67.25 49.824 67.25 49.854 67.25C49.884 67.25 49.914 67.25 49.9441 67.25C49.9741 67.25 50.0041 67.25 50.0341 67.25C50.0642 67.25 50.0942 67.25 50.1242 67.25C50.1542 67.25 50.1843 67.25 50.2143 67.25C50.2443 67.25 50.2743 67.25 50.3044 67.25C50.3344 67.25 50.3644 67.25 50.3944 67.25C50.4245 67.25 50.4545 67.25 50.4845 67.25C50.5145 67.25 50.5446 67.25 50.5746 67.25C50.6046 67.25 50.6346 67.25 50.6647 67.25C50.6947 67.25 50.7247 67.25 50.7547 67.25C50.7848 67.25 50.8148 67.25 50.8448 67.25C50.8748 67.25 50.9049 67.25 50.9349 67.25C50.9649 67.25 50.9949 67.25 51.025 67.25C51.055 67.25 51.085 67.25 51.115 67.25C51.1451 67.25 51.1751 67.25 51.2051 67.25C51.2351 67.25 51.2651 67.25 51.2952 67.25C51.3252 67.25 51.3552 67.25 51.3852 67.25C51.4153 67.25 51.4453 67.25 51.4753 67.25C51.5053 67.25 51.5354 67.25 51.5654 67.25C51.5954 67.25 51.6254 67.25 51.6555 67.25C51.6855 67.25 51.7155 67.25 51.7455 67.25C51.7756 67.25 51.8056 67.25 51.8356 67.25C51.8656 67.25 51.8957 67.25 51.9257 67.25C51.9557 67.25 51.9857 67.25 52.0158 67.25C52.0458 67.25 52.0758 67.25 52.1058 67.25C52.1359 67.25 52.1659 67.25 52.1959 67.25C52.2259 67.25 52.256 67.25 52.286 67.25C52.316 67.25 52.346 67.25 52.3761 67.25C52.4061 67.25 52.4361 67.25 52.4661 67.25C52.4962 67.25 52.5262 67.25 52.5562 67.25C52.5862 67.25 52.6162 67.25 52.6463 67.25C52.6763 67.25 52.7063 67.25 52.7363 67.25C52.7664 67.25 52.7964 67.25 52.8264 67.25C52.8564 67.25 52.8865 67.25 52.9165 67.25C52.9465 67.25 52.9765 67.25 53.0066 67.25C53.0366 67.25 53.0666 67.25 53.0966 67.25C53.1267 67.25 53.1567 67.25 53.1867 67.25C53.2167 67.25 53.2468 67.25 53.2768 67.25C53.3068 67.25 53.3368 67.25 53.3669 67.25C53.3969 67.25 53.4269 67.25 53.4569 67.25C53.487 67.25 53.517 67.25 53.547 67.25C53.577 67.25 53.6071 67.25 53.6371 67.25C53.6671 67.25 53.6971 67.25 53.7272 67.25C53.7572 67.25 53.7872 67.25 53.8172 67.25C53.8473 67.25 53.8773 67.25 53.9073 67.25C53.9373 67.25 53.9674 67.25 53.9974 67.25C54.0274 67.25 54.0574 67.25 54.0874 67.25C54.1175 67.25 54.1475 67.25 54.1775 67.25C54.2075 67.25 54.2376 67.25 54.2676 67.25C54.2976 67.25 54.3276 67.25 54.3577 67.25C54.3877 67.25 54.4177 67.25 54.4477 67.25C54.4778 67.25 54.5078 67.25 54.5378 67.25C54.5678 67.25 54.5979 67.25 54.6279 67.25C54.6579 67.25 54.6879 67.25 54.718 67.25C54.748 67.25 54.778 67.25 54.808 67.25C54.8381 67.25 54.8681 67.25 54.8981 67.25C54.9281 67.25 54.9582 67.25 54.9882 67.25C55.0182 67.25 55.0482 67.25 55.0783 67.25C55.1083 67.25 55.1383 67.25 55.1683 67.25C55.1984 67.25 55.2284 67.25 55.2584 67.25C55.2884 67.25 55.3185 67.25 55.3485 67.25C55.3785 67.25 55.4085 67.25 55.4385 67.25C55.4686 67.25 55.4986 67.25 55.5286 67.25C55.5586 67.25 55.5887 67.25 55.6187 67.25C55.6487 67.25 55.6787 67.25 55.7088 67.25C55.7388 67.25 55.7688 67.25 55.7988 67.25C55.8289 67.25 55.8589 67.25 55.8889 67.25C55.9189 67.25 55.949 67.25 55.979 67.25C56.009 67.25 56.039 67.25 56.0691 67.25C56.0991 67.25 56.1291 67.25 56.1591 67.25C56.1892 67.25 56.2192 67.25 56.2492 67.25C56.2792 67.25 56.3093 67.25 56.3393 67.25C56.3693 67.25 56.3993 67.25 56.4294 67.25C56.4594 67.25 56.4894 67.25 56.5194 67.25C56.5495 67.25 56.5795 67.25 56.6095 67.25C56.6395 67.25 56.6696 67.25 56.6996 67.25C56.7296 67.25 56.7596 67.25 56.7897 67.25C56.8197 67.25 56.8497 67.25 56.8797 67.25C56.9098 67.25 56.9398 67.25 56.9698 67.25C56.9998 67.25 57.0298 67.25 57.0599 67.25C57.0899 67.25 57.1199 67.25 57.1499 67.25C57.18 67.25 57.21 67.25 57.24 67.25C57.27 67.25 57.3001 67.25 57.3301 67.25C57.3601 67.25 57.3901 67.25 57.4202 67.25C57.4502 67.25 57.4802 67.25 57.5102 67.25C57.5403 67.25 57.5703 67.25 57.6003 67.25C57.6303 67.25 57.6604 67.25 57.6904 67.25C57.7204 67.25 57.7504 67.25 57.7805 67.25C57.8105 67.25 57.8405 67.25 57.8705 67.25C57.9006 67.25 57.9306 67.25 57.9606 67.25C57.9906 67.25 58.0207 67.25 58.0507 67.25C58.0807 67.25 58.1107 67.25 58.1408 67.25C58.1708 67.25 58.2008 67.25 58.2308 67.25C58.2609 67.25 58.2909 67.25 58.3209 67.25C58.3509 67.25 58.381 67.25 58.411 67.25C58.441 67.25 58.471 67.25 58.501 67.25C58.5311 67.25 58.5611 67.25 58.5911 67.25C58.6211 67.25 58.6512 67.25 58.6812 67.25C58.7112 67.25 58.7412 67.25 58.7713 67.25C58.8013 67.25 58.8313 67.25 58.8613 67.25C58.8914 67.25 58.9214 67.25 58.9514 67.25C58.9814 67.25 59.0115 67.25 59.0415 67.25C59.0715 67.25 59.1015 67.25 59.1316 67.25C59.1616 67.25 59.1916 67.25 59.2216 67.25C59.2517 67.25 59.2817 67.25 59.3117 67.25C59.3417 67.25 59.3718 67.25 59.4018 67.25C59.4318 67.25 59.4618 67.25 59.4919 67.25C59.5219 67.25 59.5519 67.25 59.5819 67.25V65.75C59.5519 65.75 59.5219 65.75 59.4919 65.75C59.4618 65.75 59.4318 65.75 59.4018 65.75C59.3718 65.75 59.3417 65.75 59.3117 65.75C59.2817 65.75 59.2517 65.75 59.2216 65.75C59.1916 65.75 59.1616 65.75 59.1316 65.75C59.1015 65.75 59.0715 65.75 59.0415 65.75C59.0115 65.75 58.9814 65.75 58.9514 65.75C58.9214 65.75 58.8914 65.75 58.8613 65.75C58.8313 65.75 58.8013 65.75 58.7713 65.75C58.7412 65.75 58.7112 65.75 58.6812 65.75C58.6512 65.75 58.6211 65.75 58.5911 65.75C58.5611 65.75 58.5311 65.75 58.501 65.75C58.471 65.75 58.441 65.75 58.411 65.75C58.381 65.75 58.3509 65.75 58.3209 65.75C58.2909 65.75 58.2609 65.75 58.2308 65.75C58.2008 65.75 58.1708 65.75 58.1408 65.75C58.1107 65.75 58.0807 65.75 58.0507 65.75C58.0207 65.75 57.9906 65.75 57.9606 65.75C57.9306 65.75 57.9006 65.75 57.8705 65.75C57.8405 65.75 57.8105 65.75 57.7805 65.75C57.7504 65.75 57.7204 65.75 57.6904 65.75C57.6604 65.75 57.6303 65.75 57.6003 65.75C57.5703 65.75 57.5403 65.75 57.5102 65.75C57.4802 65.75 57.4502 65.75 57.4202 65.75C57.3901 65.75 57.3601 65.75 57.3301 65.75C57.3001 65.75 57.27 65.75 57.24 65.75C57.21 65.75 57.18 65.75 57.1499 65.75C57.1199 65.75 57.0899 65.75 57.0599 65.75C57.0298 65.75 56.9998 65.75 56.9698 65.75C56.9398 65.75 56.9098 65.75 56.8797 65.75C56.8497 65.75 56.8197 65.75 56.7897 65.75C56.7596 65.75 56.7296 65.75 56.6996 65.75C56.6696 65.75 56.6395 65.75 56.6095 65.75C56.5795 65.75 56.5495 65.75 56.5194 65.75C56.4894 65.75 56.4594 65.75 56.4294 65.75C56.3993 65.75 56.3693 65.75 56.3393 65.75C56.3093 65.75 56.2792 65.75 56.2492 65.75C56.2192 65.75 56.1892 65.75 56.1591 65.75C56.1291 65.75 56.0991 65.75 56.0691 65.75C56.039 65.75 56.009 65.75 55.979 65.75C55.949 65.75 55.9189 65.75 55.8889 65.75C55.8589 65.75 55.8289 65.75 55.7988 65.75C55.7688 65.75 55.7388 65.75 55.7088 65.75C55.6787 65.75 55.6487 65.75 55.6187 65.75C55.5887 65.75 55.5586 65.75 55.5286 65.75C55.4986 65.75 55.4686 65.75 55.4385 65.75C55.4085 65.75 55.3785 65.75 55.3485 65.75C55.3185 65.75 55.2884 65.75 55.2584 65.75C55.2284 65.75 55.1984 65.75 55.1683 65.75C55.1383 65.75 55.1083 65.75 55.0783 65.75C55.0482 65.75 55.0182 65.75 54.9882 65.75C54.9582 65.75 54.9281 65.75 54.8981 65.75C54.8681 65.75 54.8381 65.75 54.808 65.75C54.778 65.75 54.748 65.75 54.718 65.75C54.6879 65.75 54.6579 65.75 54.6279 65.75C54.5979 65.75 54.5678 65.75 54.5378 65.75C54.5078 65.75 54.4778 65.75 54.4477 65.75C54.4177 65.75 54.3877 65.75 54.3577 65.75C54.3276 65.75 54.2976 65.75 54.2676 65.75C54.2376 65.75 54.2075 65.75 54.1775 65.75C54.1475 65.75 54.1175 65.75 54.0874 65.75C54.0574 65.75 54.0274 65.75 53.9974 65.75C53.9674 65.75 53.9373 65.75 53.9073 65.75C53.8773 65.75 53.8473 65.75 53.8172 65.75C53.7872 65.75 53.7572 65.75 53.7272 65.75C53.6971 65.75 53.6671 65.75 53.6371 65.75C53.6071 65.75 53.577 65.75 53.547 65.75C53.517 65.75 53.487 65.75 53.4569 65.75C53.4269 65.75 53.3969 65.75 53.3669 65.75C53.3368 65.75 53.3068 65.75 53.2768 65.75C53.2468 65.75 53.2167 65.75 53.1867 65.75C53.1567 65.75 53.1267 65.75 53.0966 65.75C53.0666 65.75 53.0366 65.75 53.0066 65.75C52.9765 65.75 52.9465 65.75 52.9165 65.75C52.8865 65.75 52.8564 65.75 52.8264 65.75C52.7964 65.75 52.7664 65.75 52.7363 65.75C52.7063 65.75 52.6763 65.75 52.6463 65.75C52.6162 65.75 52.5862 65.75 52.5562 65.75C52.5262 65.75 52.4962 65.75 52.4661 65.75C52.4361 65.75 52.4061 65.75 52.3761 65.75C52.346 65.75 52.316 65.75 52.286 65.75C52.256 65.75 52.2259 65.75 52.1959 65.75C52.1659 65.75 52.1359 65.75 52.1058 65.75C52.0758 65.75 52.0458 65.75 52.0158 65.75C51.9857 65.75 51.9557 65.75 51.9257 65.75C51.8957 65.75 51.8656 65.75 51.8356 65.75C51.8056 65.75 51.7756 65.75 51.7455 65.75C51.7155 65.75 51.6855 65.75 51.6555 65.75C51.6254 65.75 51.5954 65.75 51.5654 65.75C51.5354 65.75 51.5053 65.75 51.4753 65.75C51.4453 65.75 51.4153 65.75 51.3852 65.75C51.3552 65.75 51.3252 65.75 51.2952 65.75C51.2651 65.75 51.2351 65.75 51.2051 65.75C51.1751 65.75 51.1451 65.75 51.115 65.75C51.085 65.75 51.055 65.75 51.025 65.75C50.9949 65.75 50.9649 65.75 50.9349 65.75C50.9049 65.75 50.8748 65.75 50.8448 65.75C50.8148 65.75 50.7848 65.75 50.7547 65.75C50.7247 65.75 50.6947 65.75 50.6647 65.75C50.6346 65.75 50.6046 65.75 50.5746 65.75C50.5446 65.75 50.5145 65.75 50.4845 65.75C50.4545 65.75 50.4245 65.75 50.3944 65.75C50.3644 65.75 50.3344 65.75 50.3044 65.75C50.2743 65.75 50.2443 65.75 50.2143 65.75C50.1843 65.75 50.1542 65.75 50.1242 65.75C50.0942 65.75 50.0642 65.75 50.0341 65.75C50.0041 65.75 49.9741 65.75 49.9441 65.75C49.914 65.75 49.884 65.75 49.854 65.75C49.824 65.75 49.7939 65.75 49.7639 65.75C49.7339 65.75 49.7039 65.75 49.6739 65.75C49.6438 65.75 49.6138 65.75 49.5838 65.75C49.5538 65.75 49.5237 65.75 49.4937 65.75C49.4637 65.75 49.4337 65.75 49.4036 65.75C49.3736 65.75 49.3436 65.75 49.3136 65.75C49.2835 65.75 49.2535 65.75 49.2235 65.75C49.1935 65.75 49.1634 65.75 49.1334 65.75C49.1034 65.75 49.0734 65.75 49.0433 65.75C49.0133 65.75 48.9833 65.75 48.9533 65.75C48.9232 65.75 48.8932 65.75 48.8632 65.75C48.8332 65.75 48.8031 65.75 48.7731 65.75C48.7431 65.75 48.7131 65.75 48.683 65.75C48.653 65.75 48.623 65.75 48.593 65.75C48.5629 65.75 48.5329 65.75 48.5029 65.75C48.4729 65.75 48.4428 65.75 48.4128 65.75C48.3828 65.75 48.3528 65.75 48.3228 65.75C48.2927 65.75 48.2627 65.75 48.2327 65.75C48.2027 65.75 48.1726 65.75 48.1426 65.75C48.1126 65.75 48.0826 65.75 48.0525 65.75C48.0225 65.75 47.9925 65.75 47.9625 65.75C47.9324 65.75 47.9024 65.75 47.8724 65.75C47.8424 65.75 47.8123 65.75 47.7823 65.75C47.7523 65.75 47.7223 65.75 47.6922 65.75C47.6622 65.75 47.6322 65.75 47.6022 65.75C47.5721 65.75 47.5421 65.75 47.5121 65.75C47.4821 65.75 47.452 65.75 47.422 65.75C47.392 65.75 47.362 65.75 47.3319 65.75C47.3019 65.75 47.2719 65.75 47.2419 65.75C47.2118 65.75 47.1818 65.75 47.1518 65.75C47.1218 65.75 47.0917 65.75 47.0617 65.75C47.0317 65.75 47.0017 65.75 46.9716 65.75C46.9416 65.75 46.9116 65.75 46.8816 65.75C46.8516 65.75 46.8215 65.75 46.7915 65.75C46.7615 65.75 46.7315 65.75 46.7014 65.75C46.6714 65.75 46.6414 65.75 46.6114 65.75C46.5813 65.75 46.5513 65.75 46.5213 65.75C46.4913 65.75 46.4612 65.75 46.4312 65.75C46.4012 65.75 46.3712 65.75 46.3411 65.75C46.3111 65.75 46.2811 65.75 46.2511 65.75C46.221 65.75 46.191 65.75 46.161 65.75C46.131 65.75 46.1009 65.75 46.0709 65.75C46.0409 65.75 46.0109 65.75 45.9808 65.75C45.9508 65.75 45.9208 65.75 45.8908 65.75C45.8607 65.75 45.8307 65.75 45.8007 65.75C45.7707 65.75 45.7406 65.75 45.7106 65.75C45.6806 65.75 45.6506 65.75 45.6205 65.75C45.5905 65.75 45.5605 65.75 45.5305 65.75C45.5005 65.75 45.4704 65.75 45.4404 65.75C45.4104 65.75 45.3804 65.75 45.3503 65.75C45.3203 65.75 45.2903 65.75 45.2603 65.75C45.2302 65.75 45.2002 65.75 45.1702 65.75C45.1402 65.75 45.1101 65.75 45.0801 65.75C45.0501 65.75 45.0201 65.75 44.99 65.75C44.96 65.75 44.93 65.75 44.9 65.75C44.8699 65.75 44.8399 65.75 44.8099 65.75C44.7799 65.75 44.7498 65.75 44.7198 65.75C44.6898 65.75 44.6598 65.75 44.6297 65.75C44.5997 65.75 44.5697 65.75 44.5397 65.75C44.5096 65.75 44.4796 65.75 44.4496 65.75C44.4196 65.75 44.3895 65.75 44.3595 65.75C44.3295 65.75 44.2995 65.75 44.2694 65.75C44.2394 65.75 44.2094 65.75 44.1794 65.75C44.1493 65.75 44.1193 65.75 44.0893 65.75C44.0593 65.75 44.0293 65.75 43.9992 65.75C43.9692 65.75 43.9392 65.75 43.9092 65.75C43.8791 65.75 43.8491 65.75 43.8191 65.75C43.7891 65.75 43.759 65.75 43.729 65.75C43.699 65.75 43.669 65.75 43.6389 65.75C43.6089 65.75 43.5789 65.75 43.5489 65.75C43.5188 65.75 43.4888 65.75 43.4588 65.75C43.4288 65.75 43.3987 65.75 43.3687 65.75C43.3387 65.75 43.3087 65.75 43.2786 65.75C43.2486 65.75 43.2186 65.75 43.1886 65.75C43.1585 65.75 43.1285 65.75 43.0985 65.75C43.0685 65.75 43.0384 65.75 43.0084 65.75C42.9784 65.75 42.9484 65.75 42.9183 65.75C42.8883 65.75 42.8583 65.75 42.8283 65.75C42.7982 65.75 42.7682 65.75 42.7382 65.75C42.7082 65.75 42.6782 65.75 42.6481 65.75C42.6181 65.75 42.5881 65.75 42.5581 65.75C42.528 65.75 42.498 65.75 42.468 65.75C42.438 65.75 42.4079 65.75 42.3779 65.75C42.3479 65.75 42.3179 65.75 42.2878 65.75C42.2578 65.75 42.2278 65.75 42.1978 65.75C42.1677 65.75 42.1377 65.75 42.1077 65.75C42.0777 65.75 42.0476 65.75 42.0176 65.75C41.9876 65.75 41.9576 65.75 41.9275 65.75C41.8975 65.75 41.8675 65.75 41.8375 65.75C41.8074 65.75 41.7774 65.75 41.7474 65.75C41.7174 65.75 41.6873 65.75 41.6573 65.75C41.6273 65.75 41.5973 65.75 41.5672 65.75C41.5372 65.75 41.5072 65.75 41.4772 65.75C41.4471 65.75 41.4171 65.75 41.3871 65.75C41.3571 65.75 41.327 65.75 41.297 65.75C41.267 65.75 41.237 65.75 41.207 65.75C41.1769 65.75 41.1469 65.75 41.1169 65.75C41.0869 65.75 41.0568 65.75 41.0268 65.75C40.9968 65.75 40.9668 65.75 40.9367 65.75C40.9067 65.75 40.8767 65.75 40.8467 65.75C40.8166 65.75 40.7866 65.75 40.7566 65.75C40.7266 65.75 40.6965 65.75 40.6665 65.75C40.6365 65.75 40.6065 65.75 40.5764 65.75C40.5464 65.75 40.5164 65.75 40.4864 65.75C40.4563 65.75 40.4263 65.75 40.3963 65.75C40.3663 65.75 40.3362 65.75 40.3062 65.75C40.2762 65.75 40.2462 65.75 40.2161 65.75C40.1861 65.75 40.1561 65.75 40.1261 65.75C40.096 65.75 40.066 65.75 40.036 65.75C40.006 65.75 39.9759 65.75 39.9459 65.75C39.9159 65.75 39.8859 65.75 39.8559 65.75C39.8258 65.75 39.7958 65.75 39.7658 65.75C39.7358 65.75 39.7057 65.75 39.6757 65.75C39.6457 65.75 39.6157 65.75 39.5856 65.75C39.5556 65.75 39.5256 65.75 39.4956 65.75C39.4655 65.75 39.4355 65.75 39.4055 65.75C39.3755 65.75 39.3454 65.75 39.3154 65.75C39.2854 65.75 39.2554 65.75 39.2253 65.75C39.1953 65.75 39.1653 65.75 39.1353 65.75C39.1052 65.75 39.0752 65.75 39.0452 65.75C39.0152 65.75 38.9851 65.75 38.9551 65.75C38.9251 65.75 38.8951 65.75 38.865 65.75C38.835 65.75 38.805 65.75 38.775 65.75C38.7449 65.75 38.7149 65.75 38.6849 65.75C38.6549 65.75 38.6248 65.75 38.5948 65.75C38.5648 65.75 38.5348 65.75 38.5047 65.75C38.4747 65.75 38.4447 65.75 38.4147 65.75C38.3847 65.75 38.3546 65.75 38.3246 65.75C38.2946 65.75 38.2646 65.75 38.2345 65.75C38.2045 65.75 38.1745 65.75 38.1445 65.75C38.1144 65.75 38.0844 65.75 38.0544 65.75C38.0244 65.75 37.9943 65.75 37.9643 65.75C37.9343 65.75 37.9043 65.75 37.8742 65.75C37.8442 65.75 37.8142 65.75 37.7842 65.75C37.7541 65.75 37.7241 65.75 37.6941 65.75C37.6641 65.75 37.634 65.75 37.604 65.75C37.574 65.75 37.544 65.75 37.5139 65.75C37.4839 65.75 37.4539 65.75 37.4239 65.75C37.3938 65.75 37.3638 65.75 37.3338 65.75C37.3038 65.75 37.2737 65.75 37.2437 65.75C37.2137 65.75 37.1837 65.75 37.1536 65.75C37.1236 65.75 37.0936 65.75 37.0636 65.75C37.0335 65.75 37.0035 65.75 36.9735 65.75C36.9435 65.75 36.9135 65.75 36.8834 65.75C36.8534 65.75 36.8234 65.75 36.7934 65.75C36.7633 65.75 36.7333 65.75 36.7033 65.75C36.6733 65.75 36.6432 65.75 36.6132 65.75C36.5832 65.75 36.5532 65.75 36.5231 65.75C36.4931 65.75 36.4631 65.75 36.4331 65.75C36.403 65.75 36.373 65.75 36.343 65.75C36.313 65.75 36.2829 65.75 36.2529 65.75C36.2229 65.75 36.1929 65.75 36.1628 65.75C36.1328 65.75 36.1028 65.75 36.0728 65.75C36.0427 65.75 36.0127 65.75 35.9827 65.75C35.9527 65.75 35.9226 65.75 35.8926 65.75C35.8626 65.75 35.8326 65.75 35.8025 65.75C35.7725 65.75 35.7425 65.75 35.7125 65.75C35.6824 65.75 35.6524 65.75 35.6224 65.75C35.5924 65.75 35.5623 65.75 35.5323 65.75C35.5023 65.75 35.4723 65.75 35.4423 65.75C35.4122 65.75 35.3822 65.75 35.3522 65.75C35.3222 65.75 35.2921 65.75 35.2621 65.75C35.2321 65.75 35.2021 65.75 35.172 65.75C35.142 65.75 35.112 65.75 35.082 65.75C35.0519 65.75 35.0219 65.75 34.9919 65.75C34.9619 65.75 34.9318 65.75 34.9018 65.75C34.8718 65.75 34.8418 65.75 34.8117 65.75C34.7817 65.75 34.7517 65.75 34.7217 65.75C34.6916 65.75 34.6616 65.75 34.6316 65.75C34.6016 65.75 34.5715 65.75 34.5415 65.75C34.5115 65.75 34.4815 65.75 34.4514 65.75C34.4214 65.75 34.3914 65.75 34.3614 65.75C34.3313 65.75 34.3013 65.75 34.2713 65.75C34.2413 65.75 34.2112 65.75 34.1812 65.75C34.1512 65.75 34.1212 65.75 34.0912 65.75C34.0611 65.75 34.0311 65.75 34.0011 65.75C33.9711 65.75 33.941 65.75 33.911 65.75C33.881 65.75 33.851 65.75 33.8209 65.75C33.7909 65.75 33.7609 65.75 33.7309 65.75C33.7008 65.75 33.6708 65.75 33.6408 65.75C33.6108 65.75 33.5807 65.75 33.5507 65.75C33.5207 65.75 33.4907 65.75 33.4606 65.75C33.4306 65.75 33.4006 65.75 33.3706 65.75C33.3405 65.75 33.3105 65.75 33.2805 65.75C33.2505 65.75 33.2204 65.75 33.1904 65.75C33.1604 65.75 33.1304 65.75 33.1003 65.75C33.0703 65.75 33.0403 65.75 33.0103 65.75C32.9802 65.75 32.9502 65.75 32.9202 65.75C32.8902 65.75 32.8601 65.75 32.8301 65.75C32.8001 65.75 32.7701 65.75 32.74 65.75C32.71 65.75 32.68 65.75 32.65 65.75C32.62 65.75 32.5899 65.75 32.5599 65.75C32.5299 65.75 32.4999 65.75 32.4698 65.75C32.4398 65.75 32.4098 65.75 32.3798 65.75C32.3497 65.75 32.3197 65.75 32.2897 65.75C32.2597 65.75 32.2296 65.75 32.1996 65.75C32.1696 65.75 32.1396 65.75 32.1095 65.75C32.0795 65.75 32.0495 65.75 32.0195 65.75C31.9894 65.75 31.9594 65.75 31.9294 65.75C31.8994 65.75 31.8693 65.75 31.8393 65.75C31.8093 65.75 31.7793 65.75 31.7492 65.75C31.7192 65.75 31.6892 65.75 31.6592 65.75C31.6291 65.75 31.5991 65.75 31.5691 65.75C31.5391 65.75 31.509 65.75 31.479 65.75C31.449 65.75 31.419 65.75 31.3889 65.75C31.3589 65.75 31.3289 65.75 31.2989 65.75C31.2689 65.75 31.2388 65.75 31.2088 65.75C31.1788 65.75 31.1488 65.75 31.1187 65.75C31.0887 65.75 31.0587 65.75 31.0287 65.75C30.9986 65.75 30.9686 65.75 30.9386 65.75C30.9086 65.75 30.8785 65.75 30.8485 65.75C30.8185 65.75 30.7885 65.75 30.7584 65.75C30.7284 65.75 30.6984 65.75 30.6684 65.75C30.6383 65.75 30.6083 65.75 30.5783 65.75C30.5483 65.75 30.5182 65.75 30.4882 65.75C30.4582 65.75 30.4282 65.75 30.3981 65.75C30.3681 65.75 30.3381 65.75 30.3081 65.75C30.278 65.75 30.248 65.75 30.218 65.75C30.188 65.75 30.1579 65.75 30.1279 65.75C30.0979 65.75 30.0679 65.75 30.0378 65.75C30.0078 65.75 29.9778 65.75 29.9478 65.75C29.9177 65.75 29.8877 65.75 29.8577 65.75C29.8277 65.75 29.7977 65.75 29.7676 65.75C29.7376 65.75 29.7076 65.75 29.6776 65.75C29.6475 65.75 29.6175 65.75 29.5875 65.75C29.5575 65.75 29.5274 65.75 29.4974 65.75C29.4674 65.75 29.4374 65.75 29.4073 65.75C29.3773 65.75 29.3473 65.75 29.3173 65.75C29.2872 65.75 29.2572 65.75 29.2272 65.75C29.1972 65.75 29.1671 65.75 29.1371 65.75C29.1071 65.75 29.0771 65.75 29.047 65.75C29.017 65.75 28.987 65.75 28.957 65.75C28.9269 65.75 28.8969 65.75 28.8669 65.75C28.8369 65.75 28.8068 65.75 28.7768 65.75C28.7468 65.75 28.7168 65.75 28.6867 65.75C28.6567 65.75 28.6267 65.75 28.5967 65.75C28.5666 65.75 28.5366 65.75 28.5066 65.75C28.4766 65.75 28.4466 65.75 28.4165 65.75C28.3865 65.75 28.3565 65.75 28.3265 65.75C28.2964 65.75 28.2664 65.75 28.2364 65.75C28.2064 65.75 28.1763 65.75 28.1463 65.75C28.1163 65.75 28.0863 65.75 28.0562 65.75C28.0262 65.75 27.9962 65.75 27.9662 65.75C27.9361 65.75 27.9061 65.75 27.8761 65.75C27.8461 65.75 27.816 65.75 27.786 65.75C27.756 65.75 27.726 65.75 27.6959 65.75C27.6659 65.75 27.6359 65.75 27.6059 65.75C27.5758 65.75 27.5458 65.75 27.5158 65.75C27.4858 65.75 27.4557 65.75 27.4257 65.75C27.3957 65.75 27.3657 65.75 27.3356 65.75C27.3056 65.75 27.2756 65.75 27.2456 65.75C27.2155 65.75 27.1855 65.75 27.1555 65.75C27.1255 65.75 27.0954 65.75 27.0654 65.75C27.0354 65.75 27.0054 65.75 26.9754 65.75C26.9453 65.75 26.9153 65.75 26.8853 65.75C26.8553 65.75 26.8252 65.75 26.7952 65.75C26.7652 65.75 26.7352 65.75 26.7051 65.75C26.6751 65.75 26.6451 65.75 26.6151 65.75C26.585 65.75 26.555 65.75 26.525 65.75C26.495 65.75 26.4649 65.75 26.4349 65.75C26.4049 65.75 26.3749 65.75 26.3448 65.75C26.3148 65.75 26.2848 65.75 26.2548 65.75C26.2247 65.75 26.1947 65.75 26.1647 65.75C26.1347 65.75 26.1046 65.75 26.0746 65.75C26.0446 65.75 26.0146 65.75 25.9845 65.75C25.9545 65.75 25.9245 65.75 25.8945 65.75C25.8644 65.75 25.8344 65.75 25.8044 65.75C25.7744 65.75 25.7443 65.75 25.7143 65.75C25.6843 65.75 25.6543 65.75 25.6242 65.75C25.5942 65.75 25.5642 65.75 25.5342 65.75C25.5042 65.75 25.4741 65.75 25.4441 65.75C25.4141 65.75 25.3841 65.75 25.354 65.75C25.324 65.75 25.294 65.75 25.264 65.75C25.2339 65.75 25.2039 65.75 25.1739 65.75C25.1439 65.75 25.1138 65.75 25.0838 65.75C25.0538 65.75 25.0238 65.75 24.9937 65.75C24.9637 65.75 24.9337 65.75 24.9037 65.75C24.8736 65.75 24.8436 65.75 24.8136 65.75C24.7836 65.75 24.7535 65.75 24.7235 65.75C24.6935 65.75 24.6635 65.75 24.6334 65.75C24.6034 65.75 24.5734 65.75 24.5434 65.75C24.5133 65.75 24.4833 65.75 24.4533 65.75C24.4233 65.75 24.3932 65.75 24.3632 65.75C24.3332 65.75 24.3032 65.75 24.2731 65.75C24.2431 65.75 24.2131 65.75 24.1831 65.75C24.1531 65.75 24.123 65.75 24.093 65.75C24.063 65.75 24.033 65.75 24.0029 65.75C23.9729 65.75 23.9429 65.75 23.9129 65.75C23.8828 65.75 23.8528 65.75 23.8228 65.75C23.7928 65.75 23.7627 65.75 23.7327 65.75C23.7027 65.75 23.6727 65.75 23.6426 65.75C23.6126 65.75 23.5826 65.75 23.5526 65.75C23.5225 65.75 23.4925 65.75 23.4625 65.75C23.4325 65.75 23.4024 65.75 23.3724 65.75C23.3424 65.75 23.3124 65.75 23.2823 65.75C23.2523 65.75 23.2223 65.75 23.1923 65.75C23.1622 65.75 23.1322 65.75 23.1022 65.75C23.0722 65.75 23.0421 65.75 23.0121 65.75C22.9821 65.75 22.9521 65.75 22.922 65.75C22.892 65.75 22.862 65.75 22.832 65.75C22.8019 65.75 22.7719 65.75 22.7419 65.75C22.7119 65.75 22.6819 65.75 22.6518 65.75C22.6218 65.75 22.5918 65.75 22.5618 65.75C22.5317 65.75 22.5017 65.75 22.4717 65.75C22.4417 65.75 22.4116 65.75 22.3816 65.75C22.3516 65.75 22.3216 65.75 22.2915 65.75C22.2615 65.75 22.2315 65.75 22.2015 65.75C22.1714 65.75 22.1414 65.75 22.1114 65.75C22.0814 65.75 22.0513 65.75 22.0213 65.75C21.9913 65.75 21.9613 65.75 21.9312 65.75C21.9012 65.75 21.8712 65.75 21.8412 65.75C21.8111 65.75 21.7811 65.75 21.7511 65.75C21.7211 65.75 21.691 65.75 21.661 65.75C21.631 65.75 21.601 65.75 21.5709 65.75C21.5409 65.75 21.5109 65.75 21.4809 65.75C21.4508 65.75 21.4208 65.75 21.3908 65.75C21.3608 65.75 21.3307 65.75 21.3007 65.75C21.2707 65.75 21.2407 65.75 21.2107 65.75C21.1806 65.75 21.1506 65.75 21.1206 65.75C21.0906 65.75 21.0605 65.75 21.0305 65.75C21.0005 65.75 20.9705 65.75 20.9404 65.75C20.9104 65.75 20.8804 65.75 20.8504 65.75C20.8203 65.75 20.7903 65.75 20.7603 65.75C20.7303 65.75 20.7002 65.75 20.6702 65.75C20.6402 65.75 20.6102 65.75 20.5801 65.75C20.5501 65.75 20.5201 65.75 20.4901 65.75C20.46 65.75 20.43 65.75 20.4 65.75C20.37 65.75 20.3399 65.75 20.3099 65.75C20.2799 65.75 20.2499 65.75 20.2198 65.75C20.1898 65.75 20.1598 65.75 20.1298 65.75C20.0997 65.75 20.0697 65.75 20.0397 65.75C20.0097 65.75 19.9796 65.75 19.9496 65.75C19.9196 65.75 19.8896 65.75 19.8596 65.75C19.8295 65.75 19.7995 65.75 19.7695 65.75C19.7395 65.75 19.7094 65.75 19.6794 65.75C19.6494 65.75 19.6194 65.75 19.5893 65.75C19.5593 65.75 19.5293 65.75 19.4993 65.75C19.4692 65.75 19.4392 65.75 19.4092 65.75C19.3792 65.75 19.3491 65.75 19.3191 65.75C19.2891 65.75 19.2591 65.75 19.229 65.75C19.199 65.75 19.169 65.75 19.139 65.75C19.1089 65.75 19.0789 65.75 19.0489 65.75C19.0189 65.75 18.9888 65.75 18.9588 65.75C18.9288 65.75 18.8988 65.75 18.8687 65.75C18.8387 65.75 18.8087 65.75 18.7787 65.75C18.7486 65.75 18.7186 65.75 18.6886 65.75C18.6586 65.75 18.6285 65.75 18.5985 65.75C18.5685 65.75 18.5385 65.75 18.5084 65.75C18.4784 65.75 18.4484 65.75 18.4184 65.75C18.3884 65.75 18.3583 65.75 18.3283 65.75C18.2983 65.75 18.2683 65.75 18.2382 65.75C18.2082 65.75 18.1782 65.75 18.1482 65.75C18.1181 65.75 18.0881 65.75 18.0581 65.75C18.0281 65.75 17.998 65.75 17.968 65.75C17.938 65.75 17.908 65.75 17.8779 65.75C17.8479 65.75 17.8179 65.75 17.7879 65.75C17.7578 65.75 17.7278 65.75 17.6978 65.75C17.6678 65.75 17.6377 65.75 17.6077 65.75C17.5777 65.75 17.5477 65.75 17.5176 65.75C17.4876 65.75 17.4576 65.75 17.4276 65.75C17.3975 65.75 17.3675 65.75 17.3375 65.75C17.3075 65.75 17.2774 65.75 17.2474 65.75C17.2174 65.75 17.1874 65.75 17.1573 65.75C17.1273 65.75 17.0973 65.75 17.0673 65.75C17.0373 65.75 17.0072 65.75 16.9772 65.75C16.9472 65.75 16.9172 65.75 16.8871 65.75C16.8571 65.75 16.8271 65.75 16.7971 65.75C16.767 65.75 16.737 65.75 16.707 65.75C16.677 65.75 16.6469 65.75 16.6169 65.75C16.5869 65.75 16.5569 65.75 16.5268 65.75C16.4968 65.75 16.4668 65.75 16.4368 65.75C16.4067 65.75 16.3767 65.75 16.3467 65.75C16.3167 65.75 16.2866 65.75 16.2566 65.75C16.2266 65.75 16.1966 65.75 16.1665 65.75C16.1365 65.75 16.1065 65.75 16.0765 65.75C16.0464 65.75 16.0164 65.75 15.9864 65.75C15.9564 65.75 15.9263 65.75 15.8963 65.75C15.8663 65.75 15.8363 65.75 15.8062 65.75C15.7762 65.75 15.7462 65.75 15.7162 65.75C15.6861 65.75 15.6561 65.75 15.6261 65.75C15.5961 65.75 15.5661 65.75 15.536 65.75C15.506 65.75 15.476 65.75 15.446 65.75C15.4159 65.75 15.3859 65.75 15.3559 65.75C15.3259 65.75 15.2958 65.75 15.2658 65.75C15.2358 65.75 15.2058 65.75 15.1757 65.75C15.1457 65.75 15.1157 65.75 15.0857 65.75C15.0556 65.75 15.0256 65.75 14.9956 65.75C14.9656 65.75 14.9355 65.75 14.9055 65.75C14.8755 65.75 14.8455 65.75 14.8154 65.75C14.7854 65.75 14.7554 65.75 14.7254 65.75C14.6953 65.75 14.6653 65.75 14.6353 65.75C14.6053 65.75 14.5752 65.75 14.5452 65.75C14.5152 65.75 14.4852 65.75 14.4551 65.75C14.4251 65.75 14.3951 65.75 14.3651 65.75C14.335 65.75 14.305 65.75 14.275 65.75C14.245 65.75 14.2149 65.75 14.1849 65.75C14.1549 65.75 14.1249 65.75 14.0949 65.75C14.0648 65.75 14.0348 65.75 14.0048 65.75C13.9748 65.75 13.9447 65.75 13.9147 65.75C13.8847 65.75 13.8547 65.75 13.8246 65.75C13.7946 65.75 13.7646 65.75 13.7346 65.75C13.7045 65.75 13.6745 65.75 13.6445 65.75C13.6145 65.75 13.5844 65.75 13.5544 65.75C13.5244 65.75 13.4944 65.75 13.4643 65.75V67.25ZM12.7152 4.99902C12.6885 25.4995 12.7143 46.0014 12.7143 66.5H14.2143C14.2143 45.9987 14.1885 25.5003 14.2152 5.00098L12.7152 4.99902Z" fill="#8A8CCE"/>
<path d="M43.7262 56.1113H20.0005" stroke="#8A8CCE" stroke-width="1.5" stroke-miterlimit="10" stroke-linejoin="bevel"/>
<path d="M38.1986 49.3242H20.0005" stroke="#8A8CCE" stroke-width="1.5" stroke-miterlimit="10" stroke-linejoin="bevel"/>
<path d="M37.176 42.5371H20.0005" stroke="#8A8CCE" stroke-width="1.5" stroke-miterlimit="10" stroke-linejoin="bevel"/>
<path d="M38.9099 35.7354H20.0005" stroke="#8A8CCE" stroke-width="1.5" stroke-miterlimit="10" stroke-linejoin="bevel"/>
<path d="M45.3266 28.9482H20.0005" stroke="#8A8CCE" stroke-width="1.5" stroke-miterlimit="10" stroke-linejoin="bevel"/>
<path d="M39.3545 22.1602H20.0005" stroke="#8A8CCE" stroke-width="1.5" stroke-miterlimit="10" stroke-linejoin="bevel"/>
<path d="M38.5839 15.373H20.0005" stroke="#8A8CCE" stroke-width="1.5" stroke-miterlimit="10" stroke-linejoin="bevel"/>
<path d="M69.5025 45.6664C70.9421 36.7958 64.9181 28.4377 56.0475 26.998C47.1769 25.5584 38.8188 31.5824 37.3792 40.453C35.9395 49.3236 41.9635 57.6817 50.8341 59.1214C59.7047 60.561 68.0628 54.537 69.5025 45.6664Z" stroke="#8A8CCE" stroke-width="1.5" stroke-miterlimit="10" stroke-linejoin="bevel"/>
<path d="M65 38.9699L61.5 35L53.0675 44.365L47.9375 39.411L44 43.3809L53.0675 52L56.387 48.1825L65 38.9699Z" stroke="#8A8CCE" stroke-width="1.5" stroke-miterlimit="10" stroke-linejoin="bevel"/>
</svg>
