<svg id="Слой_1" data-name="Слой 1" xmlns="http://www.w3.org/2000/svg" viewBox="0 0 72 72"><defs><style>.cls-1{fill:#8a8cce;}</style></defs><title>emergency-4</title><path class="cls-1" d="M36.2,68.64H35.13c-0.22-.22-21.75-22.46-26-27A18,18,0,0,1,4.2,34a18.54,18.54,0,0,1-.95-5.88,18.3,18.3,0,0,1,4.92-12.6,16.36,16.36,0,0,1,12-5.29c7.56,0,13.48,6,15.51,10.42,2-4.37,7.65-10.42,15.45-10.42a16.37,16.37,0,0,1,12,5.3A18.3,18.3,0,0,1,68,28.14a18.57,18.57,0,0,1-1,6,15.34,15.34,0,0,1-3.34,5.89l-1.11-1a13.76,13.76,0,0,0,3-5.36,17.06,17.06,0,0,0,.91-5.54A16.81,16.81,0,0,0,62,16.57,14.88,14.88,0,0,0,51.1,11.75c-8.75,0-14.68,8.82-14.68,11.75h-1.5c0-2.93-6-11.75-14.77-11.75A14.88,14.88,0,0,0,9.27,16.57,16.81,16.81,0,0,0,4.75,28.14a17.05,17.05,0,0,0,.87,5.41,16.59,16.59,0,0,0,2.85,5.23,17.16,17.16,0,0,0,1.7,1.81c3.92,4.15,22.17,23,25.51,26.46l7.11-7,1.05,1.07Z"/><path class="cls-1" d="M53.9,56.75H48.1L47.35,56V51.61H43l-0.75-.75V45.12L43,44.37h4.35V40l0.75-.75h5.8L54.65,40v4.37H59l0.75,0.75v5.74L59,51.61H54.65V56Zm-5-1.5h4.3V50.86l0.75-.75h4.35V45.87H53.9l-0.75-.75V40.75h-4.3v4.37l-0.75.75H43.75v4.24H48.1l0.75,0.75v4.39Z"/><path class="cls-1" d="M50.92,63.75A15.52,15.52,0,0,1,40,59.24a15.75,15.75,0,1,1,11.14,4.51H50.92Zm0.1-30H50.9a14.25,14.25,0,0,0,.19,28.5h0a14.24,14.24,0,0,0,9.54-24.73A14.14,14.14,0,0,0,51,33.75Z"/><path class="cls-1" d="M16,29.61a8.78,8.78,0,0,0-4.94-3.82l-0.57-.94a15.19,15.19,0,0,1,6.32-8.7l0.83,0.06,5.43,4.2L23,21.66c-3.48,1.76-5.6,7.73-5.62,7.79ZM12.2,24.56a10.36,10.36,0,0,1,4.28,3.11c0.78-1.79,2.44-5,4.86-6.76l-4.15-3.21A14.22,14.22,0,0,0,12.2,24.56Z"/></svg>