<svg id="Слой_1" data-name="Слой 1" xmlns="http://www.w3.org/2000/svg" viewBox="0 0 72 72"><defs><style>.cls-1{fill:#8a8cce;}</style></defs><title>emergency-2</title><path class="cls-1" d="M44.5,56.76h-17L26.75,56s0-1.61,0-5c0-4.21-2.08-9-6.36-14.54a20,20,0,1,1,31.75,0C48.65,41,45.25,45.81,45.25,51v5Zm-16.25-1.5h15.5V51c0-5.66,3.72-11,7.2-15.47A18.51,18.51,0,0,0,35.06,5.79,18.52,18.52,0,0,0,21.58,35.54c4.55,5.93,6.67,10.84,6.67,15.46C28.25,53.07,28.25,54.48,28.25,55.26Z"/><path class="cls-1" d="M44.5,63.73H28L27.25,63V60.13L28,59.38H44.5l0.75,0.75V63Zm-15.75-1.5h15V60.88h-15v1.35Z"/><path class="cls-1" d="M42.24,70.71H31L30.25,70V67.09L31,66.34H42.24L43,67.09V70Zm-10.49-1.5h9.74V67.84H31.75v1.37Z"/><path class="cls-1" d="M39.72,50.75h-1.5c0-7,3.11-13.86,4.81-17.1a20,20,0,0,1-13.35,0c1.7,3.24,4.82,10.12,4.82,17.11H33c0-9-5.61-18.14-5.67-18.23l1-1.07a18.56,18.56,0,0,0,16.13,0l1,1.07C45.33,32.61,39.72,41.76,39.72,50.75Z"/><path class="cls-1" d="M44.95,25.44L44,24.65c0.36-4.26-5.55-8.69-5.61-8.74l-0.15-1.06L42,9.9l0.94-.21a15.13,15.13,0,0,1,8.21,13.48l-0.55.72ZM39.88,15.18c1.49,1.24,5.27,4.72,5.61,8.55l4.15-1.13A13.63,13.63,0,0,0,42.8,11.32Z"/></svg>