<svg width="72" height="72" viewBox="0 0 72 72" fill="none" xmlns="http://www.w3.org/2000/svg">
<path d="M44.5 51C44.5 45.4937 48.1798 40.3476 51.5447 35.9844C54.0403 32.7321 55.5215 28.6749 55.5215 24.2634C55.5215 13.2025 46.2155 4.33126 35.0097 5.03967C25.1886 5.66758 17.3155 13.8143 17.0096 23.6516C16.8647 28.3046 18.3621 32.6033 20.9864 36.0005C24.287 40.2993 27.5 45.5903 27.5 51C27.4918 54.4049 27.5 56.0094 27.5 56.0094H44.5C44.5 56.0094 44.5 52.6144 44.5 51Z" stroke="#8A8CCE" stroke-width="1.5" stroke-miterlimit="10" stroke-linejoin="bevel"/>
<path d="M43.575 62.9846H28.9398C28.3441 62.9846 28.0002 62.9846 28.0002 62.9846V60.1348C28.0002 60.1348 28.3602 60.1349 28.9398 60.1349H43.575C44.1707 60.1349 44.5002 60.1349 44.5002 60.1349V62.9846C44.5002 62.9846 44.1546 62.9846 43.575 62.9846Z" stroke="#8A8CCE" stroke-width="1.5" stroke-miterlimit="10" stroke-linejoin="bevel"/>
<path d="M41.3683 69.9559H31.8692C31.3862 69.9559 30.9998 69.9559 30.9998 69.9559V67.0898C30.9998 67.0898 31.3862 67.09 31.8692 67.09H41.3683C41.8513 67.09 42.2377 67.0901 42.2377 67.0901V69.9559C42.2377 69.9559 41.8513 69.9559 41.3683 69.9559Z" stroke="#8A8CCE" stroke-width="1.5" stroke-miterlimit="10" stroke-linejoin="bevel"/>
<path d="M38.9711 50.7481C38.9711 41.4261 44.7511 32.1201 44.7511 32.1201C39.4541 34.664 33.2877 34.664 27.9746 32.1201C27.9746 32.1201 33.7546 41.4422 33.7546 50.7481" stroke="#8A8CCE" stroke-width="1.5" stroke-miterlimit="10" stroke-linejoin="bevel"/>
<path d="M50.4023 23.1684C50.4023 17.5816 47.2305 12.7515 42.5936 10.3525L38.8423 15.3114C38.8423 15.3114 45.1536 19.9805 44.7511 24.714L50.4023 23.1684Z" stroke="#8A8CCE" stroke-width="1.5" stroke-miterlimit="10" stroke-linejoin="bevel"/>
</svg>
