<svg id="Слой_1" data-name="Слой 1" xmlns="http://www.w3.org/2000/svg" viewBox="0 0 72 72"><defs><style>.cls-1{fill:#8a8cce;}</style></defs><title>emergency-3</title><path class="cls-1" d="M33.82,47.4H29.68l-0.75-.75V17.09l0.75-.75h4.14l0.75,0.75V46.65Zm-3.39-1.5h2.64V17.84H30.43V45.9Z"/><path class="cls-1" d="M24.17,47.24H17.51l-0.75-.75V16.93l0.75-.75h6.66l0.75,0.75V46.49Zm-5.91-1.5h5.16V17.68H18.26V45.74Z"/><polygon class="cls-1" points="17.51 44.48 5 44.48 4.25 43.73 4.25 20.03 5 19.28 17.51 19.28 17.51 20.78 5.75 20.78 5.75 42.98 17.51 42.98 17.51 44.48"/><polygon class="cls-1" points="29.68 44.48 24.18 44.48 24.18 42.98 28.93 42.98 28.93 20.78 24.18 20.78 24.18 19.28 29.68 19.28 30.43 20.03 30.43 43.73 29.68 44.48"/><path class="cls-1" d="M43.15,47.32H39l-0.75-.75V17L39,16.26h4.14L43.9,17V46.57Zm-3.39-1.5H42.4V17.76H39.77V45.82Z"/><path class="cls-1" d="M55.3,47.15H48.64l-0.75-.75V16.84l0.75-.75H55.3l0.75,0.75V46.4Zm-5.91-1.5h5.16V17.59H49.39V45.65Z"/><polygon class="cls-1" points="67.82 44.39 55.31 44.39 55.31 42.89 67.07 42.89 67.07 20.69 55.31 20.69 55.31 19.19 67.82 19.19 68.57 19.94 68.57 43.64 67.82 44.39"/><polygon class="cls-1" points="48.65 44.39 43.14 44.39 42.39 43.64 42.39 19.94 43.14 19.19 48.65 19.19 48.65 20.69 43.89 20.69 43.89 42.89 48.65 42.89 48.65 44.39"/><path class="cls-1" d="M36.54,68.87a5.73,5.73,0,0,1-4.07-1.73,6.45,6.45,0,0,1-1.87-4.55c0-3,2.92-10,5-12.74a1.24,1.24,0,0,1,1.93,0c2.22,2.94,5,9.66,5,13A6,6,0,0,1,36.54,68.87Zm0-17.8c-2,2.84-4.44,9.18-4.44,11.52a5,5,0,0,0,1.43,3.49,4.24,4.24,0,0,0,3,1.29,4.52,4.52,0,0,0,4.52-4.52C41.06,60,38.54,53.91,36.54,51.07Zm-0.23-.32h0Zm0.46,0h0Z"/></svg>