<svg width="72" height="72" viewBox="0 0 72 72" fill="none" xmlns="http://www.w3.org/2000/svg">
<path d="M33.8188 46.6516L33.8188 17.0898H29.6817L29.6817 46.6516H33.8188Z" stroke="#8A8CCE" stroke-width="1.5" stroke-miterlimit="10" stroke-linejoin="bevel"/>
<path d="M24.1721 46.4914L24.1721 16.9297H17.5116L17.5116 46.4914H24.1721Z" stroke="#8A8CCE" stroke-width="1.5" stroke-miterlimit="10" stroke-linejoin="bevel"/>
<path d="M17.5142 43.7266H5V20.0332H17.5142" stroke="#8A8CCE" stroke-width="1.5" stroke-miterlimit="10" stroke-linejoin="bevel"/>
<path d="M24.176 20.0332H29.6776V43.7266H24.176" stroke="#8A8CCE" stroke-width="1.5" stroke-miterlimit="10" stroke-linejoin="bevel"/>
<path d="M43.1523 46.5676L43.1523 17.0059L39.0152 17.0059L39.0152 46.5676L43.1523 46.5676Z" stroke="#8A8CCE" stroke-width="1.5" stroke-miterlimit="10" stroke-linejoin="bevel"/>
<path d="M55.3013 46.3977L55.3013 16.8359L48.6407 16.8359L48.6407 46.3977L55.3013 46.3977Z" stroke="#8A8CCE" stroke-width="1.5" stroke-miterlimit="10" stroke-linejoin="bevel"/>
<path d="M55.3071 19.9443H67.8214V43.6377H55.3071" stroke="#8A8CCE" stroke-width="1.5" stroke-miterlimit="10" stroke-linejoin="bevel"/>
<path d="M48.6444 43.6377H43.1428V19.9443H48.6444" stroke="#8A8CCE" stroke-width="1.5" stroke-miterlimit="10" stroke-linejoin="bevel"/>
<path d="M36.5429 68.1232C39.4477 68.1232 41.8097 65.7612 41.8097 62.8564C41.8097 59.6288 38.9636 53.0122 36.9097 50.2981C36.8217 50.1808 36.6896 50.1074 36.5429 50.1074C36.3962 50.1074 36.2642 50.1808 36.1761 50.2981C34.1222 53.0122 31.3494 59.9369 31.3494 62.5923C31.3348 65.4971 33.6234 68.1232 36.5429 68.1232Z" stroke="#8A8CCE" stroke-width="1.5" stroke-miterlimit="10" stroke-linejoin="bevel"/>
</svg>
