<svg width="72" height="72" viewBox="0 0 72 72" fill="none" xmlns="http://www.w3.org/2000/svg">
<path d="M43.315 60.5626L35.6699 68.11C35.6699 68.11 13.9697 45.7044 9.66057 41.1409C9.05873 40.5879 8.45689 39.9535 7.88758 39.2541C6.57003 37.6275 5.5778 35.7894 4.91089 33.7887C4.30905 31.9832 4 30.08 4 28.1444C4 23.5899 5.6754 19.2957 8.71714 16.0587C11.7589 12.8055 15.8254 11.0163 20.1522 11C29.2795 11 35.6699 20 35.6699 23.5C35.6699 20 41.9623 11 51.1064 11C55.4169 11.0163 59.4834 12.7893 62.5414 16.0587C65.5832 19.2957 67.2586 23.5899 67.2586 28.1444C67.2586 30.1451 66.9495 32.0645 66.3151 33.9188C65.5669 36.1635 64.7048 37.8064 63.127 39.5469" stroke="#8A8CCE" stroke-width="1.5" stroke-miterlimit="10" stroke-linejoin="bevel"/>
<path d="M53.8992 40H48.1009V45.1226H43V50.8645H48.1009V56H53.8992V50.8645H59V45.1226H53.8992V40Z" stroke="#8A8CCE" stroke-width="1.5" stroke-miterlimit="10" stroke-linejoin="bevel"/>
<path d="M51.1018 62.9989C47.1483 63.0465 43.3474 61.5093 40.4968 58.7044C37.6292 55.8836 36.0342 52.1279 36.0003 48.1027C35.9494 39.8306 42.6178 33.0481 50.8982 33.0005C54.716 32.9688 58.3471 34.3792 61.1469 36.9623C64.2011 39.7672 65.9658 43.7606 65.9997 47.8809C66.0506 56.1689 59.3652 62.9355 51.1018 62.9989Z" stroke="#8A8CCE" stroke-width="1.5" stroke-miterlimit="10" stroke-linejoin="bevel"/>
<path d="M17.2257 16.791C17.2257 16.791 12.964 19.2146 11.2561 25.0542C11.2561 25.0542 14.3792 25.6885 16.6727 29.202C16.6727 29.202 18.8686 22.907 22.6586 20.9876L17.2257 16.791Z" stroke="#8A8CCE" stroke-width="1.5" stroke-miterlimit="10" stroke-linejoin="bevel"/>
</svg>
