<svg id="Слой_1" data-name="Слой 1" xmlns="http://www.w3.org/2000/svg" viewBox="0 0 72 72"><defs><style>.cls-1{fill:#8a8cce;}</style></defs><title>emergency-1</title><path class="cls-1" d="M59.58,21.77H43.19L42.44,21V5l1.27-.54,16.39,16Zm-15.64-1.5h13.8L43.94,6.78V20.27Z"/><path class="cls-1" d="M59.58,21h0.75l-0.23-.54ZM43.19,5l0.52-.54-0.52-.21V5ZM13.47,5V4.25L12.72,5h0.75Zm0,61.5H12.71l0.75,0.75V66.5Zm46.12,0v0.75l0.75-.75H59.58ZM60.33,28V21h-1.5v7h1.5Zm-0.23-7.5-16.39-16-1,1.07,16.39,16ZM43.19,4.25H13.47v1.5H43.19V4.25ZM60.33,66.5V58.13h-1.5V66.5h1.5Zm-46.87.75H59.58v-1.5H13.46v1.5ZM12.72,5q0,30.75,0,61.5h1.5q0-30.75,0-61.5h-1.5Z"/><rect class="cls-1" x="20" y="55.36" width="23.73" height="1.5"/><rect class="cls-1" x="20" y="48.57" width="18.2" height="1.5"/><rect class="cls-1" x="20" y="41.79" width="17.18" height="1.5"/><rect class="cls-1" x="20" y="34.99" width="18.91" height="1.5"/><rect class="cls-1" x="20" y="28.2" width="25.33" height="1.5"/><rect class="cls-1" x="20" y="21.41" width="19.35" height="1.5"/><rect class="cls-1" x="20" y="14.62" width="18.58" height="1.5"/><path class="cls-1" d="M53.45,60.08a17,17,0,1,1,16.79-14.3h0A17.05,17.05,0,0,1,53.45,60.08Zm0-32.55a15.54,15.54,0,1,0,2.5.2A15.55,15.55,0,0,0,53.43,27.54Z"/><path class="cls-1" d="M52.55,52.54l-9.07-8.62,0-1.07,3.94-4h1.05L53,43.29l7.91-8.79h1.12l3.5,4v1l-8.61,9.21-3.3,3.8Zm-7.48-9.18L53,50.92l2.8-3.23L64,39l-2.49-2.83-7.87,8.74-1.08,0-4.6-4.44Z"/></svg>