<svg id="Слой_1" data-name="Слой 1" xmlns="http://www.w3.org/2000/svg" viewBox="0 0 72 72"><defs><style>.cls-1{fill:#8a8cce;}</style></defs><title>fire-dept-3</title><path class="cls-1" d="M58.27,21.69H42l-0.75-.75V5l1.27-.54L58.8,20.41Zm-15.55-1.5H56.43L42.72,6.78V20.19Z"/><path class="cls-1" d="M56.77,66.91H13.93a2.25,2.25,0,0,1-2.27-2.24V6.49a2.25,2.25,0,0,1,2.27-2.24H42L42.5,4.46,58.8,20.41,59,20.94v6.92h-1.5V21.26L41.67,5.75H13.93a0.76,0.76,0,0,0-.77.74V64.67a0.76,0.76,0,0,0,.77.74H56.77a0.76,0.76,0,0,0,.77-0.74V57.84H59v6.83A2.25,2.25,0,0,1,56.77,66.91Z"/><rect class="cls-1" x="18.91" y="55.08" width="23.6" height="1.5"/><rect class="cls-1" x="18.91" y="48.34" width="18.1" height="1.5"/><rect class="cls-1" x="18.91" y="41.58" width="17.09" height="1.5"/><rect class="cls-1" x="18.91" y="34.83" width="18.8" height="1.5"/><rect class="cls-1" x="18.91" y="28.08" width="25.19" height="1.5"/><rect class="cls-1" x="18.91" y="21.32" width="19.24" height="1.5"/><rect class="cls-1" x="18.91" y="14.58" width="18.48" height="1.5"/><path class="cls-1" d="M52.47,59.79a16.93,16.93,0,1,1,16.7-14.22h0A17,17,0,0,1,52.47,59.79Zm0-32.37a15.45,15.45,0,1,0,2.5.2A15.63,15.63,0,0,0,52.42,27.42Z"/><path class="cls-1" d="M58,51.65L52.5,48.4,47,51.65l-1.11-.81,1.41-6.19-4.8-4.19,0.42-1.31,6.36-.58,2.52-5.85h1.38l2.52,5.85,6.36,0.58,0.42,1.31-4.8,4.19,1.41,6.19Zm-5.87-4.77h0.76l4.37,2.59-1.12-4.93,0.24-.73,3.82-3.34L55.13,40l-0.62-.45-2-4.66-2,4.66L49.87,40l-5.06.46,3.82,3.34,0.24,0.73-1.12,4.93Z"/></svg>