<svg width="72" height="72" viewBox="0 0 72 72" fill="none" xmlns="http://www.w3.org/2000/svg">
<path d="M25.2735 32.5156H16.3638" stroke="#8A8CCE" stroke-width="1.5" stroke-miterlimit="10" stroke-linejoin="bevel"/>
<path d="M57.8027 32.5156H64.7556H67.7394V42.6327V57.1492H64.7556H57.8027" stroke="#8A8CCE" stroke-width="1.5" stroke-miterlimit="10" stroke-linejoin="bevel"/>
<path d="M54.5146 57.1484H16.3638" stroke="#8A8CCE" stroke-width="1.5" stroke-miterlimit="10" stroke-linejoin="bevel"/>
<path d="M54.5156 32.5156H45.5781" stroke="#8A8CCE" stroke-width="1.5" stroke-miterlimit="10" stroke-linejoin="bevel"/>
<path d="M13.0607 57.1492H7.5095H4.10938V43.7985V42.6327V32.5156H7.5095H13.0607" stroke="#8A8CCE" stroke-width="1.5" stroke-miterlimit="10" stroke-linejoin="bevel"/>
<path d="M19.592 27.0787L35.8779 42.6592L50.4798 27.3961L34.1939 11.8156L19.592 27.0787Z" stroke="#8A8CCE" stroke-width="1.5" stroke-miterlimit="10" stroke-linejoin="bevel"/>
<path d="M26.8996 19.442L43.1855 35.0225L50.4865 27.3909L34.2006 11.8104L26.8996 19.442Z" stroke="#8A8CCE" stroke-width="1.5" stroke-miterlimit="10" stroke-linejoin="bevel"/>
<path d="M31.7959 39.0109L39.0958 31.3779" stroke="#8A8CCE" stroke-width="1.5" stroke-miterlimit="10" stroke-linejoin="bevel"/>
<path d="M27.9253 34.6808L35.2251 27.0479" stroke="#8A8CCE" stroke-width="1.5" stroke-miterlimit="10" stroke-linejoin="bevel"/>
<path d="M23.5938 30.8224L30.8936 23.1895" stroke="#8A8CCE" stroke-width="1.5" stroke-miterlimit="10" stroke-linejoin="bevel"/>
<path d="M40.9709 18.2488C43.4412 13.9883 50.1582 6.77169 55.4735 3.23278C56.9307 2.26132 59.3039 4.5512 58.374 6.03615C55.0155 11.4763 48.0349 18.4431 43.8715 21.0522L40.9709 18.2488Z" stroke="#8A8CCE" stroke-width="1.5" stroke-miterlimit="10" stroke-linejoin="bevel"/>
<path d="M45.8826 12.0039L50.0044 15.9869" stroke="#8A8CCE" stroke-width="1.5" stroke-miterlimit="10" stroke-linejoin="bevel"/>
<path d="M29.7002 16.5146L45.9653 32.1136" stroke="#8A8CCE" stroke-width="1.5" stroke-miterlimit="10" stroke-linejoin="bevel"/>
<path d="M57.8179 29.2959H54.5149V60.2578H57.8179V29.2959Z" stroke="#8A8CCE" stroke-width="1.5" stroke-miterlimit="10" stroke-linejoin="bevel"/>
<path d="M16.3626 29.2959H13.0596V60.2578H16.3626V29.2959Z" stroke="#8A8CCE" stroke-width="1.5" stroke-miterlimit="10" stroke-linejoin="bevel"/>
<path d="M16.3638 43.0002H35.8486L54.459 43" stroke="#8A8CCE" stroke-width="1.5" stroke-miterlimit="10" stroke-linejoin="bevel"/>
<path d="M67.9367 43H58" stroke="#8A8CCE" stroke-width="1.5" stroke-miterlimit="10" stroke-linejoin="bevel"/>
<path d="M12.9514 43H4" stroke="#8A8CCE" stroke-width="1.5" stroke-miterlimit="10" stroke-linejoin="bevel"/>
<path d="M13 43H16.303" stroke="#8A8CCE" stroke-width="1.5" stroke-miterlimit="10" stroke-linejoin="bevel"/>
<path d="M54 43H57.303" stroke="#8A8CCE" stroke-width="1.5" stroke-miterlimit="10" stroke-linejoin="bevel"/>
</svg>
