<svg id="Слой_1" data-name="Слой 1" xmlns="http://www.w3.org/2000/svg" viewBox="0 0 72 72"><defs><style>.cls-1{fill:#8a8cce;}</style></defs><title>fire-dept-2</title><rect class="cls-1" x="16.36" y="31.77" width="8.91" height="1.5"/><polygon class="cls-1" points="67.74 57.9 57.8 57.9 57.8 56.4 66.99 56.4 66.99 33.27 57.8 33.27 57.8 31.77 67.74 31.77 68.49 32.52 68.49 57.15 67.74 57.9"/><rect class="cls-1" x="16.36" y="56.4" width="38.15" height="1.5"/><rect class="cls-1" x="45.58" y="31.77" width="8.94" height="1.5"/><polygon class="cls-1" points="13.06 57.9 4.11 57.9 3.36 57.15 3.36 32.52 4.11 31.77 13.06 31.77 13.06 33.27 4.86 33.27 4.86 56.4 13.06 56.4 13.06 57.9"/><path class="cls-1" d="M35.36,43.2L19.07,27.62l0-1.06L33.65,11.3l1.06,0L51,26.85l0,1.06L36.42,43.18ZM20.65,27.06L35.85,41.6,49.42,27.42,34.22,12.88Z"/><path class="cls-1" d="M42.67,35.56L26.38,20l0-1.06,7.3-7.63,1.06,0L51,26.85l0,1.06-7.3,7.63ZM28,19.42L43.16,34l6.26-6.55L34.22,12.87Z"/><rect class="cls-1" x="30.17" y="34.44" width="10.56" height="1.5" transform="translate(-14.49 36.48) rotate(-46.27)"/><rect class="cls-1" x="26.29" y="30.11" width="10.56" height="1.5" transform="translate(-12.55 32.34) rotate(-46.27)"/><rect class="cls-1" x="21.96" y="26.26" width="10.56" height="1.5" transform="translate(-11.1 28.02) rotate(-46.27)"/><path class="cls-1" d="M44.27,21.69l-0.92-.1-2.9-2.8-0.13-.92c2.44-4.2,9.09-11.5,14.74-15.26a2.63,2.63,0,0,1,3.29.57A2.61,2.61,0,0,1,59,6.43C55.44,12.22,48.38,19.11,44.27,21.69Zm-2.35-3.56,2,2A57.77,57.77,0,0,0,57.74,5.64a1.23,1.23,0,0,0-.43-1.38,1.25,1.25,0,0,0-1.41-.4A57.75,57.75,0,0,0,41.92,18.13Z"/><rect class="cls-1" x="47.19" y="11.13" width="1.5" height="5.73" transform="translate(4.56 38.75) rotate(-45.98)"/><rect class="cls-1" x="37.08" y="13.05" width="1.5" height="22.54" transform="translate(-5.9 34.79) rotate(-46.2)"/><path class="cls-1" d="M57.82,61h-3.3l-0.75-.75v-31l0.75-.75h3.3l0.75,0.75v31Zm-2.55-1.5h1.8V30h-1.8V59.51Z"/><path class="cls-1" d="M16.36,61h-3.3l-0.75-.75v-31l0.75-.75h3.3l0.75,0.75v31Zm-2.55-1.5h1.8V30h-1.8V59.51Z"/><rect class="cls-1" x="16.36" y="42.25" width="38.1" height="1.5"/><rect class="cls-1" x="58" y="42.25" width="9.94" height="1.5"/><rect class="cls-1" x="4" y="42.25" width="8.95" height="1.5"/><rect class="cls-1" x="13" y="42.25" width="3.3" height="1.5"/><rect class="cls-1" x="54" y="42.25" width="3.3" height="1.5"/></svg>