<svg width="72" height="72" viewBox="0 0 72 72" fill="none" xmlns="http://www.w3.org/2000/svg">
<path d="M29.7183 19.1113H20.2219C19.15 21.9026 19.15 21.9026 18.1689 24.5649L13.3151 24.5824C12.2432 27.7981 12.2432 27.7981 11.1106 30.7838" stroke="#8A8CCE" stroke-width="1.5" stroke-miterlimit="10" stroke-linejoin="bevel"/>
<path d="M58.9995 60.4995L62.4536 32.3418" stroke="#8A8CCE" stroke-width="1.5" stroke-miterlimit="10" stroke-linejoin="bevel"/>
<path d="M54.1971 41.5955L59.2169 60.6214H10.0376C10.0376 60.6214 9.77622 60.02 9.54387 59.1726L2.60054 33.2307C2.27251 31.987 2 30.7568 2 30.7568H16.8877C16.8877 30.7568 17.0749 31.5496 17.3893 32.6977L18.018 35.0896C18.2504 35.9507 18.4833 36.5794 18.4833 36.5794H31.8773" stroke="#8A8CCE" stroke-width="1.5" stroke-miterlimit="10" stroke-linejoin="bevel"/>
<path d="M38.8068 45.6133H17.8127L20.5327 55.7549H41.6223L39.1758 46.9391L38.8068 45.6133Z" stroke="#8A8CCE" stroke-width="1.5" stroke-miterlimit="10" stroke-linejoin="bevel"/>
<path d="M58.4676 38.4603C65.3639 31.5641 65.3639 20.3832 58.4676 13.4869C51.5714 6.59074 40.3905 6.59073 33.4943 13.4869C26.598 20.3832 26.5981 31.5641 33.4943 38.4603C40.3905 45.3565 51.5714 45.3565 58.4676 38.4603Z" stroke="#8A8CCE" stroke-width="1.5" stroke-miterlimit="10" stroke-linejoin="bevel"/>
<path d="M37.3306 41.1158C34.0366 36.1953 38.9981 25.876 37.1255 21.8986C38.465 22.7324 41.3079 28.0902 41.759 30.7828C44.5746 25.5616 41.759 19.0283 45.9687 12.2354C43.4811 26.0263 51.5999 24.7825 49.372 30.3864C50.6978 28.2952 52.789 20.5181 54.9076 19.9988C51.5179 25.3976 58.1059 34.7192 55.5636 40.7877" stroke="#8A8CCE" stroke-width="1.5" stroke-miterlimit="10" stroke-linejoin="bevel"/>
<path d="M41.9223 43.1802C40.0771 41.1573 40.6512 35.6355 40.9519 34.8974C41.7173 37.2893 44.9839 38.8338 45.0796 33.6263C45.1343 31.0294 46.4464 27.8857 46.4464 27.8857C45.8314 30.469 47.0751 36.7563 48.77 37.4943C50.4648 38.2324 52.1596 36.5786 52.1596 35.1024C53.0891 37.3166 53.2667 40.5969 52.351 42.2508" stroke="#8A8CCE" stroke-width="1.5" stroke-miterlimit="10" stroke-linejoin="bevel"/>
</svg>
