<svg id="Слой_1" data-name="Слой 1" xmlns="http://www.w3.org/2000/svg" viewBox="0 0 72 72"><defs><style>.cls-1{fill:#8a8cce;}</style></defs><title>fire-dept-4</title><path class="cls-1" d="M11.81,31l-1.4-.53c1.13-3,1.13-3,2.19-6.17l0.71-.51,4.33,0c0.81-2.19.87-2.36,1.88-5l0.7-.48h9.5v1.5h-9c-0.89,2.32-.95,2.47-1.86,5l-0.7.49-4.32,0C12.95,28.06,12.89,28.22,11.81,31Z"/><rect class="cls-1" x="46.54" y="45.67" width="28.37" height="1.5" transform="translate(7.22 101.01) rotate(-82.97)"/><path class="cls-1" d="M59.22,61.37H10l-0.69-.45a12.67,12.67,0,0,1-.53-1.55L1.88,33.42c-0.33-1.26-.61-2.51-0.61-2.51L2,30H16.89l0.73,0.58s0.19,0.79.49,1.92l0.63,2.4c0.1,0.36.2,0.69,0.28,0.93H31.88v1.5H18.48l-0.7-.49s-0.25-.67-0.49-1.55l-0.63-2.4c-0.15-.56-0.28-1-0.36-1.38H2.94c0.1,0.44.24,1,.38,1.53L10.27,59c0.1,0.35.2,0.66,0.28,0.89H58.24L53.47,41.79l1.45-.38,5,19Z"/><path class="cls-1" d="M41.62,56.5H20.53l-0.72-.56L17.09,45.81l0.72-.94h21l0.72,0.55,2.82,10.14ZM21.11,55H40.64l-2.4-8.64H18.79Z"/><path class="cls-1" d="M46,44.37A18.39,18.39,0,1,1,59,39h0A18.35,18.35,0,0,1,46,44.37Zm0-35.3a16.91,16.91,0,1,0,12,28.86h0A16.9,16.9,0,0,0,46,9.07Z"/><path class="cls-1" d="M36.71,41.53c-2-3-1.23-7.69-.53-11.83,0.51-3.06,1-5.95.27-7.49l1.08-1c1.3,0.81,3.31,4.41,4.35,7.23A24.78,24.78,0,0,0,42.54,23c0.17-3.41.37-7.27,2.79-11.19l1.38,0.53c-1.4,7.75.59,10.42,2.2,12.57a10.47,10.47,0,0,1,1.23,1.92l0.13-.32c1.58-4,2.82-6.86,4.47-7.26l0.81,1.13c-1.59,2.54-.72,6.17.21,10s1.82,7.52.5,10.67l-1.38-.58c1.13-2.69.26-6.27-.58-9.73a27.89,27.89,0,0,1-1.12-7.32c-0.57,1.21-1.11,2.59-1.53,3.64A26.24,26.24,0,0,1,50,30.79l-1.33-.68c0.77-1.93.15-2.76-1-4.27a12.85,12.85,0,0,1-3-8.73,31.18,31.18,0,0,0-.7,6c-0.14,2.85-.28,5.55-1.62,8L41,30.91a21.68,21.68,0,0,0-2.71-6.34A37.82,37.82,0,0,1,37.65,30C37,33.81,36.27,38.19,38,40.7Z"/><path class="cls-1" d="M41.37,43.69c-2.12-2.33-1.46-8.22-1.11-9.07l1.41,0.05a2.16,2.16,0,0,0,1.73,1.69c0.41-.06.9-0.82,0.94-2.74a19.67,19.67,0,0,1,1.42-6l1.42,0.46c-0.62,2.6.78,8.26,1.89,8.75a1.45,1.45,0,0,0,1.41-.16,2,2,0,0,0,.93-1.55l1.44-.29c0.93,2.21,1.25,5.82.16,7.8l-1.31-.73a7.77,7.77,0,0,0,.32-4.6,3.64,3.64,0,0,1-.71.61,3,3,0,0,1-2.83.28c-1.26-.55-2.15-2.85-2.59-5.24,0,0.24,0,.47,0,0.7-0.06,3.38-1.42,4.08-2.22,4.2A2.67,2.67,0,0,1,41.4,37c-0.1,1.85,0,4.54,1.08,5.68Z"/></svg>