<svg id="Слой_1" data-name="Слой 1" xmlns="http://www.w3.org/2000/svg" viewBox="0 0 72 72"><defs><style>.cls-1{fill:#8a8cce;}</style></defs><title>fire-dept-1</title><path class="cls-1" d="M32.12,67.83H31.86a2.75,2.75,0,0,1-.58-0.11L21.81,65a3,3,0,0,1-2-3.66l0.92-3.13a26.71,26.71,0,0,1-4.06-3.25l-2.85,1.57a2.94,2.94,0,0,1-2.25.24A3,3,0,0,1,9.8,55.3L5,46.63a2.92,2.92,0,0,1-.25-2.25,3,3,0,0,1,1.42-1.75l2.85-1.57a27.32,27.32,0,0,1-.57-5.18L5.36,35a3,3,0,0,1-2-3.66l2.76-9.49A3,3,0,0,1,7.55,20,2.94,2.94,0,0,1,9.8,19.8l3.12,0.92a27.4,27.4,0,0,1,3.27-4.06L14.62,13.8a3,3,0,0,1-.24-2.25A3,3,0,0,1,15.8,9.79L24.47,5a2.92,2.92,0,0,1,2.25-.25A3,3,0,0,1,28.47,6.2L30,9.09a27.36,27.36,0,0,1,5.18-.57l0.92-3.13a3,3,0,0,1,1.42-1.77,2.92,2.92,0,0,1,2.25-.24l9.49,2.76a3,3,0,0,1,2,3.66l-0.92,3.13a26.69,26.69,0,0,1,4.06,3.25l2.85-1.57a2.94,2.94,0,0,1,2.25-.24,3,3,0,0,1,1.75,1.42L66,24.46a2.91,2.91,0,0,1,.24,2.24,2.94,2.94,0,0,1-1.41,1.75L62,30a26.54,26.54,0,0,1,.57,5.18l3.13,0.92a3,3,0,0,1,1.77,1.42,2.93,2.93,0,0,1,.24,2.25L65,49.27a3,3,0,0,1-3.66,2h0l-3.13-.93A27.4,27.4,0,0,1,54.9,54.4l1.57,2.85a3,3,0,0,1-1.17,4L46.63,66a2.92,2.92,0,0,1-2.25.25,3,3,0,0,1-1.75-1.42L41.06,62a26.68,26.68,0,0,1-5.18.57L35,65.7A3,3,0,0,1,32.12,67.83ZM16.44,53.32l0.9,0.13A25.12,25.12,0,0,0,22,57.19L22.32,58l-1.07,3.67a1.45,1.45,0,0,0,1,1.8l9.48,2.76a1.43,1.43,0,0,0,.29.05,1.46,1.46,0,0,0,1.52-1.05l1.07-3.67,0.73-.54a24.41,24.41,0,0,0,5.95-.65l0.83,0.37,1.84,3.35a1.49,1.49,0,0,0,.87.7,1.43,1.43,0,0,0,1.09-.13L54.58,60a1.47,1.47,0,0,0,.58-2l-1.84-3.34,0.13-.9a25.93,25.93,0,0,0,3.76-4.67l0.85-.32,3.67,1.09a1.45,1.45,0,0,0,1.8-1l2.76-9.48a1.46,1.46,0,0,0-1-1.8l-3.67-1.07-0.54-.73a25,25,0,0,0-.66-5.95L60.8,29l3.35-1.84a1.45,1.45,0,0,0,.7-0.87,1.42,1.42,0,0,0-.12-1.09L60,16.5a1.49,1.49,0,0,0-.87-0.7,1.45,1.45,0,0,0-1.09.13l-3.35,1.84-0.9-.13a25.15,25.15,0,0,0-4.67-3.74L48.77,13l1.08-3.67a1.47,1.47,0,0,0-1-1.8L39.38,4.81a1.44,1.44,0,0,0-1.1.12,1.48,1.48,0,0,0-.7.88L36.5,9.47,35.77,10a25.58,25.58,0,0,0-6,.66L29,10.3,27.15,6.92a1.48,1.48,0,0,0-.87-0.7,1.44,1.44,0,0,0-1.1.13L16.52,11.1a1.48,1.48,0,0,0-.7.88,1.45,1.45,0,0,0,.12,1.1l1.84,3.34-0.13.9A25.86,25.86,0,0,0,13.89,22L13,22.31,9.37,21.24a1.45,1.45,0,0,0-1.1.12,1.48,1.48,0,0,0-.7.88L4.81,31.72a1.47,1.47,0,0,0,1,1.81L9.46,34.6,10,35.33a25.82,25.82,0,0,0,.66,6l-0.37.82L6.93,43.95a1.49,1.49,0,0,0-.7.87,1.43,1.43,0,0,0,.13,1.09l4.76,8.67a1.48,1.48,0,0,0,.88.7,1.45,1.45,0,0,0,1.1-.12Z"/><path class="cls-1" d="M35.53,55.69q-0.95,0-1.91-.09a19.46,19.46,0,0,1-3.73-.72A20.15,20.15,0,1,1,35.53,55.69Zm0-38.83a18.67,18.67,0,0,0-5.22,36.59,17.92,17.92,0,0,0,3.45.66A18.69,18.69,0,0,0,53.44,40.75,18.63,18.63,0,0,0,40.77,17.62h0A18.65,18.65,0,0,0,35.52,16.86Z"/><path class="cls-1" d="M46.67,52.33l-1.35-.66c1.36-2.76.6-6.61-.14-10.33-0.57-2.89-1.16-5.84-.8-8.43-0.77,1.32-1.52,2.94-2.11,4.23a25.64,25.64,0,0,1-2,3.81L39,40.19c0.91-2,.17-2.82-1.19-4.37a12.4,12.4,0,0,1-3.57-10.12A24.1,24.1,0,0,0,33,33c-0.17,3-.34,5.74-2,8.33l-1.37-.25a22.13,22.13,0,0,0-3.65-7,28.25,28.25,0,0,1-1,6.07c-1,4.12-2,8.38,0,10.95L23.91,52c-2.45-3.13-1.31-8-.31-12.21,0.74-3.13,1.44-6.09.57-7.66l1-1c1.54,0.81,4.19,4.8,5.42,7.87a20.29,20.29,0,0,0,.95-6c0.21-3.54.44-7.56,3.41-11.62l1.34,0.6c-1.69,8,.72,10.74,2.66,13a9.22,9.22,0,0,1,1.66,2.33l0.3-.66c1.91-4.13,3.41-7.08,5.32-7.48L47,30.21c-2,2.66-1.17,6.63-.33,10.84C47.44,45,48.26,49.11,46.67,52.33Z"/><path class="cls-1" d="M30.49,55c-2.58-2.41-2.2-9.21-1.76-10.12L30.1,45a2.61,2.61,0,0,0,2.34,1.79c0.73-.13,1.17-1.17,1.2-2.86a17.93,17.93,0,0,1,1.73-6.26l1.4,0.53c-0.7,2.49.86,8.48,2.35,9a2.31,2.31,0,0,0,2.15-.31,2,2,0,0,0,.94-1.46l1.42-.33c1.26,2.57,1.26,6.84,0,8.78l-1.26-.82c0.74-1.13.89-3.56,0.48-5.57a4.09,4.09,0,0,1-.72.64,3.78,3.78,0,0,1-3.53.48c-1.59-.59-2.77-3.48-3.25-6.29a9.06,9.06,0,0,0-.2,1.62c-0.07,3.39-1.56,4.15-2.45,4.31a3.41,3.41,0,0,1-2.79-1c0,2.09.27,5.42,1.6,6.66Z"/></svg>