<svg width="72" height="72" viewBox="0 0 72 72" fill="none" xmlns="http://www.w3.org/2000/svg">
<path d="M61.5126 50.5531C62.6796 50.8909 63.8926 50.2306 64.2458 49.0636L67.0096 39.5743C67.1785 39.0215 67.1018 38.4073 66.8254 37.9006C66.549 37.3939 66.073 37.01 65.5049 36.8411L61.835 35.7663C61.8504 33.7087 61.6354 31.6512 61.1594 29.6397L64.5068 27.7971C65.5663 27.2136 65.9655 25.8777 65.382 24.8182L60.622 16.1427C60.3456 15.636 59.8696 15.2521 59.3168 15.0832C58.7641 14.9143 58.1499 14.9911 57.6431 15.2674L54.2958 17.11C52.8524 15.636 51.2401 14.3461 49.4897 13.2559L50.5645 9.58612C50.9023 8.41915 50.2267 7.20611 49.0751 6.85295L39.5858 4.08906C39.0176 3.92015 38.4188 3.99693 37.9121 4.27332C37.4054 4.54971 37.0215 5.02571 36.8526 5.59384L35.7777 9.26367C33.7202 9.24831 31.6626 9.47864 29.6511 9.93929L27.8085 6.5612C27.5321 6.05449 27.0561 5.67062 26.5034 5.50171C25.9352 5.33281 25.3364 5.40958 24.8297 5.68597L16.1541 10.446C15.6474 10.7224 15.2636 11.1984 15.0946 11.7665C14.9257 12.3193 15.0025 12.9335 15.2789 13.4402L17.1215 16.7876C15.6474 18.2309 14.3576 19.8432 13.2521 21.5937L9.58223 20.5188C9.02945 20.3499 8.41526 20.4267 7.90854 20.7031C7.40183 20.9795 7.01796 21.4555 6.84905 22.0236L4.08517 31.513C3.74736 32.6799 4.42298 33.893 5.5746 34.2461L9.24442 35.321C9.22907 37.3785 9.45939 39.4361 9.92004 41.4476L6.57267 43.2902C6.06595 43.5666 5.68208 44.0426 5.51318 44.5954C5.34427 45.1635 5.42105 45.7623 5.69744 46.269L10.4575 54.9446C10.7338 55.4513 11.2099 55.8352 11.778 56.0041C12.3308 56.173 12.945 56.0962 13.4517 55.8198L16.799 53.9772C18.2424 55.4513 19.8547 56.7411 21.6051 57.8313L20.5303 61.5011C20.1925 62.6681 20.8527 63.8811 22.0197 64.2343L31.5091 66.9982C31.6473 67.0442 31.7855 67.0596 31.9236 67.075C32.9524 67.1671 33.9351 66.5222 34.2422 65.4934L35.3171 61.8236C37.3746 61.8389 39.4322 61.624 41.4437 61.148L43.2863 64.4953C43.5627 65.002 44.0387 65.3859 44.5915 65.5548C45.1596 65.7237 45.7584 65.6469 46.2651 65.3706L54.9407 60.6105C56.0002 60.027 56.3994 58.6912 55.8159 57.6163L53.9733 54.2689C55.4474 52.8256 56.7372 51.2133 57.8428 49.4629L61.5126 50.5531Z" stroke="#8A8CCE" stroke-width="1.5" stroke-miterlimit="10" stroke-linejoin="bevel"/>
<path d="M40.9845 16.8953C36.0095 15.4366 30.7581 16.0201 26.2131 18.5076C21.668 20.9951 18.3667 25.1102 16.908 30.0852C15.4493 35.0602 16.0328 40.3116 18.5203 44.8566C21.0078 49.4017 25.1229 52.703 30.0979 54.1617C31.2955 54.5149 32.4932 54.7452 33.6909 54.8527C42.781 55.7125 51.518 50.0312 54.159 40.9565C57.184 30.6994 51.2723 19.8895 40.9845 16.8953Z" stroke="#8A8CCE" stroke-width="1.5" stroke-miterlimit="10" stroke-linejoin="bevel"/>
<path d="M24.4995 51.4995C20.5072 46.4017 27.0995 35.8426 24.827 31.7275C26.4546 32.5874 29.8941 38.1305 30.4469 40.9251C33.8557 35.5202 30.4315 28.764 35.5601 21.7314C32.5351 35.9962 42.393 34.7064 39.6905 40.5105C41.2875 38.3455 43.8364 30.2995 46.3853 29.7621C42.2702 35.3513 49.0856 45.7193 45.9992 51.9995" stroke="#8A8CCE" stroke-width="1.5" stroke-miterlimit="10" stroke-linejoin="bevel"/>
<path d="M30.9991 54.5C28.7572 52.4117 29.034 46.0153 29.4025 45.2629C30.3392 47.735 34.2854 49.3319 34.3929 43.9424C34.4543 41.2552 36.0512 38 36.0512 38C35.2988 40.6718 36.819 47.1822 38.8612 47.9346C40.9034 48.7024 42.9609 46.9826 42.9609 45.4625C44.0818 47.7504 44.1199 51.7802 42.999 53.5" stroke="#8A8CCE" stroke-width="1.5" stroke-miterlimit="10" stroke-linejoin="bevel"/>
</svg>
