<svg width="72" height="72" viewBox="0 0 72 72" fill="none" xmlns="http://www.w3.org/2000/svg">
<path d="M41.9709 20.9438V5L58.2714 20.9438H41.9709Z" stroke="#8A8CCE" stroke-width="1.5" stroke-miterlimit="10" stroke-linejoin="bevel"/>
<path d="M58.2712 27.8681V20.9438L41.9707 5H13.9316C13.0995 5 12.416 5.66866 12.416 6.48591V64.6741C12.416 65.4913 13.0995 66.16 13.9316 66.16H56.7704C57.6025 66.16 58.286 65.4913 58.286 64.6741V57.8389" stroke="#8A8CCE" stroke-width="1.5" stroke-miterlimit="10" stroke-linejoin="bevel"/>
<path d="M42.5049 55.833H18.9087" stroke="#8A8CCE" stroke-width="1.5" stroke-miterlimit="10" stroke-linejoin="bevel"/>
<path d="M37.0071 49.0879H18.9087" stroke="#8A8CCE" stroke-width="1.5" stroke-miterlimit="10" stroke-linejoin="bevel"/>
<path d="M35.9966 42.3262H18.9087" stroke="#8A8CCE" stroke-width="1.5" stroke-miterlimit="10" stroke-linejoin="bevel"/>
<path d="M37.7054 35.5801H18.9087" stroke="#8A8CCE" stroke-width="1.5" stroke-miterlimit="10" stroke-linejoin="bevel"/>
<path d="M44.0948 28.834H18.9087" stroke="#8A8CCE" stroke-width="1.5" stroke-miterlimit="10" stroke-linejoin="bevel"/>
<path d="M38.1512 22.0732H18.9087" stroke="#8A8CCE" stroke-width="1.5" stroke-miterlimit="10" stroke-linejoin="bevel"/>
<path d="M37.3934 15.3271H18.9087" stroke="#8A8CCE" stroke-width="1.5" stroke-miterlimit="10" stroke-linejoin="bevel"/>
<path d="M68.4292 45.4452C69.8609 36.6236 63.8703 28.3117 55.0487 26.8801C46.2272 25.4484 37.9153 31.4391 36.4836 40.2606C35.052 49.0821 41.0426 57.394 49.8642 58.8257C58.6857 60.2574 66.9976 54.2667 68.4292 45.4452Z" stroke="#8A8CCE" stroke-width="1.5" stroke-miterlimit="10" stroke-linejoin="bevel"/>
<path d="M52.5 33L55.194 39.2552L62 39.8796L56.8601 44.3678L58.3725 51L52.5 47.5249L46.6275 51L48.1399 44.3678L43 39.8796L49.806 39.2552L52.5 33Z" stroke="#8A8CCE" stroke-width="1.5" stroke-miterlimit="10" stroke-linejoin="bevel"/>
</svg>
