<svg width="72" height="72" viewBox="0 0 72 72" fill="none" xmlns="http://www.w3.org/2000/svg">
<path fill-rule="evenodd" clip-rule="evenodd" d="M36 4.75C18.7411 4.75 4.75 18.7411 4.75 36C4.75 53.2589 18.7411 67.25 36 67.25C53.2589 67.25 67.25 53.2589 67.25 36C67.25 18.7411 53.2589 4.75 36 4.75ZM3.25 36C3.25 17.9127 17.9127 3.25 36 3.25C54.0873 3.25 68.75 17.9127 68.75 36C68.75 54.0873 54.0873 68.75 36 68.75C17.9127 68.75 3.25 54.0873 3.25 36ZM34.4681 7.41922C34.9753 7.39245 35.4861 7.37891 35.9999 7.37891C36.5137 7.37891 37.0244 7.39245 37.5317 7.41922L37.4527 8.91713C36.9717 8.89176 36.4873 8.87891 35.9999 8.87891C35.5124 8.87891 35.0281 8.89176 34.5471 8.91713L34.4681 7.41922ZM30.415 7.92366C31.4085 7.7271 32.4205 7.58199 33.4478 7.49118L33.5799 8.98535C32.6061 9.07143 31.6473 9.20894 30.7061 9.39514L30.415 7.92366ZM38.5519 7.49118C39.5793 7.58199 40.5912 7.7271 41.5848 7.92366L41.2937 9.39514C40.3525 9.20894 39.3936 9.07143 38.4198 8.98535L38.5519 7.49118ZM26.475 9.00225C27.4329 8.66432 28.4141 8.37591 29.4156 8.1401L29.7593 9.60017C28.8107 9.82354 27.8813 10.0967 26.9741 10.4168L26.475 9.00225ZM42.5842 8.1401C43.5857 8.37591 44.5669 8.66432 45.5247 9.00225L45.0257 10.4168C44.1184 10.0967 43.189 9.82354 42.2404 9.60017L42.5842 8.1401ZM22.7307 10.6343C23.6323 10.1617 24.5622 9.73573 25.5173 9.35962L26.0669 10.7553C25.1623 11.1116 24.2813 11.5151 23.4271 11.9628L22.7307 10.6343ZM46.4824 9.35962C47.4375 9.73573 48.3675 10.1617 49.2691 10.6343L48.5727 11.9628C47.7185 11.5151 46.8375 11.1116 45.9328 10.7553L46.4824 9.35962ZM19.2582 12.7837C20.0847 12.1866 20.9445 11.6325 21.8342 11.1248L22.5777 12.4276C21.7347 12.9087 20.9199 13.4337 20.1365 13.9996L19.2582 12.7837ZM50.1655 11.1248C51.0552 11.6325 51.915 12.1866 52.7416 12.7837L51.8632 13.9996C51.0798 13.4337 50.2651 12.9087 49.4221 12.4276L50.1655 11.1248ZM16.1262 15.4038C16.8609 14.6947 17.6336 14.0245 18.4407 13.3966L19.3618 14.5805C18.5967 15.1757 17.8644 15.8109 17.1679 16.4831L16.1262 15.4038ZM53.559 13.3966C54.3662 14.0245 55.1388 14.6947 55.8736 15.4038L54.8319 16.4831C54.1354 15.8109 53.403 15.1757 52.638 14.5805L53.559 13.3966ZM13.3966 18.4407C14.0245 17.6336 14.6947 16.8609 15.4038 16.1262L16.4831 17.1679C15.8109 17.8644 15.1757 18.5967 14.5805 19.3617L13.3966 18.4407ZM56.596 16.1262C57.3051 16.8609 57.9753 17.6336 58.6032 18.4407L57.4193 19.3618C56.8241 18.5967 56.1888 17.8644 55.5166 17.1679L56.596 16.1262ZM11.1248 21.8342C11.6325 20.9445 12.1866 20.0847 12.7837 19.2582L13.9996 20.1365C13.4337 20.9199 12.9087 21.7347 12.4276 22.5777L11.1248 21.8342ZM59.2161 19.2582C59.8132 20.0847 60.3672 20.9445 60.8749 21.8342L59.5722 22.5777C59.0911 21.7347 58.566 20.9199 58.0001 20.1365L59.2161 19.2582ZM9.35962 25.5173C9.73573 24.5622 10.1617 23.6323 10.6343 22.7307L11.9628 23.4271C11.5151 24.2813 11.1116 25.1622 10.7553 26.0669L9.35962 25.5173ZM61.3655 22.7307C61.8381 23.6323 62.264 24.5622 62.6401 25.5173L61.2444 26.0669C60.8882 25.1623 60.4847 24.2813 60.0369 23.4271L61.3655 22.7307ZM8.1401 29.4156C8.37591 28.4141 8.66432 27.4329 9.00225 26.475L10.4168 26.9741C10.0967 27.8813 9.82354 28.8107 9.60017 29.7593L8.1401 29.4156ZM62.9975 26.475C63.3354 27.4329 63.6238 28.4141 63.8596 29.4156L62.3996 29.7593C62.1762 28.8107 61.903 27.8813 61.5829 26.9741L62.9975 26.475ZM7.49118 33.4478C7.58199 32.4205 7.7271 31.4085 7.92366 30.415L9.39514 30.7061C9.20894 31.6473 9.07143 32.6061 8.98535 33.5799L7.49118 33.4478ZM64.0761 30.415C64.2726 31.4085 64.4178 32.4205 64.5086 33.4478L63.0144 33.5799C62.9283 32.6061 62.7908 31.6473 62.6046 30.7061L64.0761 30.415ZM7.37891 35.9999C7.37891 35.4861 7.39245 34.9753 7.41922 34.4681L8.91713 34.5471C8.89176 35.0281 8.87891 35.5124 8.87891 35.9999C8.87891 36.4873 8.89176 36.9717 8.91713 37.4527L7.41922 37.5317C7.39245 37.0244 7.37891 36.5137 7.37891 35.9999ZM64.5805 34.4681C64.6073 34.9753 64.6208 35.4861 64.6208 35.9999C64.6208 36.5137 64.6073 37.0244 64.5805 37.5317L63.0826 37.4527C63.108 36.9717 63.1208 36.4873 63.1208 35.9999C63.1208 35.5124 63.108 35.0281 63.0826 34.5471L64.5805 34.4681ZM7.92366 41.5848C7.7271 40.5912 7.58199 39.5793 7.49118 38.5519L8.98535 38.4198C9.07143 39.3936 9.20894 40.3525 9.39514 41.2937L7.92366 41.5848ZM64.5086 38.5519C64.4178 39.5793 64.2726 40.5912 64.0761 41.5848L62.6046 41.2937C62.7908 40.3525 62.9283 39.3936 63.0144 38.4198L64.5086 38.5519ZM9.00225 45.5247C8.66432 44.5669 8.37591 43.5857 8.1401 42.5842L9.60017 42.2404C9.82354 43.189 10.0967 44.1184 10.4168 45.0257L9.00225 45.5247ZM63.8596 42.5842C63.6238 43.5857 63.3354 44.5669 62.9975 45.5247L61.5829 45.0257C61.903 44.1184 62.1762 43.189 62.3996 42.2404L63.8596 42.5842ZM10.6343 49.2691C10.1617 48.3675 9.73573 47.4375 9.35962 46.4824L10.7553 45.9328C11.1116 46.8375 11.5151 47.7185 11.9628 48.5727L10.6343 49.2691ZM62.6401 46.4824C62.264 47.4375 61.8381 48.3675 61.3655 49.2691L60.0369 48.5727C60.4847 47.7185 60.8882 46.8375 61.2444 45.9328L62.6401 46.4824ZM12.7837 52.7416C12.1866 51.915 11.6325 51.0552 11.1248 50.1655L12.4276 49.4221C12.9087 50.2651 13.4337 51.0798 13.9996 51.8632L12.7837 52.7416ZM60.8749 50.1655C60.3672 51.0552 59.8132 51.915 59.2161 52.7416L58.0001 51.8632C58.566 51.0798 59.0911 50.2651 59.5722 49.4221L60.8749 50.1655ZM15.4038 55.8736C14.6947 55.1388 14.0245 54.3662 13.3966 53.559L14.5805 52.638C15.1757 53.403 15.8109 54.1354 16.4831 54.8319L15.4038 55.8736ZM58.6032 53.559C57.9753 54.3662 57.3051 55.1388 56.5959 55.8736L55.5166 54.8319C56.1888 54.1354 56.8241 53.403 57.4192 52.638L58.6032 53.559ZM18.4407 58.6032C17.6336 57.9753 16.8609 57.3051 16.1262 56.5959L17.1679 55.5166C17.8644 56.1888 18.5967 56.8241 19.3617 57.4192L18.4407 58.6032ZM55.8736 56.596C55.1388 57.3051 54.3662 57.9753 53.559 58.6032L52.638 57.4193C53.403 56.8241 54.1354 56.1888 54.8319 55.5166L55.8736 56.596ZM21.8342 60.8749C20.9445 60.3672 20.0847 59.8132 19.2582 59.2161L20.1365 58.0001C20.9199 58.566 21.7347 59.0911 22.5777 59.5722L21.8342 60.8749ZM52.7416 59.2161C51.915 59.8132 51.0552 60.3672 50.1655 60.8749L49.4221 59.5722C50.2651 59.0911 51.0798 58.566 51.8632 58.0001L52.7416 59.2161ZM25.5173 62.6401C24.5622 62.264 23.6323 61.8381 22.7307 61.3655L23.4271 60.0369C24.2813 60.4847 25.1622 60.8882 26.0669 61.2444L25.5173 62.6401ZM49.2691 61.3655C48.3675 61.8381 47.4375 62.264 46.4824 62.6401L45.9328 61.2444C46.8375 60.8882 47.7185 60.4847 48.5727 60.0369L49.2691 61.3655ZM29.4156 63.8596C28.4141 63.6238 27.4329 63.3354 26.475 62.9975L26.9741 61.5829C27.8813 61.903 28.8107 62.1762 29.7593 62.3996L29.4156 63.8596ZM45.5247 62.9975C44.5669 63.3354 43.5857 63.6238 42.5842 63.8596L42.2404 62.3996C43.189 62.1762 44.1184 61.903 45.0257 61.5829L45.5247 62.9975ZM33.4478 64.5086C32.4205 64.4178 31.4085 64.2726 30.415 64.0761L30.7061 62.6046C31.6473 62.7908 32.6061 62.9283 33.5799 63.0144L33.4478 64.5086ZM41.5848 64.0761C40.5912 64.2726 39.5793 64.4178 38.5519 64.5086L38.4198 63.0144C39.3936 62.9283 40.3525 62.7908 41.2937 62.6046L41.5848 64.0761ZM35.9999 64.6208C35.4861 64.6208 34.9753 64.6073 34.4681 64.5805L34.5471 63.0826C35.0281 63.108 35.5124 63.1208 35.9999 63.1208C36.4873 63.1208 36.9717 63.108 37.4527 63.0826L37.5317 64.5805C37.0244 64.6073 36.5137 64.6208 35.9999 64.6208ZM42.1908 33.5686V27.708C42.1908 26.2429 41.888 25.1995 41.2824 24.578C40.6984 23.9342 39.7468 23.6123 38.4275 23.6123H32.6203V35.4333H30.8359V38.0972H32.6203V39.0962H30.8359V41.7601H32.6203V48.3865H36.2863V41.7601H39.6927V39.0962H36.2863V38.0972H38.4275C40.9363 38.0972 42.1908 36.5877 42.1908 33.5686ZM36.2863 34.8672V26.9755H37.2271C37.7245 26.9755 38.0598 27.1198 38.2328 27.4083C38.4058 27.6969 38.4923 28.1187 38.4923 28.6737V33.0691C38.4923 33.6685 38.4058 34.1236 38.2328 34.4344C38.0814 34.723 37.7462 34.8672 37.2271 34.8672H36.2863Z" fill="#8A8CCE"/>
</svg>
