<svg width="72" height="72" viewBox="0 0 72 72" fill="none" xmlns="http://www.w3.org/2000/svg">
<path d="M44 15L55 26H44V15Z" stroke="#8A8CCE" stroke-width="1.5" stroke-miterlimit="10" stroke-linejoin="bevel"/>
<path d="M44.3196 15.0002L16.3081 15C16.3081 15 16.3081 15.5597 16.3081 16.2474L16.3661 62.2227C16.3661 62.9103 16.3661 63.47 16.3661 63.47H54.8903C54.8903 63.47 54.8903 62.9103 54.8903 62.2227V25.5055L44.3196 15.0002Z" stroke="#8A8CCE" stroke-width="1.5" stroke-miterlimit="10" stroke-linejoin="bevel"/>
<path d="M47.7738 8.39355H59V67.5152H12.24V8.39355H23.4662" stroke="#8A8CCE" stroke-width="1.5" stroke-miterlimit="10" stroke-linejoin="bevel"/>
<path d="M48 6H23V10H48V6Z" stroke="#8A8CCE" stroke-width="1.5" stroke-miterlimit="10" stroke-linejoin="bevel"/>
<path d="M27 22H21V28H27V22Z" stroke="#8A8CCE" stroke-width="1.5" stroke-miterlimit="10" stroke-linejoin="bevel"/>
<path d="M27 36H21V42H27V36Z" stroke="#8A8CCE" stroke-width="1.5" stroke-miterlimit="10" stroke-linejoin="bevel"/>
<path d="M27 51H21V57H27V51Z" stroke="#8A8CCE" stroke-width="1.5" stroke-miterlimit="10" stroke-linejoin="bevel"/>
<path d="M31.6858 28H41.5527" stroke="#8A8CCE" stroke-width="1.5" stroke-miterlimit="10" stroke-linejoin="bevel"/>
<path d="M31.6858 42H51.8354" stroke="#8A8CCE" stroke-width="1.5" stroke-miterlimit="10" stroke-linejoin="bevel"/>
<path d="M31.4941 57H51.6278" stroke="#8A8CCE" stroke-width="1.5" stroke-miterlimit="10" stroke-linejoin="bevel"/>
</svg>
