<svg id="Слой_1" data-name="Слой 1" xmlns="http://www.w3.org/2000/svg" viewBox="0 0 72 72"><defs><style>.cls-1{fill:#8a8cce;}</style></defs><title>hr-2</title><path class="cls-1" d="M41.07,66.61a6.65,6.65,0,0,1-1.26-.13h0l-0.24-.05c-12.1-3.07-22.68-5.74-28.27-7.13l-0.64-.22a23.14,23.14,0,0,0-5-.85,1.94,1.94,0,0,1-1.94-1.94V55.55a2.11,2.11,0,0,1,0-.27v-10A2.19,2.19,0,0,1,4,43.93l0.06-.09a2,2,0,0,1,1.55-.78c3,0,5.1-1.55,7.52-3.36,0.56-.42,1.11-0.82,1.69-1.23a16.54,16.54,0,0,1,9.88-3.41c1.78,0,3.23,0,4.39.06h8.92a4.3,4.3,0,1,1,0,8.59h-8.2a1.62,1.62,0,0,0-1.24,1.58,1.59,1.59,0,0,0,.67,1.31l0.81,0.21,2.15,0.57c1,0.23,2.06.51,3.17,0.84l0.2,0c5.3,1.41,7.35,1.93,8.08,2.12l0.09,0h0.3l12.85-8.33,2.48-1.78,0.32-.18L59.87,40a6.45,6.45,0,0,1,.88-0.37,5.86,5.86,0,0,1,.74-0.17,5.14,5.14,0,0,1,1.84,0,5.72,5.72,0,0,1,3.42,9.73l0,0-0.08.09,0,0a6.41,6.41,0,0,1-1.24.91L43.93,65.88a2.2,2.2,0,0,1-.5.27l-0.22.08h0A6.6,6.6,0,0,1,41.07,66.61Zm-1-1.6h0a4.69,4.69,0,0,0,2.6-.19l0.18-.07,0.18-.09L64.68,49a4.88,4.88,0,0,0,1-.71l0-.05a4.18,4.18,0,0,0,1.24-3A4.23,4.23,0,0,0,63.1,41a3.78,3.78,0,0,0-1.38,0,4.39,4.39,0,0,0-.51.12,4.92,4.92,0,0,0-.64.27l-0.15.08-0.17.09-0.1.06-2.38,1.72-13,8.45-0.29.11a4.26,4.26,0,0,1-.83,0l-0.3-.06c-0.73-.19-2.79-0.71-8.08-2.12L35,49.67q-1.66-.48-3.14-0.83l-2.17-.58-1.12-.33a3.12,3.12,0,0,1,1-5.71l0.15,0h8.28a2.8,2.8,0,1,0,0-5.59H29.12c-1.17,0-2.61-.06-4.38-0.06a15.15,15.15,0,0,0-9,3.14c-0.57.4-1.1,0.79-1.65,1.2-2.52,1.88-4.9,3.65-8.41,3.65a0.46,0.46,0,0,0-.33.15,0.65,0.65,0,0,0-.06.38V56.28a0.43,0.43,0,0,0,.44.44,25.61,25.61,0,0,1,5.4.92l0.6,0.21c5.55,1.37,16.13,4,28.26,7.12Z"/><path class="cls-1" d="M41.34,23.51A9.12,9.12,0,0,1,34.89,7.93a9,9,0,0,1,6.45-2.68,9.12,9.12,0,0,1,6.45,15.58A9,9,0,0,1,41.34,23.51Zm0-16.76a7.65,7.65,0,0,0-7.63,7.63A7.64,7.64,0,0,0,41.34,22,7.65,7.65,0,0,0,49,14.38,7.64,7.64,0,0,0,41.34,6.75Z"/><path class="cls-1" d="M51.72,39.81H41.61v-1.5H51.72a0.45,0.45,0,0,0,.45-0.42c0-.09.28-7.63-4.39-11.91a0.5,0.5,0,0,0-.61,0h0c-0.77.56-6.21,4.16-11.32,0a0.46,0.46,0,0,0-.6,0,16.33,16.33,0,0,0-4.6,10l-1.49-.16a17.64,17.64,0,0,1,5.09-11,2,2,0,0,1,2.55-.05c4.55,3.7,9.42,0,9.47,0a2,2,0,0,1,2.52.09c5.2,4.77,4.89,13,4.89,13.08A2,2,0,0,1,51.72,39.81Z"/></svg>