<svg width="72" height="72" viewBox="0 0 72 72" fill="none" xmlns="http://www.w3.org/2000/svg">
<path d="M4.52005 45.2239L4.50575 55.2768C4.50575 55.3483 4.50575 55.4198 4.52005 55.4913V56.2778C4.52005 56.9356 5.04915 57.4647 5.70695 57.4647C6.76516 57.4647 8.56696 57.7793 10.9265 58.3656L11.3555 58.5229C11.3984 58.5372 11.4413 58.5515 11.4842 58.5658C16.3319 59.767 26.1131 62.2266 39.784 65.7015L39.8841 65.7301C39.9127 65.7301 39.9269 65.7444 39.9555 65.7444C40.3273 65.8159 40.6992 65.8588 41.071 65.8588C41.6716 65.8588 42.2865 65.7444 42.93 65.5299C42.9443 65.5299 42.9729 65.5156 42.9872 65.5156L43.1588 65.4441C43.2732 65.4012 43.3876 65.344 43.4877 65.2725L65.0378 49.6426C65.4382 49.4281 65.81 49.1421 66.1675 48.8132C66.1961 48.7989 66.2104 48.7703 66.2247 48.7417C67.1685 47.7979 67.6833 46.5538 67.6833 45.2382C67.6833 42.6642 65.7528 40.5335 63.1788 40.2761C62.6926 40.176 62.2064 40.1617 61.6201 40.2475C61.377 40.2904 61.1768 40.3333 60.9909 40.3905C60.7335 40.4763 60.4904 40.5764 60.233 40.7051C60.1043 40.7766 59.9756 40.8338 59.8612 40.9053C59.8183 40.9339 59.7611 40.9625 59.7182 40.9911L57.3444 42.7071L44.3457 51.1298C44.1598 51.1584 43.931 51.1727 43.6736 51.1584C43.1159 51.0154 41.1854 50.5292 35.4367 48.9991L35.2079 48.9419C34.1783 48.6416 33.1058 48.3556 32.0619 48.1125C30.589 47.7264 29.4307 47.4118 28.9874 47.2974C28.2867 46.8684 27.872 46.1105 27.872 45.2954C27.872 44.1514 28.6728 43.1933 29.7739 42.9645H38.0537C40.0128 42.9645 41.6001 41.3772 41.6001 39.4181C41.6001 37.459 40.0128 35.8717 38.0537 35.8717H29.1161C27.9578 35.8431 26.5135 35.8145 24.7403 35.8145C20.5504 35.8145 17.6046 37.4733 15.288 39.0892C14.716 39.4896 14.1726 39.89 13.6149 40.3047C11.0838 42.1923 8.89586 43.8082 5.64975 43.8082C5.27795 43.8082 4.92045 43.9941 4.69165 44.2944C4.53435 44.5804 4.46285 44.9093 4.52005 45.2239Z" stroke="#8A8CCE" stroke-width="1.5" stroke-miterlimit="10" stroke-linejoin="bevel"/>
<path d="M41.3427 22.7596C43.5878 22.7596 45.6899 21.8873 47.2629 20.3C48.8502 18.7127 49.7225 16.6106 49.7225 14.3798C49.7225 9.76091 45.9616 6 41.3427 6C39.1119 6 36.9955 6.8723 35.4225 8.45961C33.8352 10.0469 32.9629 12.149 32.9629 14.3798C32.9629 18.9987 36.7238 22.7596 41.3427 22.7596Z" stroke="#8A8CCE" stroke-width="1.5" stroke-miterlimit="10" stroke-linejoin="bevel"/>
<path d="M41.6146 39.0625H51.7247C52.3682 39.0625 52.9116 38.5477 52.9259 37.9042C52.9402 37.5753 53.1404 29.8675 48.2927 25.4202C47.8494 25.0341 47.2059 25.0055 46.734 25.3487C46.6911 25.3916 41.3143 29.4242 36.3235 25.363C35.8659 24.9912 35.2224 24.9912 34.7648 25.3773C34.5932 25.5346 30.6464 29.0524 29.9028 35.8879" stroke="#8A8CCE" stroke-width="1.5" stroke-miterlimit="10" stroke-linejoin="bevel"/>
</svg>
