<svg id="Слой_1" data-name="Слой 1" xmlns="http://www.w3.org/2000/svg" viewBox="0 0 72 72"><defs><style>.cls-1{fill:#8a8cce;}</style></defs><title>hr-3</title><path class="cls-1" d="M58.13,20.29H41.21l-0.75-.75V3l1.27-.54L58.65,19ZM42,18.79H56.29L42,4.78v14Z"/><polygon class="cls-1" points="58.13 67.25 10.51 67.25 9.76 66.5 9.76 3 10.51 2.25 41.2 2.25 41.73 2.46 58.65 19 58.88 19.54 58.88 26.73 57.38 26.73 57.38 19.86 40.9 3.75 11.26 3.75 11.26 65.75 57.38 65.75 57.38 57.85 58.88 57.85 58.88 66.5 58.13 67.25"/><rect class="cls-1" x="17.26" y="55.02" width="24.5" height="1.5"/><rect class="cls-1" x="17.26" y="48.02" width="18.79" height="1.5"/><rect class="cls-1" x="17.26" y="41.01" width="17.73" height="1.5"/><rect class="cls-1" x="17.26" y="33.99" width="19.52" height="1.5"/><rect class="cls-1" x="17.26" y="26.98" width="26.15" height="1.5"/><rect class="cls-1" x="17.26" y="19.97" width="19.98" height="1.5"/><rect class="cls-1" x="17.26" y="12.96" width="19.19" height="1.5"/><path class="cls-1" d="M51.79,59.85A17.55,17.55,0,1,1,69.11,45.11h0A17.58,17.58,0,0,1,51.79,59.85Zm0-33.61a16.1,16.1,0,1,0,2.61.21A16.27,16.27,0,0,0,51.75,26.24Z"/><path class="cls-1" d="M52.08,50.59A11.81,11.81,0,0,1,48.41,50c-3.54-1.17-9.65-6.71-9.91-6.95V42c0.28-.27,7-6.7,11.17-7.68a10.84,10.84,0,0,1,5.65.2c3.74,1.12,6.27,3.43,8.94,5.87,0.58,0.53,1.16,1.06,1.76,1.59v1.14l-1.27,1.09c-2.63,2.27-5.34,4.61-8.81,5.79A11.87,11.87,0,0,1,52.08,50.59Zm-12-8.1c1.63,1.42,6.13,5.22,8.76,6.09a10.28,10.28,0,0,0,6.55,0c3.19-1.09,5.68-3.23,8.31-5.5l0.62-.54-1.14-1c-2.54-2.33-4.94-4.52-8.35-5.54h0A9.37,9.37,0,0,0,50,35.74C46.88,36.47,41.83,40.91,40.11,42.49Z"/><path class="cls-1" d="M52.05,47.68a5.4,5.4,0,1,1,5.4-5.4A5.41,5.41,0,0,1,52.05,47.68Zm0-9.3a3.9,3.9,0,1,0,3.9,3.9A3.91,3.91,0,0,0,52.05,38.38Z"/><path class="cls-1" d="M52.05,44a1.76,1.76,0,1,0-1.76-1.76A1.76,1.76,0,0,0,52.05,44Z"/></svg>