<svg width="72" height="72" viewBox="0 0 72 72" fill="none" xmlns="http://www.w3.org/2000/svg">
<path d="M41.2053 19.5406V3L58.1285 19.5406H41.2053Z" stroke="#8A8CCE" stroke-width="1.5" stroke-miterlimit="10" stroke-linejoin="bevel"/>
<path d="M58.1283 26.7326V19.541L41.2052 3.00043H12.087C11.2148 3.00043 10.511 3 10.511 3V66.5004C10.511 66.5004 11.2148 66.5004 12.087 66.5004H56.5523C57.4245 66.5004 58.1283 66.5004 58.1283 66.5004V57.8552" stroke="#8A8CCE" stroke-width="1.5" stroke-miterlimit="10" stroke-linejoin="bevel"/>
<path d="M41.756 55.7744H17.2588" stroke="#8A8CCE" stroke-width="1.5" stroke-miterlimit="10" stroke-linejoin="bevel"/>
<path d="M36.0487 48.7666H17.2588" stroke="#8A8CCE" stroke-width="1.5" stroke-miterlimit="10" stroke-linejoin="bevel"/>
<path d="M34.9929 41.7578H17.2588" stroke="#8A8CCE" stroke-width="1.5" stroke-miterlimit="10" stroke-linejoin="bevel"/>
<path d="M36.7831 34.7354H17.2588" stroke="#8A8CCE" stroke-width="1.5" stroke-miterlimit="10" stroke-linejoin="bevel"/>
<path d="M43.4085 27.7266H17.2588" stroke="#8A8CCE" stroke-width="1.5" stroke-miterlimit="10" stroke-linejoin="bevel"/>
<path d="M37.2422 20.7188H17.2588" stroke="#8A8CCE" stroke-width="1.5" stroke-miterlimit="10" stroke-linejoin="bevel"/>
<path d="M36.4465 13.7109H17.2588" stroke="#8A8CCE" stroke-width="1.5" stroke-miterlimit="10" stroke-linejoin="bevel"/>
<path d="M68.3697 44.9894C69.8562 35.8303 63.6363 27.2004 54.4772 25.7139C45.3181 24.2275 36.6882 30.4473 35.2017 39.6064C33.7153 48.7655 39.9352 57.3954 49.0942 58.8819C58.2533 60.3684 66.8833 54.1485 68.3697 44.9894Z" stroke="#8A8CCE" stroke-width="1.5" stroke-miterlimit="10" stroke-linejoin="bevel"/>
<path d="M55.0832 35.1947C53.3695 34.6745 51.5639 34.5979 49.8196 35.0111C45.8044 35.9531 39 42.5 39 42.5C39 42.5 45.2139 48.1548 48.6414 49.2871C50.9366 50.0369 53.3695 50.0216 55.6647 49.2412C59.5341 47.9251 62.4433 45.085 65.4999 42.5C62.2006 39.6128 59.4672 36.5006 55.0832 35.1947Z" stroke="#8A8CCE" stroke-width="1.5" stroke-miterlimit="10" stroke-linejoin="bevel"/>
<path d="M52.0539 46.9301C54.6229 46.9301 56.7055 44.8475 56.7055 42.2785C56.7055 39.7095 54.6229 37.627 52.0539 37.627C49.4849 37.627 47.4023 39.7095 47.4023 42.2785C47.4023 44.8475 49.4849 46.9301 52.0539 46.9301Z" stroke="#8A8CCE" stroke-width="1.5" stroke-miterlimit="10" stroke-linejoin="bevel"/>
<path d="M52.0538 44.0378C53.0256 44.0378 53.8135 43.25 53.8135 42.2782C53.8135 41.3064 53.0256 40.5186 52.0538 40.5186C51.082 40.5186 50.2942 41.3064 50.2942 42.2782C50.2942 43.25 51.082 44.0378 52.0538 44.0378Z" fill="#8A8CCE"/>
</svg>
