<svg width="72" height="72" viewBox="0 0 72 72" fill="none" xmlns="http://www.w3.org/2000/svg">
<path d="M28.6755 18.2395V6.01367L41.1863 18.2395H28.6755Z" stroke="#8A8CCE" stroke-width="1.5" stroke-miterlimit="10" stroke-linejoin="bevel"/>
<path d="M41.1714 21.4824V18.2258L28.6742 6H5.99927C6.02496 21.6361 6.00011 37.2725 6.00011 52.9086C17.7239 52.9086 29.4476 52.9086 41.1714 52.9086V50.0048" stroke="#8A8CCE" stroke-width="1.5" stroke-miterlimit="10" stroke-linejoin="bevel"/>
<path d="M41.1714 46.585V24.915" stroke="#8A8CCE" stroke-width="1.5" stroke-miterlimit="10" stroke-linejoin="bevel"/>
<path d="M30.3427 45.0107H10.9795" stroke="#8A8CCE" stroke-width="1.5" stroke-miterlimit="10" stroke-linejoin="bevel"/>
<path d="M27.5067 39.8135H10.9795" stroke="#8A8CCE" stroke-width="1.5" stroke-miterlimit="10" stroke-linejoin="bevel"/>
<path d="M36.1901 39.8135H31.1423" stroke="#8A8CCE" stroke-width="1.5" stroke-miterlimit="10" stroke-linejoin="bevel"/>
<path d="M26.964 34.6436H10.9795" stroke="#8A8CCE" stroke-width="1.5" stroke-miterlimit="10" stroke-linejoin="bevel"/>
<path d="M36.1917 34.6436H30.3977" stroke="#8A8CCE" stroke-width="1.5" stroke-miterlimit="10" stroke-linejoin="bevel"/>
<path d="M28.3752 29.4736H10.9795" stroke="#8A8CCE" stroke-width="1.5" stroke-miterlimit="10" stroke-linejoin="bevel"/>
<path d="M36.1909 29.4736H32.3508" stroke="#8A8CCE" stroke-width="1.5" stroke-miterlimit="10" stroke-linejoin="bevel"/>
<path d="M32.6766 24.291H10.9795" stroke="#8A8CCE" stroke-width="1.5" stroke-miterlimit="10" stroke-linejoin="bevel"/>
<path d="M25.7427 19.1074H10.9795" stroke="#8A8CCE" stroke-width="1.5" stroke-miterlimit="10" stroke-linejoin="bevel"/>
<path d="M25.1593 13.9238H10.9795" stroke="#8A8CCE" stroke-width="1.5" stroke-miterlimit="10" stroke-linejoin="bevel"/>
<path d="M55.2796 38.0367C56.5425 30.2547 51.2578 22.9223 43.4758 21.6593C35.6937 20.3963 28.3613 25.6811 27.0983 33.4631C25.8354 41.2451 31.1201 48.5776 38.9021 49.8405C46.6842 51.1035 54.0166 45.8188 55.2796 38.0367Z" stroke="#8A8CCE" stroke-width="1.5" stroke-miterlimit="10" stroke-linejoin="bevel"/>
<path d="M51.8773 37.484C52.8354 31.5809 48.8266 26.0188 42.9235 25.0608C37.0204 24.1028 31.4583 28.1115 30.5003 34.0146C29.5423 39.9177 33.551 45.4798 39.4541 46.4378C45.3572 47.3958 50.9193 43.3871 51.8773 37.484Z" stroke="#8A8CCE" stroke-width="1.5" stroke-miterlimit="10" stroke-linejoin="bevel"/>
<path d="M51.9569 45.0117L58.4294 51.4571L54.6707 54.6187L49.5823 47.4542" stroke="#8A8CCE" stroke-width="1.5" stroke-miterlimit="10" stroke-linejoin="bevel"/>
<path d="M59.5633 50.4827L53.5259 55.5732L63.016 66.8286L69.0535 61.7381L59.5633 50.4827Z" stroke="#8A8CCE" stroke-width="1.5" stroke-miterlimit="10" stroke-linejoin="bevel"/>
</svg>
