<svg id="Слой_1" data-name="Слой 1" xmlns="http://www.w3.org/2000/svg" viewBox="0 0 72 72"><defs><style>.cls-1{fill:#8a8cce;}</style></defs><title>legal-3</title><path class="cls-1" d="M41.19,19H28.68l-0.75-.75V6l1.27-.54L41.71,17.7Zm-11.76-1.5h9.92L29.43,7.8v9.69Z"/><path class="cls-1" d="M41.17,53.66H6l-0.75-.75V37.37q0-15.69,0-31.37L6,5.25H28.67L29.2,5.46,41.7,17.69l0.23,0.54v3.26h-1.5V18.54L28.37,6.75H6.75q0,15.31,0,30.62V52.16H40.42V50h1.5v2.9Z"/><rect class="cls-1" x="40.42" y="24.92" width="1.5" height="21.67"/><rect class="cls-1" x="10.98" y="44.26" width="19.36" height="1.5"/><rect class="cls-1" x="10.98" y="39.06" width="16.53" height="1.5"/><rect class="cls-1" x="31.14" y="39.06" width="5.05" height="1.5"/><rect class="cls-1" x="10.98" y="33.89" width="15.98" height="1.5"/><rect class="cls-1" x="30.4" y="33.89" width="5.79" height="1.5"/><rect class="cls-1" x="10.98" y="28.72" width="17.4" height="1.5"/><rect class="cls-1" x="32.35" y="28.72" width="3.84" height="1.5"/><rect class="cls-1" x="10.98" y="23.54" width="21.7" height="1.5"/><rect class="cls-1" x="10.98" y="18.36" width="14.76" height="1.5"/><rect class="cls-1" x="10.98" y="13.17" width="14.18" height="1.5"/><path class="cls-1" d="M41.2,50.78A15,15,0,1,1,56,38.16,15.05,15.05,0,0,1,41.2,50.78Zm0-28.55A13.53,13.53,0,1,0,54.54,37.92h0A13.52,13.52,0,0,0,43.36,22.4,13.61,13.61,0,0,0,41.18,22.22Z"/><path class="cls-1" d="M41.2,47.33A11.58,11.58,0,1,1,52.62,37.6h0A11.6,11.6,0,0,1,41.2,47.33Zm0-21.66a10.09,10.09,0,1,0,1.64.13A10.24,10.24,0,0,0,41.17,25.67Z"/><polygon class="cls-1" points="55.15 55.19 54.06 55.05 48.97 47.89 50.19 47.02 54.81 53.52 57.32 51.41 51.43 45.54 52.49 44.48 58.96 50.93 58.91 52.03 55.15 55.19"/><path class="cls-1" d="M63.5,67.4l-1.06-.09L53,56.06,53,55l6-5.09L60.14,50l9.49,11.26-0.09,1.06ZM54.58,55.66l8.52,10.11L68,61.65,59.47,51.54Z"/></svg>