<svg width="72" height="72" viewBox="0 0 72 72" fill="none" xmlns="http://www.w3.org/2000/svg">
<path d="M17.5629 43.5047C19.9926 43.5047 22.2742 42.5565 23.9927 40.838C25.7113 39.1194 26.6595 36.8378 26.6595 34.4081C26.6595 29.3857 22.5705 25.3115 17.5629 25.3115C15.1332 25.3115 12.8516 26.2597 11.1331 27.9783C9.41449 29.6969 8.46631 31.9784 8.46631 34.4081C8.46631 39.4305 12.5405 43.5047 17.5629 43.5047Z" stroke="#8A8CCE" stroke-width="1.5" stroke-miterlimit="10" stroke-linecap="round" stroke-linejoin="bevel"/>
<path d="M30.1268 59.9492C30.1416 59.5936 30.349 51.223 25.0896 46.3932C24.6155 45.9636 23.9043 45.9339 23.4006 46.3191C23.3413 46.3636 17.5189 50.7341 12.0965 46.3339C11.6076 45.9339 10.8817 45.9487 10.4076 46.3636C10.2002 46.5562 5.11852 51.06 5 59.8899C5 60.2455 5.13334 60.5863 5.37038 60.8233C5.62224 61.0752 5.94818 61.2085 6.30375 61.2085H28.8082C29.5193 61.2233 30.0971 60.6603 30.1268 59.9492Z" stroke="#8A8CCE" stroke-width="1.5" stroke-miterlimit="10" stroke-linecap="round" stroke-linejoin="bevel"/>
<path d="M53.965 43.5047C56.3948 43.5047 58.6763 42.5565 60.3949 40.838C62.1135 39.1194 63.0616 36.8378 63.0616 34.4081C63.0616 29.3857 58.9726 25.3115 53.965 25.3115C51.5353 25.3115 49.2538 26.2597 47.5352 27.9783C45.8166 29.6969 44.8684 31.9784 44.8684 34.4081C44.8536 39.4305 48.9427 43.5047 53.965 43.5047Z" stroke="#8A8CCE" stroke-width="1.5" stroke-miterlimit="10" stroke-linecap="round" stroke-linejoin="bevel"/>
<path d="M66.5289 59.9502C66.5437 59.5946 66.7511 51.224 61.4917 46.3942C61.0176 45.9645 60.3064 45.9349 59.8027 46.3201C59.7434 46.3646 53.921 50.7351 48.4986 46.3349C48.0097 45.9349 47.2838 45.9497 46.8097 46.3646C46.6023 46.5572 41.5206 51.061 41.4021 59.8909C41.4021 60.2465 41.5354 60.5872 41.7725 60.8243C42.0243 61.0762 42.3503 61.2095 42.7058 61.2095H65.2103C65.9214 61.2243 66.4992 60.6613 66.5289 59.9502Z" stroke="#8A8CCE" stroke-width="1.5" stroke-miterlimit="10" stroke-linecap="round" stroke-linejoin="bevel"/>
<path d="M54.0156 7.00781L17.9998 7.00781M54.0156 7.00781L51.3084 9.71504M54.0156 7.00781L51.3085 4.30067" stroke="#8A8CCE" stroke-width="1.5" stroke-linecap="square" stroke-linejoin="bevel"/>
<path d="M18 16.4033L54.0159 16.4033M18 16.4033L20.7072 13.6961M18 16.4033L20.7071 19.1105" stroke="#8A8CCE" stroke-width="1.5" stroke-linecap="square" stroke-linejoin="bevel"/>
</svg>
