<svg id="Слой_1" data-name="Слой 1" xmlns="http://www.w3.org/2000/svg" viewBox="0 0 72 72"><defs><style>.cls-1{fill:#8a8cce;}</style></defs><title>legal-1</title><path class="cls-1" d="M17.56,44.25a9.86,9.86,0,1,1,7-2.89A9.86,9.86,0,0,1,17.56,44.25Zm0-18.19a8.34,8.34,0,1,0,8.35,8.35A8.29,8.29,0,0,0,17.56,26.06Z"/><path class="cls-1" d="M28.84,62H6.3a2.05,2.05,0,0,1-1.46-.61,2.08,2.08,0,0,1-.59-1.46C4.37,51.32,9,46.67,9.88,45.83a2.09,2.09,0,0,1,2.69-.07c4.89,4,10.16.13,10.38,0a2.07,2.07,0,0,1,2.64.12C31.18,51,30.88,59.89,30.88,60h0A2,2,0,0,1,28.84,62ZM11.27,46.79a0.56,0.56,0,0,0-.37.13c-0.84.77-5,5-5.15,13a0.57,0.57,0,0,0,.15.39,0.55,0.55,0,0,0,.4.17h22.5a0.57,0.57,0,0,0,.57-0.54h0c0-.08.28-8.31-4.79-13a0.57,0.57,0,0,0-.73,0c-0.27.2-6.44,4.7-12.23,0A0.56,0.56,0,0,0,11.27,46.79ZM30.13,59.95h0Z"/><path class="cls-1" d="M54,44.25a9.86,9.86,0,1,1,7-2.89A9.79,9.79,0,0,1,54,44.25Zm0-18.19a8.34,8.34,0,1,0,8.35,8.35A8.29,8.29,0,0,0,54,26.06Z"/><path class="cls-1" d="M65.24,62H42.71a2.06,2.06,0,0,1-1.46-.61,2.08,2.08,0,0,1-.59-1.46c0.11-8.57,4.71-13.22,5.63-14.06A2.08,2.08,0,0,1,49,45.75c4.88,4,10.16.13,10.38,0a2.07,2.07,0,0,1,2.64.12C67.58,51,67.28,59.89,67.28,60h0A2,2,0,0,1,65.24,62ZM47.67,46.79a0.56,0.56,0,0,0-.37.13c-0.84.78-5,5-5.15,13a0.57,0.57,0,0,0,.15.39,0.55,0.55,0,0,0,.4.17h22.5a0.56,0.56,0,0,0,.57-0.54c0-.13.26-8.32-4.79-13a0.57,0.57,0,0,0-.73,0c-0.27.2-6.46,4.69-12.23,0A0.56,0.56,0,0,0,47.67,46.79ZM66.53,60h0Z"/><polygon class="cls-1" points="51.31 10.78 50.25 9.71 52.2 7.76 17.25 7.76 17.25 6.26 52.2 6.26 50.25 4.3 51.31 3.24 54.33 6.26 54.77 6.26 54.77 6.7 55.08 7.01 54.77 7.32 54.77 7.76 54.33 7.76 51.31 10.78"/><polygon class="cls-1" points="20.71 20.17 17.69 17.15 17.25 17.15 17.25 16.71 16.94 16.4 17.25 16.09 17.25 15.65 17.69 15.65 20.71 12.64 21.77 13.7 19.81 15.65 54.77 15.65 54.77 17.15 19.81 17.15 21.77 19.11 20.71 20.17"/></svg>