<svg width="72" height="72" viewBox="0 0 72 72" fill="none" xmlns="http://www.w3.org/2000/svg">
<path d="M6.01605 47.8049L6.00073 57.3318C6.00073 57.4084 6.00073 57.4696 6.01605 57.5462V58.2967C6.01605 58.9094 6.52149 59.4148 7.13416 59.4148C8.14505 59.4148 9.84519 59.7059 12.0814 60.2726L12.4796 60.4257C12.5256 60.441 12.5562 60.4564 12.6022 60.4717C17.1971 61.6051 26.4637 63.9485 39.4062 67.2416L39.4981 67.2569C39.5134 67.2569 39.544 67.2722 39.5747 67.2722C39.927 67.3335 40.2792 67.3795 40.6315 67.3795C41.2135 67.3795 41.7803 67.2722 42.3929 67.0731C42.4082 67.0731 42.4235 67.0578 42.4542 67.0578L42.6227 66.9965C42.7299 66.9659 42.8371 66.9046 42.929 66.8434L63.346 52.0322C63.7289 51.8331 64.0812 51.5574 64.4028 51.2511C64.4182 51.2358 64.4488 51.2052 64.4641 51.1898C65.3525 50.3015 65.8426 49.1221 65.8426 47.8661C65.8426 45.4155 64.0199 43.409 61.5846 43.1639C61.1251 43.072 60.6656 43.0567 60.1142 43.1333C59.8845 43.1639 59.7006 43.2099 59.5168 43.2558C59.2718 43.3324 59.042 43.4243 58.797 43.5469C58.6744 43.6081 58.5519 43.6694 58.4447 43.746C58.3987 43.7766 58.3528 43.7919 58.3068 43.8226L56.0553 45.4461L43.7408 53.4261C43.557 53.4567 43.3579 53.4567 43.0975 53.4567C42.5614 53.3342 40.7387 52.8593 35.3013 51.4196L35.0869 51.3583C34.122 51.0826 33.0958 50.8069 32.1002 50.5619C30.7064 50.1943 29.6036 49.9032 29.1747 49.7807C28.5161 49.3672 28.1179 48.6473 28.1179 47.8815C28.1179 46.8093 28.8684 45.8903 29.9252 45.6759H37.7673C39.6206 45.6759 41.137 44.1595 41.137 42.3062C41.137 40.4529 39.6359 38.9366 37.7673 38.9366H29.2972C28.1945 38.9059 26.8313 38.8906 25.1618 38.8906C21.1948 38.8906 18.4072 40.4529 16.2169 41.9846C15.6808 42.3675 15.16 42.7504 14.6393 43.1333C12.2346 44.91 10.1668 46.457 7.08821 46.457C6.73593 46.457 6.39896 46.6255 6.18453 46.9165C6.04668 47.2075 5.9701 47.5139 6.01605 47.8049Z" stroke="#8A8CCE" stroke-width="1.5" stroke-miterlimit="10" stroke-linejoin="bevel"/>
<path d="M55.5022 34L58.0022 8C52.3355 7.99332 47.6689 7.98231 42.0022 7.98231L43.5022 4C38.1689 4 31.8355 4 26.5022 4L25.0022 7.96699C24.0022 7.96699 23.0022 7.96699 22.0022 7.96699L20.5022 12.5" stroke="#8A8CCE" stroke-width="1.5" stroke-miterlimit="10" stroke-linejoin="bevel"/>
<path d="M50.724 16.7279C50.724 16.7279 50.8782 17.3099 51.0927 18.137L55.5817 34.296H20.4901C19.8469 34.296 19.2801 33.8671 19.1117 33.2391L14.0419 14.3078C13.7968 13.4042 13.5015 12.5005 13.5015 12.5005C17.1681 12.5005 20.8348 12.5027 24.5015 12.5L25.6107 16.7279C33.492 16.7279 50.724 16.7279 50.724 16.7279Z" stroke="#8A8CCE" stroke-width="1.5" stroke-miterlimit="10" stroke-linejoin="bevel"/>
<path d="M43.7728 28.9809L41.797 21.583H26.4038L28.3796 28.9809H43.7728Z" stroke="#8A8CCE" stroke-width="1.5" stroke-miterlimit="10" stroke-linejoin="bevel"/>
</svg>
