<svg id="Слой_1" data-name="Слой 1" xmlns="http://www.w3.org/2000/svg" viewBox="0 0 72 72"><defs><style>.cls-1{fill:#8a8cce;}</style></defs><title>legal-2</title><path class="cls-1" d="M40.63,68.13A6.76,6.76,0,0,1,39.45,68h0l-0.23,0c-13.64-3.47-22.4-5.68-26.8-6.77L11.81,61a22.86,22.86,0,0,0-4.68-.81A1.87,1.87,0,0,1,5.27,58.3V57.61a1.85,1.85,0,0,1,0-.28l0-9.48a2.29,2.29,0,0,1,.24-1.26l0.07-.12a1.88,1.88,0,0,1,1.51-.76c2.81,0,4.68-1.38,7-3.13l0.11-.08,1.54-1.12a15.65,15.65,0,0,1,9.38-3.23c1.68,0,3,0,4.16,0h8.45a4.12,4.12,0,0,1,0,8.24H30a1.49,1.49,0,0,0-1.14,1.46,1.5,1.5,0,0,0,.63,1.21l2.8,0.75c1,0.24,2,.52,3,0.8l0.22,0.06c4.94,1.31,7,1.85,7.68,2h0.29l12.17-7.89L58,43.11a3.22,3.22,0,0,1,.4-0.23,5.39,5.39,0,0,1,.86-0.35A6,6,0,0,1,60,42.39a5,5,0,0,1,1.72,0A5.46,5.46,0,0,1,65,51.72l-0.07.07a5.46,5.46,0,0,1-1.18.88L43.37,67.45a1.89,1.89,0,0,1-.54.27l-0.21.06h0A6.31,6.31,0,0,1,40.63,68.13Zm-0.93-1.6h0a5.29,5.29,0,0,0,.93.1,4.86,4.86,0,0,0,1.53-.27h0l0.17-.06a0.49,0.49,0,0,0,.15-0.07L63,51.37a4,4,0,0,0-1.49-7.46,3.7,3.7,0,0,0-1.29,0,4.5,4.5,0,0,0-.52.11,4,4,0,0,0-.56.23,1.88,1.88,0,0,0-.25.14l-0.17.1-2.22,1.6-12.34,8-0.28.11a4.68,4.68,0,0,1-.77,0l-0.17,0c-0.57-.13-2.62-0.67-7.82-2l-0.23-.07c-1-.27-2-0.55-3-0.79l-3-.79-0.19-.08a3,3,0,0,1-1.41-2.53,3,3,0,0,1,2.41-2.94h8a2.62,2.62,0,0,0,0-5.24H29.3c-1.12,0-2.47,0-4.14,0a14.26,14.26,0,0,0-8.52,3l-1.52,1.1-0.55-.53L15,43.78c-2.38,1.76-4.64,3.43-7.94,3.43a0.38,0.38,0,0,0-.26.11,0.75,0.75,0,0,0-.07.37v0.12l0,9.53,0,0.21V58.3a0.37,0.37,0,0,0,.37.37,23.91,23.91,0,0,1,5.13.88l0.48,0.18C17.18,60.83,26,63,39.59,66.51Z"/><path class="cls-1" d="M56.25,34.07l-1.49-.14L57.18,8.75H42l-0.7-1,1.12-3H27L25.7,8.23,25,8.72H22.54l-1.33,4-1.42-.47,1.5-4.53L22,7.22h2.48L25.8,3.73l0.7-.48h17l0.7,1-1.12,3H58l0.75,0.82Z"/><path class="cls-1" d="M55.58,35H20.49a2.18,2.18,0,0,1-2.1-1.61L13.32,14.5c-0.24-.88-0.53-1.77-0.53-1.77l0.71-1h11l0.73,0.56,1,3.67H50.72l0.72,0.56,0.37,1.41L56.3,34.1ZM14.52,13.25c0.08,0.27.17,0.56,0.25,0.86L19.84,33a0.68,0.68,0,0,0,.65.5H54.6L50.14,17.48H25.61l-0.73-.56-1-3.67h-9.4Z"/><path class="cls-1" d="M43.77,29.73H28.38l-0.72-.56-2-7.4,0.72-.94H41.8l0.72,0.56,2,7.4ZM29,28.23H42.8l-1.58-5.9H27.38Z"/></svg>