<svg width="72" height="72" viewBox="0 0 72 72" fill="none" xmlns="http://www.w3.org/2000/svg">
<path d="M33.9052 33.7498C37.884 33.7498 41.6198 32.2008 44.4293 29.3914C47.2387 26.5819 48.7877 22.8461 48.7877 18.8673C48.7877 10.6668 42.1058 4 33.9052 4C29.9416 4 26.1906 5.549 23.3812 8.35845C20.5717 11.1679 19.0227 14.9037 19.0227 18.8825C19.0227 27.0831 25.7046 33.7498 33.9052 33.7498Z" stroke="#8A8CCE" stroke-width="1.5" stroke-miterlimit="10" stroke-linecap="round" stroke-linejoin="bevel"/>
<path d="M40.7565 61.1913H15.4994C14.9223 61.1913 14.3756 60.9635 13.9656 60.5535C13.5707 60.1434 13.3429 59.5967 13.3581 59.0197C13.5707 44.5624 21.8472 37.197 22.2117 36.8933C22.9862 36.2099 24.1555 36.1948 24.9756 36.8478C33.8292 44.0612 43.3509 36.9085 43.4421 36.8326C44.2621 36.1948 45.4315 36.2403 46.206 36.9541C47.026 37.7134 47.436 38.1082 48.1042 38.9435" stroke="#8A8CCE" stroke-width="1.5" stroke-miterlimit="10" stroke-linecap="round" stroke-linejoin="bevel"/>
<path d="M39 53.5C39 62.0475 45.9525 69 54.5 69C63.0475 69 70 62.0475 70 53.5C70 44.9526 63.0475 38 54.5 38C45.9525 38 39 44.9526 39 53.5Z" stroke="#8A8CCE" stroke-width="1.5" stroke-miterlimit="10" stroke-linecap="round" stroke-linejoin="bevel"/>
<path d="M42 53.5C42 60.3931 47.6069 66 54.5 66C61.3931 66 67 60.3931 67 53.5C67 46.6069 61.3931 41 54.5 41C47.6069 41 42 46.6069 42 53.5Z" stroke="#8A8CCE" stroke-miterlimit="10" stroke-linejoin="bevel" stroke-dasharray="2 1"/>
<path d="M57 49.8185V52.4207C57 53.7612 56.4476 54.4315 55.3429 54.4315H54.4V54.875H55.9V56.0578H54.4V59H52.7857V56.0578H52V54.875H52.7857V54.4315H52V53.2487H52.7857V48H55.3429C55.9238 48 56.3429 48.1429 56.6 48.4288C56.8667 48.7047 57 49.168 57 49.8185ZM54.4 49.4933V52.9973H54.8143C55.0429 52.9973 55.1905 52.9332 55.2571 52.8051C55.3333 52.6671 55.3714 52.4651 55.3714 52.1989V50.2473C55.3714 50.0009 55.3333 49.8136 55.2571 49.6855C55.181 49.5573 55.0333 49.4933 54.8143 49.4933H54.4Z" fill="#8A8CCE"/>
</svg>
