<svg id="Слой_1" data-name="Слой 1" xmlns="http://www.w3.org/2000/svg" viewBox="0 0 72 72"><defs><style>.cls-1{fill:#8a8cce;}</style></defs><title>management-2</title><path class="cls-1" d="M61,17H49.1l-0.75-.75V4.54L49.63,4,61.56,15.67Zm-11.18-1.5h9.34L49.85,6.32v9.13Z"/><polygon class="cls-1" points="61.03 50.05 43.92 50.05 43.92 48.55 60.28 48.55 60.28 16.52 48.8 5.29 28.22 5.29 28.22 21.66 26.72 21.66 26.72 4.54 27.47 3.79 49.1 3.79 49.63 4.01 61.56 15.67 61.78 16.21 61.78 49.3 61.03 50.05"/><path class="cls-1" d="M44.66,33.32H32.73L32,32.57V20.91l1.27-.54L45.19,32Zm-11.18-1.5h9.34l-9.34-9.13v9.13Z"/><path class="cls-1" d="M44.67,66.4H11.09l-0.75-.75V20.91a0.75,0.75,0,0,1,.75-0.75H32.74l0.52,0.21L45.19,32l0.23,0.54V65.65ZM11.84,64.9H43.92v-32L32.43,21.66H11.84V64.9Z"/><rect class="cls-1" x="15.1" y="57.37" width="25.56" height="1.5"/><rect class="cls-1" x="15.1" y="52.42" width="25.56" height="1.5"/><rect class="cls-1" x="15.1" y="47.47" width="25.56" height="1.5"/><rect class="cls-1" x="15.1" y="42.54" width="25.56" height="1.5"/><rect class="cls-1" x="15.1" y="37.59" width="25.56" height="1.5"/><rect class="cls-1" x="15.1" y="32.66" width="15.6" height="1.5"/><rect class="cls-1" x="15.1" y="27.71" width="15.04" height="1.5"/><path class="cls-1" d="M48.86,64.82H48.11v-1.5h0.75A10.39,10.39,0,0,0,59.23,52.95V52.2h1.5v0.75A11.89,11.89,0,0,1,48.86,64.82Z"/><polygon class="cls-1" points="50.42 68.18 46.74 64.49 46.74 63.43 50.42 59.75 51.48 60.81 48.33 63.96 51.48 67.12 50.42 68.18"/><path class="cls-1" d="M12.33,18.9h-1.5V18.15A11.89,11.89,0,0,1,22.71,6.28h0.75v1.5H22.71A10.39,10.39,0,0,0,12.33,18.15V18.9Z"/><polygon class="cls-1" points="21.14 11.36 20.08 10.29 23.23 7.15 20.08 4 21.14 2.94 24.82 6.62 24.82 7.68 21.14 11.36"/></svg>