<svg id="Слой_1" data-name="Слой 1" xmlns="http://www.w3.org/2000/svg" viewBox="0 0 72 72"><defs><style>.cls-1{fill:#8a8cce;}</style></defs><title>management-4</title><path class="cls-1" d="M60.87,21.07H44.21l-0.75-.75V4l1.27-.54L61.4,19.79ZM45,19.57H59L45,5.78V19.57Z"/><polygon class="cls-1" points="60.87 67.42 14 67.42 13.25 66.67 13.25 65.14 13.25 4 14 3.25 44.22 3.25 44.75 3.46 61.4 19.79 61.62 20.32 61.62 27.53 60.12 27.53 60.12 20.64 43.92 4.75 14.75 4.75 14.75 5.53 14.75 65.92 60.12 65.92 60.12 58.01 61.62 58.01 61.62 66.67 60.87 67.42"/><rect class="cls-1" x="19.89" y="55.33" width="24.85" height="1.5"/><rect class="cls-1" x="19.89" y="48.41" width="19.99" height="1.5"/><rect class="cls-1" x="19.89" y="41.49" width="18.96" height="1.5"/><rect class="cls-1" x="19.89" y="34.57" width="20.35" height="1.5"/><rect class="cls-1" x="19.89" y="27.65" width="26.35" height="1.5"/><rect class="cls-1" x="19.89" y="20.74" width="21.16" height="1.5"/><rect class="cls-1" x="19.89" y="13.82" width="20.38" height="1.5"/><path class="cls-1" d="M54.65,60.11h0a17.35,17.35,0,0,1-12.23-29.6,17.14,17.14,0,0,1,12.21-5.07h0A17.35,17.35,0,0,1,66.86,55,17.15,17.15,0,0,1,54.65,60.11Zm0-33.17A15.8,15.8,0,0,0,38.84,42.76,15.85,15.85,0,0,0,54.64,58.61h0A15.8,15.8,0,0,0,70.43,42.79,15.85,15.85,0,0,0,54.63,26.94h0Z"/><path class="cls-1" d="M54.63,43.14a6.39,6.39,0,0,1-4.53-10.9,6.28,6.28,0,0,1,4.51-1.88,6.4,6.4,0,0,1,4.53,10.91A6.32,6.32,0,0,1,54.63,43.14Zm0-11.28a4.79,4.79,0,0,0-3.45,1.44A4.88,4.88,0,1,0,54.62,31.86Z"/><path class="cls-1" d="M61.61,54.13H47.67a1.57,1.57,0,0,1-1.11-.47,1.59,1.59,0,0,1-.45-1.12,12.37,12.37,0,0,1,3.6-9,1.55,1.55,0,0,1,2,0c2.89,2.37,6,0,6.06,0a1.55,1.55,0,0,1,2,.08c3.26,3,3.38,8,3.37,9v0A1.57,1.57,0,0,1,61.61,54.13ZM50.77,44.71c-0.2.11-3.1,2.74-3.17,7.85l14,0.07,0.8,0-0.75,0c0-.86-0.09-5.27-2.88-7.83C58.34,45.12,54.33,47.62,50.77,44.71Z"/></svg>