<svg id="Слой_1" data-name="Слой 1" xmlns="http://www.w3.org/2000/svg" viewBox="0 0 72 72"><defs><style>.cls-1{fill:#8a8cce;}</style></defs><title>management-7</title><path class="cls-1" d="M35.68,69.37c-10.5,0-19.39-9.44-19.41-20.62,0-16.81,14.82-42,18.74-45.32h1c3.74,3.21,19.36,28.44,19.36,46.27A19.69,19.69,0,0,1,35.68,69.37ZM35.5,5.06C31.61,9.4,17.77,32.77,17.77,48.75c0,10.36,8.22,19.12,17.91,19.12A18.19,18.19,0,0,0,53.85,49.71C53.85,33.12,39.58,9.51,35.5,5.06Z"/><path class="cls-1" d="M36,61.75L35.25,61V56L36,55.25a6.26,6.26,0,0,0,5.12-2.07c2.29-2.8,1.89-7.81,1.14-11.53l0.74-.9h5l0.72,0.53c1.77,5.91,1.12,11.54-1.79,15.45C44.49,60,40.71,61.75,36,61.75Zm0.75-5v3.51a11.33,11.33,0,0,0,9-4.39c2.5-3.36,3.12-8.4,1.7-13.59H43.9c0.68,3.92.85,8.87-1.62,11.88A7.41,7.41,0,0,1,36.75,56.73Z"/></svg>