<svg id="Слой_1" data-name="Слой 1" xmlns="http://www.w3.org/2000/svg" viewBox="0 0 72 72"><defs><style>.cls-1{fill:#8a8cce;}</style></defs><title>management-3</title><path class="cls-1" d="M30.4,48.71l-0.95-.48-1.2-3.65a19,19,0,0,1-5.47-.16l-1.93,3.8-1,.33L13,45.09l-0.33-1,1.73-3.42a18.73,18.73,0,0,1-3.76-4L6.6,38l-0.95-.48-2.4-7.28,0.48-.95,3.65-1.19a19.06,19.06,0,0,1,.16-5.47l-3.8-1.93-0.33-1,3.45-6.83,1-.33,3.42,1.73a18.7,18.7,0,0,1,4-3.76L14,6.46l0.48-.95,7.28-2.4,0.95,0.48,1.19,3.65a19,19,0,0,1,5.47.16l1.93-3.8,1-.33,6.83,3.45,0.33,1-1.73,3.42a18.76,18.76,0,0,1,3.76,4l4.05-1.33,0.95,0.48,2.4,7.28-0.48.95-3.65,1.19a18.41,18.41,0,0,1-.17,5.48l3.8,1.92,0.33,1L45.24,39l-1,.33L40.8,37.55a18.71,18.71,0,0,1-4,3.76l1.33,4.05-0.48.95ZM28.67,43l0.82,0.51L30.64,47l5.85-1.93-1.28-3.88,0.3-.86A17.24,17.24,0,0,0,40,36.15l0.94-.23,3.31,1.68L47,32.11l-3.63-1.84L43,29.44a17,17,0,0,0,.18-6.14l0.51-.83,3.53-1.15-1.93-5.85-3.88,1.28-0.86-.3A17.26,17.26,0,0,0,36.3,12L36.07,11l1.68-3.31L32.25,5,30.41,8.59,29.59,9a17.58,17.58,0,0,0-6.15-.18L22.62,8.3,21.46,4.78,15.61,6.7l1.28,3.88-0.3.86a17.24,17.24,0,0,0-4.46,4.23l-0.94.23L7.87,14.22,5.1,19.71l3.63,1.84,0.4,0.82A17.6,17.6,0,0,0,9,28.53l-0.51.82L4.92,30.5l1.93,5.85,3.88-1.28,0.86,0.3a17.23,17.23,0,0,0,4.23,4.46L16,40.78l-1.67,3.31,5.5,2.77,1.84-3.63,0.82-.4A17.6,17.6,0,0,0,28.67,43Z"/><path class="cls-1" d="M51.81,69.43L51,68.69l0-2.28a12.2,12.2,0,0,1-3.05-1l-1.79,1.84-1.06,0-3.57-3.46,0-1.06,1.58-1.63a12.2,12.2,0,0,1-1.41-2.9l-2.57,0-0.76-.74-0.08-5L39,51.73l2.28,0a12.21,12.21,0,0,1,1-3.05l-1.84-1.79V45.79L44,42.22l1.06,0,1.63,1.58a12.19,12.19,0,0,1,2.9-1.41l0-2.57,0.74-.76,5-.08L56,39.71,56,42a12.21,12.21,0,0,1,3.05,1l1.79-1.84,1.06,0,3.57,3.46,0,1.06-1.58,1.63a12.21,12.21,0,0,1,1.41,2.9l2.56-.05,0.76,0.74,0.08,5L68,56.66l-2.28,0a12.73,12.73,0,0,1-1.05,3.06l1.84,1.79,0,1.06-3.46,3.57L62,66.2l-1.63-1.58A12.2,12.2,0,0,1,57.48,66l0,2.57-0.74.76Zm-3.62-5.64A10.74,10.74,0,0,0,51.86,65l0.64,0.73,0,2.15L56,67.87l0-2.38,0.55-.73A10.73,10.73,0,0,0,60,63l1,0.07,1.54,1.49,2.42-2.49-1.71-1.66-0.14-.9a11.25,11.25,0,0,0,1.26-3.7l0.73-.64,2.15,0L67.19,51.7l-2.37,0-0.74-.55a10.76,10.76,0,0,0-1.71-3.5l0.06-1,1.49-1.54-2.49-2.42-1.66,1.71-0.91.13a10.74,10.74,0,0,0-3.68-1.25l-0.64-.73,0-2.15L51,40.54l0,2.38-0.55.73A10.72,10.72,0,0,0,47,45.36l-1-.07-1.54-1.49L42.1,46.3,43.81,48l0.13,0.91a10.72,10.72,0,0,0-1.25,3.68L42,53.18l-2.15,0,0.05,3.47,2.38,0L43,57.2a10.76,10.76,0,0,0,1.71,3.5l-0.06,1L43.13,63.2l2.49,2.42,1.66-1.71Z"/><path class="cls-1" d="M26.06,38.16A12.25,12.25,0,1,1,38.31,25.9,12.27,12.27,0,0,1,26.06,38.16Zm0-23A10.75,10.75,0,1,0,36.81,25.9,10.77,10.77,0,0,0,26.06,15.15Z"/><path class="cls-1" d="M53.53,62.24a8.05,8.05,0,1,1,7.81-6.07h0A8.07,8.07,0,0,1,53.53,62.24Zm0-14.61a6.56,6.56,0,1,0,1.61.2A6.57,6.57,0,0,0,53.53,47.63ZM60.61,56h0Z"/></svg>