<svg width="72" height="72" viewBox="0 0 72 72" fill="none" xmlns="http://www.w3.org/2000/svg">
<path d="M43.8953 23.1882L48.1365 21.7999L45.7413 14.5227L41.1492 16.033C39.9592 14.2176 38.4641 12.6462 36.7402 11.3799L38.754 7.39806L31.9192 3.95017L29.7376 8.2524C27.678 7.82523 25.5116 7.74895 23.33 8.06933L21.9417 3.82812L14.6645 6.22334L16.1749 10.8154C14.3594 12.0054 12.788 13.5005 11.5218 15.2245L7.53991 13.2106L4.09202 20.0454L8.39425 22.227C7.96708 24.2866 7.8908 26.453 8.21118 28.6346L3.96997 30.0229L6.36518 37.3001L10.9573 35.7897C12.1473 37.6052 13.6424 39.1766 15.3663 40.4429L13.3525 44.4247L20.1872 47.8726L22.3689 43.5704C24.4284 43.9975 26.5948 44.0738 28.7764 43.7534L30.1648 47.9946L37.4419 45.5994L35.9316 41.0073C37.7471 39.8174 39.3184 38.3223 40.5847 36.5983L44.5665 38.6121L48.0144 31.7774L43.7122 29.5957C44.1546 27.5362 44.2309 25.385 43.8953 23.1882Z" stroke="#8A8CCE" stroke-width="1.5" stroke-miterlimit="10" stroke-linecap="round" stroke-linejoin="bevel"/>
<path d="M65.1017 55.9581L68.0003 55.9123L67.9241 50.9388L64.7965 50.9999C64.4151 49.6421 63.7896 48.3758 62.9658 47.2621L64.9796 45.1873L61.4097 41.7241L59.2281 43.9668C58.0381 43.2955 56.7108 42.8378 55.292 42.6243L55.2462 39.7256L50.2727 39.8019L50.3185 42.9294C48.9607 43.3108 47.6944 43.9363 46.5807 44.7601L44.5059 42.7463L41.0427 46.3162L43.2854 48.4979C42.6141 49.6878 42.1564 51.0151 41.9428 52.4339L39.0442 52.4797L39.1205 57.4532L42.248 57.4074C42.6294 58.7652 43.2549 60.0315 44.0787 61.1452L42.0649 63.22L45.6348 66.6832L47.8165 64.4405C49.0064 65.1118 50.3337 65.5695 51.7525 65.7831L51.7983 68.6817L56.7718 68.6055L56.726 65.4779C58.0838 65.0965 59.3501 64.471 60.4638 63.6472L62.5386 65.661L66.0018 62.0911L63.7591 59.9095C64.4151 58.7042 64.8881 57.3769 65.1017 55.9581Z" stroke="#8A8CCE" stroke-width="1.5" stroke-miterlimit="10" stroke-linecap="round" stroke-linejoin="bevel"/>
<path d="M26.06 37.4076C32.413 37.4076 37.5631 32.2575 37.5631 25.9045C37.5631 19.5515 32.413 14.4014 26.06 14.4014C19.707 14.4014 14.5569 19.5515 14.5569 25.9045C14.5569 32.2575 19.707 37.4076 26.06 37.4076Z" stroke="#8A8CCE" stroke-width="1.5" stroke-miterlimit="10" stroke-linecap="round" stroke-linejoin="bevel"/>
<path d="M60.6058 55.9832C61.5989 52.0735 59.2346 48.0989 55.3249 47.1058C51.4152 46.1126 47.4406 48.4769 46.4474 52.3867C45.4543 56.2964 47.8186 60.2709 51.7283 61.2641C55.638 62.2573 59.6126 59.8929 60.6058 55.9832Z" stroke="#8A8CCE" stroke-width="1.5" stroke-miterlimit="10" stroke-linecap="round" stroke-linejoin="bevel"/>
</svg>
