<svg width="72" height="72" viewBox="0 0 72 72" fill="none" xmlns="http://www.w3.org/2000/svg">
<path d="M44.2083 20.3227V4L60.8721 20.3227H44.2083Z" stroke="#8A8CCE" stroke-width="1.5" stroke-miterlimit="10" stroke-linecap="round" stroke-linejoin="bevel"/>
<path d="M60.8724 26.7769V20.3227L44.224 4H14C14 4 14.0016 4.67819 14.0016 5.52592V65.1446C14.0016 65.9769 14.0029 66.6705 14.0029 66.6705H60.8724C60.8724 66.6705 60.8724 65.9923 60.8724 65.1446V58.7615" stroke="#8A8CCE" stroke-width="1.5" stroke-miterlimit="10" stroke-linecap="square" stroke-linejoin="bevel"/>
<path d="M43.9995 56.082H20.644" stroke="#8A8CCE" stroke-width="1.5" stroke-miterlimit="10" stroke-linecap="square" stroke-linejoin="bevel"/>
<path d="M39.1372 49.1611H20.644" stroke="#8A8CCE" stroke-width="1.5" stroke-miterlimit="10" stroke-linecap="square" stroke-linejoin="bevel"/>
<path d="M38.1072 42.2402H20.644" stroke="#8A8CCE" stroke-width="1.5" stroke-miterlimit="10" stroke-linecap="square" stroke-linejoin="bevel"/>
<path d="M39.4995 35.3193H20.644" stroke="#8A8CCE" stroke-width="1.5" stroke-miterlimit="10" stroke-linecap="square" stroke-linejoin="bevel"/>
<path d="M45.4995 28.3994H20.644" stroke="#8A8CCE" stroke-width="1.5" stroke-miterlimit="10" stroke-linecap="square" stroke-linejoin="bevel"/>
<path d="M40.3055 21.4941H20.644" stroke="#8A8CCE" stroke-width="1.5" stroke-miterlimit="10" stroke-linecap="square" stroke-linejoin="bevel"/>
<path d="M39.5215 14.5732H20.644" stroke="#8A8CCE" stroke-width="1.5" stroke-miterlimit="10" stroke-linecap="square" stroke-linejoin="bevel"/>
<path d="M71.1777 42.7857C71.1777 33.6267 63.7715 26.1956 54.6355 26.188C45.4995 26.1803 38.0933 33.599 38.0933 42.758C38.0933 51.917 45.4995 59.348 54.6355 59.3557C63.7715 59.3633 71.1777 51.9447 71.1777 42.7857Z" stroke="#8A8CCE" stroke-width="1.5" stroke-miterlimit="10" stroke-linecap="round" stroke-linejoin="bevel"/>
<path d="M54.6305 42.3939C56.137 42.3939 57.5513 41.8082 58.612 40.7446C59.6727 39.6811 60.2568 38.2631 60.2568 36.7526C60.2568 33.6391 57.7204 31.1113 54.6151 31.1113C53.1086 31.1113 51.6943 31.697 50.6336 32.776C49.5729 33.8395 48.9888 35.2575 48.9888 36.768C48.9888 39.8661 51.5252 42.3939 54.6305 42.3939Z" stroke="#8A8CCE" stroke-width="1.5" stroke-miterlimit="10" stroke-linecap="round" stroke-linejoin="bevel"/>
<path d="M62.4085 52.5971C62.4085 52.3813 62.5469 47.1716 59.2879 44.1815C58.9958 43.9194 58.5501 43.8886 58.2426 44.1352C58.2119 44.1661 54.5993 46.8788 51.2481 44.1352C50.9407 43.8886 50.4948 43.8886 50.2028 44.1506C50.0644 44.2739 46.9284 47.0638 46.8516 52.5509C46.8516 52.7667 46.9284 52.9825 47.0822 53.1366C47.2359 53.2907 47.4357 53.3832 47.6663 53.3832H61.6092C62.0242 53.3832 62.3932 53.0441 62.4085 52.5971Z" stroke="#8A8CCE" stroke-width="1.5" stroke-miterlimit="10" stroke-linecap="round" stroke-linejoin="bevel"/>
</svg>
