<svg id="Слой_1" data-name="Слой 1" xmlns="http://www.w3.org/2000/svg" viewBox="0 0 72 72"><defs><style>.cls-1{fill:#8a8cce;}</style></defs><title>management-6</title><path class="cls-1" d="M33.91,34.5A15.63,15.63,0,1,1,45,29.92,15.64,15.64,0,0,1,33.91,34.5Zm0-29.75A14.12,14.12,0,1,0,48,18.87,14,14,0,0,0,33.91,4.75Z"/><path class="cls-1" d="M40.76,61.94H15.5A2.88,2.88,0,0,1,12.61,59c0.22-15.09,9-22.61,9.12-22.68a2.89,2.89,0,0,1,3.71-.06c8.42,6.86,17.45.05,17.54,0a2.88,2.88,0,0,1,3.74.16,16.31,16.31,0,0,1,2,2.07,0.75,0.75,0,0,1-1.17.94A14.92,14.92,0,0,0,45.7,37.5a1.38,1.38,0,0,0-1.79-.08c-0.08.06-10,7.64-19.4,0a1.4,1.4,0,0,0-1.79,0c-0.1.08-8.39,7.16-8.6,21.58a1.38,1.38,0,0,0,.4,1,1.4,1.4,0,0,0,1,.41H40.76A0.75,0.75,0,0,1,40.76,61.94Z"/><path class="cls-1" d="M54.5,69.75A16.25,16.25,0,1,1,70.75,53.5,16.27,16.27,0,0,1,54.5,69.75Zm0-31A14.75,14.75,0,1,0,69.25,53.5,14.77,14.77,0,0,0,54.5,38.75Z"/><path class="cls-1" d="M54.5,66.5a13.11,13.11,0,0,1-1.7-.11l0.13-1a12,12,0,0,0,1.57.1h0.35l0,1H54.5Zm1.41-.08-0.11-1a11.89,11.89,0,0,0,1.88-.36L58,66A13.07,13.07,0,0,1,55.91,66.42Zm-4.14-.21a12.93,12.93,0,0,1-2-.6l0.36-.93a11.89,11.89,0,0,0,1.83.55Zm7.17-.49-0.34-.94a11.91,11.91,0,0,0,1.74-.8l0.49,0.87A12.9,12.9,0,0,1,58.94,65.72ZM48.83,65.2A13.08,13.08,0,0,1,47,64.15l0.58-.82a11.84,11.84,0,0,0,1.65,1Zm12.88-.9-0.56-.83a12.31,12.31,0,0,0,1.5-1.19L63.35,63A13.22,13.22,0,0,1,61.72,64.31Zm-15.5-.79a13,13,0,0,1-1.49-1.45l0.75-.66a12,12,0,0,0,1.38,1.34Zm17.86-1.24-0.74-.68a12.2,12.2,0,0,0,1.18-1.51l0.83,0.55A13,13,0,0,1,64.08,62.28Zm-20-1A13,13,0,0,1,43,59.5L43.86,59a12.13,12.13,0,0,0,1,1.62ZM65.9,59.75L65,59.27a12.07,12.07,0,0,0,.79-1.75l0.94,0.34A13.14,13.14,0,0,1,65.9,59.75ZM42.52,58.56a13.1,13.1,0,0,1-.65-2l1-.24a12,12,0,0,0,.6,1.82Zm24.53-1.69-1-.26a12,12,0,0,0,.35-1.89l1,0.1A13,13,0,0,1,67.06,56.87Zm-25.39-1.3a13,13,0,0,1-.17-2.07c0-.19,0-0.38,0-0.58l1,0c0,0.18,0,.35,0,0.53a12.08,12.08,0,0,0,.15,1.91ZM67.5,53.79l-1,0V53.5a12.19,12.19,0,0,0-.11-1.65l1-.14a13.1,13.1,0,0,1,.12,1.78v0.29ZM42.59,52l-1-.12a12.81,12.81,0,0,1,.42-2l1,0.28A11.84,11.84,0,0,0,42.59,52Zm23.63-1.1a11.91,11.91,0,0,0-.56-1.83l0.93-.37a13.07,13.07,0,0,1,.61,2ZM43.29,49.23l-0.93-.36A12.91,12.91,0,0,1,43.25,47l0.87,0.5A11.94,11.94,0,0,0,43.29,49.23Zm22-1a12,12,0,0,0-1-1.65L65.09,46a13,13,0,0,1,1.07,1.78ZM44.63,46.69l-0.82-.57a13,13,0,0,1,1.31-1.61l0.72,0.69A12.12,12.12,0,0,0,44.63,46.69Zm19.07-.89a12.1,12.1,0,0,0-1.35-1.37L63,43.67a13,13,0,0,1,1.46,1.48ZM46.53,44.54l-0.67-.75a13,13,0,0,1,1.66-1.25l0.54,0.84A12,12,0,0,0,46.53,44.54Zm15.06-.71a12.2,12.2,0,0,0-1.63-1l0.46-.89A13,13,0,0,1,62.19,43Zm-12.71-.93L48.42,42a13,13,0,0,1,1.91-.82l0.32,0.95A12,12,0,0,0,48.89,42.89Zm10.21-.48a11.87,11.87,0,0,0-1.82-.59l0.23-1a12.88,12.88,0,0,1,2,.64Zm-7.53-.55-0.24-1a12.85,12.85,0,0,1,2-.34l0.09,1A12,12,0,0,0,51.57,41.86Zm4.76-.22a12.07,12.07,0,0,0-1.83-.14l-0.08-1a13.37,13.37,0,0,1,2.07.15Z"/><path class="cls-1" d="M57,49.82v2.6q0,2-1.66,2H54.4v0.44h1.5v1.18H54.4V59H52.79V56.06H52V54.88h0.79V54.43H52V53.25h0.79V48h2.56a1.62,1.62,0,0,1,1.26.43A2,2,0,0,1,57,49.82Zm-2.6-.33V53h0.41a0.45,0.45,0,0,0,.44-0.19,1.28,1.28,0,0,0,.11-0.61v-2a1.11,1.11,0,0,0-.11-0.56,0.47,0.47,0,0,0-.44-0.19H54.4Z"/></svg>