<svg width="72" height="72" viewBox="0 0 72 72" fill="none" xmlns="http://www.w3.org/2000/svg">
<path fill-rule="evenodd" clip-rule="evenodd" d="M51.6764 4.97461L50.9264 5.72461V16.4755L36.2079 5.13059L35.2902 5.13209L5.43863 28.2973L5.14844 28.8898V37.5005L6.37899 38.0763L8.52726 36.2835L8.5267 60.0002L9.2767 60.7502H27V60.7505H45.5V60.7502H62.2245L62.9745 60.0002V36.2839L65.1222 38.0763L66.3528 37.5005V28.8898L66.0783 28.3099L60.3896 23.6456V5.72461L59.6396 4.97461H51.6764ZM35.7503 14.8822L61.4745 35.0462V59.2502H43.981V39.9898L43.231 39.2398H28.2702L27.5202 39.9898V59.2502H10.0267L10.0273 35.0462L35.7503 14.8822ZM62.6872 34.0909L62.7051 34.1053L64.8528 35.8977V29.2448L59.1641 24.5805L58.8896 24.0005V6.47461H52.4264V18.0005L51.2185 18.5945L35.7516 6.67274L6.64844 29.2572V35.8977L8.79614 34.1053L8.814 34.0909L35.2873 13.3387H35.2879L36.2127 13.3387L36.2133 13.3387L62.6408 34.0545L62.6872 34.0909ZM42.481 40.7398V59.2505H29.0202V40.7398H42.481Z" fill="#8A8CCE"/>
</svg>
