<svg width="72" height="72" viewBox="0 0 72 72" fill="none" xmlns="http://www.w3.org/2000/svg">
<path d="M28.9385 24.9859C29.7319 22.045 28.8838 18.9126 26.7362 16.765L25.4641 15.4929C23.3165 13.3454 20.1841 12.4973 17.2432 13.2907L16.5046 13.4822L23.0977 20.0753L15.8206 27.3523L9.22752 20.7592L9.03602 21.4979C8.24266 24.4388 9.09074 27.5712 11.2383 29.7188L12.5104 30.9909C14.658 33.1384 17.7904 33.9865 20.7313 33.1931L22.4685 32.7281C22.9883 32.5913 23.4807 32.3861 23.9595 32.1536C29.5267 38.8971 35.3401 44.7106 42.0837 50.2778C41.8512 50.7566 41.646 51.249 41.5092 51.7688L41.0441 53.506C40.2508 56.4469 41.0988 59.5793 43.2464 61.7269L44.5185 62.999C46.666 65.1465 49.7985 65.9946 52.7394 65.2012L53.478 65.0097L46.8849 58.4166L54.162 51.1396L60.7551 57.7327L60.9466 56.994C61.74 54.0531 60.8919 50.9207 58.7443 48.7731L57.4722 47.501C55.3247 45.3535 52.1922 44.5054 49.2513 45.2988L47.5141 45.7638C46.9943 45.9006 46.5019 46.1058 46.0232 46.3383C40.4559 39.5947 34.6425 33.7813 27.8989 28.2141C28.1315 27.7353 28.3366 27.2429 28.4734 26.7231L28.9385 24.9859Z" stroke="#8A8CCE" stroke-width="1.5" stroke-miterlimit="10" stroke-linecap="round" stroke-linejoin="bevel"/>
<path d="M58.6618 21.3748L49.6065 12.3195L51.8635 10.0489L47.8146 6L37.1316 16.683L41.1805 20.7319L43.4511 18.4613L52.5064 27.5166C60.2759 35.286 58.3335 42.0843 58.3335 42.0843C63.846 36.5855 64.3248 27.0378 58.6618 21.3748Z" stroke="#8A8CCE" stroke-width="1.5" stroke-miterlimit="10" stroke-linecap="round" stroke-linejoin="bevel"/>
<path d="M47.9507 22.9619L35.5579 35.0265" stroke="#8A8CCE" stroke-width="1.5" stroke-miterlimit="10" stroke-linecap="round" stroke-linejoin="bevel"/>
<path d="M31.2253 40.2956L31.7621 39.7719L30.7147 38.6982L30.1778 39.2219L31.2253 40.2956ZM12.2627 57.7463L11.739 57.2094L11.7324 58.2766L12.2627 57.7463ZM16.9545 62.438L16.4242 62.9684L17.4917 62.9614L16.9545 62.438ZM35.4792 44.4951L36.0025 43.9579L34.928 42.9113L34.4047 43.4485L35.4792 44.4951ZM30.1778 39.2219L11.739 57.2094L12.7864 58.2831L31.2253 40.2956L30.1778 39.2219ZM11.7324 58.2766L16.4242 62.9684L17.4848 61.9077L12.793 57.2159L11.7324 58.2766ZM17.4917 62.9614L35.4792 44.4951L34.4047 43.4485L16.4172 61.9147L17.4917 62.9614Z" fill="#8A8CCE"/>
<path d="M39.6479 39.1429L51.7399 26.75" stroke="#8A8CCE" stroke-width="1.5" stroke-miterlimit="10" stroke-linecap="round" stroke-linejoin="bevel"/>
<path d="M57.8155 20.5127L60.0451 18.2283L56.475 14.6445L54.177 16.8878" stroke="#8A8CCE" stroke-width="1.5" stroke-miterlimit="10" stroke-linecap="round" stroke-linejoin="bevel"/>
</svg>
