<svg id="Слой_1" data-name="Слой 1" xmlns="http://www.w3.org/2000/svg" viewBox="0 0 72 72"><defs><style>.cls-1{fill:#8a8cce;}</style></defs><title>management-8</title><path class="cls-1" d="M50.54,66.24A9.29,9.29,0,0,1,44,63.53l-1.27-1.27a9.27,9.27,0,0,1-2.4-8.95l0.46-1.74a8.14,8.14,0,0,1,.38-1.09A131.75,131.75,0,0,1,23.75,33.07a8,8,0,0,1-1.09.38l-1.73.46A9.27,9.27,0,0,1,12,31.52l-1.27-1.27a9.27,9.27,0,0,1-2.4-8.95l0.19-.73,1.26-.34,6.06,6.06L22,20.08,16,14l0.34-1.26,0.74-.19A9.27,9.27,0,0,1,26,15l1.27,1.27a9.27,9.27,0,0,1,2.4,8.94L29.2,26.92A8,8,0,0,1,28.82,28,131.9,131.9,0,0,1,46.23,45.42,8,8,0,0,1,47.32,45l1.73-.46A9.28,9.28,0,0,1,58,47l1.27,1.27a9.27,9.27,0,0,1,2.4,8.95l-0.19.73-1.26.34L54.16,52.2l-6.22,6.22L54,64.48l-0.34,1.26-0.74.19A9.15,9.15,0,0,1,50.54,66.24ZM23.63,31.48l0.91,0.2a130.63,130.63,0,0,0,18,18l0.2,0.91A7.57,7.57,0,0,0,42.23,52L41.77,53.7a7.77,7.77,0,0,0,2,7.5L45,62.47a7.79,7.79,0,0,0,7,2.13l-5.65-5.65V57.89l7.28-7.28h1.06l5.65,5.65a7.77,7.77,0,0,0-2.13-7L56.94,48a7.76,7.76,0,0,0-7.5-2l-1.74.46a7.35,7.35,0,0,0-1.36.52l-0.91-.2a130.72,130.72,0,0,0-18-18l-0.2-.91a7.44,7.44,0,0,0,.52-1.35l0.47-1.74a7.77,7.77,0,0,0-2-7.5L24.93,16a7.77,7.77,0,0,0-7-2.13l5.65,5.65v1.06l-7.28,7.28H15.29L9.64,22.23a7.77,7.77,0,0,0,2.13,7L13,30.46a7.77,7.77,0,0,0,7.5,2L22.27,32A7.38,7.38,0,0,0,23.63,31.48Z"/><path class="cls-1" d="M58.86,42.62l-1.25-.74C57.68,41.62,59.3,35.38,52,28l-8.53-8.52-1.74,1.74H40.65l-4-4V16.15L47.28,5.47h1.06l4,4v1.06l-1.73,1.74,8.53,8.53a14.75,14.75,0,0,1,4.25,10.55A15.94,15.94,0,0,1,58.86,42.62ZM44,17.93L53,27c5.2,5.2,6.22,10,6.27,12.78a14.6,14.6,0,0,0,2.64-8.38,13.26,13.26,0,0,0-3.81-9.48l-9.06-9.06V11.79l1.73-1.74-3-3-9.62,9.62,3,3,1.74-1.74H44Z"/><path class="cls-1" d="M35.56,35.78A0.75,0.75,0,0,1,35,34.49L47.43,22.42a0.75,0.75,0,0,1,1,1.08L36.08,35.56A0.75,0.75,0,0,1,35.56,35.78Z"/><path class="cls-1" d="M31.23,40.3l0.54-.52-1-1.07-0.54.52Zm-19,17.45-0.52-.54v1.07ZM17,62.44L16.42,63h1.07ZM35.48,44.5L36,44l-1.07-1-0.52.54Zm-5.3-5.27-18.44,18,1,1.07,18.44-18ZM11.73,58.28L16.42,63l1.06-1.06-4.69-4.69ZM17.49,63l18-18.47-1.07-1-18,18.47Z"/><path class="cls-1" d="M39.65,39.89a0.75,0.75,0,0,1-.54-1.27L51.2,26.23a0.75,0.75,0,0,1,1.07,1L40.18,39.67A0.75,0.75,0,0,1,39.65,39.89Z"/><path class="cls-1" d="M57.82,21.26A0.75,0.75,0,0,1,57.28,20L59,18.23,56.47,15.7,54.7,17.42a0.75,0.75,0,1,1-1-1.07L56,14.11H57l3.57,3.58v1.05L58.35,21A0.75,0.75,0,0,1,57.82,21.26Z"/></svg>