<svg width="72" height="72" viewBox="0 0 72 72" fill="none" xmlns="http://www.w3.org/2000/svg">
<path d="M26.5005 54C20.4993 47 28.2364 37.1176 25.9117 32.6908C27.5682 33.6096 30.0879 39.0665 30.6447 42.0594C34.1249 36.2545 30.7839 29.7814 36.0181 22.2363C32.9277 37.577 42.8532 35.3775 40.083 41.6279C41.7256 39.3031 43.5214 31.3683 46.1246 30.7976C41.9205 36.7974 52.001 45.5 45.9995 54" stroke="#8A8CCE" stroke-width="1.5" stroke-miterlimit="10" stroke-linecap="round" stroke-linejoin="bevel"/>
<path d="M30.4993 57.5C26.9988 54 28.5284 49.7714 28.9878 48.8665C30.1154 51.7899 33.2754 50.8572 33.9436 46.1659C34.3891 43.0198 36.4354 37.8691 36.4354 37.8691C35.5306 41.0152 36.867 49.9941 39.3448 50.885C41.8227 51.7899 44.3006 49.7574 44.3006 47.9617C45.6509 50.6623 45.6788 53.8362 44.3285 55.8686" stroke="#8A8CCE" stroke-width="1.5" stroke-miterlimit="10" stroke-linecap="round" stroke-linejoin="bevel"/>
<path d="M36.4192 62.6611C35.0828 61.4082 33.6072 60.1832 32.1177 58.9304C24.6423 52.666 16.1506 45.5804 16.1506 30.5739V20.4256C25.7002 18.9361 32.3961 13.6045 36.4192 9.2334C40.4423 13.6045 47.1381 18.9222 56.6878 20.4256V30.5739C56.6878 45.5665 48.21 52.666 40.7207 58.9304C39.2173 60.1832 37.7556 61.4082 36.4192 62.6611Z" stroke="#8A8CCE" stroke-width="1.5" stroke-miterlimit="10" stroke-linecap="round" stroke-linejoin="bevel"/>
<path d="M36.42 67.91C34.8192 66.4066 33.0652 64.9449 31.2694 63.4415C22.3184 55.9521 12.1702 47.4605 12.1702 29.5167V17.3778C23.5852 15.596 31.6035 9.22027 36.42 4C41.2366 9.22027 49.2549 15.596 60.6699 17.3778V29.5167C60.6699 47.4605 50.5217 55.9521 41.5707 63.4415C39.7749 64.9449 38.0209 66.4066 36.42 67.91Z" stroke="#8A8CCE" stroke-width="1.5" stroke-miterlimit="10" stroke-linecap="round" stroke-linejoin="bevel"/>
</svg>
