<svg id="Слой_1" data-name="Слой 1" xmlns="http://www.w3.org/2000/svg" viewBox="0 0 72 72"><defs><style>.cls-1{fill:#8a8cce;}</style></defs><title>management-5</title><path class="cls-1" d="M46,54.75a0.75,0.75,0,0,1-.61-1.18c3-4.32,1.65-8.69.3-12.93a20,20,0,0,1-1.37-6.74c-0.62,1.22-1.2,2.71-1.7,4a22.51,22.51,0,0,1-1.93,4.2l-1.3-.74c0.95-2.14.21-3-1.13-4.45-1.71-1.9-4-4.39-3.56-10.58a25.3,25.3,0,0,0-1.36,7.6c-0.21,3-.41,5.8-2.06,8.55l-1.38-.25a24.26,24.26,0,0,0-2.8-7,26.8,26.8,0,0,1-1,5c-1.12,4.38-2.4,9.34.95,13.24a0.75,0.75,0,0,1-1.14,1C22.08,50,23.51,44.39,24.67,39.9,25.41,37,26,34.55,25.25,33l1-1c1.59,0.88,3.57,4.79,4.57,7.87a22.06,22.06,0,0,0,1-6.11c0.25-3.58.54-7.64,3.55-12l1.35,0.58C35,31,37.44,33.71,39.38,35.87A9.1,9.1,0,0,1,41,38l0.27-.68C42.54,34,43.9,30.52,46,30.06l0.77,1.16c-1.7,2.43-.74,5.46.38,9,1.39,4.37,3,9.32-.51,14.25A0.75,0.75,0,0,1,46,54.75Z"/><path class="cls-1" d="M30.5,58.25A0.75,0.75,0,0,1,30,58a8.34,8.34,0,0,1-1.65-9.5l1.37,0.07A1.43,1.43,0,0,0,31,49.78c0.81-.09,1.85-1.3,2.19-3.72a48.52,48.52,0,0,1,2.54-8.47l1.42,0.48c-0.87,3,.54,11.42,2.44,12.1a3,3,0,0,0,2.8-.41A2.44,2.44,0,0,0,43.55,48L45,47.63c1.47,2.95,1.46,6.42,0,8.66a0.75,0.75,0,0,1-1.25-.83A6.81,6.81,0,0,0,44.29,50a4.67,4.67,0,0,1-1,1,4.5,4.5,0,0,1-4.17.59c-2-.71-3.2-5-3.56-8.81a25.13,25.13,0,0,0-.84,3.5c-0.4,2.84-1.78,4.8-3.51,5a2.4,2.4,0,0,1-2-.7A6.66,6.66,0,0,0,31,57,0.75,0.75,0,0,1,30.5,58.25Z"/><path class="cls-1" d="M36.93,63.21h-1c-1.19-1.11-2.46-2.19-3.82-3.32l-0.45-.38C24,53.11,15.4,45.9,15.4,30.57V20.43L16,19.68a34.29,34.29,0,0,0,19.83-11H37a34.35,34.35,0,0,0,19.83,11l0.63,0.74V30.57c0,15.35-8.62,22.57-16.24,28.93C39.56,60.87,38.21,62,36.93,63.21Zm-20-42.15v9.51c0,14.63,8.32,21.6,15.65,27.74l0.5,0.42c1.18,1,2.3,1.93,3.37,2.9,1.15-1.05,2.38-2.08,3.82-3.29,7.36-6.15,15.7-13.13,15.7-27.78V21.06A35.75,35.75,0,0,1,36.42,10.33,35.69,35.69,0,0,1,16.9,21.06Z"/><path class="cls-1" d="M36.93,68.46h-1C34.39,67,32.75,65.66,31,64.21L30.79,64c-9.08-7.6-19.37-16.21-19.37-34.5V17.38l0.63-.74A41.25,41.25,0,0,0,35.87,3.49H37A41.25,41.25,0,0,0,60.79,16.64l0.63,0.74V29.52c0,18.29-10.29,26.9-19.37,34.5l-0.23.2C40.08,65.66,38.45,67,36.93,68.46ZM12.92,18v11.5c0,17.59,10,26,18.83,33.35L32,63.06c1.56,1.3,3,2.54,4.43,3.82,1.4-1.28,2.88-2.52,4.43-3.82l0.23-.2c8.83-7.38,18.83-15.76,18.83-33.35V18A42.64,42.64,0,0,1,36.42,5.1,42.64,42.64,0,0,1,12.92,18Z"/></svg>