<svg width="72" height="72" viewBox="0 0 72 72" fill="none" xmlns="http://www.w3.org/2000/svg">
<path d="M49.1038 16.2084V4.54199L61.0337 16.2084H49.1038Z" stroke="#8A8CCE" stroke-width="1.5" stroke-miterlimit="10" stroke-linecap="round" stroke-linejoin="bevel"/>
<path d="M44.6656 49.305H61.0308C61.0308 38.2729 61.0308 27.2408 61.0308 16.2087L49.1009 4.54229C41.8893 4.54229 34.6777 4.54159 27.4661 4.54234V20.9075" stroke="#8A8CCE" stroke-width="1.5" stroke-miterlimit="10" stroke-linecap="square" stroke-linejoin="bevel"/>
<path d="M32.7344 32.5727V20.9062L44.6643 32.5727H32.7344Z" stroke="#8A8CCE" stroke-width="1.5" stroke-miterlimit="10" stroke-linecap="round" stroke-linejoin="bevel"/>
<path d="M11.0874 20.9062H32.7369L44.6668 32.5727C44.6668 43.5999 44.6668 54.6271 44.6668 65.6543C33.4737 65.6543 22.2805 65.6543 11.0874 65.6543V21.9895M11.0874 20.9062C11.0874 20.9062 11.0874 21.3893 11.0874 21.9895M11.0874 20.9062L11.0874 21.9895" stroke="#8A8CCE" stroke-width="1.5" stroke-miterlimit="10" stroke-linecap="round" stroke-linejoin="bevel"/>
<path d="M39.9097 58.1162H15.845" stroke="#8A8CCE" stroke-width="1.5" stroke-miterlimit="10" stroke-linecap="square" stroke-linejoin="bevel"/>
<path d="M39.9097 53.1689H15.845" stroke="#8A8CCE" stroke-width="1.5" stroke-miterlimit="10" stroke-linecap="square" stroke-linejoin="bevel"/>
<path d="M39.9097 48.2217H15.845" stroke="#8A8CCE" stroke-width="1.5" stroke-miterlimit="10" stroke-linecap="square" stroke-linejoin="bevel"/>
<path d="M39.9097 43.2881H15.845" stroke="#8A8CCE" stroke-width="1.5" stroke-miterlimit="10" stroke-linecap="square" stroke-linejoin="bevel"/>
<path d="M39.9097 38.3408H15.845" stroke="#8A8CCE" stroke-width="1.5" stroke-miterlimit="10" stroke-linecap="square" stroke-linejoin="bevel"/>
<path d="M29.9413 33.4072H15.845" stroke="#8A8CCE" stroke-width="1.5" stroke-miterlimit="10" stroke-linecap="square" stroke-linejoin="bevel"/>
<path d="M29.385 28.46H15.845" stroke="#8A8CCE" stroke-width="1.5" stroke-miterlimit="10" stroke-linecap="square" stroke-linejoin="bevel"/>
<path d="M59.9803 52.9492C59.9803 59.0971 55.0034 64.074 48.8555 64.074" stroke="#8A8CCE" stroke-width="1.5" stroke-miterlimit="10" stroke-linecap="square" stroke-linejoin="bevel"/>
<path d="M50.4194 67.1185L47.2722 63.9567L50.4194 60.8096" stroke="#8A8CCE" stroke-width="1.5" stroke-miterlimit="10" stroke-linecap="square" stroke-linejoin="bevel"/>
<path d="M11.5837 18.1541C11.5837 12.0062 16.5606 7.0293 22.7086 7.0293" stroke="#8A8CCE" stroke-width="1.5" stroke-miterlimit="10" stroke-linecap="square" stroke-linejoin="bevel"/>
<path d="M21.1409 4L24.288 7.14715L21.1409 10.2943" stroke="#8A8CCE" stroke-width="1.5" stroke-miterlimit="10" stroke-linecap="square" stroke-linejoin="bevel"/>
</svg>
