<svg width="72" height="72" viewBox="0 0 72 72" fill="none" xmlns="http://www.w3.org/2000/svg">
<path fill-rule="evenodd" clip-rule="evenodd" d="M36.3736 1.34961L35.6252 1.34962L2.62577 20.3496L2.25 20.9996V28.9996L3.3721 29.6508L5.75059 28.2916L5.75 61.9996L6.5 62.7496H15.25H16H56H56.75H65.5L66.25 61.9996V28.2919L68.6279 29.6508L69.75 28.9996V20.9996L69.3742 20.3496L36.3736 1.34961ZM55.25 61.2496H16.75V32.9996C16.75 32.3092 17.3096 31.7496 18 31.7496H54C54.6904 31.7496 55.25 32.3092 55.25 32.9996V61.2496ZM56.75 32.9996V61.2496H64.75V27.4394L62.4318 26.1428L35.9997 11.3591L7.25061 27.4394L7.25001 61.2496H15.25V32.9996C15.25 31.4808 16.4812 30.2496 18 30.2496H54C55.5188 30.2496 56.75 31.4808 56.75 32.9996ZM65.8661 26.345L65.8721 26.3484L65.8721 26.3484L68.25 27.7072V21.4332L35.9994 2.86501L3.75 21.4332V27.7072L6.1279 26.3484L6.13386 26.345L6.13388 26.345L35.6333 9.84501L35.6339 9.84501L36.3655 9.84501L36.3661 9.84501L65.8661 26.345ZM30 40.3182V43.7605C30 44.5095 30.2098 45.0832 30.6293 45.4816C31.0656 45.88 31.6278 46.0792 32.3158 46.0792H32.7941C33.4989 46.0792 34.0526 45.872 34.4554 45.4577C34.8581 45.0433 35.0595 44.4776 35.0595 43.7605V40.3182C35.0595 39.5852 34.8581 39.0194 34.4554 38.621C34.0526 38.2067 33.4989 37.9995 32.7941 37.9995H32.3158C31.5942 37.9995 31.0236 38.1987 30.6041 38.5971C30.2014 38.9955 30 39.5692 30 40.3182ZM35.9657 50.2386V53.6808C35.9657 54.4298 36.1754 55.0035 36.595 55.4019C37.0313 55.8003 37.5934 55.9995 38.2815 55.9995H38.7597C39.4645 55.9995 40.0099 55.7923 40.3959 55.378C40.7986 54.9637 41 54.3979 41 53.6808V50.2386C41 49.5055 40.7986 48.9398 40.3959 48.5413C39.9931 48.127 39.4394 47.9198 38.7346 47.9198H38.2815C37.5599 47.9198 36.9893 48.119 36.5698 48.5174C36.167 48.9158 35.9657 49.4896 35.9657 50.2386ZM39.8421 38.119H37.9794L31.2334 55.9039H33.0961L39.8421 38.119ZM33.0206 40.3421V43.7127C33.0206 44.0792 32.8444 44.2625 32.492 44.2625C32.1899 44.2625 32.0389 44.0792 32.0389 43.7127V40.3421C32.0389 39.9756 32.1899 39.7923 32.492 39.7923C32.8444 39.7923 33.0206 39.9756 33.0206 40.3421ZM38.9611 53.633C38.9611 53.9995 38.7933 54.1828 38.4577 54.1828C38.1556 54.1828 38.0046 53.9995 38.0046 53.633V50.2625C38.0046 49.8959 38.1556 49.7127 38.4577 49.7127C38.7933 49.7127 38.9611 49.8959 38.9611 50.2625V53.633Z" fill="#8A8CCE"/>
</svg>
