<svg width="32" height="32" viewBox="0 0 32 32" fill="none" xmlns="http://www.w3.org/2000/svg">
<path d="M0 16C0 7.16344 7.16344 0 16 0C24.8366 0 32 7.16344 32 16C32 24.8366 24.8366 32 16 32C7.16344 32 0 24.8366 0 16Z" fill="#EFEFEF"/>
<path fill-rule="evenodd" clip-rule="evenodd" d="M15.8231 9.69466C16.6087 8.90908 17.7022 8.48074 18.8732 8.51851C20.0465 8.55636 21.1991 9.06018 22.0692 9.93037C22.9394 10.8006 23.4433 11.9532 23.4811 13.1264C23.4998 13.7067 23.404 14.2737 23.2018 14.796C22.9997 15.3181 22.6947 15.7868 22.305 16.1765L21.1264 17.355L20.5961 17.8853L21.6568 18.946L22.1871 18.4156L23.3656 17.2371C23.9045 16.6983 24.3239 16.0523 24.6006 15.3375C24.8773 14.6228 25.0054 13.8548 24.9803 13.0781C24.9298 11.5107 24.2601 9.9999 23.1299 8.86971C21.9997 7.73951 20.4889 7.06985 18.9216 7.01929C17.352 6.96866 15.8523 7.54422 14.7625 8.634L13.584 9.81251L13.0536 10.3428L14.1143 11.4035L14.6446 10.8732L15.8231 9.69466ZM9.69488 15.8229C8.9093 16.6085 8.48096 17.702 8.51873 18.873C8.55658 20.0462 9.0604 21.1988 9.93059 22.069C10.8008 22.9392 11.9534 23.443 13.1266 23.4809C13.7069 23.4996 14.2739 23.4038 14.7962 23.2016C15.3183 22.9994 15.787 22.6945 16.1767 22.3047L17.3552 21.1262L17.8855 20.5959L18.9462 21.6566L18.4159 22.1869L17.2374 23.3654C16.6985 23.9043 16.0525 24.3237 15.3377 24.6004C14.6231 24.8771 13.855 25.0052 13.0783 24.9801C11.511 24.9295 10.0001 24.2599 8.86993 23.1297C7.73973 21.9995 7.07007 20.4887 7.01951 18.9213C6.96888 17.3518 7.54444 15.852 8.63422 14.7623L9.81273 13.5838L10.3431 13.0534L11.4037 14.1141L10.8734 14.6444L9.69488 15.8229ZM12.6412 18.2978L12.1108 18.8281L13.1715 19.8888L13.7018 19.3585L19.3587 13.7016L19.889 13.1713L18.8283 12.1106L18.298 12.6409L12.6412 18.2978Z" fill="#2E2E2E"/>
</svg>
