<svg aria-hidden="true" style="position: absolute; width: 0; height: 0; overflow: hidden;" version="1.1" xmlns="http://www.w3.org/2000/svg" xmlns:xlink="http://www.w3.org/1999/xlink">
<defs>
<symbol id="icon-social-link" viewBox="0 0 32 32">
<path fill="#efefef" style="fill: var(--color-bg, #efefef)" d="M0 16c0-8.837 7.163-16 16-16s16 7.163 16 16c0 8.837-7.163 16-16 16s-16-7.163-16-16z"></path>
<path fill="#2e2e2e" style="fill: var(--color, #2e2e2e)" d="M15.823 9.695c0.786-0.786 1.879-1.214 3.050-1.176 1.173 0.038 2.326 0.542 3.196 1.412s1.374 2.023 1.412 3.196c0.019 0.58-0.077 1.147-0.279 1.67s-0.507 0.991-0.897 1.381l-1.709 1.709 1.061 1.061 1.709-1.709c0.539-0.539 0.958-1.185 1.235-1.9s0.405-1.483 0.38-2.259c-0.050-1.567-0.72-3.078-1.85-4.208s-2.641-1.8-4.208-1.85c-1.57-0.051-3.069 0.525-4.159 1.615l-1.709 1.709 1.061 1.061 1.709-1.709zM9.695 15.823c-0.786 0.786-1.214 1.879-1.176 3.050 0.038 1.173 0.542 2.326 1.412 3.196s2.023 1.374 3.196 1.412c0.58 0.019 1.147-0.077 1.67-0.279s0.991-0.507 1.38-0.897l1.709-1.709 1.061 1.061-1.709 1.709c-0.539 0.539-1.185 0.958-1.9 1.235s-1.483 0.405-2.259 0.38c-1.567-0.051-3.078-0.72-4.208-1.85s-1.8-2.641-1.85-4.208c-0.051-1.57 0.525-3.069 1.615-4.159l1.709-1.709 1.061 1.061-1.709 1.709zM12.641 18.298l-0.53 0.53 1.061 1.061 6.718-6.718-1.061-1.061-6.187 6.187z"></path>
</symbol>
<symbol id="icon-social-tlgrm" viewBox="0 0 32 32">
<path fill="#2e2e2e" style="fill: var(--color, #2e2e2e)" d="M29.334 16c0 7.364-5.97 13.333-13.333 13.333s-13.333-5.97-13.333-13.333c0-7.364 5.97-13.333 13.333-13.333s13.333 5.97 13.333 13.333z"></path>
<path fill="#efefef" style="fill: var(--color-bg, #efefef)" d="M32 16c0 8.837-7.163 16-16 16s-16-7.163-16-16c0-8.837 7.163-16 16-16s16 7.163 16 16zM10.714 14.534c-1.603 0.7-3.25 1.419-4.755 2.248-0.786 0.576 0.259 0.983 1.239 1.365 0.156 0.061 0.31 0.121 0.455 0.181 0.121 0.037 0.243 0.076 0.368 0.116 1.090 0.347 2.306 0.735 3.365 0.152 1.739-0.999 3.38-2.154 5.020-3.308 0.537-0.378 1.074-0.756 1.615-1.129 0.025-0.016 0.054-0.035 0.085-0.055 0.46-0.299 1.496-0.97 1.113-0.045-0.906 0.99-1.876 1.867-2.851 2.749-0.657 0.594-1.317 1.19-1.961 1.825-0.561 0.456-1.143 1.372-0.515 2.010 1.447 1.013 2.916 2.001 4.384 2.988 0.478 0.321 0.956 0.643 1.432 0.965 0.808 0.645 2.071 0.123 2.249-0.885 0.079-0.464 0.158-0.927 0.238-1.391 0.438-2.563 0.877-5.127 1.264-7.699 0.053-0.403 0.112-0.807 0.172-1.21 0.145-0.978 0.29-1.957 0.335-2.941-0.117-0.981-1.307-0.766-1.969-0.545-3.404 1.295-6.773 2.686-10.129 4.102-0.38 0.168-0.766 0.337-1.154 0.506z"></path>
</symbol>
<symbol id="icon-social-vk" viewBox="0 0 32 32">
<path fill="#2e2e2e" style="fill: var(--color, #2e2e2e)" d="M29.334 16c0 7.364-5.97 13.333-13.333 13.333s-13.333-5.97-13.333-13.333c0-7.364 5.97-13.333 13.333-13.333s13.333 5.97 13.333 13.333z"></path>
<path fill="#efefef" style="fill: var(--color-bg, #efefef)" d="M0 16c0-8.837 7.163-16 16-16s16 7.163 16 16c0 8.837-7.163 16-16 16s-16-7.163-16-16zM16.836 21.251c0 0 0.308-0.034 0.466-0.2 0.144-0.152 0.139-0.44 0.139-0.44s-0.019-1.343 0.616-1.541c0.626-0.195 1.43 1.299 2.283 1.873 0.644 0.434 1.134 0.339 1.134 0.339l2.28-0.031c0 0 1.192-0.072 0.627-0.992-0.047-0.075-0.33-0.681-1.695-1.925-1.43-1.302-1.238-1.091 0.483-3.344 1.049-1.372 1.468-2.209 1.336-2.567-0.124-0.342-0.896-0.252-0.896-0.252l-2.566 0.015c0 0-0.19-0.025-0.331 0.057-0.138 0.081-0.227 0.27-0.227 0.27s-0.406 1.061-0.947 1.964c-1.143 1.904-1.599 2.005-1.786 1.887-0.435-0.276-0.326-1.108-0.326-1.698 0-1.846 0.285-2.616-0.555-2.815-0.279-0.066-0.484-0.11-1.198-0.117-0.916-0.009-1.69 0.003-2.129 0.214-0.292 0.14-0.518 0.453-0.38 0.471 0.169 0.022 0.553 0.102 0.757 0.374 0.263 0.351 0.254 1.14 0.254 1.14s0.151 2.173-0.353 2.443c-0.346 0.185-0.82-0.193-1.839-1.921-0.522-0.885-0.916-1.863-0.916-1.863s-0.076-0.183-0.212-0.281c-0.164-0.119-0.394-0.156-0.394-0.156l-2.438 0.016c0 0-0.366 0.010-0.501 0.166-0.119 0.139-0.009 0.426-0.009 0.426s1.909 4.384 4.071 6.594c1.982 2.026 4.233 1.893 4.233 1.893h1.020z"></path>
</symbol>
<symbol id="icon-social-wtspp" viewBox="0 0 32 32">
<path fill="#2e2e2e" style="fill: var(--color, #2e2e2e)" d="M29.334 16c0 7.364-5.97 13.333-13.333 13.333s-13.333-5.97-13.333-13.333c0-7.364 5.97-13.333 13.333-13.333s13.333 5.97 13.333 13.333z"></path>
<path fill="#efefef" style="fill: var(--color-bg, #efefef)" d="M0 16c0 8.837 7.163 16 16 16s16-7.163 16-16c0-8.837-7.163-16-16-16s-16 7.163-16 16zM26.041 15.388c-0.002 5.245-4.268 9.512-9.514 9.514h-0.004c-1.592-0.001-3.157-0.4-4.546-1.158l-5.044 1.323 1.35-4.93c-0.833-1.443-1.271-3.080-1.27-4.756 0.002-5.246 4.27-9.514 9.514-9.514 2.545 0.001 4.934 0.992 6.73 2.79s2.785 4.189 2.784 6.731zM9.218 22.805l2.993-0.785 0.289 0.171c1.214 0.72 2.606 1.102 4.025 1.102h0.003c4.358 0 7.906-3.547 7.908-7.908 0.001-2.113-0.821-4.1-2.314-5.595s-3.478-2.318-5.591-2.319c-4.362 0-7.909 3.547-7.911 7.907-0.001 1.494 0.417 2.949 1.209 4.208l0.188 0.299-0.799 2.918zM20.995 17.435c0.166 0.080 0.278 0.134 0.326 0.214 0.059 0.099 0.059 0.575-0.139 1.131s-1.148 1.062-1.605 1.13c-0.41 0.061-0.928 0.087-1.497-0.094-0.345-0.11-0.788-0.256-1.355-0.501-2.229-0.962-3.735-3.122-4.019-3.531-0.020-0.029-0.034-0.049-0.042-0.059l-0.002-0.003c-0.126-0.168-0.969-1.293-0.969-2.457 0-1.095 0.538-1.669 0.786-1.933 0.017-0.018 0.033-0.035 0.046-0.050 0.218-0.238 0.476-0.297 0.634-0.297s0.317 0.002 0.456 0.008c0.017 0.001 0.035 0.001 0.053 0.001 0.139-0.001 0.311-0.002 0.482 0.407 0.066 0.158 0.161 0.391 0.263 0.637 0.204 0.498 0.431 1.048 0.47 1.128 0.059 0.119 0.099 0.258 0.020 0.416-0.012 0.024-0.023 0.046-0.033 0.068-0.059 0.121-0.103 0.211-0.204 0.329-0.040 0.046-0.081 0.096-0.122 0.146-0.082 0.1-0.164 0.199-0.235 0.27-0.119 0.119-0.243 0.247-0.104 0.485s0.616 1.016 1.322 1.647c0.76 0.678 1.42 0.964 1.755 1.109 0.065 0.028 0.118 0.051 0.157 0.071 0.238 0.119 0.376 0.099 0.515-0.059s0.594-0.694 0.753-0.932c0.159-0.238 0.317-0.198 0.535-0.119s1.387 0.654 1.624 0.773c0.047 0.023 0.090 0.044 0.13 0.064z"></path>
</symbol>
</defs>
</svg>
