<svg width="32" height="32" viewBox="0 0 32 32" fill="none" xmlns="http://www.w3.org/2000/svg">
<circle cx="16.0003" cy="16.0003" r="13.3333" fill="#2E2E2E"/>
<path fill-rule="evenodd" clip-rule="evenodd" d="M0 16C0 7.16344 7.16344 0 16 0C24.8366 0 32 7.16344 32 16C32 24.8366 24.8366 32 16 32C7.16344 32 0 24.8366 0 16ZM16.8361 21.2508C16.8361 21.2508 17.1441 21.2172 17.3019 21.0509C17.4463 20.8985 17.4413 20.6109 17.4413 20.6109C17.4413 20.6109 17.4221 19.2679 18.0573 19.0696C18.6834 18.8746 19.4872 20.3683 20.3403 20.9427C20.9847 21.377 21.4739 21.2819 21.4739 21.2819L23.7535 21.2508C23.7535 21.2508 24.9455 21.1787 24.3804 20.2585C24.3337 20.1831 24.0507 19.5776 22.6859 18.3338C21.256 17.0319 21.448 17.2424 23.1692 14.99C24.2177 13.6184 24.6367 12.781 24.5056 12.4229C24.3813 12.0804 23.61 12.1714 23.61 12.1714L21.044 12.1869C21.044 12.1869 20.8537 12.1615 20.7126 12.2443C20.5749 12.3254 20.4856 12.5147 20.4856 12.5147C20.4856 12.5147 20.0799 13.5758 19.5382 14.4787C18.3954 16.3829 17.9388 16.4837 17.7518 16.3657C17.3169 16.0896 17.4254 15.2579 17.4254 14.6672C17.4254 12.8211 17.7109 12.0517 16.8704 11.8526C16.5916 11.7862 16.3862 11.7428 15.6725 11.7354C14.7568 11.7264 13.9822 11.7387 13.5431 11.9493C13.251 12.0894 13.0256 12.4024 13.1633 12.4204C13.3328 12.4426 13.7167 12.522 13.9204 12.7941C14.1834 13.1456 14.1742 13.9338 14.1742 13.9338C14.1742 13.9338 14.3253 16.1068 13.8211 16.3764C13.4755 16.5615 13.0014 16.1838 11.9822 14.4558C11.4605 13.5708 11.0665 12.5925 11.0665 12.5925C11.0665 12.5925 10.9905 12.4098 10.8544 12.3115C10.69 12.1927 10.4605 12.1558 10.4605 12.1558L8.0222 12.1714C8.0222 12.1714 7.65575 12.1812 7.52136 12.3377C7.402 12.4762 7.51218 12.7638 7.51218 12.7638C7.51218 12.7638 9.42121 17.1482 11.5832 19.358C13.5657 21.3835 15.8161 21.2508 15.8161 21.2508H16.8361Z" fill="#EFEFEF"/>
</svg>
