<svg width="32" height="32" viewBox="0 0 32 32" fill="none" xmlns="http://www.w3.org/2000/svg">
<ellipse cx="16.0003" cy="16.0003" rx="13.3333" ry="13.3333" fill="#2E2E2E"/>
<path fill-rule="evenodd" clip-rule="evenodd" d="M0 16C0 24.8366 7.16344 32 16 32C24.8366 32 32 24.8366 32 16C32 7.16344 24.8366 0 16 0C7.16344 0 0 7.16344 0 16ZM26.0414 15.3877C26.0393 20.6322 21.773 24.8995 16.5274 24.9017H16.5234C14.9311 24.9011 13.3665 24.5016 11.9769 23.7436L6.93333 25.0667L8.28308 20.1366C7.45049 18.6937 7.01239 17.057 7.0131 15.3802C7.01519 10.1345 11.2832 5.86667 16.5273 5.86667C19.0724 5.86777 21.4612 6.85858 23.2575 8.65694C25.0537 10.4552 26.0424 12.8456 26.0414 15.3877ZM9.21767 22.8054L12.2106 22.0203L12.4994 22.1917C13.7135 22.9121 15.1052 23.2934 16.5242 23.2939H16.5274C20.8859 23.2939 24.4333 19.7465 24.435 15.3862C24.4359 13.2732 23.6141 11.2864 22.1211 9.79169C20.6281 8.29696 18.6427 7.47339 16.5305 7.47266C12.1686 7.47266 8.6212 11.0198 8.61947 15.3797C8.61885 16.8739 9.03693 18.3291 9.82851 19.5881L10.0165 19.8873L9.21767 22.8054ZM20.995 17.4351C21.1608 17.5152 21.2727 17.5693 21.3205 17.6491C21.3799 17.7482 21.3799 18.2242 21.1819 18.7796C20.9838 19.3349 20.0341 19.8417 19.5773 19.9099C19.1677 19.9712 18.6494 19.9967 18.08 19.8157C17.7347 19.7062 17.2919 19.5599 16.7248 19.315C14.4961 18.3526 12.99 16.1926 12.7054 15.7844C12.6854 15.7558 12.6715 15.7358 12.6637 15.7254L12.6618 15.7228C12.536 15.555 11.693 14.4303 11.693 13.2662C11.693 12.1712 12.2309 11.5972 12.4785 11.333C12.4955 11.3149 12.5111 11.2983 12.525 11.283C12.7429 11.045 13.0005 10.9855 13.159 10.9855C13.3174 10.9855 13.4761 10.987 13.6146 10.994C13.6317 10.9948 13.6495 10.9947 13.6678 10.9946C13.8064 10.9938 13.9791 10.9928 14.1495 11.402C14.215 11.5595 14.3109 11.793 14.4121 12.0393C14.6166 12.5373 14.8427 13.0875 14.8824 13.1672C14.9419 13.2862 14.9815 13.4249 14.9022 13.5837C14.8903 13.6075 14.8793 13.6299 14.8688 13.6514C14.8093 13.7729 14.7655 13.8623 14.6645 13.9802C14.6248 14.0266 14.5837 14.0766 14.5427 14.1266C14.4609 14.2262 14.3791 14.3258 14.3079 14.3967C14.1889 14.5153 14.065 14.6439 14.2037 14.8819C14.3424 15.1199 14.8195 15.8983 15.5262 16.5287C16.2859 17.2063 16.9461 17.4927 17.2808 17.6379C17.3461 17.6662 17.3991 17.6892 17.4379 17.7086C17.6756 17.8276 17.8142 17.8077 17.9529 17.6491C18.0916 17.4905 18.5472 16.9549 18.7056 16.717C18.8641 16.4791 19.0226 16.5187 19.2405 16.598C19.4585 16.6774 20.6272 17.2524 20.8649 17.3714C20.9114 17.3947 20.9547 17.4156 20.995 17.4351Z" fill="#EFEFEF"/>
</svg>
