<svg width="158" height="266" viewBox="0 0 158 266" fill="none" xmlns="http://www.w3.org/2000/svg">
<path d="M79 240.627V265L157 220.245V195.885L79 240.627Z" stroke="#2E2E2E" stroke-miterlimit="10" stroke-linecap="round" stroke-linejoin="round"/>
<path d="M1 195.885V220.245L78.9997 265V240.627L1 195.885Z" stroke="#2E2E2E" stroke-miterlimit="10" stroke-linecap="round" stroke-linejoin="round"/>
<path d="M79.0007 118.048L138.915 83.6719L138.967 196.713L78.9746 230.26L79.0007 118.048Z" stroke="#2E2E2E" stroke-miterlimit="10" stroke-linecap="round" stroke-linejoin="round"/>
<path d="M78.9745 117.996L19.0861 83.6719L18.9688 195.08L78.9745 230.26V117.996Z" stroke="#2E2E2E" stroke-miterlimit="10" stroke-linecap="round" stroke-linejoin="round"/>
<path d="M121.339 62.4482L79.1055 86.6917V107.89L121.378 83.6338L121.339 62.4482Z" stroke="#2E2E2E" stroke-miterlimit="10" stroke-linecap="round" stroke-linejoin="round"/>
<path d="M36.6612 62.4482L79.0251 86.6917V107.89L36.6221 83.6338L36.6612 62.4482Z" stroke="#2E2E2E" stroke-miterlimit="10" stroke-linecap="round" stroke-linejoin="round"/>
<path d="M56.5088 8.75065L56.926 8.50611C56.926 8.50611 65.6492 3.56376 67.2921 2.61133C71.7645 0.0243265 77.6712 0.564895 83.956 4.14295C96.643 11.3763 106.97 29.0348 106.97 43.5015C106.97 50.5804 104.972 56.1765 100.539 58.7249C96.4057 61.106 89.901 64.6645 89.901 64.6645" stroke="#2E2E2E" stroke-width="2" stroke-miterlimit="10" stroke-linecap="round" stroke-linejoin="round"/>
<path d="M83.562 66.3471C80.3544 66.3471 76.8078 65.2846 73.1438 63.1855C60.4568 55.9034 50.1299 38.1257 50.1299 23.5614C50.1299 16.3959 52.5812 11.0445 57.0406 8.49185C61.4999 5.93922 67.3936 6.4964 73.6263 10.0727C86.3133 17.3548 96.6402 35.1325 96.6402 49.6967C96.6402 56.8622 94.1889 62.2137 89.7295 64.7663C87.891 65.8288 85.8178 66.3471 83.562 66.3471Z" stroke="#2E2E2E" stroke-width="2" stroke-miterlimit="10" stroke-linecap="round" stroke-linejoin="round"/>
<path d="M19.0861 83.6719L18.9688 195.08L27.3659 200.004V88.4143L19.0861 83.6719Z" stroke="#2E2E2E" stroke-miterlimit="10" stroke-linecap="round" stroke-linejoin="round"/>
<path d="M27.4966 88.4688L27.3662 199.97L35.7764 204.897V93.2275L27.4966 88.4688Z" stroke="#2E2E2E" stroke-miterlimit="10" stroke-linecap="round" stroke-linejoin="round"/>
<path d="M35.9181 93.3105L35.8008 204.88L44.1979 209.811V98.0598L35.9181 93.3105Z" stroke="#2E2E2E" stroke-miterlimit="10" stroke-linecap="round" stroke-linejoin="round"/>
<path d="M44.3306 98.1504L44.2002 209.882L52.6104 214.819V102.919L44.3306 98.1504Z" stroke="#2E2E2E" stroke-miterlimit="10" stroke-linecap="round" stroke-linejoin="round"/>
<path d="M52.7267 102.934L52.6094 214.719L61.0065 219.66V107.692L52.7267 102.934Z" stroke="#2E2E2E" stroke-miterlimit="10" stroke-linecap="round" stroke-linejoin="round"/>
<path d="M60.8244 107.658L60.707 219.532L69.1042 224.476V112.433L60.8244 107.658Z" stroke="#2E2E2E" stroke-miterlimit="10" stroke-linecap="round" stroke-linejoin="round"/>
<path d="M79.0007 118.046L88.2845 112.721V224.829L78.9746 230.258L79.0007 118.046Z" stroke="#2E2E2E" stroke-miterlimit="10" stroke-linecap="round" stroke-linejoin="round"/>
<path d="M79 118.014L88.2838 112.721V225.029L79.1043 230.258L79 118.014Z" stroke="#2E2E2E" stroke-miterlimit="10" stroke-linecap="round" stroke-linejoin="round"/>
<path d="M88.2861 112.751L97.5699 107.474V219.699L88.3774 224.937L88.2861 112.751Z" stroke="#2E2E2E" stroke-miterlimit="10" stroke-linecap="round" stroke-linejoin="round"/>
<path d="M97.5654 107.378L106.836 102.08V214.449L97.6567 219.682L97.5654 107.378Z" stroke="#2E2E2E" stroke-miterlimit="10" stroke-linecap="round" stroke-linejoin="round"/>
<path d="M106.84 102.054L116.124 96.752V209.261L106.944 214.512L106.84 102.054Z" stroke="#2E2E2E" stroke-miterlimit="10" stroke-linecap="round" stroke-linejoin="round"/>
<path d="M116.123 96.712L125.407 91.4062V204.134L116.214 209.388L116.123 96.712Z" stroke="#2E2E2E" stroke-miterlimit="10" stroke-linecap="round" stroke-linejoin="round"/>
<path d="M125.407 91.445L134.691 86.127V199.031L125.498 204.284L125.407 91.445Z" stroke="#2E2E2E" stroke-miterlimit="10" stroke-linecap="round" stroke-linejoin="round"/>
<path d="M71.0058 50.5785C68.3067 48.9459 65.8684 46.9893 63.3258 44.4626C62.8303 43.9702 62.5044 43.2446 62.4913 42.6356L62.4131 38.1652C62.4 37.1416 63.2997 36.9213 64.1342 37.7765C65.2295 38.8909 66.377 39.9793 67.5766 41.0418C69.4411 42.6874 71.0841 43.8925 72.4923 44.6699C73.6528 45.3048 74.5003 45.6158 75.0349 45.6028C75.5695 45.5769 75.8303 45.2012 75.8172 44.4496C75.8042 43.9313 75.6086 43.4001 75.2174 42.817C74.8263 42.2469 74.1613 41.4824 73.2485 40.5365C72.3358 39.5906 71.0971 38.3596 69.5455 36.8695C67.7982 35.185 66.39 33.5912 65.3078 32.0882C64.2255 30.5851 63.4301 29.1468 62.9347 27.7474C62.4261 26.348 62.1653 24.819 62.1393 23.1475C62.1001 20.5819 62.7912 18.9881 64.2125 18.3403C65.6337 17.6924 67.4722 17.8608 70.3669 19.1307L70.3278 16.4225C70.3017 15.0879 71.5404 14.6215 72.7139 15.2693C73.8875 15.9172 75.1783 17.7831 75.2044 19.1177L75.2566 21.774C77.5775 23.1993 79.5855 24.8579 81.9456 27.1514C82.6236 27.8122 82.9496 28.8747 82.6888 29.4708L81.3067 32.6065C81.0459 33.2025 80.3027 33.0989 79.6377 32.451C77.2385 30.0538 75.0479 28.3175 73.079 27.2161C71.9838 26.6071 71.2145 26.335 70.7842 26.3998C70.3408 26.4517 70.1322 26.7756 70.1452 27.3716C70.1583 27.8899 70.3148 28.3953 70.6538 28.9006C70.9797 29.406 71.5404 30.0927 72.3358 30.935C73.1312 31.7901 74.2395 32.8656 75.6608 34.1873C78.5294 36.9084 80.6026 39.3573 81.8674 41.5083C83.1322 43.6592 83.7841 45.9009 83.8232 48.2073C83.8623 50.8118 83.1713 52.5351 81.75 53.3644C80.3288 54.1937 78.399 54.103 75.6086 52.9498L75.6738 56.7981C75.6999 58.1328 74.5916 58.5863 73.4181 57.9384C72.2445 57.2905 71.0841 55.632 71.071 54.2973L71.0058 50.5785Z" stroke="#2E2E2E" stroke-miterlimit="10" stroke-linecap="round" stroke-linejoin="round"/>
<path d="M36.1152 62.8633V73.9021L19.0862 83.6721L18.2908 185.959L1.00098 195.884V220.244L79.0006 264.999L157 220.244V195.884L139.763 186.347L138.915 83.6721L121.873 73.5782L121.743 63.6009L121.325 62.4607L105.6 53.4422C106.813 50.8637 106.969 47.43 106.969 43.8019C106.969 29.2376 96.6425 11.4599 83.9555 4.17782C77.6706 0.575632 71.764 0.0314168 67.2916 2.63588C65.766 3.52994 58.1251 7.89662 57.0559 8.50562H57.0429C57.0429 8.50562 57.0298 8.50562 57.0298 8.51858C56.9646 8.55745 56.9255 8.58337 56.9255 8.58337L56.5083 8.82956L56.5343 8.86843C52.414 11.5377 50.1322 16.7207 50.1322 23.5882C50.1322 32.0883 53.4464 41.4472 58.8837 49.4161L36.1152 62.8633Z" stroke="#2E2E2E" stroke-width="2" stroke-miterlimit="10" stroke-linecap="round" stroke-linejoin="round"/>
</svg>
