<svg id="Слой_1" data-name="Слой 1" xmlns="http://www.w3.org/2000/svg" viewBox="0 0 158 266"><path d="M79,265.5a0.5,0.5,0,0,1-.5-0.5V240.63a0.5,0.5,0,0,1,.25-0.43l78-44.74a0.5,0.5,0,0,1,.75.43v24.36a0.5,0.5,0,0,1-.25.43l-78,44.75A0.5,0.5,0,0,1,79,265.5Zm0.5-24.58v23.22l77-44.18V196.75Z"/><path class="cls-1" d="M79,265.5a0.5,0.5,0,0,1-.25-0.07l-78-44.75a0.5,0.5,0,0,1-.25-0.43V195.88a0.5,0.5,0,0,1,.75-0.43l78,44.74a0.5,0.5,0,0,1,.25.43V265A0.5,0.5,0,0,1,79,265.5ZM1.5,220l77,44.18V240.92l-77-44.17V220Z"/><path class="cls-1" d="M79,230.76a0.51,0.51,0,0,1-.25-0.07,0.5,0.5,0,0,1-.25-0.43L78.5,118a0.5,0.5,0,0,1,.25-0.43l59.91-34.38a0.5,0.5,0,0,1,.75.43l0.05,113a0.5,0.5,0,0,1-.26.44l-60,33.55A0.51,0.51,0,0,1,79,230.76ZM79.5,118.34l0,111.07,59-33L138.42,84.54Z"/><path class="cls-1" d="M79,230.76a0.5,0.5,0,0,1-.25-0.07l-60-35.18a0.5,0.5,0,0,1-.25-0.43L18.59,83.67a0.5,0.5,0,0,1,.75-0.43l59.89,34.32a0.5,0.5,0,0,1,.25.43V230.26A0.5,0.5,0,0,1,79,230.76Zm-59.51-36,59,34.59V118.29L19.58,84.53Z"/><path class="cls-1" d="M79.11,108.39a0.5,0.5,0,0,1-.5-0.5V86.69a0.5,0.5,0,0,1,.25-0.43L121.09,62a0.5,0.5,0,0,1,.75.43l0,21.19a0.5,0.5,0,0,1-.25.43L79.35,108.32A0.5,0.5,0,0,1,79.11,108.39ZM79.61,87v20l41.27-23.68,0-20Z"/><path class="cls-1" d="M79,108.39a0.5,0.5,0,0,1-.25-0.07L36.37,84.07a0.5,0.5,0,0,1-.25-0.44l0-21.19A0.5,0.5,0,0,1,36.91,62L79.27,86.26a0.5,0.5,0,0,1,.25.43v21.2A0.5,0.5,0,0,1,79,108.39Zm-41.9-25L78.52,107V87L37.16,63.31Z"/><path class="cls-1" d="M89.9,65.66a1,1,0,0,1-.48-1.88c0.07,0,6.54-3.58,10.62-5.93C104.94,55,106,48.5,106,43.5,106,29.35,95.87,12.09,83.46,5c-6-3.39-11.52-3.93-15.67-1.53-1.64,1-10.37,5.9-10.37,5.9L57,9.61a1,1,0,1,1-1-1.73l0.42-.24s8.73-4.95,10.37-5.9C71.58-1,77.85-.48,84.45,3.27,97.42,10.67,108,28.71,108,43.5c0,7.92-2.4,13.48-6.93,16.09-4.09,2.36-10.59,5.91-10.66,6A1,1,0,0,1,89.9,65.66Z"/><path class="cls-1" d="M83.56,67.35a22.16,22.16,0,0,1-10.92-3.29c-13-7.44-23.52-25.61-23.52-40.49,0-7.54,2.63-13.2,7.41-15.94s11-2.18,17.58,1.58c13,7.44,23.52,25.61,23.52,40.49,0,7.54-2.63,13.2-7.41,15.94A13.14,13.14,0,0,1,83.56,67.35ZM63.22,7.91a11.3,11.3,0,0,0-5.69,1.45c-4.13,2.37-6.41,7.41-6.41,14.2,0,14.25,10.1,31.63,22.51,38.76a20.49,20.49,0,0,0,9.92,3,11.17,11.17,0,0,0,5.67-1.45c4.14-2.37,6.41-7.41,6.41-14.2,0-14.25-10.1-31.63-22.51-38.76A20.27,20.27,0,0,0,63.22,7.91Z"/><path class="cls-1" d="M27.37,200.5a0.5,0.5,0,0,1-.25-0.07l-8.4-4.92a0.5,0.5,0,0,1-.25-0.43L18.59,83.67a0.5,0.5,0,0,1,.75-0.43L27.61,88a0.5,0.5,0,0,1,.25.43V200A0.5,0.5,0,0,1,27.37,200.5Zm-7.9-5.71,7.4,4.34V88.7l-7.28-4.17Z"/><path class="cls-1" d="M35.78,205.4a0.5,0.5,0,0,1-.25-0.07l-8.41-4.93a0.5,0.5,0,0,1-.25-0.43L27,88.47A0.5,0.5,0,0,1,27.75,88L36,92.79a0.5,0.5,0,0,1,.25.43V204.9A0.5,0.5,0,0,1,35.78,205.4Zm-7.91-5.71L35.28,204V93.52L28,89.33Z"/><path class="cls-1" d="M44.2,210.31a0.51,0.51,0,0,1-.25-0.07l-8.4-4.93a0.5,0.5,0,0,1-.25-0.43L35.42,93.31a0.5,0.5,0,0,1,.75-0.43l8.28,4.75a0.5,0.5,0,0,1,.25.43V209.81A0.5,0.5,0,0,1,44.2,210.31Zm-7.9-5.72,7.4,4.34V98.35l-7.28-4.18Z"/><path class="cls-1" d="M52.61,215.32a0.51,0.51,0,0,1-.25-0.07l-8.41-4.94a0.5,0.5,0,0,1-.25-0.43L43.83,98.15a0.5,0.5,0,0,1,.75-0.43l8.28,4.77a0.5,0.5,0,0,1,.25.43v111.9A0.5,0.5,0,0,1,52.61,215.32ZM44.7,209.6l7.41,4.35V103.21L44.83,99Z"/><path class="cls-1" d="M61,220.16a0.5,0.5,0,0,1-.25-0.07l-8.4-4.94a0.5,0.5,0,0,1-.25-0.43l0.12-111.78A0.5,0.5,0,0,1,53,102.5l8.28,4.76a0.5,0.5,0,0,1,.25.43v112A0.5,0.5,0,0,1,61,220.16Zm-7.9-5.73,7.4,4.35V108l-7.28-4.18Z"/><path class="cls-1" d="M69.1,225a0.5,0.5,0,0,1-.25-0.07L60.45,220a0.5,0.5,0,0,1-.25-0.43l0.12-111.87a0.5,0.5,0,0,1,.75-0.43L69.35,112a0.5,0.5,0,0,1,.25.43v112a0.5,0.5,0,0,1-.25.43A0.49,0.49,0,0,1,69.1,225Zm-7.9-5.73,7.4,4.35V112.72l-7.28-4.2Z"/><path class="cls-1" d="M79,230.76a0.5,0.5,0,0,1-.5-0.5L78.5,118a0.5,0.5,0,0,1,.25-0.43L88,112.29a0.5,0.5,0,0,1,.75.43V224.83a0.5,0.5,0,0,1-.25.43l-9.31,5.43A0.5,0.5,0,0,1,79,230.76ZM79.5,118.34l0,111.05,8.31-4.85v-111Z"/><path class="cls-1" d="M79.1,230.76a0.5,0.5,0,0,1-.5-0.5L78.5,118a0.5,0.5,0,0,1,.25-0.44L88,112.29a0.5,0.5,0,0,1,.75.43V225a0.5,0.5,0,0,1-.25.43l-9.18,5.23A0.5,0.5,0,0,1,79.1,230.76ZM79.5,118.3L79.6,229.4l8.18-4.66V113.58Z"/><path class="cls-1" d="M88.38,225.44a0.5,0.5,0,0,1-.5-0.5L87.79,112.75a0.5,0.5,0,0,1,.25-0.44L97.32,107a0.5,0.5,0,0,1,.75.43V219.7a0.5,0.5,0,0,1-.25.43l-9.19,5.24A0.5,0.5,0,0,1,88.38,225.44ZM88.79,113l0.09,111,8.19-4.67V108.33Z"/><path class="cls-1" d="M97.66,220.18a0.5,0.5,0,0,1-.5-0.5l-0.09-112.3a0.5,0.5,0,0,1,.25-0.43l9.27-5.3a0.5,0.5,0,0,1,.75.43V214.45a0.5,0.5,0,0,1-.25.43l-9.18,5.23A0.5,0.5,0,0,1,97.66,220.18Zm0.41-112.51,0.09,111.15,8.18-4.66V102.94Z"/><path class="cls-1" d="M106.94,215a0.5,0.5,0,0,1-.5-0.5l-0.1-112.46a0.5,0.5,0,0,1,.25-0.43l9.28-5.3a0.5,0.5,0,0,1,.75.43V209.26a0.5,0.5,0,0,1-.25.43l-9.18,5.25A0.5,0.5,0,0,1,106.94,215Zm0.4-112.67,0.1,111.31,8.18-4.68V97.61Z"/><path class="cls-1" d="M116.21,209.89a0.5,0.5,0,0,1-.5-0.5L115.62,96.71a0.5,0.5,0,0,1,.25-0.43L125.16,91a0.5,0.5,0,0,1,.75.43V204.13a0.5,0.5,0,0,1-.25.43l-9.19,5.25A0.5,0.5,0,0,1,116.21,209.89ZM116.62,97l0.09,111.52,8.19-4.68V92.27Z"/><path class="cls-1" d="M125.5,204.78a0.5,0.5,0,0,1-.5-0.5L124.91,91.45a0.5,0.5,0,0,1,.25-0.43l9.28-5.32a0.5,0.5,0,0,1,.75.43V199a0.5,0.5,0,0,1-.25.43l-9.19,5.25A0.5,0.5,0,0,1,125.5,204.78Zm0.41-113L126,203.42l8.19-4.68V87Z"/><path class="cls-1" d="M74.44,58.73a2.64,2.64,0,0,1-1.26-.36,5.41,5.41,0,0,1-2.61-4.07l-0.06-3.44a41.12,41.12,0,0,1-7.54-6,3.36,3.36,0,0,1-1-2.17l-0.08-4.47a1.34,1.34,0,0,1,.75-1.34,1.7,1.7,0,0,1,1.83.59c1.08,1.1,2.23,2.19,3.42,3.24a28.44,28.44,0,0,0,4.83,3.56A5.18,5.18,0,0,0,75,45.1c0.11,0,.31,0,0.29-0.65a2.61,2.61,0,0,0-.52-1.36,19.57,19.57,0,0,0-1.91-2.21c-1-1-2.23-2.25-3.69-3.65a36.68,36.68,0,0,1-4.3-4.85,18,18,0,0,1-2.44-4.47,14.61,14.61,0,0,1-.82-4.76c0-2.76.75-4.54,2.37-5.27s3.31-.53,5.85.49l0-1.94a1.85,1.85,0,0,1,.85-1.68,2.27,2.27,0,0,1,2.28.09,5.93,5.93,0,0,1,2.75,4.28l0,2.38a38.57,38.57,0,0,1,6.54,5.3,2.85,2.85,0,0,1,.85,2.88l-1.38,3.14a1.11,1.11,0,0,1-.81.67,2,2,0,0,1-1.66-.67,31,31,0,0,0-6.45-5.16,3.93,3.93,0,0,0-2-.76c-0.1,0-.22,0-0.21.47a2.32,2.32,0,0,0,.42,1.26,15.06,15.06,0,0,0,1.63,2c0.75,0.81,1.8,1.83,3.3,3.23a36.16,36.16,0,0,1,6.3,7.43,14.06,14.06,0,0,1,2,6.94c0,2.79-.74,4.67-2.32,5.6s-3.35.83-5.88-.11l0.05,3.1a1.83,1.83,0,0,1-.82,1.7A1.75,1.75,0,0,1,74.44,58.73Zm-11.32-21H63a0.43,0.43,0,0,0-.13.4L63,42.63a2.34,2.34,0,0,0,.69,1.48,39.93,39.93,0,0,0,7.59,6,0.5,0.5,0,0,1,.24.42l0.06,3.72a4.42,4.42,0,0,0,2.09,3.21,1.23,1.23,0,0,0,1.18.13,0.9,0.9,0,0,0,.34-0.82L75.11,53a0.5,0.5,0,0,1,.69-0.47c2.58,1.07,4.39,1.21,5.7.44s1.86-2.31,1.83-4.72a13.08,13.08,0,0,0-1.89-6.45,35.22,35.22,0,0,0-6.12-7.21C73.8,33.14,72.73,32.1,72,31.28a15.76,15.76,0,0,1-1.74-2.1,3.29,3.29,0,0,1-.59-1.79,1.25,1.25,0,0,1,1.08-1.48,4.79,4.79,0,0,1,2.6.88A32,32,0,0,1,80,32.1a1.09,1.09,0,0,0,.77.4,0.12,0.12,0,0,0,.09-0.09l1.38-3.14a2,2,0,0,0-.63-1.76A37.11,37.11,0,0,0,75,22.2a0.5,0.5,0,0,1-.24-0.42L74.7,19.13a5,5,0,0,0-2.23-3.42,1.32,1.32,0,0,0-1.28-.11,0.88,0.88,0,0,0-.37.81l0,2.71a0.5,0.5,0,0,1-.7.47c-2.64-1.16-4.41-1.4-5.75-.79s-1.82,2-1.78,4.34a13.62,13.62,0,0,0,.77,4.44,17,17,0,0,0,2.31,4.22,35.69,35.69,0,0,0,4.18,4.71c1.47,1.41,2.75,2.68,3.72,3.68a20,20,0,0,1,2,2.34,3.57,3.57,0,0,1,.69,1.9c0,1.45-.87,1.65-1.26,1.67a6.65,6.65,0,0,1-2.81-1,29.37,29.37,0,0,1-5-3.69c-1.2-1.07-2.37-2.17-3.47-3.29A1,1,0,0,0,63.12,37.75Z"/><path class="cls-1" d="M79,266a1,1,0,0,1-.5-0.13l-78-44.75a1,1,0,0,1-.5-0.87V195.88A1,1,0,0,1,.5,195l16.79-9.64L18.09,83.66a1,1,0,0,1,.5-0.86l16.53-9.48V62.86A1,1,0,0,1,35.61,62L57.46,49.09c-5.31-8.1-8.33-17.34-8.33-25.5,0-7,2.35-12.49,6.62-15.4A0.89,0.89,0,0,1,56,8l0.45-.27,0.19-.11c1.22-.7,8.63-4.93,10.14-5.82C71.58-1,77.85-.47,84.45,3.31,97.42,10.75,108,28.92,108,43.8c0,3-.09,6.46-1.11,9.21l15,8.58a1,1,0,0,1,.44.52l0.42,1.14a1,1,0,0,1,.06.33L122.87,73l16.56,9.81a1,1,0,0,1,.49.85l0.84,102.09L157.48,195a1,1,0,0,1,.52.88v24.36a1,1,0,0,1-.5.87l-78,44.75A1,1,0,0,1,79,266ZM2,219.67l77,44.18,77-44.18V196.47l-16.72-9.25a1,1,0,0,1-.52-0.87L137.92,84.24l-16.56-9.81a1,1,0,0,1-.49-0.85l-0.13-9.81-0.23-.64L105.1,54.31A1,1,0,0,1,104.7,53C105.87,50.52,106,47,106,43.8,106,29.56,95.87,12.17,83.46,5c-6-3.41-11.52-4-15.66-1.54-1.55.91-9.32,5.35-10.24,5.87l0,0-0.08.05-0.17.1a0.89,0.89,0,0,1-.19.16c-3.83,2.48-5.95,7.41-5.95,13.88,0,8.07,3.13,17.28,8.58,25.26a1,1,0,0,1-.32,1.42L37.12,63.43V73.9a1,1,0,0,1-.5.87L20.08,84.25,19.29,186a1,1,0,0,1-.5.86L2,196.46v23.2ZM36.12,73.9h0Z"/></svg>