<svg id="Слой_1" data-name="Слой 1" xmlns="http://www.w3.org/2000/svg" viewBox="0 0 233 266"><path d="M201.89,197.28a0.5,0.5,0,0,1-.23-0.94l29.79-15.53V168l-29.86,15a0.5,0.5,0,0,1-.45-0.89l30.59-15.35a0.5,0.5,0,0,1,.72.45v13.89a0.5,0.5,0,0,1-.27.44l-30.06,15.67A0.51,0.51,0,0,1,201.89,197.28Z"/><path d="M209.94,178.73a0.5,0.5,0,0,1-.5-0.5V150.47a0.5,0.5,0,0,1,.28-0.45l22-11a0.5,0.5,0,0,1,.72.45v27.75a0.5,0.5,0,0,1-.28.45l-22,11A0.5,0.5,0,0,1,209.94,178.73Zm0.5-28v26.65l21-10.51V140.28Z"/><path d="M201.36,183.07a0.5,0.5,0,0,1-.22-0.95l8.3-4.15V151.34l-7.85,3.92a0.5,0.5,0,1,1-.45-0.89l8.58-4.28a0.5,0.5,0,0,1,.72.45v27.75a0.5,0.5,0,0,1-.28.45L201.59,183A0.49,0.49,0,0,1,201.36,183.07Z"/><path d="M209.43,143.15a0.5,0.5,0,0,1-.5-0.5V114.88a0.5,0.5,0,0,1,.28-0.45l22.52-11.27a0.5,0.5,0,0,1,.72.45v28.07a0.5,0.5,0,0,1-.28.45l-22.52,11A0.5,0.5,0,0,1,209.43,143.15Zm0.5-28v26.66l21.52-10.47v-27Z"/><path d="M201.36,147.21a0.5,0.5,0,0,1-.22-0.95l7.79-3.88V115.73l-7.34,3.67a0.5,0.5,0,0,1-.45-0.89l8.06-4a0.5,0.5,0,0,1,.72.45v27.76a0.5,0.5,0,0,1-.28.45l-8.06,4A0.5,0.5,0,0,1,201.36,147.21Z"/><path d="M208.76,107.21a0.5,0.5,0,0,1-.5-0.5V79a0.5,0.5,0,0,1,.28-0.45l23.18-11.59a0.5,0.5,0,0,1,.72.45V95.12a0.5,0.5,0,0,1-.28.45L209,107.16A0.5,0.5,0,0,1,208.76,107.21Zm0.5-27.94v26.63l22.18-11.09V68.18Z"/><path d="M201.36,111a0.5,0.5,0,0,1-.22-0.95l7.13-3.56V79.81l-6.68,3.34a0.5,0.5,0,0,1-.45-0.89l7.4-3.7a0.5,0.5,0,0,1,.72.45v27.76a0.5,0.5,0,0,1-.28.45l-7.4,3.7A0.5,0.5,0,0,1,201.36,111Z"/><path d="M113.72,216.84a0.5,0.5,0,0,1-.22-0.95L136,204.73a0.5,0.5,0,1,1,.44.9l-22.52,11.16A0.5,0.5,0,0,1,113.72,216.84Z"/><path d="M46.2,255.75A0.5,0.5,0,0,1,46,255.7L0.86,233.12a0.5,0.5,0,0,1-.28-0.45L0.5,108.5a0.5,0.5,0,0,1,.73-0.44l45.21,23.67a0.5,0.5,0,0,1,.27.44V255.25A0.5,0.5,0,0,1,46.2,255.75ZM1.58,232.36L45.7,254.44v-122L1.5,109.33Z"/><path d="M113.72,159.67a0.5,0.5,0,0,1-.22-0.95l17.27-8.65V122l-16.82,8.42a0.5,0.5,0,1,1-.45-0.89L131,120.75a0.5,0.5,0,0,1,.72.45v29.18a0.5,0.5,0,0,1-.28.45l-17.54,8.79A0.5,0.5,0,0,1,113.72,159.67Z"/><path d="M119,157a0.5,0.5,0,0,1-.5-0.5V127.37a0.5,0.5,0,0,1,1,0v29.17A0.5,0.5,0,0,1,119,157Z"/><path d="M156.44,216a0.5,0.5,0,0,1-.22-0.05l-20.36-10.19a0.5,0.5,0,0,1-.28-0.45l0.16-126.2a0.5,0.5,0,0,1,.69-0.46l20.2,8.17a0.5,0.5,0,0,1,.31.46V215.5A0.5,0.5,0,0,1,156.44,216Zm-19.86-11,19.36,9.69V87.62l-19.2-7.76Z"/><path d="M156.44,225a0.49,0.49,0,0,1-.22-0.05l-20.36-10a0.5,0.5,0,0,1-.28-0.45v-9.18a0.5,0.5,0,0,1,.72-0.45l20.36,10.19a0.5,0.5,0,0,1,.28.45v9A0.5,0.5,0,0,1,156.44,225Zm-19.86-10.82,19.36,9.52v-7.89l-19.36-9.69v8.06Z"/><path d="M156.26,215.89a0.5,0.5,0,0,1-.5-0.5V87.17a0.5,0.5,0,0,1,.28-0.45l45.1-22.14a0.5,0.5,0,0,1,.72.45V193.26a0.5,0.5,0,0,1-.28.45l-45.1,22.13A0.5,0.5,0,0,1,156.26,215.89Zm0.5-128.41V214.59l44.1-21.64V65.84Zm44.6,105.78h0Z"/><path d="M68.58,256.38h0l-22.37-.65a0.5,0.5,0,0,1-.49-0.5V132.17a0.5,0.5,0,0,1,.15-0.36,0.59,0.59,0,0,1,.36-0.14l22.37,0.53a0.5,0.5,0,0,1,.49.5V255.88A0.5,0.5,0,0,1,68.58,256.38ZM46.7,254.75l21.37,0.62V133.18l-21.37-.5V254.75Z"/><path d="M46.19,265.1A0.5,0.5,0,0,1,46,265L0.85,242a0.5,0.5,0,0,1-.27-0.45v-8.75a0.5,0.5,0,0,1,.72-0.45l45.11,22.46a0.5,0.5,0,0,1,.28.45v9.37A0.5,0.5,0,0,1,46.19,265.1ZM1.58,241.22l44.11,22.57v-8.24l-44.11-22v7.63Z"/><path d="M68.58,265.8h0l-22.39-.7a0.5,0.5,0,0,1-.48-0.5v-9.37a0.5,0.5,0,0,1,.15-0.36,0.52,0.52,0,0,1,.36-0.14l22.39,0.7a0.5,0.5,0,0,1,.48.5v9.37A0.5,0.5,0,0,1,68.58,265.8Zm-21.89-1.69,21.39,0.67v-8.37l-21.39-.67v8.37Z"/><path d="M113.72,204.22a0.5,0.5,0,0,1-.22-0.95l17.7-8.86V168l-17.25,8.64a0.5,0.5,0,0,1-.45-0.89l18-9a0.5,0.5,0,0,1,.72.45v27.49a0.5,0.5,0,0,1-.28.45l-18,9A0.49,0.49,0,0,1,113.72,204.22Z"/><path d="M119.7,201a0.5,0.5,0,0,1-.22-0.95l0.51-.25v-26.5a0.5,0.5,0,0,1,1,0v26.81a0.5,0.5,0,0,1-.28.45l-0.78.39A0.5,0.5,0,0,1,119.7,201Z"/><path d="M68.31,133.2h0l-22.37-.53a0.5,0.5,0,0,1-.22-0.06L0.77,108.94a0.5,0.5,0,0,1,0-.9l31.5-14.5a0.5,0.5,0,1,1,.42.91L2.13,108.53l43.94,23.14,22.13,0.52,44.09-22.9L93.6,100.73a0.5,0.5,0,0,1,0-.9l42.16-21.16a0.5,0.5,0,0,1,.41,0l20,8.08,74.24-37L168.23,28.28,73,74.95a0.5,0.5,0,0,1-.44-0.9L168,27.29a0.5,0.5,0,0,1,.38,0l63.48,21.87a0.5,0.5,0,0,1,.06.92L156.39,87.73a0.5,0.5,0,0,1-.41,0l-20-8.08L95,100.26l18.66,8.56a0.5,0.5,0,0,1,0,.9L68.54,133.14A0.5,0.5,0,0,1,68.31,133.2Z"/><path d="M68.58,256.28a0.5,0.5,0,0,1-.5-0.5V132.7a0.5,0.5,0,0,1,.27-0.44l45.11-23.43a0.5,0.5,0,0,1,.73.44V233a0.5,0.5,0,0,1-.27.45L68.8,256.23A0.5,0.5,0,0,1,68.58,256.28ZM69.08,133V255l44.11-22.28V110.09Zm44.61,100h0Z"/><path d="M68.58,265.81a0.5,0.5,0,0,1-.5-0.5v-9.37a0.5,0.5,0,0,1,.27-0.45l45.11-22.92a0.49,0.49,0,0,1,.49,0,0.5,0.5,0,0,1,.24.43v9.58a0.5,0.5,0,0,1-.28.45L68.8,265.75A0.49,0.49,0,0,1,68.58,265.81Zm0.5-9.56v8.25l44.11-22.2v-8.46Zm44.61-13.64h0Z"/><path d="M156.5,225a0.5,0.5,0,0,1-.5-0.5l0-9.44a0.5,0.5,0,0,1,.5-0.5h0a0.5,0.5,0,0,1,.5.5l0,8.63,43.87-22.39v-8a0.5,0.5,0,0,1,1,0v8.34a0.5,0.5,0,0,1-.27.45l-44.86,22.9A0.5,0.5,0,0,1,156.5,225Z"/><path d="M68.58,140.89a0.5,0.5,0,0,1-.22-0.95l45.11-22.62a0.5,0.5,0,0,1,.45.89L68.8,140.84A0.5,0.5,0,0,1,68.58,140.89Z"/><path d="M167.7,125.72a0.5,0.5,0,0,1-.5-0.5V97.94a0.5,0.5,0,0,1,.28-0.45l23-11.51a0.5,0.5,0,0,1,.72.45v27.28a0.5,0.5,0,0,1-.28.45l-23,11.51A0.5,0.5,0,0,1,167.7,125.72Zm0.5-27.47v26.16l22-11V87.24Zm22.49,15.46h0Z"/><path d="M168.47,164.51a0.5,0.5,0,0,1-.5-0.5V136.73a0.5,0.5,0,0,1,.28-0.45l23-11.51a0.5,0.5,0,0,1,.72.45V152.5a0.5,0.5,0,0,1-.28.45l-23,11.51A0.5,0.5,0,0,1,168.47,164.51ZM169,137V163.2l22-11V126Zm22.49,15.46h0Z"/><path d="M168.47,202.52a0.5,0.5,0,0,1-.5-0.5V174.74a0.5,0.5,0,0,1,.28-0.45l23-11.51a0.5,0.5,0,0,1,.72.45V190.5a0.5,0.5,0,0,1-.28.45l-23,11.51A0.5,0.5,0,0,1,168.47,202.52ZM169,175v26.16l22-11V164Zm22.49,15.46h0Z"/><path d="M178.87,120.13a0.5,0.5,0,0,1-.5-0.5V92.35a0.5,0.5,0,0,1,1,0v27.28A0.5,0.5,0,0,1,178.87,120.13Z"/><path d="M180,158.75a0.5,0.5,0,0,1-.5-0.5V131a0.5,0.5,0,0,1,1,0v27.28A0.5,0.5,0,0,1,180,158.75Z"/><path d="M180,196.69a0.5,0.5,0,0,1-.5-0.5V168.91a0.5,0.5,0,0,1,1,0v27.28A0.5,0.5,0,0,1,180,196.69Z"/><path d="M80.35,166.79a0.5,0.5,0,0,1-.5-0.5V139a0.5,0.5,0,0,1,.28-0.45l23-11.51a0.5,0.5,0,0,1,.72.45v27.28a0.5,0.5,0,0,1-.28.45l-23,11.51A0.5,0.5,0,0,1,80.35,166.79Zm0.5-27.47v26.16l22-11V128.31Zm22.49,15.46h0Z"/><path d="M81.13,205.58a0.5,0.5,0,0,1-.5-0.5V177.81a0.5,0.5,0,0,1,.28-0.45l23-11.51a0.5,0.5,0,0,1,.72.45v27.28a0.5,0.5,0,0,1-.28.45l-23,11.51A0.5,0.5,0,0,1,81.13,205.58Zm0.5-27.47v26.16l22-11V167.1Zm22.49,15.46h0Z"/><path d="M81.13,243.59a0.5,0.5,0,0,1-.5-0.5V215.83a0.5,0.5,0,0,1,.28-0.45l23-11.51a0.5,0.5,0,0,1,.72.45v27.28a0.5,0.5,0,0,1-.28.45l-23,11.5A0.5,0.5,0,0,1,81.13,243.59Zm0.5-27.46v26.15l22-11V205.12Zm22.49,15.46h0Z"/><path d="M91.52,161.2a0.5,0.5,0,0,1-.5-0.5V133.43a0.5,0.5,0,0,1,1,0V160.7A0.5,0.5,0,0,1,91.52,161.2Z"/><path d="M92.62,199.82a0.5,0.5,0,0,1-.5-0.5V172.05a0.5,0.5,0,0,1,1,0v27.26A0.5,0.5,0,0,1,92.62,199.82Z"/><path d="M92.62,237.77a0.5,0.5,0,0,1-.5-0.5V210a0.5,0.5,0,0,1,1,0v27.28A0.5,0.5,0,0,1,92.62,237.77Z"/><path d="M113.69,226.5a0.5,0.5,0,0,1-.5-0.5v-9.7a0.5,0.5,0,0,1,.28-0.45l22.39-11a0.5,0.5,0,0,1,.72.45v9.18a0.5,0.5,0,0,1-.27.44l-22.39,11.51A0.5,0.5,0,0,1,113.69,226.5Zm0.5-9.89v8.57l21.39-11v-8.07Zm21.89-2.12h0Z"/><path d="M231.95,175.73a0.5,0.5,0,0,1-.5-0.5V49.61a0.5,0.5,0,1,1,1,0V175.23A0.5,0.5,0,0,1,231.95,175.73Z"/><path d="M39.54,177.53A0.5,0.5,0,0,1,39,177V151.12L8.24,135.71v25.6a0.5,0.5,0,0,1-1,0V134.9A0.5,0.5,0,0,1,8,134.45l31.8,15.91a0.5,0.5,0,0,1,.28.45V177A0.5,0.5,0,0,1,39.54,177.53Z"/><path d="M39.47,177.53a0.5,0.5,0,0,1-.22-0.05L7.57,161.76a0.5,0.5,0,0,1,.44-0.9L39.7,176.59A0.5,0.5,0,0,1,39.47,177.53Z"/><path d="M21.22,168.46a0.5,0.5,0,0,1-.5-0.5V141.64a0.5,0.5,0,0,1,1,0V168A0.5,0.5,0,0,1,21.22,168.46Z"/><path d="M39.54,232.21a0.5,0.5,0,0,1-.22-0.05L7.52,216.25a0.5,0.5,0,0,1-.28-0.45V187.23a0.5,0.5,0,0,1,1,0v28.26L39,230.9V203a0.5,0.5,0,0,1,1,0v28.76A0.5,0.5,0,0,1,39.54,232.21Z"/><path d="M39.47,203.45a0.5,0.5,0,0,1-.22-0.05L7.57,187.67a0.5,0.5,0,0,1,.44-0.9L39.7,202.5A0.5,0.5,0,0,1,39.47,203.45Z"/><path d="M21.22,222.6a0.5,0.5,0,0,1-.5-0.5V193.89a0.5,0.5,0,0,1,1,0V222.1A0.5,0.5,0,0,1,21.22,222.6Z"/><path d="M41.92,97.57l-0.23,0-1.74-.42L24.29,92.3c-4.59-1.58-7.89-5.84-9.34-12l-5-21.5c-2.81-12,2.2-28.59,11.16-37L37.16,6.68c4.77-4.47,10-6.17,14.69-4.76L68.47,7a1,1,0,0,1-.59,1.91L51.26,3.82c-4-1.19-8.51.34-12.74,4.31L22.44,23.25c-8.5,8-13.25,23.73-10.58,35.09l5,21.5c1.28,5.47,4.13,9.22,8,10.55l15.56,4.8,1.68,0.4A1,1,0,0,1,41.92,97.57Z"/><path d="M43.83,97.8a11.72,11.72,0,0,1-3.35-.49c-4.73-1.43-8.16-5.74-9.66-12.12l-5-21.5c-2.81-12,2.2-28.58,11.16-37L53,11.56C57.8,7.07,63,5.38,67.77,6.81s8.15,5.74,9.65,12.12l5,21.5C85.24,52.2,80.43,68.5,71.72,77a11.89,11.89,0,0,0,2.39,6.49,4.52,4.52,0,0,1,.81,3.62,5.37,5.37,0,0,1-2.2,3.64c-2.85,1.89-5.66,2.41-8.35,1.56a10.4,10.4,0,0,1-5-3.72l-4.17,3.92C51.57,96,47.63,97.8,43.83,97.8ZM64.42,8.32c-3.27,0-6.74,1.61-10,4.7L38.31,28.14c-8.5,8-13.24,23.74-10.58,35.09l5,21.5c1.33,5.66,4.27,9.45,8.28,10.66s8.59-.34,12.79-4.29l5-4.71a1,1,0,0,1,1.52.18A9.19,9.19,0,0,0,65,90.44c2.08,0.66,4.32.21,6.64-1.33a3.37,3.37,0,0,0,1.33-2.29,2.61,2.61,0,0,0-.4-2.06,14,14,0,0,1-2.84-8.07A1,1,0,0,1,70,75.92c8.46-8,13.18-23.72,10.52-35l-5-21.5c-1.33-5.66-4.27-9.45-8.28-10.66A9.55,9.55,0,0,0,64.42,8.32Z"/><path d="M50.62,75a2.71,2.71,0,0,1-.52-0.05,3.15,3.15,0,0,1-2.38-3.09l-0.88-9.27a1.5,1.5,0,0,0-.08-0.36l-5.68-1.58a2.93,2.93,0,0,1-2-2.1A6.36,6.36,0,0,1,40.33,53l5.94-7A3.48,3.48,0,0,0,47,44.13L48,34c0.22-2.19,1.55-4.18,3.16-4.73A2.63,2.63,0,0,1,54,30l4.3,4.65,6.37-4.53A2.77,2.77,0,0,1,68,30c1.3,0.94,1.73,3,1.07,5.1L66,45.18a2.67,2.67,0,0,0-.07,1.59l3,7.27A6,6,0,0,1,68.44,59a4.26,4.26,0,0,1-2.72,2.32L59.24,62.6a2,2,0,0,0-.61.78L54,72.5A4,4,0,0,1,50.62,75Zm1.44-44.87a1.9,1.9,0,0,0-.59.1c-1.23.42-2.3,2.09-2.48,3.88L48,44.23A4.46,4.46,0,0,1,47,46.56l-5.93,7A5.38,5.38,0,0,0,40,58.25a1.93,1.93,0,0,0,1.3,1.42l5.87,1.63,0.15,0.07a1.56,1.56,0,0,1,.47,1.1l0.88,9.28A2.21,2.21,0,0,0,50.29,74c1,0.21,2.08-.56,2.81-1.92l4.63-9.12a2.38,2.38,0,0,1,1.3-1.3l6.48-1.32a3.29,3.29,0,0,0,2-1.81A5,5,0,0,0,68,54.43l-3-7.27a3.63,3.63,0,0,1,0-2.27L68.13,34.8c0.53-1.7.24-3.31-.71-4a1.78,1.78,0,0,0-2.17.12l-6.5,4.63a0.77,0.77,0,0,1-.85.1l-0.09-.08-4.54-4.91A1.62,1.62,0,0,0,52.05,30.12Z"/><path d="M68.5,266h0l-22-.5a1,1,0,0,1-.43-0.11l-45.5-23A1,1,0,0,1,0,241.5L0.08,108.63a1,1,0,0,1,.57-0.9L29.26,94.19,23.7,92.45C19.51,91,16.58,86.78,15,79.85l-5-21.49c-2.81-12,2.19-28.59,11.16-37L37.16,6.24c4.77-4.47,10-6.17,14.69-4.76l2,0.6C63.5,4.93,67.16,6,68.48,6.7v0C72.83,8.32,76,12.52,77.4,18.5l5,21.5c2.4,10.21.61,21.77-4.43,30L167.57,27.1a1,1,0,0,1,.75,0l63.5,21.5a1,1,0,0,1,.68.95V181.12a1,1,0,0,1-.53.88l-29,15.63-0.44,4a1,1,0,0,1-.55.78l-45,22.5a1,1,0,0,1-.87,0L136,215.61l-20.54,10.51L115,242.53a1,1,0,0,1-.56.87l-45.5,22.5A1,1,0,0,1,68.5,266Zm-21.75-2.49L68.28,264,113,241.87l0.48-16.4a1,1,0,0,1,.54-0.86l21.5-11a1,1,0,0,1,.88,0l20.06,9.3,44.08-22,0.44-4a1,1,0,0,1,.52-0.77l29-15.59V50.22L168.07,29.08,75.43,73.48A1,1,0,0,1,74.22,72c6.34-7.81,8.86-20.47,6.28-31.49l-5-21.5c-1.25-5.31-4-9-7.68-10.42a1,1,0,0,1-.26-0.15C66.25,7.83,56.54,5,53.3,4l-2-.61c-4-1.19-8.51.34-12.74,4.31L22.44,22.82c-8.5,8-13.25,23.73-10.58,35.09l5,21.49c1.45,6.21,4,10,7.42,11.16l8,2.49a1,1,0,0,1,.13,1.86L2.08,109.27,2,240.88ZM67.16,7.36a1,1,0,0,0,0,.16A1,1,0,0,1,67.16,7.36Z"/></svg>