<svg width="233" height="266" viewBox="0 0 233 266" fill="none" xmlns="http://www.w3.org/2000/svg">
<path d="M201.362 182.569L231.949 167.223V181.111L201.888 196.782" stroke="#2E2E2E" stroke-miterlimit="10" stroke-linecap="round" stroke-linejoin="round"/>
<path d="M209.938 178.233L231.948 167.219V139.469L209.938 150.469V178.233Z" stroke="#2E2E2E" stroke-miterlimit="10" stroke-linecap="round" stroke-linejoin="round"/>
<path d="M201.363 182.57L209.94 178.278V150.527L201.363 154.806" stroke="#2E2E2E" stroke-miterlimit="10" stroke-linecap="round" stroke-linejoin="round"/>
<path d="M209.427 142.647L231.949 131.687V103.613L209.427 114.883V142.647Z" stroke="#2E2E2E" stroke-miterlimit="10" stroke-linecap="round" stroke-linejoin="round"/>
<path d="M201.363 146.705L209.428 142.683V114.919L201.363 118.955" stroke="#2E2E2E" stroke-miterlimit="10" stroke-linecap="round" stroke-linejoin="round"/>
<path d="M208.762 106.715L231.944 95.1213V67.3711L208.762 78.9652V106.715Z" stroke="#2E2E2E" stroke-miterlimit="10" stroke-linecap="round" stroke-linejoin="round"/>
<path d="M201.359 110.467L208.763 106.769V79.0049L201.359 82.7031" stroke="#2E2E2E" stroke-miterlimit="10" stroke-linecap="round" stroke-linejoin="round"/>
<path d="M136.238 205.176L113.716 216.338" stroke="#2E2E2E" stroke-miterlimit="10" stroke-linecap="round" stroke-linejoin="round"/>
<path d="M46.2047 255.252L1.08008 232.672L0.999023 108.5L46.2047 132.171V255.252Z" stroke="#2E2E2E" stroke-miterlimit="10" stroke-linecap="round" stroke-linejoin="round"/>
<path d="M113.715 159.166L131.26 150.379V121.198L113.715 129.985" stroke="#2E2E2E" stroke-miterlimit="10" stroke-linecap="round" stroke-linejoin="round"/>
<path d="M118.962 127.365V156.533" stroke="#2E2E2E" stroke-miterlimit="10" stroke-linecap="round" stroke-linejoin="round"/>
<path d="M156.44 215.502L136.076 205.311L136.238 79.1123L156.44 87.2781V215.502Z" stroke="#2E2E2E" stroke-miterlimit="10" stroke-linecap="round" stroke-linejoin="round"/>
<path d="M156.44 224.5V215.503L136.076 205.312V214.491L156.44 224.5Z" stroke="#2E2E2E" stroke-miterlimit="10" stroke-linecap="round" stroke-linejoin="round"/>
<path d="M201.361 193.259L156.264 215.394V87.1706L201.361 65.0352V193.259Z" stroke="#2E2E2E" stroke-miterlimit="10" stroke-linecap="round" stroke-linejoin="round"/>
<path d="M68.5776 132.696L46.2041 132.17V255.237L68.5776 255.885V132.696Z" stroke="#2E2E2E" stroke-miterlimit="10" stroke-linecap="round" stroke-linejoin="round"/>
<path d="M1.07812 241.524L46.1892 264.604V255.237L1.07812 232.777V241.524Z" stroke="#2E2E2E" stroke-miterlimit="10" stroke-linecap="round" stroke-linejoin="round"/>
<path d="M68.5774 265.305L46.1904 264.603V255.236L68.5774 255.938V265.305Z" stroke="#2E2E2E" stroke-miterlimit="10" stroke-linecap="round" stroke-linejoin="round"/>
<path d="M113.715 203.717L131.692 194.715V167.221L113.715 176.223" stroke="#2E2E2E" stroke-miterlimit="10" stroke-linecap="round" stroke-linejoin="round"/>
<path d="M119.702 200.518L120.484 200.127V173.321" stroke="#2E2E2E" stroke-miterlimit="10" stroke-linecap="round" stroke-linejoin="round"/>
<path d="M32.499 93.9995L0.999023 108.5L45.9351 132.17L68.3086 132.696L113.42 109.265L93.8109 100.276L135.969 79.1125L156.171 87.2783L231.68 49.6077L168.2 27.7422L72.7324 74.4995" stroke="#2E2E2E" stroke-miterlimit="10" stroke-linecap="round" stroke-linejoin="round"/>
<path d="M113.689 233L68.5781 255.783L68.5781 132.697L113.689 109.266V233Z" stroke="#2E2E2E" stroke-miterlimit="10" stroke-linecap="round" stroke-linejoin="round"/>
<path d="M113.689 242.605L68.5781 265.307V255.94L113.689 233.021V242.605Z" stroke="#2E2E2E" stroke-miterlimit="10" stroke-linecap="round" stroke-linejoin="round"/>
<path d="M201.362 193.259V201.6L156.5 224.499L156.453 215.057" stroke="#2E2E2E" stroke-miterlimit="10" stroke-linecap="round" stroke-linejoin="round"/>
<path d="M68.5781 140.39L113.689 117.769" stroke="#2E2E2E" stroke-miterlimit="10" stroke-linecap="round" stroke-linejoin="round"/>
<path d="M190.695 113.705V86.4268L167.701 97.9399V125.218L190.695 113.705Z" stroke="#2E2E2E" stroke-miterlimit="10" stroke-linecap="round" stroke-linejoin="round"/>
<path d="M191.465 152.495V125.217L168.471 136.73V164.008L191.465 152.495Z" stroke="#2E2E2E" stroke-miterlimit="10" stroke-linecap="round" stroke-linejoin="round"/>
<path d="M191.465 190.504V163.227L168.471 174.74V202.018L191.465 190.504Z" stroke="#2E2E2E" stroke-miterlimit="10" stroke-linecap="round" stroke-linejoin="round"/>
<path d="M178.867 92.3525V119.63" stroke="#2E2E2E" stroke-miterlimit="10" stroke-linecap="round" stroke-linejoin="round"/>
<path d="M179.973 130.967V158.245" stroke="#2E2E2E" stroke-miterlimit="10" stroke-linecap="round" stroke-linejoin="round"/>
<path d="M179.973 168.909V196.187" stroke="#2E2E2E" stroke-miterlimit="10" stroke-linecap="round" stroke-linejoin="round"/>
<path d="M103.34 154.781V127.503L80.3457 139.016V166.294L103.34 154.781Z" stroke="#2E2E2E" stroke-miterlimit="10" stroke-linecap="round" stroke-linejoin="round"/>
<path d="M104.123 193.571V166.293L81.1289 177.806V205.084L104.123 193.571Z" stroke="#2E2E2E" stroke-miterlimit="10" stroke-linecap="round" stroke-linejoin="round"/>
<path d="M104.123 231.59V204.312L81.1289 215.826V243.09L104.123 231.59Z" stroke="#2E2E2E" stroke-miterlimit="10" stroke-linecap="round" stroke-linejoin="round"/>
<path d="M91.5166 133.426V160.704" stroke="#2E2E2E" stroke-miterlimit="10" stroke-linecap="round" stroke-linejoin="round"/>
<path d="M92.6221 172.054V199.318" stroke="#2E2E2E" stroke-miterlimit="10" stroke-linecap="round" stroke-linejoin="round"/>
<path d="M92.6221 209.996V237.274" stroke="#2E2E2E" stroke-miterlimit="10" stroke-linecap="round" stroke-linejoin="round"/>
<path d="M136.075 214.491L113.688 226V216.299L136.075 205.312V214.491Z" stroke="#2E2E2E" stroke-miterlimit="10" stroke-linecap="round" stroke-linejoin="round"/>
<path d="M231.949 49.6074V175.226" stroke="#2E2E2E" stroke-miterlimit="10" stroke-linecap="round" stroke-linejoin="round"/>
<path d="M7.74219 161.31V134.896L39.5425 150.809V177.034" stroke="#2E2E2E" stroke-miterlimit="10" stroke-linecap="round" stroke-linejoin="round"/>
<path d="M7.79492 161.31L39.4738 177.034" stroke="#2E2E2E" stroke-miterlimit="10" stroke-linecap="round" stroke-linejoin="round"/>
<path d="M21.2158 141.644V167.963" stroke="#2E2E2E" stroke-miterlimit="10" stroke-linecap="round" stroke-linejoin="round"/>
<path d="M39.5425 202.95V231.712L7.74219 215.799V187.226" stroke="#2E2E2E" stroke-miterlimit="10" stroke-linecap="round" stroke-linejoin="round"/>
<path d="M7.79492 187.226L39.4738 202.95" stroke="#2E2E2E" stroke-miterlimit="10" stroke-linecap="round" stroke-linejoin="round"/>
<path d="M21.2158 193.893V222.102" stroke="#2E2E2E" stroke-miterlimit="10" stroke-linecap="round" stroke-linejoin="round"/>
<path d="M41.9151 96.5667L40.1754 96.1483L24.5854 91.3433C20.3507 89.8856 17.2894 85.8904 15.9273 80.0731L10.8835 58.5721C8.1458 46.897 13.0143 30.7273 21.7533 22.5211L37.8423 7.40419C42.3331 3.19306 47.2151 1.5734 51.5576 2.86913L68.1726 7.98457" stroke="#2E2E2E" stroke-width="2" stroke-miterlimit="10" stroke-linecap="round" stroke-linejoin="round"/>
<path d="M43.8288 96.7954C42.7904 96.7954 41.7654 96.647 40.7674 96.35C36.3979 95.0273 33.2152 90.9916 31.7992 84.9584L26.7554 63.4574C24.0177 51.7823 28.8997 35.6126 37.6252 27.4063L53.7141 12.2895C58.2185 8.05135 63.1005 6.44518 67.4835 7.76791C71.853 9.09063 75.0357 13.1263 76.4517 19.1595L81.4956 40.6606C84.2332 52.2952 79.3782 68.4243 70.6932 76.6441C70.8955 80.3424 72.2171 82.7449 73.323 84.1486C73.8894 84.8639 74.1186 85.8762 73.9298 86.983C73.7275 88.2517 73.0667 89.3585 72.1631 89.9524C69.5738 91.6665 67.0519 92.1524 64.6649 91.3966C62.2239 90.6137 60.5516 88.6701 59.5401 87.1179L54.5368 91.8285C51.0574 95.0948 47.3487 96.7954 43.8288 96.7954Z" stroke="#2E2E2E" stroke-width="2" stroke-miterlimit="10" stroke-linecap="round" stroke-linejoin="round"/>
<path d="M50.6152 74.4838C50.4803 74.4838 50.332 74.4703 50.1971 74.4433C49.0912 74.2273 48.3495 73.242 48.2146 71.7978L47.338 62.5253C47.2841 62.0124 47.1223 61.8099 47.0818 61.7829L41.2153 60.1497C40.4331 59.9338 39.8398 59.3129 39.57 58.3951C39.0845 56.8159 39.57 54.6699 40.7164 53.2797L46.6503 46.2341C47.0818 45.7212 47.392 44.9384 47.4729 44.1826L48.4844 34.0462C48.6867 32.0351 49.8734 30.2265 51.303 29.7406C52.1661 29.4571 53.0157 29.6596 53.6361 30.3344L58.1809 35.2474C58.2213 35.2744 58.3158 35.2474 58.4641 35.1529L64.9644 30.5234C65.8815 29.862 66.9199 29.8215 67.7156 30.4019C68.8349 31.2117 69.1991 33.0339 68.6057 34.9505L65.4904 45.0329C65.2746 45.7482 65.2476 46.5041 65.4364 46.963L68.4438 54.238C68.9563 55.4932 68.7945 57.2478 67.9988 58.719C67.3919 59.8528 66.5423 60.5817 65.6117 60.7841L59.1384 62.1068C58.9496 62.1473 58.5315 62.4578 58.1809 63.1461L53.5417 72.2702C52.7999 73.6604 51.721 74.4838 50.6152 74.4838Z" stroke="#2E2E2E" stroke-miterlimit="10" stroke-linecap="round" stroke-linejoin="round"/>
<path d="M156.5 224L136 214.5L114.5 225.5L114 242.5L68.5 265L46.5 264.5L1 241.5L1.08105 108.632L32 94L24 91.5C19.7654 90.0423 17.2914 85.4433 15.9293 79.626L10.8855 58.1385C8.14779 46.4634 13.0163 30.2938 21.7553 22.0875L37.8442 6.97059C42.3351 2.75947 47.2171 1.1398 51.5596 2.43553C52.9833 2.87377 68.2083 7.30773 68.1341 7.60496C72.1529 9.13015 75.0929 13.0308 76.428 18.7267L81.4719 40.2277C83.9263 50.688 82.0787 63.8613 74.9985 72.5805L168 28L231.5 49.5V181.122L202 197L201.5 201.5L156.5 224Z" stroke="#2E2E2E" stroke-width="2" stroke-miterlimit="10" stroke-linecap="round" stroke-linejoin="round"/>
</svg>
