<svg id="Слой_1" data-name="Слой 1" xmlns="http://www.w3.org/2000/svg" viewBox="0 0 290 266"><path d="M144.2,265.5a0.5,0.5,0,0,1-.25-0.07L0.77,183.12a0.5,0.5,0,0,1-.25-0.43l0-5.45a0.5,0.5,0,0,1,.25-0.43,0.5,0.5,0,0,1,.5,0l143.18,82.32a0.5,0.5,0,0,1,.25.43l0,5.45A0.5,0.5,0,0,1,144.2,265.5ZM1.51,182.39L143.7,264.14v-4.3L1.5,178.1v4.3Z"/><path d="M144.2,259.81a0.5,0.5,0,0,1-.25-0.07L0.75,177.67a0.5,0.5,0,0,1,0-.87l39.07-22.34a0.5,0.5,0,0,1,.5.87L2,177.23l142.19,81.5L288,177.28l-45.11-25.85a0.5,0.5,0,1,1,.5-0.87l45.87,26.29a0.5,0.5,0,0,1,0,.87l-144.8,82A0.49,0.49,0,0,1,144.2,259.81Z"/><path d="M55,192.06a0.5,0.5,0,0,1-.24-0.06L19.16,172.07a0.5,0.5,0,0,1,0-.87l20.89-12a0.5,0.5,0,1,1,.5.87L20.41,171.63,55,191l89.63-50.62a0.5,0.5,0,0,1,.49,0l83.24,47.2,34.57-19.36-20-11.8a0.5,0.5,0,1,1,.51-0.86l20.77,12.25a0.5,0.5,0,0,1,0,.87l-35.58,19.93a0.5,0.5,0,0,1-.49,0l-83.24-47.2L55.22,192A0.5,0.5,0,0,1,55,192.06Z"/><path d="M144.2,265.5a0.5,0.5,0,0,1-.5-0.5l0-5.45a0.5,0.5,0,0,1,.25-0.44l144.58-82.22a0.5,0.5,0,0,1,.75.43l0,5.45a0.5,0.5,0,0,1-.25.44L144.45,265.44A0.5,0.5,0,0,1,144.2,265.5Zm0.49-5.66v4.31l143.58-81.66v-4.31Z"/><path d="M228,154.07a0.5,0.5,0,0,1-.25-0.07l-83.32-48a0.5,0.5,0,0,1-.25-0.43V97.91a0.5,0.5,0,0,1,.75-0.44l83.29,47.18a0.5,0.5,0,0,1,.25.43l0,8.48A0.5,0.5,0,0,1,228,154.07ZM145.2,105.3l82.32,47.41,0-7.32L145.2,98.77v6.53Z"/><path d="M228,154.07a0.5,0.5,0,0,1-.5-0.5l0-8.48a0.5,0.5,0,0,1,.25-0.44l41.93-23.86a0.5,0.5,0,0,1,.75.43l0,8.48a0.5,0.5,0,0,1-.25.44L228.27,154A0.5,0.5,0,0,1,228,154.07Zm0.47-8.69,0,7.33,40.93-23.29,0-7.33Z"/><path d="M54.89,157.48a0.5,0.5,0,0,1-.5-0.5l0-8.48a0.5,0.5,0,0,1,.25-0.44l89.84-50.59a0.5,0.5,0,0,1,.75.44v7.67a0.5,0.5,0,0,1-.25.43L55.14,157.41A0.5,0.5,0,0,1,54.89,157.48Zm0.47-8.69,0,7.33L144.2,105.3V98.77Z"/><path d="M54.89,157.48a0.5,0.5,0,0,1-.25-0.07L13,133.56a0.5,0.5,0,0,1-.25-0.43l0-8.48a0.5,0.5,0,0,1,.75-0.44l41.65,23.86a0.5,0.5,0,0,1,.25.43l0,8.48A0.5,0.5,0,0,1,54.89,157.48ZM13.74,132.83l40.65,23.28,0-7.33L13.71,125.51Z"/><path d="M54.86,149a0.5,0.5,0,0,1-.25-0.07L13,125.08a0.5,0.5,0,0,1,0-.87L69.67,91.93a0.5,0.5,0,0,1,.49.87l-56,31.84,40.65,23.28,89.59-50.45a0.5,0.5,0,0,1,.49,0l83,47,40.92-23.28L180.35,70.51a0.5,0.5,0,0,1,.5-0.87l89.33,51.16a0.5,0.5,0,0,1,0,.87l-41.93,23.86a0.49,0.49,0,0,1-.49,0l-83-47L55.11,148.94A0.5,0.5,0,0,1,54.86,149Z"/><path d="M75.87,180.1a0.5,0.5,0,0,1-.25-0.06L39.85,159.85a0.5,0.5,0,0,1-.25-0.43l0-11a0.5,0.5,0,0,1,.5-0.5h0a0.5,0.5,0,0,1,.5.5l0,10.68,34.78,19.62-0.17-33.6a0.49,0.49,0,0,1,.5-0.5,0.5,0.5,0,0,1,.5.5l0.17,34.46A0.5,0.5,0,0,1,75.87,180.1Z"/><path d="M75.87,180.1a0.5,0.5,0,0,1-.5-0.5L75.2,145.14a0.49,0.49,0,0,1,.5-0.5,0.5,0.5,0,0,1,.5.5l0.17,33.61,68.15-38.3a0.5,0.5,0,1,1,.49.87L76.12,180A0.5,0.5,0,0,1,75.87,180.1Z"/><path d="M207.45,176.68a0.5,0.5,0,0,1-.25-0.06l-62.68-35.3a0.5,0.5,0,0,1-.25-0.44V106.15a0.5,0.5,0,1,1,1,0v34.44l61.67,34.73-0.32-33.61a0.5,0.5,0,0,1,.5-0.5,0.51,0.51,0,0,1,.5.5l0.33,34.48a0.5,0.5,0,0,1-.25.44A0.51,0.51,0,0,1,207.45,176.68Z"/><path d="M207.45,176.68a0.51,0.51,0,0,1-.25-0.07,0.5,0.5,0,0,1-.25-0.43l-0.33-34.48a0.5,0.5,0,0,1,.5-0.5,0.51,0.51,0,0,1,.5.5l0.33,33.63,34.7-19.65,0-10.69a0.5,0.5,0,0,1,.5-0.5h0a0.5,0.5,0,0,1,.5.5l0,11a0.5,0.5,0,0,1-.25.44l-35.7,20.21A0.5,0.5,0,0,1,207.45,176.68Z"/><path d="M200.75,160.94a0.5,0.5,0,0,1-.25-0.07l-31.66-18a0.5,0.5,0,0,1-.25-0.43V125.62a0.5,0.5,0,0,1,.75-0.43l31.66,18a0.5,0.5,0,0,1,.25.43v16.81A0.5,0.5,0,0,1,200.75,160.94Zm-31.16-18.81,30.66,17.45V143.92l-30.66-17.45v15.66Z"/><path d="M192.37,156.16a0.5,0.5,0,0,1-.25-0.07l-14.9-8.62A0.5,0.5,0,0,1,177,147v-16.6a0.5,0.5,0,0,1,.75-0.43l14.91,8.62a0.5,0.5,0,0,1,.25.43v16.59A0.5,0.5,0,0,1,192.37,156.16ZM178,146.75l13.91,8V139.35l-13.91-8v15.44Z"/><path d="M84.38,163.65a0.5,0.5,0,0,1-.5-0.5V146.34a0.5,0.5,0,0,1,.25-0.43l31.66-18a0.5,0.5,0,0,1,.75.43v16.81a0.5,0.5,0,0,1-.25.43l-31.66,18A0.5,0.5,0,0,1,84.38,163.65Zm0.5-17v15.66l30.66-17.45V129.19Z"/><path d="M84.62,150.39a0.51,0.51,0,0,1-.49-0.37,0.51,0.51,0,0,1,0-.23v-3.34a0.5,0.5,0,0,1,.25-0.43l31.22-17.76a0.5,0.5,0,0,1,.75.43v3.43a0.5,0.5,0,0,1-.25.43L84.94,150.27A0.5,0.5,0,0,1,84.62,150.39Zm0.5-3.65V149l30.22-17.2v-2.28Z"/><path d="M124.84,142.21a0.5,0.5,0,0,1-.5-0.5V124.9a0.5,0.5,0,0,1,.25-0.43l13.82-7.87a0.5,0.5,0,0,1,.75.43v16.81a0.5,0.5,0,0,1-.25.43l-13.82,7.87A0.5,0.5,0,0,1,124.84,142.21Zm0.5-17v15.66l12.82-7.3V117.89Z"/><path d="M105.22,113a0.5,0.5,0,0,1-.25-0.07L69.78,92.67a0.5,0.5,0,0,1-.25-0.43V82a0.5,0.5,0,0,1,1,0v9.94l34.21,19.66,0.4-33.43a0.47,0.47,0,0,1,.51-0.49,0.5,0.5,0,0,1,.49.51l-0.41,34.28A0.5,0.5,0,0,1,105.22,113Z"/><path d="M105.23,113a0.5,0.5,0,0,1-.5-0.5V78.26a0.5,0.5,0,0,1,.25-0.43l75.11-42.7a0.5,0.5,0,0,1,.75.43l0.25,34.51a0.5,0.5,0,0,1-.25.44l-75.36,42.39A0.5,0.5,0,0,1,105.23,113Zm0.5-34.41V111.6l74.36-41.82-0.25-33.37Z"/><path d="M84.26,90.42a0.5,0.5,0,0,1-.5-0.5l0-6.78A0.5,0.5,0,0,1,84,82.71l102.18-58a0.5,0.5,0,0,1,.75.43l0,6.78a0.5,0.5,0,0,1-.25.44l-102.18,58A0.5,0.5,0,0,1,84.26,90.42Zm0.49-7v5.63L185.94,31.65V26Z"/><path d="M84.25,90.41A0.5,0.5,0,0,1,84,90.35L42.35,66.49a0.5,0.5,0,0,1-.25-0.43l0-6.78a0.5,0.5,0,0,1,.75-0.44L84.48,82.7a0.5,0.5,0,0,1,.25.43l0,6.78A0.5,0.5,0,0,1,84.25,90.41ZM43.09,65.76L83.75,89V83.42L43.08,60.14v5.63Z"/><path d="M84.25,83.9A0.5,0.5,0,0,1,84,83.83L42.35,60a0.5,0.5,0,0,1,0-.87L145.06,0.57a0.5,0.5,0,0,1,.5,0l41.32,24.17a0.5,0.5,0,0,1,0,.87L84.5,83.83A0.5,0.5,0,0,1,84.25,83.9ZM43.6,59.54L84.25,82.82,185.62,25.17,145.3,1.58Z"/><path d="M110.34,100.83a0.5,0.5,0,0,1-.5-0.5V83.52a0.5,0.5,0,0,1,.25-0.43l31.66-18a0.5,0.5,0,0,1,.75.43V82.31a0.5,0.5,0,0,1-.25.43l-31.66,18A0.5,0.5,0,0,1,110.34,100.83Zm0.5-17V99.47L141.5,82V66.36Z"/><path d="M118.71,95.84a0.5,0.5,0,0,1-.5-0.5V78.83a0.5,0.5,0,0,1,.25-0.43l14.91-8.54a0.5,0.5,0,0,1,.75.43V87a0.5,0.5,0,0,1-.26.44L119,95.78A0.5,0.5,0,0,1,118.71,95.84Zm0.5-16.72V94.49l13.91-7.74V71.15Z"/><path d="M155.77,77a0.5,0.5,0,0,1-.5-0.5V59.7a0.5,0.5,0,0,1,.25-0.43l13.82-7.87a0.5,0.5,0,0,1,.75.43V68.63a0.5,0.5,0,0,1-.25.43L156,76.93A0.5,0.5,0,0,1,155.77,77Zm0.5-17V75.64l12.82-7.3V52.69Z"/><path d="M248.8,206a0.5,0.5,0,0,1-.5-0.5v-5.36a0.5,0.5,0,0,1,.25-0.43l35.94-20.55a0.5,0.5,0,0,1,.75.43v5.58a0.5,0.5,0,0,1-.25.44L249,206A0.5,0.5,0,0,1,248.8,206Zm0.5-5.57v4.22l34.94-19.77v-4.42Z"/><path d="M248.8,200.65a0.51,0.51,0,0,1-.25-0.07l-20.46-12a0.5,0.5,0,0,1,0-.87l35.58-19.93a0.51,0.51,0,0,1,.48,0L285,179.16a0.5,0.5,0,0,1,0,.87l-36,20.55A0.5,0.5,0,0,1,248.8,200.65Zm-19.45-12.5,19.46,11.42,35-20-19.87-10.83Z"/><path d="M40.29,205.8a0.5,0.5,0,0,1-.25-0.07L4.29,185.06A0.5,0.5,0,0,1,4,184.63V179.5a0.5,0.5,0,0,1,.75-0.43l35.75,20.6a0.5,0.5,0,0,1,.25.43v5.2A0.5,0.5,0,0,1,40.29,205.8ZM5,184.34l34.75,20.09v-4L5,180.37v4Z"/><path d="M40.47,200.53a0.5,0.5,0,0,1-.25-0.07L4.47,180a0.5,0.5,0,0,1,0-.87l14.68-8a0.51,0.51,0,0,1,.48,0l35.58,19.93a0.5,0.5,0,0,1,0,.87l-14.51,8.48A0.5,0.5,0,0,1,40.47,200.53ZM5.75,179.61l34.72,19.84L54,191.57,19.4,172.2Z"/><path d="M155.3,234.73a0.5,0.5,0,0,1,0-1c12.6-1.26,24-4.65,33.07-9.79,11.62-6.61,18-15.36,18-24.65s-6.4-18-18-24.65c-13.5-7.68-32.13-11.35-51.13-10.08a0.5,0.5,0,0,1-.07-1c19.18-1.28,38,2.44,51.69,10.21,11.94,6.8,18.52,15.86,18.52,25.52s-6.58,18.72-18.52,25.52c-9.15,5.21-20.72,8.64-33.46,9.91H155.3Z"/><path d="M136.75,235h0c-14-1-26.62-4.51-36.59-10.18C88.18,218,81.6,208.94,81.6,199.28s6.58-18.72,18.52-25.52a76.52,76.52,0,0,1,19-7.43,0.5,0.5,0,1,1,.25,1,75.55,75.55,0,0,0-18.77,7.33c-11.62,6.61-18,15.36-18,24.65s6.4,18,18,24.65c9.84,5.6,22.34,9.08,36.17,10.05A0.5,0.5,0,0,1,136.75,235Z"/><path d="M139.68,170.67H139.6l-20.5-3.47a0.5,0.5,0,0,1-.15-0.93l15.51-8.36a0.51,0.51,0,0,1,.4,0,0.5,0.5,0,0,1,.29.28l5,11.83A0.5,0.5,0,0,1,139.68,170.67Zm-19-4.22,18.17,3.08L134.44,159Z"/><path d="M137.27,241.22a0.5,0.5,0,0,1-.5-0.46l-0.51-6.08h0l-0.5-6.06a0.5,0.5,0,0,1,.64-0.52l19,5.57a0.5,0.5,0,0,1,0,.95l-18,6.57A0.49,0.49,0,0,1,137.27,241.22Zm0-6.62,0.46,5.43,16-5.83-16.85-4.94Z"/><path d="M149.65,223.31c-2.4,0-4.38-.59-5.3-2.95a4.93,4.93,0,0,0-1-1.27l-0.18-.19c-1.76-1.9-6-2.25-8.78-.72-6.23,3.49-6.46,3.52-12.26,1.81l-1-.29c-2.31-.68-3.55-1.46-3.89-2.46s0.35-2.1,1.06-3.08a7.25,7.25,0,0,0,.92-1.5h0a4.84,4.84,0,0,0,0-2.68c-0.92-.85-3.4-1.15-7.56-0.93-5,.27-7.23-0.73-8.42-3.85-0.44-1.17-.87-2.51-0.24-3.64s2.14-1.88,5-2.45c4.43-.91,5.59-1.84,5.78-2.46a1.42,1.42,0,0,0-.58-1.29c-0.22-.2-0.45-0.4-0.71-0.62l-0.15-.11-0.09-.08a17.1,17.1,0,0,0-1.71-1.21c-0.39-.24-0.86-0.51-1.35-0.78a24.19,24.19,0,0,1-2.12-1.28c-0.35-.25-1.29-0.93-0.88-1.67a12.83,12.83,0,0,1,2.58-3.13,19.72,19.72,0,0,1,3.71-2.68c0.8-.44,2.54-0.15,5.11.36,0.66,0.13,1.31.26,1.87,0.35,0.94,0.15,1.9.27,2.85,0.35h0.06l0.23,0,1.31,0.08c1.92,0.05,3.23-.32,3.87-1.09a3.61,3.61,0,0,0,.4-3.14,3.47,3.47,0,0,1,.41-2.81c1-1.5,3.61-2,6.6-2.42,4.6-.67,7.49-0.44,9.57,2.68,1.53,2.28,3.07,3.31,5,3.35a22.2,22.2,0,0,0,4.71-1.34A15.67,15.67,0,0,0,156.5,179c2.15-1.4,4.38-2.84,9.14-.84l0.9,0.37c2.72,1.13,4.09,1.69,4.46,2.79s-0.29,2.29-1.69,4.75a1.6,1.6,0,0,0,0,1.68c0.68,1.18,2.67,2,5.08,2h0.44a16.28,16.28,0,0,0,2.58-.09c5.88-.83,6.91,1.31,8,3.57l0.29,0.6a3.38,3.38,0,0,1,.35,3c-0.54,1.15-2,1.93-4.94,2.58-5.09,1.13-6,2.25-6,2.82s0.43,1.61,4.3,3.38c1.9,0.87,2.87,1.73,3,2.72,0.22,1.22-.79,2.22-1.87,3.29l-0.42.42-0.5.43c-2.06,1.76-3.83,3.28-9.1,1.9-4.62-1.21-7.65-1.21-9,0-0.79.71-1,1.87-.79,3.53a3.6,3.6,0,0,1-.55,2.88c-0.86,1.12-2.57,1.73-5.71,2.06l-1,.12A35,35,0,0,1,149.65,223.31Zm-11.25-7.09a7.65,7.65,0,0,1,5.53,2l0.18,0.19a5.55,5.55,0,0,1,1.18,1.59c1,2.68,3.74,2.51,8.05,2l1-.12c2.81-.29,4.36-0.81,5-1.68a2.64,2.64,0,0,0,.36-2.12c-0.31-2,.06-3.48,1.11-4.43,1.65-1.49,4.89-1.57,9.93-.24,4.76,1.25,6.28,0,8.2-1.69l0.86-.79c0.88-.87,1.71-1.7,1.59-2.4s-0.94-1.28-2.48-2c-3.48-1.59-5-3-4.88-4.4s2.32-2.69,6.79-3.69c2.51-.57,3.86-1.21,4.25-2a2.51,2.51,0,0,0-.34-2.17l-0.3-.61c-1-2.09-1.81-3.75-7-3a17.09,17.09,0,0,1-2.75.1h-0.43c-2.8,0-5.07-1-5.93-2.48a2.6,2.6,0,0,1,0-2.67c1.18-2.08,1.84-3.29,1.61-3.93s-1.61-1.25-3.9-2.19l-0.9-.38c-4.28-1.79-6.1-.61-8.21.76a16.63,16.63,0,0,1-2.18,1.26,22.77,22.77,0,0,1-5.06,1.42c-2.34,0-4.19-1.25-5.89-3.79s-3.71-3-8.6-2.24c-2.65.39-5.1,0.84-5.92,2a2.53,2.53,0,0,0-.25,2c0.36,1.76.16,3.06-.61,4s-2.39,1.5-4.69,1.45l-1.52-.11-0.18,0c-1-.09-1.92-0.21-2.87-0.36-0.58-.09-1.23-0.22-1.91-0.35-1.55-.3-3.89-0.76-4.43-0.46a18.89,18.89,0,0,0-3.52,2.54,12.18,12.18,0,0,0-2.33,2.79,12.17,12.17,0,0,0,2.56,1.68c0.5,0.28,1,.55,1.39.8a18,18,0,0,1,1.9,1.35l0,0h0l0.08,0.06c0.3,0.25.55,0.46,0.8,0.69a2.31,2.31,0,0,1,.84,2.3c-0.41,1.33-2.43,2.31-6.54,3.15-2.43.5-3.83,1.14-4.28,2s-0.16,1.58.3,2.8c0.9,2.35,2.29,3.49,7.43,3.21,4.73-.26,7.32.15,8.42,1.32a0.5,0.5,0,0,1,.11.19,5.83,5.83,0,0,1,0,3.46,8,8,0,0,1-1,1.73c-0.58.81-1.13,1.57-.93,2.17,0.15,0.45.84,1.13,3.23,1.83l1,0.29c5.51,1.62,5.51,1.62,11.49-1.73A9.31,9.31,0,0,1,138.4,216.22Z"/><path d="M144.46,213.63c-13.69,0-24.83-6.43-24.83-14.34s11.14-14.34,24.83-14.34,24.83,6.43,24.83,14.34S158.15,213.63,144.46,213.63Zm0-27.69c-13.14,0-23.83,6-23.83,13.34s10.69,13.34,23.83,13.34,23.83-6,23.83-13.34S157.6,185.95,144.46,185.95Z"/><path d="M144.7,203.62c-3.9,0-7-1.84-7-4.18s3.06-4.18,7-4.18,7,1.84,7,4.18S148.6,203.62,144.7,203.62Zm0-7.36c-3.23,0-6,1.46-6,3.18s2.73,3.18,6,3.18,6-1.46,6-3.18S147.93,196.26,144.7,196.26Z"/><path d="M144.2,266a1,1,0,0,1-.5-0.13L0.5,183.79a1,1,0,0,1-.5-0.87v-5.69a1,1,0,0,1,.5-0.87l37.67-21.82v-5.13l-25.5-15.65a1,1,0,0,1-.48-0.85v-8a1,1,0,0,1,.5-0.87L68.63,91.66V83.13L42.1,66.95a1,1,0,0,1-.48-0.85V59.84a1,1,0,0,1,.5-0.87L144.27,0.53a1,1,0,0,1,1,0l41.35,23.73a1,1,0,0,1,.5.87V33a1,1,0,0,1-.53.88l-5.15,2.74V69.49l89.18,50.6a1,1,0,0,1,.51.87v9.11a1,1,0,0,1-.49.86L245.15,146v4.54l44.11,25.33a1,1,0,0,1,.5.87v5.69a1,1,0,0,1-.5.87L144.7,265.87A1,1,0,0,1,144.2,266ZM2,182.34l142.2,81.5,143.56-82v-4.53L243.65,152a1,1,0,0,1-.5-0.87v-5.69a1,1,0,0,1,.49-0.86l25.49-15.08v-8l-89.18-50.6a1,1,0,0,1-.51-0.87V36a1,1,0,0,1,.53-0.88l5.15-2.74V25.7L144.76,2.55,43.63,60.42v5.11L70.15,81.72a1,1,0,0,1,.48.85v9.66a1,1,0,0,1-.5.87L14.19,125.52v6.84L39.69,148a1,1,0,0,1,.48.85v6.26a1,1,0,0,1-.5.87L2,177.81v4.54Z"/></svg>