<svg width="290" height="266" viewBox="0 0 290 266" fill="none" xmlns="http://www.w3.org/2000/svg">
<path d="M1.00002 177.23L1.01514 182.684L144.199 265.001L144.184 259.547L1.00002 177.23Z" stroke="#2E2E2E" stroke-miterlimit="10" stroke-linecap="round" stroke-linejoin="round"/>
<path d="M40.0736 154.896L1.00017 177.232L144.199 259.308L289 177.278L243.128 150.992" stroke="#2E2E2E" stroke-miterlimit="10" stroke-linecap="round" stroke-linejoin="round"/>
<path d="M40.2936 159.674L19.3995 171.63L54.9759 191.556L144.852 140.799L228.341 188.14L263.917 168.214L243.143 155.968" stroke="#2E2E2E" stroke-miterlimit="10" stroke-linecap="round" stroke-linejoin="round"/>
<path d="M144.184 259.547L144.199 265.001L288.778 182.777L288.763 177.323L144.184 259.547Z" stroke="#2E2E2E" stroke-miterlimit="10" stroke-linecap="round" stroke-linejoin="round"/>
<path d="M144.7 97.9111V105.586L228.023 153.568L227.993 145.089L144.7 97.9111Z" stroke="#2E2E2E" stroke-miterlimit="10" stroke-linecap="round" stroke-linejoin="round"/>
<path d="M269.95 129.71L269.92 121.231L227.994 145.089L228.024 153.568L269.95 129.71Z" stroke="#2E2E2E" stroke-miterlimit="10" stroke-linecap="round" stroke-linejoin="round"/>
<path d="M54.8615 148.501L54.8917 156.98L144.701 105.586V97.9111L54.8615 148.501Z" stroke="#2E2E2E" stroke-miterlimit="10" stroke-linecap="round" stroke-linejoin="round"/>
<path d="M13.2073 124.645L13.2375 133.123L54.8916 156.981L54.8614 148.502L13.2073 124.645Z" stroke="#2E2E2E" stroke-miterlimit="10" stroke-linecap="round" stroke-linejoin="round"/>
<path d="M69.921 92.3677L13.208 124.644L54.862 148.501L144.702 97.911L227.995 145.089L269.921 121.232L180.595 70.0752" stroke="#2E2E2E" stroke-miterlimit="10" stroke-linecap="round" stroke-linejoin="round"/>
<path d="M40.062 148.444L40.0922 159.411L75.873 179.599L75.6985 145.136" stroke="#2E2E2E" stroke-miterlimit="10" stroke-linecap="round" stroke-linejoin="round"/>
<path d="M75.6991 145.136L75.8735 179.6L144.768 140.885" stroke="#2E2E2E" stroke-miterlimit="10" stroke-linecap="round" stroke-linejoin="round"/>
<path d="M144.767 106.154V140.884L207.449 176.183L207.116 141.706" stroke="#2E2E2E" stroke-miterlimit="10" stroke-linecap="round" stroke-linejoin="round"/>
<path d="M207.117 141.707L207.45 176.183L243.146 155.968L243.116 144.985" stroke="#2E2E2E" stroke-miterlimit="10" stroke-linecap="round" stroke-linejoin="round"/>
<path d="M200.75 160.441V143.632L169.09 125.616V142.425L200.75 160.441Z" stroke="#2E2E2E" stroke-miterlimit="10" stroke-linecap="round" stroke-linejoin="round"/>
<path d="M192.373 155.659V139.065L192.267 139.005L177.465 130.442V147.037L177.571 147.097L192.373 155.659Z" stroke="#2E2E2E" stroke-miterlimit="10" stroke-linecap="round" stroke-linejoin="round"/>
<path d="M84.377 163.151L116.037 145.135V128.326L84.377 146.342V163.151Z" stroke="#2E2E2E" stroke-miterlimit="10" stroke-linecap="round" stroke-linejoin="round"/>
<path d="M84.607 149.889L115.844 132.112V128.685L84.6221 146.447V149.889H84.607Z" stroke="#2E2E2E" stroke-miterlimit="10" stroke-linecap="round" stroke-linejoin="round"/>
<path d="M124.836 141.705L138.655 133.837V117.028L124.836 124.896V141.705Z" stroke="#2E2E2E" stroke-miterlimit="10" stroke-linecap="round" stroke-linejoin="round"/>
<path d="M70.0256 82.0043V92.2338L105.22 112.462L105.632 78.1826" stroke="#2E2E2E" stroke-miterlimit="10" stroke-linecap="round" stroke-linejoin="round"/>
<path d="M105.234 78.2588V112.458L180.594 70.0711L180.34 35.5586L105.234 78.2588Z" stroke="#2E2E2E" stroke-miterlimit="10" stroke-linecap="round" stroke-linejoin="round"/>
<path d="M84.2495 83.1426L84.2646 89.9227L186.445 31.9442L186.43 25.1641L84.2495 83.1426Z" stroke="#2E2E2E" stroke-miterlimit="10" stroke-linecap="round" stroke-linejoin="round"/>
<path d="M42.5799 59.2744L42.595 66.0546L84.249 89.9117L84.2339 83.1316L42.5799 59.2744Z" stroke="#2E2E2E" stroke-miterlimit="10" stroke-linecap="round" stroke-linejoin="round"/>
<path d="M42.5944 59.5377L84.2485 83.3949L186.624 25.175L145.308 1.00195L42.5944 59.5377Z" stroke="#2E2E2E" stroke-miterlimit="10" stroke-linecap="round" stroke-linejoin="round"/>
<path d="M110.337 100.327L141.997 82.3107V65.502L110.337 83.5178V100.327Z" stroke="#2E2E2E" stroke-miterlimit="10" stroke-linecap="round" stroke-linejoin="round"/>
<path d="M118.711 95.3392L133.619 87.0471V70.2881L118.711 78.8281V95.3392Z" stroke="#2E2E2E" stroke-miterlimit="10" stroke-linecap="round" stroke-linejoin="round"/>
<path d="M155.768 76.4968L169.587 68.6289V51.835L155.768 59.7029V76.4968Z" stroke="#2E2E2E" stroke-miterlimit="10" stroke-linecap="round" stroke-linejoin="round"/>
<path d="M248.799 200.151V205.515L284.738 185.175V179.6L248.799 200.151Z" stroke="#2E2E2E" stroke-miterlimit="10" stroke-linecap="round" stroke-linejoin="round"/>
<path d="M228.34 188.141L248.799 200.151L284.811 179.601L263.916 168.214L228.34 188.141Z" stroke="#2E2E2E" stroke-miterlimit="10" stroke-linecap="round" stroke-linejoin="round"/>
<path d="M40.2939 200.097V205.297L4.54433 184.625V179.501L40.2939 200.097Z" stroke="#2E2E2E" stroke-miterlimit="10" stroke-linecap="round" stroke-linejoin="round"/>
<path d="M54.9766 191.557L40.4673 200.033L4.71776 179.601L19.4001 171.63L54.9766 191.557Z" stroke="#2E2E2E" stroke-miterlimit="10" stroke-linecap="round" stroke-linejoin="round"/>
<path d="M155.297 234.232C167.484 233.01 179.156 229.732 188.56 224.382C212.917 210.524 212.917 188.068 188.56 174.209C174.514 166.222 155.448 162.84 137.154 164.062" stroke="#2E2E2E" stroke-miterlimit="10" stroke-linecap="round" stroke-linejoin="round"/>
<path d="M119.269 166.819C112.42 168.548 105.994 171.007 100.37 174.196C76.0123 188.054 76.0123 210.51 100.37 224.369C110.575 230.18 123.457 233.548 136.747 234.487" stroke="#2E2E2E" stroke-miterlimit="10" stroke-linecap="round" stroke-linejoin="round"/>
<path d="M139.678 170.172L137.183 164.256L134.688 158.34L126.932 162.512L119.176 166.7L129.427 168.443L139.678 170.172Z" stroke="#2E2E2E" stroke-miterlimit="10" stroke-linecap="round" stroke-linejoin="round"/>
<path d="M136.76 234.636L137.274 240.716L146.271 237.438L155.267 234.144L145.756 231.358L136.261 228.571L136.76 234.636Z" stroke="#2E2E2E" stroke-miterlimit="10" stroke-linecap="round" stroke-linejoin="round"/>
<path d="M119.706 212.818C120.053 211.909 119.948 210.523 119.675 209.689C118.678 208.631 116.092 208.288 111.647 208.527C106.461 208.81 104.753 207.692 103.724 204.995C102.711 202.328 102.681 200.674 108.064 199.571C113.673 198.423 115.457 196.963 113.522 194.981C113.28 194.758 113.038 194.549 112.766 194.326C112.705 194.281 112.66 194.251 112.6 194.206H112.615C112.055 193.744 111.435 193.312 110.77 192.895C109.198 191.912 106.204 190.541 106.597 189.84C107.172 188.812 108.034 187.784 109.077 186.83C110.075 185.906 111.33 184.982 112.69 184.222C113.628 183.701 117.105 184.625 119.343 184.982C120.295 185.131 121.263 185.251 122.231 185.34H122.216C122.306 185.355 122.397 185.355 122.488 185.37C122.941 185.4 123.395 185.429 123.848 185.459C127.825 185.564 129.337 183.999 128.641 180.631C127.976 177.398 130.577 176.682 135.233 175.997C139.951 175.311 142.46 175.684 144.32 178.456C145.908 180.825 147.601 181.987 149.718 182.032C151.139 181.808 153.362 181.242 154.647 180.646C157.867 179.186 159.5 176.131 165.442 178.619C171.399 181.108 171.686 180.884 168.874 185.832C167.604 188.067 170.22 190.198 174.347 190.243C175.391 190.257 176.464 190.302 177.447 190.153C183.464 189.304 184.009 191.643 185.233 194.057C186.549 196.665 185.475 197.961 180.985 198.975C173.153 200.718 172.442 203.028 179.17 206.113C183.812 208.229 181.665 209.823 179.79 211.73C177.568 213.593 176.071 215.337 170.673 213.921C162.841 211.865 159.515 213.265 160.256 218.034C160.679 220.761 159.122 221.908 154.435 222.4C150.096 222.862 146.165 223.622 144.819 220.179C144.592 219.613 144.048 219.077 143.564 218.555C141.644 216.484 137.123 216.097 134.175 217.736C127.659 221.387 127.87 221.133 121.293 219.211C114.777 217.304 118.844 215.098 119.706 212.818Z" stroke="#2E2E2E" stroke-miterlimit="10" stroke-linecap="round" stroke-linejoin="round"/>
<path d="M144.457 213.132C131.021 213.132 120.13 206.934 120.13 199.289C120.13 191.643 131.021 185.445 144.457 185.445C157.893 185.445 168.784 191.643 168.784 199.289C168.784 206.934 157.893 213.132 144.457 213.132Z" stroke="#2E2E2E" stroke-miterlimit="10" stroke-linecap="round" stroke-linejoin="round"/>
<path d="M144.698 203.119C141.133 203.119 138.242 201.471 138.242 199.438C138.242 197.406 141.133 195.758 144.698 195.758C148.264 195.758 151.154 197.406 151.154 199.438C151.154 201.471 148.264 203.119 144.698 203.119Z" stroke="#2E2E2E" stroke-miterlimit="10" stroke-linecap="round" stroke-linejoin="round"/>
<path d="M13.1874 124.943L69.625 92.2347V82.5734L42.625 66.0925V59.8411L144.764 1.39746L186.113 25.1236V32.9527L180.437 35.9721V70.0706L270.128 120.958V130.067L244.152 145.44V151.133L288.764 176.753V182.446L144.199 265L0.999876 182.923V177.23L39.1638 155.118V148.856L13.1874 132.914V124.943Z" stroke="#2E2E2E" stroke-width="2" stroke-miterlimit="10" stroke-linecap="round" stroke-linejoin="round"/>
</svg>
