<svg width="16" height="16" viewBox="0 0 16 16" fill="none" xmlns="http://www.w3.org/2000/svg">
<path fill-rule="evenodd" clip-rule="evenodd" d="M3.75729 8.35329C3.18333 8.92725 2.85275 9.68412 2.82639 10.4487C2.80011 11.2108 3.07706 11.9157 3.58051 12.4192C4.08397 12.9226 4.78882 13.1996 5.55099 13.1733C5.92896 13.1602 6.30952 13.0727 6.67016 12.9132C7.03084 12.7536 7.36291 12.5258 7.64638 12.2424L8.53026 11.3585L9.06059 10.8282L10.1212 11.8888L9.59092 12.4192L8.70704 13.303C8.29406 13.716 7.80849 14.0498 7.27699 14.2849C6.74545 14.5201 6.17679 14.6526 5.60268 14.6724C4.44203 14.7124 3.32915 14.2891 2.51985 13.4798C1.71055 12.6705 1.28726 11.5576 1.32728 10.397C1.36722 9.23873 1.86407 8.12519 2.69663 7.29263L3.58051 6.40875L4.11084 5.87842L5.1715 6.93908L4.64117 7.46941L3.75729 8.35329ZM8.35348 3.7571C8.92745 3.18313 9.68431 2.85256 10.4489 2.82619C11.211 2.79991 11.9159 3.07686 12.4193 3.58032C12.9228 4.08377 13.1998 4.78862 13.1735 5.55079C13.1604 5.92877 13.0729 6.30933 12.9134 6.66996C12.7538 7.03064 12.526 7.36272 12.2426 7.64618L11.3587 8.53007L10.8284 9.0604L11.889 10.1211L12.4193 9.59073L13.3032 8.70684C13.7162 8.29387 14.05 7.80829 14.2851 7.2768C14.5203 6.74526 14.6528 6.17659 14.6726 5.60249C14.7126 4.44184 14.2893 3.32896 13.48 2.51966C12.6707 1.71036 11.5578 1.28706 10.3972 1.32708C9.23892 1.36702 8.12538 1.86387 7.29282 2.69643L6.40894 3.58032L5.87861 4.11065L6.93927 5.17131L7.4696 4.64098L8.35348 3.7571ZM5.34828 9.59073L4.81795 10.1211L5.87861 11.1817L6.40894 10.6514L10.6516 6.40875L11.1819 5.87842L10.1212 4.81775L9.59092 5.34808L5.34828 9.59073Z" fill="#2E2E2E"/>
</svg>
