<svg width="16" height="17" viewBox="0 0 16 17" fill="none" xmlns="http://www.w3.org/2000/svg">
<path fill-rule="evenodd" clip-rule="evenodd" d="M6.56615 2.18532C6.99096 1.90149 7.4904 1.75 8.0013 1.75C8.51221 1.75 9.01164 1.90149 9.43646 2.18532C9.86127 2.46915 10.1924 2.87257 10.3879 3.34458C10.5835 3.81658 10.6347 4.33597 10.535 4.83707C10.4354 5.33841 10.1893 5.79932 9.82824 6.16045L8.00138 7.98628L6.17437 6.15979L6.1743 6.15972L6.17422 6.15964C5.81309 5.79835 5.56717 5.3381 5.46756 4.83707C5.36794 4.33597 5.41913 3.81658 5.61468 3.34458C5.81023 2.87257 6.14134 2.46915 6.56615 2.18532ZM8.0013 0.25C7.19374 0.25 6.40431 0.489456 5.73284 0.938091C5.06136 1.38673 4.53799 2.02439 4.2289 2.77046C4.05252 3.19619 3.95044 3.64631 3.92455 4.10153L1.1954 5.31449L0.75 5.99985V15.9999L1.8046 16.6852L5.98117 14.829L9.66459 16.6707L10.3046 16.6852L14.8046 14.6852L15.25 13.9999V3.99985L14.1954 3.31449L12.0838 4.25296C12.0739 3.74632 11.9696 3.24335 11.7737 2.77046C11.4646 2.02439 10.9412 1.38673 10.2698 0.938091C9.59829 0.489456 8.80886 0.25 8.0013 0.25ZM11.6992 6.06539C11.4993 6.49242 11.2259 6.88401 10.889 7.22097L10.8888 7.22119L8.53148 9.57719L7.47105 9.57712L5.11372 7.22045L5.11357 7.22031C4.67002 6.77664 4.3364 6.23854 4.13578 5.64913L2.25 6.48725V14.8458L5.6954 13.3145L6.33541 13.329L10.0188 15.1707L13.75 13.5124V5.15392L11.6992 6.06539Z" fill="#2E2E2E"/>
</svg>
