<svg width="16" height="16" viewBox="0 0 16 16" fill="none" xmlns="http://www.w3.org/2000/svg">
<path d="M3.4241 2.70311C4.69429 1.60247 6.31929 0.997662 8 1.00001C11.8661 1.00001 15 4.1339 15 8C15 9.4952 14.531 10.8812 13.733 12.018L11.5 8H13.6C13.6001 6.90214 13.2775 5.82846 12.6723 4.91248C12.0671 3.9965 11.206 3.27862 10.196 2.84809C9.1861 2.41757 8.0719 2.2934 6.99197 2.49102C5.91204 2.68864 4.91402 3.19933 4.122 3.9596L3.4241 2.70311ZM12.5759 13.2969C11.3057 14.3975 9.68071 15.0023 8 15C4.1339 15 1 11.8661 1 8C1 6.5048 1.469 5.1188 2.267 3.982L4.5 8H2.4C2.39991 9.09786 2.72253 10.1715 3.32774 11.0875C3.93294 12.0035 4.79405 12.7214 5.80397 13.1519C6.8139 13.5824 7.9281 13.7066 9.00803 13.509C10.088 13.3114 11.086 12.8007 11.878 12.0404L12.5759 13.2969Z" fill="#2E2E2E"/>
</svg>
