<svg aria-hidden="true" style="position: absolute; width: 0; height: 0; overflow: hidden;" version="1.1" xmlns="http://www.w3.org/2000/svg" xmlns:xlink="http://www.w3.org/1999/xlink">
<defs>
<symbol id="icon-16-untitled" viewBox="0 0 32 32">
<path d="M6 15.32h-0.2v2.68h3.58v2.6h-3.58v2.56h3.58v5.040h2.9v-5.060h8.6v-2.54h-8.6v-2.6h4.8c0.306 0.035 0.66 0.055 1.019 0.055 2.239 0 4.296-0.774 5.92-2.070l-0.019 0.015c1.372-1.416 2.217-3.349 2.217-5.48 0-0.183-0.006-0.365-0.019-0.545l0.001 0.024c0.011-0.156 0.017-0.337 0.017-0.52 0-2.13-0.845-4.063-2.219-5.482l0.002 0.002c-1.648-1.388-3.795-2.232-6.139-2.232-0.275 0-0.547 0.012-0.816 0.034l0.035-0.002h-7.7v13.52h-3.38zM21.8 14v0c-1.116 0.867-2.537 1.391-4.080 1.391-0.225 0-0.448-0.011-0.668-0.033l0.028 0.002h-4.8v-10.78h4.8c0.182-0.018 0.393-0.028 0.606-0.028 1.56 0 2.994 0.538 4.127 1.438l-0.014-0.010c0.9 0.934 1.455 2.206 1.455 3.607 0 0.138-0.005 0.275-0.016 0.41l0.001-0.018c0.010 0.119 0.015 0.257 0.015 0.396 0 1.407-0.554 2.684-1.457 3.626l0.002-0.002z"></path>
<path d="M12.48 28.4h-3.3v-5.060h-3.58v-2.94h3.58v-2h-3.58v-3.28h3.58v-13.52h8c0.175-0.011 0.381-0.018 0.587-0.018 2.375 0 4.553 0.845 6.249 2.251l-0.016-0.013c1.489 1.454 2.413 3.482 2.413 5.726 0 0.16-0.005 0.319-0.014 0.476l0.001-0.022c0.002 0.072 0.004 0.157 0.004 0.241 0 2.252-0.919 4.29-2.403 5.758l-0.001 0.001c-1.675 1.4-3.852 2.251-6.227 2.251-0.272 0-0.541-0.011-0.808-0.033l0.035 0.002h-4.52v2h8.6v2.96h-8.6v5.22zM9.58 28h2.42v-5.060h8.6v-2.14h-8.6v-2.9h5c0.225 0.019 0.487 0.030 0.751 0.030 2.276 0 4.362-0.812 5.984-2.162l-0.015 0.012c1.412-1.399 2.286-3.339 2.286-5.483 0-0.104-0.002-0.208-0.006-0.312l0 0.015c0.008-0.134 0.013-0.292 0.013-0.45 0-2.098-0.837-4-2.195-5.392l0.002 0.002c-1.622-1.36-3.732-2.186-6.034-2.186-0.248 0-0.494 0.010-0.738 0.028l0.032-0.002h-7.5v13.52h-3.58v2.38h3.58v2.9h-3.58v2.16h3.58v5.040zM17.080 15.52h-5.080v-11.14h5c0.225-0.026 0.485-0.041 0.749-0.041 1.613 0 3.095 0.558 4.264 1.492l-0.014-0.011c0.895 0.961 1.444 2.254 1.444 3.675 0 0.178-0.009 0.353-0.025 0.527l0.002-0.022c0.009 0.121 0.015 0.261 0.015 0.403 0 1.427-0.545 2.726-1.439 3.701l0.004-0.004c-1.157 0.907-2.633 1.454-4.237 1.454-0.241 0-0.478-0.012-0.713-0.036l0.029 0.002zM12.48 15.12h4.6c0.188 0.019 0.406 0.030 0.627 0.030 1.493 0 2.868-0.5 3.969-1.342l-0.016 0.012c0.85-0.906 1.372-2.128 1.372-3.472 0-0.122-0.004-0.244-0.013-0.364l0.001 0.016c0.008-0.108 0.013-0.234 0.013-0.361 0-1.35-0.531-2.576-1.395-3.481l0.002 0.002c-1.087-0.853-2.474-1.368-3.982-1.368-0.211 0-0.419 0.010-0.624 0.030l0.026-0.002h-4.58v10.3z"></path>
</symbol>
<symbol id="icon-16-back" viewBox="0 0 32 32">
<path d="M16.84 30.86l-9.9-9.9 1.060-1.060-1.060-1.060 9.9-9.9 2.12 2.12-7.34 7.34h14.72v3h-14.72l7.34 7.34-2.12 2.12z"></path>
</symbol>
<symbol id="icon-16-burger" viewBox="0 0 32 32">
<path d="M30 4.5h-28v3h28v-3zM2 14.5h28v3h-28v-3zM2 24.5h28v3h-28v-3z"></path>
</symbol>
<symbol id="icon-16-card" viewBox="0 0 32 32">
<path d="M4.5 8l1.5-1.5h20l1.5 1.5v20l-1.5 1.5h-20l-1.5-1.5v-20zM14.5 26.5v-7h-7v7h7zM17.5 19.5v7h7v-7h-7zM24.5 16.5v-7h-17v7h17z"></path>
</symbol>
<symbol id="icon-16-close" viewBox="0 0 32 32">
<path d="M13.879 16l-8.838 8.838 2.121 2.121 8.838-8.838 8.839 8.839 2.121-2.121-8.839-8.839 8.839-8.839-2.121-2.121-8.839 8.839-8.839-8.839-2.121 2.121 8.839 8.839z"></path>
</symbol>
<symbol id="icon-16-dropdown-close" viewBox="0 0 32 32">
<path d="M22.94 21.060l-6.94-6.94-6.94 6.94-2.12-2.12 8-8h2.12l8 8-2.12 2.12z"></path>
</symbol>
<symbol id="icon-16-dropdown-open" viewBox="0 0 32 32">
<path d="M17.060 21.060h-2.12l-8-8 2.12-2.12 6.94 6.94 6.94-6.94 2.12 2.12-8 8z"></path>
</symbol>
<symbol id="icon-16-go" viewBox="0 0 32 32">
<path d="M11.1 25.020l-2.12-2.12 10.4-10.4h-10.38v-3h14v1.5h1.5v14h-3v-10.38l-10.4 10.4z"></path>
</symbol>
<symbol id="icon-16-go-hover" viewBox="0 0 32 32">
<path d="M17.060 28.96l-2.12-2.12 7.34-7.34h-14.72v-3h14.72l-7.34-7.34 2.12-2.12 9.9 9.9-1.060 1.060 1.060 1.060-9.9 9.9z"></path>
</symbol>
<symbol id="icon-16-link-close" viewBox="0 0 32 32">
<path fill="#2e2e2e" style="fill: var(--color1, #2e2e2e)" d="M21.333 14.667h-10.667v2.667h10.667v-2.667z"></path>
<path fill="#e4e4e4" style="fill: var(--color2, #e4e4e4)" d="M16 29.333c-7.364 0-13.333-5.97-13.333-13.333h-1.778c0 8.346 6.765 15.111 15.111 15.111v-1.778zM29.333 16c0 7.364-5.97 13.333-13.333 13.333v1.778c8.346 0 15.111-6.765 15.111-15.111h-1.778zM16 2.667c7.364 0 13.333 5.97 13.333 13.333h1.778c0-8.346-6.765-15.111-15.111-15.111v1.778zM16 0.889c-8.346 0-15.111 6.765-15.111 15.111h1.778c0-7.364 5.97-13.333 13.333-13.333v-1.778z"></path>
</symbol>
<symbol id="icon-16-link-open" viewBox="0 0 32 32">
<path fill="#2e2e2e" style="fill: var(--color1, #2e2e2e)" d="M14.667 17.333v4h2.667v-4h4v-2.667h-4v-4h-2.667v4h-4v2.667h4z"></path>
<path fill="#e4e4e4" style="fill: var(--color2, #e4e4e4)" d="M16 29.333c-7.364 0-13.333-5.97-13.333-13.333h-1.778c0 8.346 6.765 15.111 15.111 15.111v-1.778zM29.333 16c0 7.364-5.97 13.333-13.333 13.333v1.778c8.346 0 15.111-6.765 15.111-15.111h-1.778zM16 2.667c7.364 0 13.333 5.97 13.333 13.333h1.778c0-8.346-6.765-15.111-15.111-15.111v1.778zM16 0.889c-8.346 0-15.111 6.765-15.111 15.111h1.778c0-7.364 5.97-13.333 13.333-13.333v-1.778z"></path>
</symbol>
<symbol id="icon-16-map" viewBox="0 0 32 32">
<path d="M13.301 4.114c-0.8 0.534-1.423 1.294-1.791 2.182s-0.464 1.866-0.277 2.809c0.188 0.943 0.65 1.809 1.33 2.49l3.439 3.438 3.439-3.437c0.68-0.68 1.143-1.547 1.33-2.491s0.091-1.921-0.277-2.809c-0.368-0.888-0.991-1.648-1.791-2.182s-1.74-0.819-2.701-0.819c-0.962 0-1.902 0.285-2.701 0.819zM16.002 0.471c1.52 0 3.006 0.451 4.27 1.295s2.249 2.045 2.831 3.449c0.369 0.89 0.565 1.837 0.584 2.791l3.975-1.767 1.985 1.29v18.824l-0.838 1.29-8.471 3.765-1.205-0.027-6.934-3.467-7.862 3.494-1.985-1.29v-18.824l0.838-1.29 5.137-2.283c0.049-0.857 0.241-1.704 0.573-2.506 0.582-1.404 1.567-2.605 2.831-3.449s2.75-1.295 4.27-1.295zM22.963 11.417c-0.376 0.804-0.891 1.541-1.525 2.175l-0 0-4.437 4.435-1.996-0-4.438-4.436c-0.835-0.835-1.463-1.848-1.841-2.957l-3.55 1.578v15.734l6.485-2.882 1.205 0.027 6.933 3.467 7.023-3.122v-15.734l-3.86 1.716z"></path>
</symbol>
<symbol id="icon-16-ok" viewBox="0 0 32 32">
<path d="M14 24l-1.061 1.061h2.121l-1.061-1.061zM26.939 8.939l-14 14 2.121 2.121 14-14-2.121-2.121zM15.061 22.939l-8-8-2.121 2.121 8 8 2.121-2.121z"></path>
</symbol>
<symbol id="icon-16-refresh" viewBox="0 0 32 32">
<path d="M6.848 5.406c2.54-2.201 5.79-3.411 9.152-3.406 7.732 0 14 6.268 14 14 0 2.99-0.938 5.762-2.534 8.036l-4.466-8.036h4.2c0-2.196-0.645-4.343-1.855-6.175s-2.933-3.268-4.953-4.129c-2.020-0.861-4.248-1.109-6.408-0.714s-4.156 1.417-5.74 2.937l-1.396-2.513zM25.152 26.594c-2.54 2.201-5.79 3.411-9.152 3.406-7.732 0-14-6.268-14-14 0-2.99 0.938-5.762 2.534-8.036l4.466 8.036h-4.2c-0 2.196 0.645 4.343 1.855 6.175s2.933 3.268 4.952 4.129c2.020 0.861 4.248 1.109 6.408 0.714s4.156-1.417 5.74-2.937l1.396 2.513z"></path>
</symbol>
<symbol id="icon-16-see" viewBox="0 0 32 32">
<path d="M30 29.5h-28v-3h2.5v-16.5l0.82-1.34 12-6 2.18 1.34v7.080l7.16 3.58 0.84 1.34v10.5h2.5v3zM19.5 26.5h5v-9.58l-5-2.5v12zM7.5 26.5h9v-20l-9 4.42v15.58z"></path>
</symbol>
</defs>
</svg>
