<svg width="16" height="16" viewBox="0 0 16 16" fill="none" xmlns="http://www.w3.org/2000/svg">
<path d="M3 7.66H2.9V7.76V8.94857V9.04857H3H4.68571V10.2971H3H2.9V10.3971V11.4743V11.5743H3H4.68571V14V14.1H4.78571H6.03571H6.13571V14V11.5743H10.3393H10.4393V11.4743V10.3971V10.2971H10.3393H6.13571V9.04857H8.53571C10.0608 9.04857 11.21 8.69288 11.9623 7.96197C12.724 7.23351 13.1 6.23328 13.1 4.97429C13.1 3.70381 12.7305 2.70315 11.9801 1.98655C11.2277 1.25555 10.0724 0.9 8.53571 0.9H4.78571H4.68571V1V7.66H3ZM10.8958 6.98146L10.8958 6.98145L10.8949 6.98229C10.4345 7.42602 9.65704 7.66 8.53571 7.66H6.13571V2.28857H8.53571C9.64394 2.28857 10.4221 2.52823 10.8948 2.98479L10.8948 2.9848L10.8958 2.98569C11.3699 3.4318 11.6143 4.08891 11.6143 4.97429C11.6143 5.87252 11.3696 6.53559 10.8958 6.98146Z" fill="#2E2E2E" stroke="#2E2E2E" stroke-width="0.2"/>
</svg>
