<svg id="Слой_1" data-name="Слой 1" xmlns="http://www.w3.org/2000/svg" viewBox="0 0 16 16"><defs><style>.cls-1{fill:#2e2e2e;}</style></defs><title>₽</title><path class="cls-1" d="M3,7.66H2.9V9H4.69V10.3H2.9v1.28H4.69V14.1H6.14V11.57h4.3V10.3H6.14V9h2.4A4.75,4.75,0,0,0,12,8,3.94,3.94,0,0,0,13.1,5,3.94,3.94,0,0,0,12,2,4.78,4.78,0,0,0,8.54.9H4.69V7.66H3ZM10.9,7h0a3.34,3.34,0,0,1-2.36.68H6.14V2.29h2.4a3.32,3.32,0,0,1,2.36.7h0a2.6,2.6,0,0,1,.72,2A2.62,2.62,0,0,1,10.9,7Z"/><path class="cls-1" d="M6.24,14.2H4.59V11.67H2.8V10.2H4.59v-1H2.8V7.56H4.59V0.8h4A4.9,4.9,0,0,1,12,1.91,4,4,0,0,1,13.2,5,4.05,4.05,0,0,1,12,8a4.87,4.87,0,0,1-3.5,1.11H6.24v1h4.3v1.48H6.24V14.2ZM4.79,14H6V11.47h4.3V10.4H6V8.95h2.5a4.68,4.68,0,0,0,3.36-1.06A3.86,3.86,0,0,0,13,5a3.86,3.86,0,0,0-1.09-2.92A4.71,4.71,0,0,0,8.54,1H4.79V7.76H3V8.95H4.79V10.4H3v1.08H4.79V14ZM8.54,7.76H6V2.19h2.5A3.42,3.42,0,0,1,11,2.91,2.7,2.7,0,0,1,11.71,5,2.74,2.74,0,0,1,11,7.05,3.45,3.45,0,0,1,8.54,7.76Zm-2.3-.2h2.3a3.27,3.27,0,0,0,2.29-.65h0A2.54,2.54,0,0,0,11.51,5a2.52,2.52,0,0,0-.69-1.92,3.24,3.24,0,0,0-2.29-.67H6.24V7.56Z"/></svg>