<svg width="70" height="23" viewBox="0 0 70 23"xmlns="http://www.w3.org/2000/svg">
<path d="M2.87434 4.68307V12.3066C4.31175 13.2297 5.64103 13.5033 7.18609 13.5033C10.6354 13.5033 12.791 11.1442 12.791 7.89662C12.791 4.78565 10.8868 2.56365 7.54528 2.56365C5.64103 2.56365 3.88052 3.48652 2.87434 4.68307ZM0 0.341356H2.87434V2.1532C3.98833 0.922609 6.14413 -0.000408173 8.37163 -0.000408173C12.9707 -0.000408173 15.845 3.24718 15.845 7.79404C15.845 12.4775 12.5037 16.067 7.43763 16.067C5.7129 16.067 4.02411 15.7253 2.87434 15.0074V22.5625H0V0.341356Z"/>
<path d="M21.511 6.66623H31.3199C31.1762 4.13651 29.4514 2.56401 26.649 2.56401C23.7028 2.56401 21.8343 4.30747 21.511 6.66623ZM33.1882 14.0505C31.6072 15.4179 29.2719 16.0674 27.1161 16.0674C21.8704 16.0674 18.457 12.8882 18.457 8.03374C18.457 3.55526 21.4751 -4.76837e-05 26.7927 -4.76837e-05C30.9606 -4.76837e-05 34.3021 2.8032 34.3021 7.04234C34.3021 7.7944 34.2302 8.4097 34.1224 8.88838H21.6907C21.9421 11.7942 24.1699 13.5036 27.3316 13.5036C29.4155 13.5036 31.248 12.8198 32.29 11.8968L33.1882 14.0505Z"/>
<path d="M44.4781 7.48634L48.0712 11.1441C49.1131 12.2724 50.7299 13.7081 52.1673 13.1611L52.1314 15.7251C49.724 16.409 47.2808 14.8705 45.6638 12.7851L41.1727 7.69133L48.3946 0.341223H51.8439L44.4781 7.48634ZM37.6875 0.341223H40.5618V15.7251H37.6875V0.341223Z"/>
<path d="M66.4303 11.4866V3.55526C65.1727 2.87144 63.8075 2.56401 62.478 2.56401C58.8491 2.56401 56.4777 5.09373 56.4777 8.17036C56.4777 11.5207 58.7055 13.5036 61.9031 13.5036C63.7716 13.5036 65.5321 12.4779 66.4303 11.4866ZM66.4303 14.1188C65.2807 15.2127 63.4122 16.0674 61.4361 16.0674C56.5497 16.0674 53.4238 12.8882 53.4238 8.03374C53.4238 3.55526 57.2323 -4.76837e-05 62.514 -4.76837e-05C65.1008 -4.76837e-05 67.6519 0.752011 69.3048 1.74341V15.7256H66.4303V14.1188Z"/>
</svg>
