<svg width="8" height="8" viewBox="0 0 8 8" fill="none" xmlns="http://www.w3.org/2000/svg">
<path d="M3.16667 1.5V2.33333H1.08333V6.91667H5.66667V4.83333H6.5V7.33333C6.5 7.44384 6.4561 7.54982 6.37796 7.62796C6.29982 7.7061 6.19384 7.75 6.08333 7.75H0.666667C0.55616 7.75 0.450179 7.7061 0.372039 7.62796C0.293899 7.54982 0.25 7.44384 0.25 7.33333V1.91667C0.25 1.80616 0.293899 1.70018 0.372039 1.62204C0.450179 1.5439 0.55616 1.5 0.666667 1.5H3.16667ZM7.75 0.25V3.58333H6.91667V1.67208L3.66958 4.91958L3.08042 4.33042L6.32708 1.08333H4.41667V0.25H7.75Z" fill="#ADADAD"/>
</svg>
