<svg width="12" height="14" viewBox="0 0 12 14" fill="none" xmlns="http://www.w3.org/2000/svg">
<path d="M10.6699 5.29476C10.9983 5.29476 11.9997 5.29476 11.9997 5.29476C11.9997 8.02581 12.0015 11.269 11.9967 14C10.9969 14 0.998376 14 0.00179151 14C0.00179151 14 0 13.1579 0 12.9759C0 11.8039 0 5.29476 0 5.29476C0 5.29476 0.848507 5.29476 1.33127 5.29476L1.3298 4.78276C1.3298 3.5143 1.82174 2.29778 2.6974 1.40084C3.57307 0.503897 4.76072 0 5.99909 0C7.23747 0 8.42512 0.503897 9.30078 1.40084C10.1764 2.29778 10.6684 3.5143 10.6684 4.78276L10.6699 5.29476ZM9.33006 5.29476L9.32859 4.78276C9.32859 3.87827 8.9778 3.01082 8.3534 2.37124C7.729 1.73167 6.88213 1.37236 5.99909 1.37236C5.11606 1.37236 4.26919 1.73167 3.64478 2.37124C3.02038 3.01082 2.6696 3.87827 2.6696 4.78276L2.67107 5.29476H9.33006ZM4.99924 7.85512L4.99777 11.9517H6.99747L6.99894 7.85512H4.99924Z" fill="#EE6A5F"/>
</svg>
