<svg width="17" height="16" viewBox="0 0 17 16" fill="none" xmlns="http://www.w3.org/2000/svg">
<path d="M3.5 7.66H3.4V7.76V8.94857V9.04857H3.5H5.18571V10.2971H3.5H3.4V10.3971V11.4743V11.5743H3.5H5.18571V14V14.1H5.28571H6.53571H6.63571V14V11.5743H10.8393H10.9393V11.4743V10.3971V10.2971H10.8393H6.63571V9.04857H9.03571C10.5608 9.04857 11.71 8.69288 12.4623 7.96197C13.224 7.23351 13.6 6.23328 13.6 4.97429C13.6 3.70381 13.2305 2.70315 12.4801 1.98655C11.7277 1.25555 10.5724 0.9 9.03571 0.9H5.28571H5.18571V1V7.66H3.5ZM11.3958 6.98146L11.3958 6.98145L11.3949 6.98229C10.9345 7.42602 10.157 7.66 9.03571 7.66H6.63571V2.28857H9.03571C10.1439 2.28857 10.9221 2.52823 11.3948 2.98479L11.3948 2.9848L11.3958 2.98569C11.8699 3.4318 12.1143 4.08891 12.1143 4.97429C12.1143 5.87252 11.8696 6.53559 11.3958 6.98146Z" fill="white" stroke="white" stroke-width="0.2"/>
</svg>
