<svg width="32" height="32" viewBox="0 0 32 32" fill="none" xmlns="http://www.w3.org/2000/svg">
<path d="M7 5H20L22.5 7.5L25 10V27H7V5Z" fill="white" stroke="#2E2E2E" stroke-width="1.5" stroke-linejoin="bevel"/>
<path d="M9.9 21V21.1H10H10.7938H10.8938V21V19.6746H11.5941C12.1074 19.6746 12.5523 19.5698 12.8716 19.342C13.1957 19.1106 13.3801 18.7596 13.3801 18.2958C13.3801 17.9019 13.2525 17.5482 12.9678 17.2944C12.6845 17.0418 12.2589 16.9 11.686 16.9H10H9.9V17V21ZM14.0257 21V21.1H14.1257H15.628C16.3934 21.1 17.0186 20.8909 17.4541 20.5205C17.8912 20.1489 18.129 19.6218 18.129 19.0056C18.129 18.3855 17.8804 17.8557 17.4365 17.4826C16.994 17.1107 16.3643 16.9 15.6083 16.9H14.1257H14.0257V17V21ZM18.8561 21V21.1H18.9561H19.7499H19.8499V21V19.5169H21.6392H21.7392V19.4169V18.8028V18.7028H21.6392H19.8499V17.7085H22H22.1V17.6085V17V16.9H22H18.9561H18.8561V17V21ZM10.8938 18.8606V17.7085H11.5744C11.8467 17.7085 12.0436 17.7692 12.17 17.8671C12.293 17.9623 12.36 18.1007 12.36 18.2845C12.36 18.4543 12.2979 18.5926 12.1701 18.6913C12.0389 18.7926 11.8275 18.8606 11.5154 18.8606H10.8938ZM15.0195 20.2915V17.7085H15.6214C16.5159 17.7085 17.109 18.2606 17.109 19.0056C17.109 19.3742 16.9605 19.6931 16.6988 19.9211C16.4363 20.1498 16.0542 20.2915 15.582 20.2915H15.0195Z" fill="#2E2E2E" stroke="#2E2E2E" stroke-width="0.2"/>
<path d="M19.75 10.25V6.81066L21.4697 8.53033L23.1893 10.25H19.75Z" fill="#2E2E2E" stroke="#2E2E2E" stroke-width="1.5" stroke-linejoin="bevel"/>
</svg>
