<svg id="Слой_1" data-name="Слой 1" xmlns="http://www.w3.org/2000/svg" viewBox="0 0 19.5 23.5"><defs><style>.cls-1{fill:#fff;}.cls-2{fill:#2e2e2e;}</style></defs><title>pdf</title><path class="cls-1" d="M7,5H20l2.5,2.5L25,10V27H7V5Z" transform="translate(-6.25 -4.25)"/><path class="cls-2" d="M25,27.75H7L6.25,27V5L7,4.25H20l0.53,0.22,5,5L25.75,10V27ZM7.75,26.25h16.5V10.31L19.69,5.75H7.75v20.5Z" transform="translate(-6.25 -4.25)"/><path class="cls-2" d="M9.9,21v0.1h1V19.67h0.7a2.2,2.2,0,0,0,1.28-.33,1.22,1.22,0,0,0,.51-1,1.29,1.29,0,0,0-.41-1,1.87,1.87,0,0,0-1.28-.39H9.9V21ZM14,21v0.1h1.6a2.77,2.77,0,0,0,1.83-.58,2,2,0,0,0,0-3,2.8,2.8,0,0,0-1.83-.58H14V21Zm4.83,0v0.1h1V19.52h1.89V18.7H19.85v-1H22.1V16.9H18.86V21Zm-8-2.14V17.71h0.68a1,1,0,0,1,.6.16,0.5,0.5,0,0,1,.19.42,0.49,0.49,0,0,1-.19.41,1.06,1.06,0,0,1-.65.17H10.89ZM15,20.29V17.71h0.6A1.34,1.34,0,0,1,17.11,19a1.19,1.19,0,0,1-.41.92,1.67,1.67,0,0,1-1.12.37H15Z" transform="translate(-6.25 -4.25)"/><path class="cls-2" d="M19.95,21.2H18.76V16.8H22.2v1H19.95V18.6h1.89v1H19.95V21.2ZM19,21h0.79V19.42h1.89V18.8H19.75V17.61H22V17H19v4Zm-3.33.2h-1.7V16.8h1.68a2.89,2.89,0,0,1,1.89.61,2,2,0,0,1,.73,1.6,2,2,0,0,1-.71,1.59A2.87,2.87,0,0,1,15.63,21.2Zm-1.5-.2h1.5a2.68,2.68,0,0,0,1.76-.56,1.93,1.93,0,0,0,0-2.89A2.7,2.7,0,0,0,15.61,17H14.13v4ZM11,21.2H9.8V16.8h1.89a2,2,0,0,1,1.35.42,1.4,1.4,0,0,1,.45,1.08,1.32,1.32,0,0,1-.55,1.13,2.27,2.27,0,0,1-1.34.35H11V21.2ZM10,21h0.79V19.58h0.8a2.11,2.11,0,0,0,1.22-.31,1.12,1.12,0,0,0,.47-1,1.2,1.2,0,0,0-.38-0.93A1.79,1.79,0,0,0,11.69,17H10v4Zm5.58-.61H14.92V17.61h0.7A1.44,1.44,0,0,1,17.21,19a1.29,1.29,0,0,1-.44,1A1.76,1.76,0,0,1,15.58,20.39Zm-0.46-.2h0.46a1.57,1.57,0,0,0,1.05-.35A1.08,1.08,0,0,0,17,19a1.25,1.25,0,0,0-1.39-1.2h-0.5v2.38ZM11.52,19H10.79V17.61h0.78a1.06,1.06,0,0,1,.66.18,0.6,0.6,0,0,1,.23.5,0.59,0.59,0,0,1-.23.49A1.15,1.15,0,0,1,11.52,19ZM11,18.76h0.52a1,1,0,0,0,.59-0.15,0.39,0.39,0,0,0,.15-0.33,0.4,0.4,0,0,0-.15-0.34,0.88,0.88,0,0,0-.53-0.14H11v1Z" transform="translate(-6.25 -4.25)"/><path class="cls-2" d="M19.75,10.25V6.81l1.72,1.72,1.72,1.72H19.75Z" transform="translate(-6.25 -4.25)"/><path class="cls-2" d="M23.19,11H19.75L19,10.25V6.81l1.28-.53,3.44,3.44ZM20.5,9.5h0.88L20.5,8.62V9.5Z" transform="translate(-6.25 -4.25)"/></svg>