<svg xmlns="http://www.w3.org/2000/svg" viewBox="0 0 19.5 23.5" fill='#2e2e2e'>
<path d="M0.75,0.75h13l2.5,2.5,2.5,2.5v17h-18v-22Z" fill='#fff'/>
<path d="M18.75,23.5h-18L0,22.75v-22L0.75,0h13l0.53,0.22,5,5L19.5,5.75v17ZM1.5,22H18V6.75H12.75V1.5H1.5V22Z"/>
<path d="M3.65,16.75v0.1h1V15.42h0.7a2.2,2.2,0,0,0,1.28-.33,1.22,1.22,0,0,0,.51-1,1.29,1.29,0,0,0-.41-1,1.87,1.87,0,0,0-1.28-.39H3.65v4Zm4.1,0v0.1h1.6a2.77,2.77,0,0,0,1.83-.58,2,2,0,0,0,.18-2.82l-0.18-.18a2.8,2.8,0,0,0-1.83-.58H7.75v4.06Zm4.83,0v0.1h1V15.27h1.89V14.45H13.6v-1h2.25v-0.8H12.61v4.1h0Zm-8-2.14V13.46H5.26a1,1,0,0,1,.6.16,0.5,0.5,0,0,1,.19.42,0.49,0.49,0,0,1-.19.41,1.06,1.06,0,0,1-.65.17H4.58ZM8.75,16V13.46h0.6a1.34,1.34,0,0,1,1.5,1.16s0,0.09,0,.13a1.19,1.19,0,0,1-.41.92A1.67,1.67,0,0,1,9.33,16H8.75Z"/>
<path d="M13.7,17H12.51v-4.4H16v1H13.7v0.8h1.89v1H13.7V17Zm-1-.2h0.79V15.17h1.89V14.55H13.5V13.36h2.25V12.75h-3v4ZM9.42,17H7.72v-4.4H9.4a2.89,2.89,0,0,1,1.89.61,2.13,2.13,0,0,1,0,3.19,2.87,2.87,0,0,1-1.93.6h0Zm-1.5-.2h1.5a2.68,2.68,0,0,0,1.76-.56,1.93,1.93,0,0,0,.17-2.72l-0.17-.17a2.7,2.7,0,0,0-1.82-.55H7.88v4h0ZM4.75,17H3.55v-4.4H5.44A2,2,0,0,1,6.79,13,1.4,1.4,0,0,1,7.24,14a1.32,1.32,0,0,1-.55,1.13,2.27,2.27,0,0,1-1.34.35H4.75V17Zm-1-.2H4.54V15.33h0.8A2.11,2.11,0,0,0,6.56,15,1.12,1.12,0,0,0,7,14a1.2,1.2,0,0,0-.38-0.93,1.79,1.79,0,0,0-1.21-.34H3.75v4Zm5.58-.61H8.67V13.36h0.7A1.44,1.44,0,0,1,11,14.64s0,0.07,0,.11a1.29,1.29,0,0,1-.44,1A1.76,1.76,0,0,1,9.33,16.14Zm-0.46-.2H9.33a1.57,1.57,0,0,0,1-.35,1.08,1.08,0,0,0,.37-0.84,1.25,1.25,0,0,0-1.29-1.21H8.86v2.38h0Zm-3.6-1.19H4.54V13.36H5.32a1.06,1.06,0,0,1,.66.18,0.6,0.6,0,0,1,.23.5,0.59,0.59,0,0,1-.23.49A1.15,1.15,0,0,1,5.27,14.75Zm-0.52-.24H5.27a1,1,0,0,0,.59-0.15A0.39,0.39,0,0,0,6,14a0.4,0.4,0,0,0-.15-0.34,0.88,0.88,0,0,0-.53-0.14H4.75v1Z"/>
<path d="M15.13,5.25"/>
</svg>