<svg aria-hidden="true" style="position: absolute; width: 0; height: 0; overflow: hidden;" version="1.1" xmlns="http://www.w3.org/2000/svg" xmlns:xlink="http://www.w3.org/1999/xlink">
<defs>
<symbol id="icon-icon-32-close" viewBox="0 0 32 32">
<path d="M14.232 16l-7.116 7.116 1.768 1.768 7.116-7.116 7.116 7.116 1.768-1.768-7.116-7.116 7.116-7.116-1.768-1.768-7.116 7.116-7.116-7.116-1.768 1.768 7.116 7.116z"></path>
</symbol>
<symbol id="icon-icon-32-filter" viewBox="0 0 32 32">
<path d="M4 7.75h24v2.5h-24v-2.5zM4 14.75h24v2.5h-24v-2.5zM16 22.75h-12v2.5h12v-2.5zM24.75 22.75h3.25v2.5h-3.25v3.25h-2.5v-3.25h-3.25v-2.5h3.25v-3.25h2.5v3.25z"></path>
</symbol>
<symbol id="icon-icon-32-pdf" viewBox="0 0 27 32">
<path fill="#fff" style="fill: var(--color1, #fff)" d="M1.021 1.021h17.702l6.808 6.809v23.149h-24.511v-29.957z"></path>
<path fill="#2e2e2e" style="fill: var(--color2, #2e2e2e)" d="M25.532 32h-24.511l-1.021-1.021v-29.957l1.021-1.021h17.702l0.722 0.3 6.809 6.809 0.3 0.722v23.149zM2.043 29.957h22.468v-21.706l-6.209-6.209h-16.259v27.915z"></path>
<path fill="#2e2e2e" style="fill: var(--color2, #2e2e2e)" d="M4.97 22.808v0.136h1.362v-1.947h0.953c0.047 0.003 0.103 0.004 0.158 0.004 0.587 0 1.135-0.169 1.597-0.461l-0.012 0.007c0.423-0.305 0.694-0.796 0.694-1.351 0-0.004 0-0.008-0-0.011v0.001c0.001-0.023 0.002-0.049 0.002-0.076 0-0.507-0.215-0.964-0.559-1.285l-0.001-0.001c-0.427-0.335-0.972-0.537-1.565-0.537-0.063 0-0.125 0.002-0.187 0.007l0.008-0h-2.451v5.515zM10.553 22.808v0.136h2.179c0.053 0.003 0.115 0.004 0.177 0.004 0.876 0 1.683-0.299 2.323-0.8l-0.008 0.006c0.567-0.501 0.922-1.23 0.922-2.043s-0.355-1.541-0.919-2.040l-0.003-0.003c-0.637-0.495-1.448-0.793-2.328-0.793-0.058 0-0.115 0.001-0.172 0.004l0.008-0h-2.179v5.529zM17.13 22.808v0.136h1.362v-2.151h2.574v-1.117h-2.546v-1.362h3.064v-1.089h-4.412v5.583zM6.237 19.894v-1.566h0.926c0.022-0.001 0.049-0.002 0.075-0.002 0.276 0 0.533 0.082 0.747 0.223l-0.005-0.003c0.159 0.126 0.26 0.319 0.26 0.535 0 0.013-0 0.026-0.001 0.039l0-0.002c0 0.009 0.001 0.020 0.001 0.030 0 0.214-0.101 0.405-0.258 0.527l-0.002 0.001c-0.222 0.147-0.495 0.235-0.789 0.235-0.034 0-0.067-0.001-0.101-0.003l0.005 0h-0.776zM11.915 21.842v-3.513h0.817c0.070-0.009 0.15-0.015 0.232-0.015 0.989 0 1.794 0.787 1.824 1.769l0 0.003c0 0.009 0 0.019 0 0.029 0 0.488-0.216 0.925-0.557 1.222l-0.002 0.002c-0.387 0.315-0.886 0.506-1.43 0.506-0.033 0-0.067-0.001-0.1-0.002l0.005 0h-0.79z"></path>
<path fill="#2e2e2e" style="fill: var(--color2, #2e2e2e)" d="M18.655 23.081h-1.62v-5.992h4.684v1.362h-3.064v1.089h2.574v1.362h-2.574v2.179zM17.362 22.808h1.076v-2.151h2.574v-0.844h-2.628v-1.62h3.064v-0.831h-4.085v5.447zM12.827 23.081h-2.315v-5.992h2.288c0.045-0.002 0.098-0.003 0.152-0.003 0.917 0 1.761 0.314 2.43 0.84l-0.008-0.006c0.61 0.503 0.995 1.259 0.995 2.105 0 0.026-0 0.052-0.001 0.078l0-0.004c0.001 0.025 0.001 0.054 0.001 0.083 0 0.833-0.374 1.579-0.964 2.079l-0.004 0.003c-0.655 0.514-1.491 0.824-2.4 0.824-0.080 0-0.16-0.002-0.239-0.007l0.011 0.001zM10.785 22.808h2.043c0.048 0.002 0.103 0.003 0.16 0.003 0.847 0 1.626-0.288 2.245-0.772l-0.008 0.006c0.545-0.484 0.886-1.186 0.886-1.968s-0.341-1.484-0.883-1.965l-0.003-0.002c-0.612-0.472-1.39-0.757-2.235-0.757-0.086 0-0.171 0.003-0.255 0.009l0.011-0.001h-2.015v5.447zM6.468 23.081h-1.634v-5.992h2.574c0.049-0.003 0.105-0.005 0.162-0.005 0.635 0 1.219 0.217 1.682 0.581l-0.006-0.004c0.378 0.349 0.614 0.848 0.614 1.401 0 0.024-0 0.049-0.001 0.073l0-0.003c0.001 0.023 0.002 0.050 0.002 0.078 0 0.6-0.294 1.131-0.745 1.458l-0.005 0.004c-0.469 0.302-1.042 0.481-1.656 0.481-0.059 0-0.118-0.002-0.177-0.005l0.008 0h-0.817v1.934zM5.106 22.808h1.076v-1.934h1.089c0.046 0.003 0.101 0.004 0.155 0.004 0.557 0 1.078-0.159 1.518-0.433l-0.012 0.007c0.392-0.28 0.644-0.733 0.644-1.245 0-0.041-0.002-0.082-0.005-0.122l0 0.005c0.001-0.021 0.002-0.047 0.002-0.072 0-0.471-0.199-0.895-0.518-1.194l-0.001-0.001c-0.398-0.295-0.899-0.472-1.441-0.472-0.073 0-0.145 0.003-0.216 0.009l0.009-0.001h-2.301v5.447zM12.705 21.978h-0.899v-3.786h0.953c0.062-0.007 0.133-0.011 0.205-0.011 1.063 0 1.928 0.846 1.96 1.901l0 0.003c0 0.012 0 0.026 0 0.040 0 0.526-0.231 0.998-0.598 1.32l-0.002 0.002c-0.408 0.332-0.934 0.534-1.508 0.534-0.040 0-0.079-0.001-0.118-0.003l0.006 0zM12.078 21.706h0.626c0.025 0.001 0.053 0.002 0.082 0.002 0.513 0 0.983-0.18 1.351-0.481l-0.004 0.003c0.31-0.271 0.504-0.667 0.504-1.109 0-0.012-0-0.025-0-0.037l0 0.002c-0.032-0.915-0.781-1.645-1.701-1.645-0.068 0-0.134 0.004-0.2 0.012l0.008-0.001h-0.681v3.241zM7.176 20.085h-0.994v-1.893h1.062c0.027-0.002 0.058-0.003 0.090-0.003 0.302 0 0.582 0.093 0.814 0.251l-0.005-0.003c0.192 0.151 0.314 0.383 0.314 0.644 0 0.013-0 0.026-0.001 0.039l0-0.002c0 0.009 0.001 0.020 0.001 0.030 0 0.259-0.122 0.489-0.312 0.636l-0.002 0.001c-0.255 0.188-0.575 0.3-0.922 0.3-0.016 0-0.031-0-0.047-0.001l0.002 0zM6.468 19.758h0.708c0.025 0.002 0.053 0.002 0.082 0.002 0.267 0 0.517-0.077 0.727-0.21l-0.006 0.003c0.125-0.098 0.205-0.249 0.205-0.419 0-0.011-0-0.021-0.001-0.032l0 0.001c0.001-0.011 0.001-0.024 0.001-0.037 0-0.172-0.080-0.326-0.204-0.425l-0.001-0.001c-0.184-0.121-0.409-0.193-0.652-0.193-0.025 0-0.049 0.001-0.073 0.002l0.003-0h-0.79v1.362z"></path>
<path fill="#2e2e2e" style="fill: var(--color2, #2e2e2e)" d="M18.383 8.17v-4.684l4.684 4.684h-4.684z"></path>
<path fill="#2e2e2e" style="fill: var(--color2, #2e2e2e)" d="M23.067 9.191h-4.684l-1.021-1.021v-4.684l1.743-0.722 4.684 4.684zM19.404 7.149h1.198l-1.198-1.198v1.198z"></path>
</symbol>
</defs>
</svg>
