<svg width="521" height="771" viewBox="0 0 521 771" fill="none" xmlns="http://www.w3.org/2000/svg">
<path d="M519.995 514.109L519.951 529.989L102.691 769.662L102.735 753.783L519.995 514.109Z" stroke="#4D4D4D" stroke-miterlimit="10" stroke-linecap="round" stroke-linejoin="round"/>
<path d="M406.134 449.082L520 514.114L102.697 753.09L-319.273 514.249L-185.595 437.714" stroke="#4D4D4D" stroke-miterlimit="10" stroke-linecap="round" stroke-linejoin="round"/>
<path d="M405.485 462.991L466.373 497.802L362.698 555.822L100.787 408.035L-142.512 545.875L-246.187 487.856L-185.648 452.203" stroke="#4D4D4D" stroke-miterlimit="10" stroke-linecap="round" stroke-linejoin="round"/>
<path d="M102.753 753.784L102.709 769.664L-318.617 530.259L-318.573 514.38L102.753 753.784Z" stroke="#4D4D4D" stroke-miterlimit="10" stroke-linecap="round" stroke-linejoin="round"/>
<path d="M101.226 283.162V305.508L-141.59 445.213L-141.502 420.526L101.226 283.162Z" stroke="#4D4D4D" stroke-miterlimit="10" stroke-linecap="round" stroke-linejoin="round"/>
<path d="M363.036 430.461L362.948 455.149L101.23 305.508V283.162L363.036 430.461Z" stroke="#4D4D4D" stroke-miterlimit="10" stroke-linecap="round" stroke-linejoin="round"/>
<path d="M484.419 361L484.33 385.687L362.944 455.15L363.032 430.463L484.419 361Z" stroke="#4D4D4D" stroke-miterlimit="10" stroke-linecap="round" stroke-linejoin="round"/>
<path d="M319.142 267.022L484.412 360.999L363.026 430.461L101.22 283.162L-141.508 420.526L-263.688 351.063L-3.37951 202.115" stroke="#4D4D4D" stroke-miterlimit="10" stroke-linecap="round" stroke-linejoin="round"/>
<path d="M406.159 430.297L406.07 462.23L301.8 521.01L302.308 420.665" stroke="#4D4D4D" stroke-miterlimit="10" stroke-linecap="round" stroke-linejoin="round"/>
<path d="M302.309 420.666L301.801 521.012L101.033 408.289" stroke="#4D4D4D" stroke-miterlimit="10" stroke-linecap="round" stroke-linejoin="round"/>
<path d="M101.04 307.166V408.285L-81.625 511.062L-80.6535 410.679" stroke="#4D4D4D" stroke-miterlimit="10" stroke-linecap="round" stroke-linejoin="round"/>
<path d="M-62.0928 465.228V416.287L30.1694 363.832V412.772L-62.0928 465.228Z" stroke="#4D4D4D" stroke-miterlimit="10" stroke-linecap="round" stroke-linejoin="round"/>
<path d="M-37.6953 451.306V402.991L-37.3869 402.814L5.74816 377.884V426.2L5.43974 426.376L-37.6953 451.306Z" stroke="#4D4D4D" stroke-miterlimit="10" stroke-linecap="round" stroke-linejoin="round"/>
<path d="M277.024 473.118L184.762 420.663V371.722L277.024 424.177V473.118Z" stroke="#4D4D4D" stroke-miterlimit="10" stroke-linecap="round" stroke-linejoin="round"/>
<path d="M276.353 434.505L185.324 382.744V372.765L276.309 424.483V434.505H276.353Z" stroke="#4D4D4D" stroke-miterlimit="10" stroke-linecap="round" stroke-linejoin="round"/>
<path d="M159.127 410.674L118.855 387.765V338.824L159.127 361.733V410.674Z" stroke="#4D4D4D" stroke-miterlimit="10" stroke-linecap="round" stroke-linejoin="round"/>
<path d="M318.845 236.848V266.632L216.284 325.528L215.083 225.721" stroke="#4D4D4D" stroke-miterlimit="10" stroke-linecap="round" stroke-linejoin="round"/>
<path d="M216.245 225.944V325.518L-3.36328 202.105L-2.62403 101.618L216.245 225.944Z" stroke="#4D4D4D" stroke-miterlimit="10" stroke-linecap="round" stroke-linejoin="round"/>
<path d="M277.399 240.16L277.355 259.901L-20.415 91.0901L-20.371 71.3489L277.399 240.16Z" stroke="#4D4D4D" stroke-miterlimit="10" stroke-linecap="round" stroke-linejoin="round"/>
<path d="M398.823 170.668L398.779 190.409L277.393 259.872L277.437 240.131L398.823 170.668Z" stroke="#4D4D4D" stroke-miterlimit="10" stroke-linecap="round" stroke-linejoin="round"/>
<path d="M398.784 171.434L277.398 240.897L-20.9395 71.3828L99.4605 1L398.784 171.434Z" stroke="#4D4D4D" stroke-miterlimit="10" stroke-linecap="round" stroke-linejoin="round"/>
<path d="M201.367 290.194L109.104 237.738V188.798L201.367 241.253V290.194Z" stroke="#4D4D4D" stroke-miterlimit="10" stroke-linecap="round" stroke-linejoin="round"/>
<path d="M176.959 275.674L133.516 251.531V202.735L176.959 227.6V275.674Z" stroke="#4D4D4D" stroke-miterlimit="10" stroke-linecap="round" stroke-linejoin="round"/>
<path d="M68.9898 220.812L28.7188 197.904V149.006L68.9898 171.915V220.812Z" stroke="#4D4D4D" stroke-miterlimit="10" stroke-linecap="round" stroke-linejoin="round"/>
<path d="M405.5 580.687V595.826L509.68 535.638V520.719L405.5 580.687Z" stroke="#4D4D4D" stroke-miterlimit="10" stroke-linecap="round" stroke-linejoin="round"/>
<path d="M362.704 555.822L404.986 580.501L509.166 521.01L466.379 497.802L362.704 555.822Z" stroke="#4D4D4D" stroke-miterlimit="10" stroke-linecap="round" stroke-linejoin="round"/>
<path d="M70.3627 680.077C34.8501 676.52 0.835617 666.974 -26.5699 651.398C-97.5509 611.048 -97.5509 545.664 -26.5699 505.314C14.3621 482.058 69.9221 472.209 123.235 475.767" stroke="#4D4D4D" stroke-miterlimit="10" stroke-linecap="round" stroke-linejoin="round"/>
<path d="M175.356 483.795C195.316 488.828 214.041 495.987 230.432 505.272C301.413 545.622 301.413 611.007 230.432 651.357C200.691 668.278 163.152 678.083 124.423 680.817" stroke="#4D4D4D" stroke-miterlimit="10" stroke-linecap="round" stroke-linejoin="round"/>
<path d="M115.867 493.556L123.137 476.332L130.407 459.107L153.01 471.255L175.613 483.447L145.74 488.524L115.867 493.556Z" stroke="#4D4D4D" stroke-miterlimit="10" stroke-linecap="round" stroke-linejoin="round"/>
<path d="M124.384 681.253L122.886 698.955L96.6699 689.41L70.4541 679.821L98.168 671.708L125.838 663.594L124.384 681.253Z" stroke="#4D4D4D" stroke-miterlimit="10" stroke-linecap="round" stroke-linejoin="round"/>
<path d="M174.077 617.727C173.064 615.081 173.372 611.046 174.165 608.616C177.073 605.536 184.608 604.538 197.561 605.232C212.674 606.056 217.653 602.802 220.649 594.949C223.601 587.183 223.689 582.367 208.004 579.156C191.657 575.815 186.458 571.563 192.098 565.793C192.803 565.142 193.508 564.535 194.301 563.884C194.477 563.754 194.609 563.667 194.786 563.537H194.742C196.372 562.192 198.178 560.934 200.117 559.719C204.699 556.855 213.423 552.863 212.278 550.824C210.603 547.831 208.092 544.837 205.052 542.06C202.144 539.37 198.487 536.68 194.521 534.467C191.79 532.949 181.656 535.639 175.135 536.68C172.359 537.114 169.539 537.461 166.719 537.721H166.763C166.499 537.765 166.235 537.765 165.97 537.808C164.648 537.895 163.327 537.982 162.005 538.068C150.417 538.372 146.011 533.817 148.038 524.011C149.976 514.596 142.398 512.513 128.827 510.518C115.081 508.522 107.767 509.606 102.347 517.676C97.7209 524.575 92.7862 527.959 86.6177 528.089C82.4761 527.439 75.9992 525.79 72.2541 524.054C62.8692 519.802 58.1107 510.908 40.7951 518.154C23.4353 525.399 22.5982 524.749 30.7934 539.153C34.4945 545.661 26.872 551.866 14.8436 551.996C11.8034 552.039 8.67516 552.169 5.81125 551.735C-11.7247 549.262 -13.3109 556.074 -16.8798 563.103C-20.713 570.696 -17.5848 574.47 -4.49887 577.421C18.3243 582.497 20.3952 589.222 0.788381 598.203C-12.7381 604.364 -6.48158 609.007 -1.0181 614.56C5.45875 619.984 9.82071 625.06 25.5502 620.938C48.3734 614.951 58.0667 619.029 55.9077 632.913C54.674 640.853 59.2122 644.194 72.8709 645.625C85.5162 646.97 96.9719 649.183 100.893 639.161C101.554 637.512 103.14 635.95 104.55 634.431C110.146 628.401 123.32 627.273 131.912 632.045C150.902 642.675 150.285 641.937 169.451 636.341C188.441 630.787 176.589 624.366 174.077 617.727Z" stroke="#4D4D4D" stroke-miterlimit="10" stroke-linecap="round" stroke-linejoin="round"/>
<path d="M101.948 618.642C141.101 618.642 172.841 600.596 172.841 578.335C172.841 556.074 141.101 538.028 101.948 538.028C62.7946 538.028 31.0547 556.074 31.0547 578.335C31.0547 600.596 62.7946 618.642 101.948 618.642Z" stroke="#4D4D4D" stroke-miterlimit="10" stroke-linecap="round" stroke-linejoin="round"/>
<path d="M101.243 589.486C111.634 589.486 120.057 584.688 120.057 578.77C120.057 572.851 111.634 568.053 101.243 568.053C90.8529 568.053 82.4297 572.851 82.4297 578.77C82.4297 584.688 90.8529 589.486 101.243 589.486Z" stroke="#4D4D4D" stroke-miterlimit="10" stroke-linecap="round" stroke-linejoin="round"/>
</svg>
