<svg width="64" height="64" viewBox="0 0 64 64" fill="none" xmlns="http://www.w3.org/2000/svg">
<rect width="64" height="64" fill="#2E2E2E"/>
<path d="M23.7765 19.3661V34.6131C26.6652 36.4595 29.3366 37.0065 32.4416 37.0065C39.3735 37.0065 43.7056 32.2884 43.7056 25.7932C43.7056 19.5713 39.8787 15.1273 33.1635 15.1273C29.3366 15.1273 25.7985 16.973 23.7765 19.3661ZM18 10.6827H23.7765V14.3064C26.0152 11.8452 30.3476 9.99919 34.8242 9.99919C44.0667 9.99919 49.8432 16.4944 49.8432 25.5881C49.8432 34.955 43.1282 42.1341 32.9471 42.1341C29.481 42.1341 26.0871 41.4505 23.7765 40.0148V55.125H18V10.6827Z" fill="white"/>
</svg>
